<?xml version="1.0" encoding="utf-8"?>
<!-- Generator: Adobe Illustrator 27.0.0, SVG Export Plug-In . SVG Version: 6.00 Build 0)  -->
<svg version="1.1" id="Layer_1" xmlns="http://www.w3.org/2000/svg" xmlns:xlink="http://www.w3.org/1999/xlink" x="0px" y="0px"
	 viewBox="0 0 340 142.9" style="enable-background:new 0 0 340 142.9;" xml:space="preserve">
<style type="text/css">
	.st0{fill:#FFFFFF;stroke:#000000;stroke-miterlimit:10;}
	.st1{fill:#0A262C;}
</style>
<g>
	<path class="st0" d="M169.9,69.1c-24,0-43.5,22.5-43.5,22.5s19.5,22.5,43.5,22.5c24.1,0,43.5-22.5,43.5-22.5S193.9,69.1,169.9,69.1
		z M169.9,107.9c-9,0-16.3-7.3-16.3-16.3s7.3-16.3,16.3-16.3s16.3,7.3,16.3,16.3S178.9,107.9,169.9,107.9z"/>
	<g>
		<path class="st1" d="M338.8,42c-1.1-1.8-2.9-3.1-5-3.6c-2.1-0.5-4.3-0.2-6.1,0.9v0.1l-65.9,40.9c-0.8,0.5-1.7,0.6-2.6,0.4
			c-0.9-0.2-1.6-0.7-2.1-1.5c-0.5-0.8-0.6-1.7-0.4-2.6s0.8-1.6,1.5-2.1l54.4-33.8c1.8-1.2,3-3,3.5-5.1s0.1-4.3-1-6.1
			c-1.1-1.8-2.9-3.1-5-3.6c-2.1-0.5-4.3-0.2-6.1,0.9l-52.6,32.6l-1.8,1.1c-0.8,0.5-1.7,0.6-2.6,0.4c-0.9-0.2-1.6-0.7-2.1-1.5
			s-0.6-1.7-0.4-2.6c0.2-0.9,0.7-1.6,1.5-2.1l5.4-3.3l37.5-23.3c1.8-1.2,3-3,3.5-5.1c0.5-2.1,0.1-4.3-1-6.1c-1.1-1.8-2.9-3.1-5-3.6
			c-2.1-0.5-4.3-0.2-6.1,0.9l-28.9,17.9l-14,8.7c-0.8,0.5-1.7,0.6-2.6,0.4c-0.9-0.2-1.6-0.7-2.1-1.5c-0.5-0.8-0.6-1.7-0.4-2.6
			c0.2-0.9,0.7-1.6,1.5-2.1l14.8-9.2l16.5-10.3c1.6-1,2.8-2.5,3.4-4.3c0.6-1.8,0.6-3.8-0.1-5.5c-0.2-0.5-0.4-1-0.7-1.4
			c-1.1-1.8-3-3.2-5.1-3.7c-1.8-0.4-3.7-0.2-5.4,0.6l-12.3,7.6c-7,4.6-14.4,10.5-19.2,17c-1.3,1.8-2.4,3.7-3.2,5.6
			c-4.2,9.8-3.6,20.6-0.2,31.2c-3.9-5.8-8.2-11.4-12.9-16.5c-11.7-12.5-26.2-21.6-43.4-20c-9.9,1.2-19.2,5.3-26.7,11.8
			c-3,2.4-5.8,5.1-8.6,8c-4.7,5-9,10.5-12.9,16.2c3.2-10.3,3.7-20.9-0.4-30.5c-0.8-1.9-1.9-3.8-3.2-5.6C109.5,19.5,102,13.6,95,9
			L82.8,1.2c-1.7-0.8-3.6-1-5.4-0.6c-2.1,0.5-3.9,1.8-5.1,3.7c-0.3,0.4-0.5,0.9-0.7,1.4c-0.7,1.8-0.7,3.7-0.1,5.5
			c0.6,1.8,1.8,3.3,3.4,4.3l16.5,10.3l14.8,9.2c0.8,0.5,1.3,1.2,1.5,2.1c0.2,0.9,0.1,1.8-0.4,2.6s-1.2,1.3-2.1,1.5s-1.8,0.1-2.6-0.4
			l-14-8.8L59.8,14.2c-1.8-1.1-4-1.4-6.1-0.9c-2.1,0.5-3.9,1.8-5,3.6c-1.1,1.8-1.5,4-1,6.1c0.5,2.1,1.7,3.9,3.5,5.1l37.4,23.2
			l5.5,3.4c0.8,0.5,1.3,1.2,1.5,2.1c0.2,0.9,0.1,1.8-0.4,2.6s-1.2,1.3-2.1,1.5c-0.9,0.2-1.8,0.1-2.6-0.4l-1.9-1.2L36.1,26.7
			c-1.8-1.1-4-1.4-6.1-0.9s-3.9,1.8-5,3.6s-1.5,4-1,6.1c0.5,2.1,1.7,3.9,3.5,5.1l54.4,33.8c0.8,0.5,1.3,1.2,1.5,2.1
			c0.2,0.9,0.1,1.8-0.4,2.6s-1.2,1.3-2.1,1.5c-0.9,0.2-1.8,0.1-2.6-0.4l-66-40.9v-0.1c-1.8-1.1-4-1.4-6.1-0.9
			c-2.1,0.5-3.9,1.8-5,3.6c-1.1,1.8-1.5,4-1,6.1c0.5,2.1,1.7,3.9,3.5,5.1L56.6,86c0.6,0.3,1.2,0.7,1.8,1l24.5,15.2
			c1.2,0.8,2.6,1.3,4,1.5c0.6,0.1,1.1,0.1,1.7,0.1c0.9,0,1.7-0.1,2.5-0.3c1.4-0.3,2.7-0.9,3.9-1.8c0.7-0.5,1.4-1.1,1.9-1.8
			c-0.1,0.3-0.3,0.6-0.4,0.9c-3,6.8-5.5,13.8-7.2,21.1c-0.3,1.5-0.6,3-0.7,4.5v4.4c0.5,5.5,3.1,10.3,9.5,11.6
			c2.3,0.3,4.5,0.4,6.8,0.4h0.1c0.8,0,1.5,0,2.3-0.1h5.8h4c0.9,0,1.7,0,2.6,0H237c3.2,0,6.4-0.7,9.2-2.2c0.7-0.5,1.4-1.1,1.9-1.8
			c0.2-0.3,0.4-0.5,0.6-0.8c0.1-0.2,0.3-0.4,0.4-0.5c0.3-0.5,0.6-1.1,0.9-1.7v-0.2c0.2-0.5,0.4-1.1,0.6-1.7c0.1-0.2,0.1-0.4,0.2-0.6
			c0-0.4,0.2-0.8,0.2-1.2c0.5-3.4,0.3-6.8-0.5-10.1c-1.8-7.9-4.6-15.4-7.9-22.7c0-0.1-0.1-0.1-0.1-0.2c0.7,1,1.6,1.9,2.6,2.7
			c1.2,0.8,2.5,1.4,3.9,1.8c0.8,0.2,1.6,0.3,2.4,0.3c0.6,0,1.2,0,1.8-0.1c1.4-0.2,2.8-0.7,4-1.5L281.7,87c0.6-0.4,1.2-0.7,1.8-1
			l52.9-32.8c1.8-1.2,3-3,3.5-5.1C340.3,46,339.9,43.8,338.8,42z M169.9,114.1c-24,0-43.5-22.5-43.5-22.5s19.5-22.5,43.5-22.5
			s43.5,22.5,43.5,22.5S194,114.1,169.9,114.1z"/>
		
			<ellipse transform="matrix(0.9871 -0.1602 0.1602 0.9871 -12.4788 28.3977)" class="st1" cx="169.9" cy="91.6" rx="16.3" ry="16.3"/>
	</g>
</g>
</svg>
