<?xml version="1.0" encoding="utf-8"?>
<!-- Generator: Adobe Illustrator 26.0.2, SVG Export Plug-In . SVG Version: 6.00 Build 0)  -->
<svg version="1.1" id="Layer_1" xmlns="http://www.w3.org/2000/svg" xmlns:xlink="http://www.w3.org/1999/xlink" x="0px" y="0px"
	 viewBox="0 0 2648 5299" style="enable-background:new 0 0 2648 5299;" xml:space="preserve">
<style type="text/css">
	.st0{fill:none;stroke:#FF6737;stroke-width:5;}
	.st1{fill:#FF450B;}
	.st2{fill:none;stroke:#FF6737;stroke-width:5.002;}
	.st3{clip-path:url(#SVGID_00000116922900410687166290000015713291842339624381_);}
	.st4{fill:none;stroke:#FF6F42;stroke-width:6.8155;}
</style>
<path class="st0" d="M612.9,16.3c35.5,1.2,35.4,2.1,70.9,3.2"/>
<path class="st0" d="M891.9,13.1c35.5,1.2,35.4,2.1,70.9,3.2"/>
<g>
	<path class="st1" d="M2023.4,4.4L1954,6l-7.6,1.5l-9-1.5h-7.6l2.2,29l-0.3,16.4l1.7,10.6h-88.9l-1.2-24.5l-3.8-1.6l-2-27l-3.2-0.2
		L1814,7.8l-6.8-3.4h-77.7l0.1,10.6l-3.9,1.4L1723,62h-130.1l2.8-60c0,0-17.4-0.7-25-1.1c-13.4-0.7-54.3-1-54.3-1l-31,4.6
		c-27.4,0-83.8-4-83.8-4s0.2,25.4,0,34.2c-0.1,6.1-0.1,20.9,0,27.2h-51.9l2.9-55.5c0,0-17.4-0.6-25-1c-13.4-0.7-54.3-0.9-54.3-0.9
		l-31,4.1c-27.4,0-83.8-3.6-83.8-3.6s0.2,23.1,0,31c-0.1,5.9-0.1,20.9,0,25.8H993.1l-1.2-24.5l-3.8-1.6l-2-27l-3.2-0.2l-20.3-0.9
		l-6.8-3.4h-77.7l0.1,10.6l-3.9,1.4L871.7,62h-79.3l2.9-55.5c0,0-17.4-0.6-25-1C756.9,4.9,716,4.7,716,4.7l-31,4.1
		c-27.4,0-83.8-3.6-83.8-3.6s0.2,23.1,0,31c-0.2,7.1,0,27.3,0,27.3V2384h1440.6V65.5h1.8V52.4l1.7-14.5l1.5-27.4L2023.4,4.4z"/>
	<path class="st2" d="M1410.7,12.8c35.5,1.3,35.5,2.3,70.9,3.6"/>
	<path class="st2" d="M1759.8,15.7c35.5,1.2,35.5,2.1,70.9,3.2"/>
	<path class="st2" d="M1985.8,14.9c35.5,1.2,9.5-0.1,45,1.1"/>
	<path class="st2" d="M1167.6,16.3c35.5,1.2,35.5,2.1,70.9,3.2"/>
	<path class="st2" d="M607.2,16.3c35.5,1.2,35.5,2.1,70.9,3.2"/>
	<g>
		<defs>
			<path id="SVGID_1_" d="M2023.4,4.4L1954,6l-7.6,1.5l-9-1.5h-7.6l2.2,29l-0.3,16.4l1.7,10.6h-88.9l-1.2-24.5l-3.8-1.6l-2-27
				l-3.2-0.2L1814,7.8l-6.8-3.4h-77.7l0.1,10.6l-3.9,1.4L1723,62h-130.1l2.8-60c0,0-17.4-0.7-25-1.1c-13.4-0.7-54.3-1-54.3-1
				l-31,4.6c-27.4,0-83.8-4-83.8-4s0.2,25.4,0,34.2c-0.1,6.1-0.1,20.9,0,27.2h-51.9l2.9-55.5c0,0-17.4-0.6-25-1
				c-13.4-0.7-54.3-0.9-54.3-0.9l-31,4.1c-27.4,0-83.8-3.6-83.8-3.6s0.2,23.1,0,31c-0.1,5.9-0.1,20.9,0,25.8H993.1l-1.2-24.5
				l-3.8-1.6l-2-27l-3.2-0.2l-20.3-0.9l-6.8-3.4h-77.7l0.1,10.6l-3.9,1.4L871.7,62h-79.3l2.9-55.5c0,0-17.4-0.6-25-1
				C756.9,4.9,716,4.7,716,4.7l-31,4.1c-27.4,0-83.8-3.6-83.8-3.6s0.2,23.1,0,31c-0.2,7.1,0,27.3,0,27.3V2384h1440.6V65.5h1.8V52.4
				l1.7-14.5l1.5-27.4L2023.4,4.4z"/>
		</defs>
		<clipPath id="SVGID_00000021092947421376525620000000293473203935497407_">
			<use xlink:href="#SVGID_1_"  style="overflow:visible;"/>
		</clipPath>
		<g style="clip-path:url(#SVGID_00000021092947421376525620000000293473203935497407_);">
			<g>
				<g>
					<g>
						<g>
							<g>
								<path class="st4" d="M538,129.6c49.9,0,49.9-0.2,99.9-0.2"/>
							</g>
							<g>
								<path class="st4" d="M538,65.7c49.9,0,49.9-0.8,99.9-0.8"/>
							</g>
							<g>
								<path class="st4" d="M665.2,132.2c90.3,0,90.3,1.1,180.6,1.1"/>
							</g>
							<g>
								<path class="st4" d="M709,209.2c93.8,0,93.8,0.1,187.5,0.1"/>
							</g>
							<g>
								<path class="st4" d="M603.7,209.3c28.7,0,28.7-0.7,57.5-0.7"/>
							</g>
							<g>
								<path class="st4" d="M500.8,283c68.5,0,68.5-1,137.1-1"/>
							</g>
							<g>
								<path class="st4" d="M665.2,283.5c90.3,0,90.3,1.7,180.6,1.7"/>
							</g>
							<g>
								<path class="st4" d="M856.1,282c26.4,0,26.4,2.2,52.7,2.2"/>
							</g>
							<g>
								<path class="st4" d="M856.1,365.1c21.4,0,21.4-0.5,42.7-0.5"/>
							</g>
							<g>
								<path class="st4" d="M709,366.7c49.9,0,49.9-0.8,99.9-0.8"/>
							</g>
							<g>
								<path class="st4" d="M836.5,65.3c34.3,0,34.3,1.4,68.6,1.4"/>
							</g>
							<g>
								<path class="st4" d="M803.4,435.3c52.7,0,52.7,2.7,105.4,2.7"/>
							</g>
							<g>
								<path class="st4" d="M621.9,365.4c19.6,0,19.6,1.2,39.3,1.2"/>
							</g>
							<g>
								<path class="st4" d="M612.4,66.4c0,32.4-0.7,32.4-0.7,64.8"/>
							</g>
							<g>
								<path class="st4" d="M677.8,143.6c0,32.4,0.7,32.4,0.7,64.8"/>
							</g>
							<g>
								<path class="st4" d="M793.2,66.4c0,32.4,1.2,32.4,1.2,64.8"/>
							</g>
							<g>
								<path class="st4" d="M859.8,143.6c0,32.4,1.7,32.4,1.7,64.8"/>
							</g>
							<g>
								<path class="st4" d="M738.2,218c0,32.4,1.4,32.4,1.4,64.8"/>
							</g>
							<g>
								<path class="st4" d="M776.9,300.7c0,32.4,1.9,32.4,1.9,64.8"/>
							</g>
							<g>
								<path class="st4" d="M843.2,209.1c0,32.4,1.1,32.4,1.1,64.8"/>
							</g>
							<g>
								<path class="st4" d="M842.4,581.9c-49.9,0-49.9-2.5-99.9-2.5"/>
							</g>
							<g>
								<path class="st4" d="M700.2,582c-88.3,0-88.3-3.3-176.6-3.3"/>
							</g>
							<g>
								<path class="st4" d="M908.8,582.4c-10,0-10-3-20-3"/>
							</g>
							<g>
								<path class="st4" d="M774.9,580.5c0,32.4-0.5,32.4-0.5,64.8"/>
							</g>
							<g>
								<path class="st4" d="M677.3,580.5c0,32.4-1.6,32.4-1.6,64.8"/>
							</g>
							<g>
								<path class="st4" d="M702.2,148.6c31.5,0,31.5-2.2,62.9-2.2"/>
							</g>
							<g>
								<path class="st4" d="M603.7,438.2c90.3,0,90.3-0.8,180.6-0.8"/>
							</g>
							<g>
								<path class="st4" d="M678.9,519.4c64.3,0,64.3-0.1,128.6-0.1"/>
							</g>
							<g>
								<path class="st4" d="M836.2,520.3c36.3,0,36.3-2.1,72.6-2.1"/>
							</g>
							<g>
								<path class="st4" d="M707.7,66.7c49.9,0,49.9-1.5,99.9-1.5"/>
							</g>
							<g>
								<path class="st4" d="M647.5,519.7c6.2,0,6.2,0.6,12.3,0.6"/>
							</g>
							<g>
								<path class="st4" d="M887.8,453.7c0,32.4,2.7,32.4,2.7,64.8"/>
							</g>
							<g>
								<path class="st4" d="M732.1,366.9c0,32.4-0.8,32.4-0.8,64.8"/>
							</g>
							<g>
								<path class="st4" d="M777,453.7c0,32.4,0.3,32.4,0.3,64.8"/>
							</g>
							<g>
								<path class="st4" d="M699.4,301.4c31.5,0,31.5-1.8,62.9-1.8"/>
							</g>
							<g>
								<path class="st4" d="M741.8,380.5c31.5,0,31.5,0.7,62.9,0.7"/>
							</g>
						</g>
					</g>
				</g>
				<g>
					<g>
						<g>
							<g>
								<path class="st4" d="M906.8,130.6c98.5,0,98.5,0.8,197,0.8"/>
							</g>
							<g>
								<path class="st4" d="M923.2,65.7c49.4,0,49.4-1.7,98.8-1.7"/>
							</g>
							<g>
								<path class="st4" d="M1094.2,209.5c90.3,0,90.3-1.3,180.6-1.3"/>
							</g>
							<g>
								<path class="st4" d="M1135.3,131.7c49.9,0,49.9-1.1,99.9-1.1"/>
							</g>
							<g>
								<path class="st4" d="M1363.7,129.6c49.9,0,49.9-0.2,99.9-0.2"/>
							</g>
							<g>
								<path class="st4" d="M1363.7,65.7c49.9,0,49.9-0.8,99.9-0.8"/>
							</g>
							<g>
								<path class="st4" d="M1037.5,66.7c6.5,0,6.5,1.3,13,1.3"/>
							</g>
							<g>
								<path class="st4" d="M1303.6,132.8c11.5,0,11.5-2.2,23-2.2"/>
							</g>
							<g>
								<path class="st4" d="M1246.9,65.8c45.4,0,45.4,2.4,90.8,2.4"/>
							</g>
							<g>
								<path class="st4" d="M1491,132.2c90.3,0,90.3,1.1,180.6,1.1"/>
							</g>
							<g>
								<path class="st4" d="M1306.3,208.4c49.9,0,49.9-0.8,99.9-0.8"/>
							</g>
							<g>
								<path class="st4" d="M987.5,209.9c49.9,0,49.9-0.9,99.9-0.9"/>
							</g>
							<g>
								<path class="st4" d="M906.8,208.7c49.9,0,49.9,1.2,99.9,1.2"/>
							</g>
							<g>
								<path class="st4" d="M1534.8,209.2c93.8,0,93.8,0.1,187.5,0.1"/>
							</g>
							<g>
								<path class="st4" d="M1429.4,209.3c28.7,0,28.7-0.7,57.5-0.7"/>
							</g>
							<g>
								<path class="st4" d="M923.2,282.7c90.3,0,90.3,0.7,180.6,0.7"/>
							</g>
							<g>
								<path class="st4" d="M1203.6,366.9c61.5,0,61.5,0.7,122.9,0.7"/>
							</g>
							<g>
								<path class="st4" d="M1094.2,365c46.5,0,46.5,1.3,93,1.3"/>
							</g>
							<g>
								<path class="st4" d="M1135.3,281.3c78.5,0,78.5,2.7,157,2.7"/>
							</g>
							<g>
								<path class="st4" d="M1326.6,283c68.5,0,68.5-1,137.1-1"/>
							</g>
							<g>
								<path class="st4" d="M1303.6,283.4c6.2,0,6.2-2,12.3-2"/>
							</g>
							<g>
								<path class="st4" d="M1491,283.5c90.3,0,90.3,1.7,180.6,1.7"/>
							</g>
							<g>
								<path class="st4" d="M1681.8,282c26.4,0,26.4,2.2,52.7,2.2"/>
							</g>
							<g>
								<path class="st4" d="M1681.8,365.1c21.4,0,21.4-0.5,42.7-0.5"/>
							</g>
							<g>
								<path class="st4" d="M1337.8,363.6c34.2,0,34.2,0.3,68.4,0.3"/>
							</g>
							<g>
								<path class="st4" d="M1014,364.8c34.4,0,34.4,2.3,68.9,2.3"/>
							</g>
							<g>
								<path class="st4" d="M906.8,364.9c49.9,0,49.9-0.1,99.9-0.1"/>
							</g>
							<g>
								<path class="st4" d="M1534.8,366.7c49.9,0,49.9-0.8,99.9-0.8"/>
							</g>
							<g>
								<path class="st4" d="M1662.2,65.3c34.3,0,34.3,1.4,68.6,1.4"/>
							</g>
							<g>
								<path class="st4" d="M1629.1,435.3c52.7,0,52.7,2.7,105.4,2.7"/>
							</g>
							<g>
								<path class="st4" d="M1447.6,365.4c19.6,0,19.6,1.2,39.3,1.2"/>
							</g>
							<g>
								<path class="st4" d="M982.6,66.4c0,32.4-1.5,32.4-1.5,64.8"/>
							</g>
							<g>
								<path class="st4" d="M1049.8,143.6c0,32.4,0.6,32.4,0.6,64.8"/>
							</g>
							<g>
								<path class="st4" d="M927,218c0,32.4-1.5,32.4-1.5,64.8"/>
							</g>
							<g>
								<path class="st4" d="M967.6,300.7c0,32.4-1.4,32.4-1.4,64.8"/>
							</g>
							<g>
								<path class="st4" d="M1167.7,66.4c0,32.4,2,32.4,2,64.8"/>
							</g>
							<g>
								<path class="st4" d="M1238.6,143.6c0,32.4,0.1,32.4,0.1,64.8"/>
							</g>
							<g>
								<path class="st4" d="M1115.7,218c0,32.4-2.8,32.4-2.8,64.8"/>
							</g>
							<g>
								<path class="st4" d="M1153.8,300.7c0,32.4,1.1,32.4,1.1,64.8"/>
							</g>
							<g>
								<path class="st4" d="M1268.1,66.4c0,32.4,0.9,32.4,0.9,64.8"/>
							</g>
							<g>
								<path class="st4" d="M1339,143.6c0,32.4-3,32.4-3,64.8"/>
							</g>
							<g>
								<path class="st4" d="M1212.7,218c0,32.4,3.4,32.4,3.4,64.8"/>
							</g>
							<g>
								<path class="st4" d="M1252.4,300.7c0,32.4,2.6,32.4,2.6,64.8"/>
							</g>
							<g>
								<path class="st4" d="M1438.1,66.4c0,32.4-0.7,32.4-0.7,64.8"/>
							</g>
							<g>
								<path class="st4" d="M1503.5,143.6c0,32.4,0.7,32.4,0.7,64.8"/>
							</g>
							<g>
								<path class="st4" d="M1380.4,218c0,32.4-0.7,32.4-0.7,64.8"/>
							</g>
							<g>
								<path class="st4" d="M1422.8,300.7c0,32.4-3.4,32.4-3.4,64.8"/>
							</g>
							<g>
								<path class="st4" d="M1619,66.4c0,32.4,1.2,32.4,1.2,64.8"/>
							</g>
							<g>
								<path class="st4" d="M1685.5,143.6c0,32.4,1.7,32.4,1.7,64.8"/>
							</g>
							<g>
								<path class="st4" d="M1564,218c0,32.4,1.4,32.4,1.4,64.8"/>
							</g>
							<g>
								<path class="st4" d="M1602.6,300.7c0,32.4,1.9,32.4,1.9,64.8"/>
							</g>
							<g>
								<path class="st4" d="M1669,209.1c0,32.4,1.1,32.4,1.1,64.8"/>
							</g>
							<g>
								<path class="st4" d="M1065.5,145.7c31.5,0,31.5-1.8,62.9-1.8"/>
							</g>
							<g>
								<path class="st4" d="M943.8,221.2c31.5,0,31.5,0.2,62.9,0.2"/>
							</g>
							<g>
								<path class="st4" d="M1124.3,222.5c31.5,0,31.5-0.3,62.9-0.3"/>
							</g>
							<g>
								<path class="st4" d="M1220.7,582.4c-49.9,0-49.9-3.7-99.9-3.7"/>
							</g>
							<g>
								<path class="st4" d="M1668.1,581.9c-49.9,0-49.9-2.5-99.9-2.5"/>
							</g>
							<g>
								<path class="st4" d="M1525.9,582c-88.3,0-88.3-3.3-176.6-3.3"/>
							</g>
							<g>
								<path class="st4" d="M1301.4,579.8c-27.3,0-27.3-1-54.5-1"/>
							</g>
							<g>
								<path class="st4" d="M1734.6,582.4c-10,0-10-3-20-3"/>
							</g>
							<g>
								<path class="st4" d="M1146.6,580.5c0,32.4,2.6,32.4,2.6,64.8"/>
							</g>
							<g>
								<path class="st4" d="M987.1,593.1c0,26.1,0,26.1,0,52.2"/>
							</g>
							<g>
								<path class="st4" d="M1336.3,580.5c0,32.4-1.2,32.4-1.2,64.8"/>
							</g>
							<g>
								<path class="st4" d="M929.5,515.1c0,32.4-0.1,32.4-0.1,64.8"/>
							</g>
							<g>
								<path class="st4" d="M1027.4,518.9c0,32.4,0.6,32.4,0.6,64.8"/>
							</g>
							<g>
								<path class="st4" d="M1600.6,580.5c0,32.4-0.5,32.4-0.5,64.8"/>
							</g>
							<g>
								<path class="st4" d="M1197.3,515.1c0,32.4-0.6,32.4-0.6,64.8"/>
							</g>
							<g>
								<path class="st4" d="M1503.1,580.5c0,32.4-1.6,32.4-1.6,64.8"/>
							</g>
							<g>
								<path class="st4" d="M1377.9,515.1c0,32.4-1.8,32.4-1.8,64.8"/>
							</g>
							<g>
								<path class="st4" d="M1001.9,529c-31.5,0-31.5-0.1-62.9-0.1"/>
							</g>
							<g>
								<path class="st4" d="M1165.4,298.1c31.5,0,31.5,2,62.9,2"/>
							</g>
							<g>
								<path class="st4" d="M1527.9,148.6c31.5,0,31.5-2.2,62.9-2.2"/>
							</g>
							<g>
								<path class="st4" d="M1073.7,436.7c49.9,0,49.9-0.9,99.9-0.9"/>
							</g>
							<g>
								<path class="st4" d="M936.2,437.5c38.6,0,38.6-0.5,77.3-0.5"/>
							</g>
							<g>
								<path class="st4" d="M1302.2,436.5c49.9,0,49.9,1.5,99.9,1.5"/>
							</g>
							<g>
								<path class="st4" d="M1242,435.8c15.7,0,15.7,2.2,31.5,2.2"/>
							</g>
							<g>
								<path class="st4" d="M1092.9,519.9c90.3,0,90.3-0.9,180.6-0.9"/>
							</g>
							<g>
								<path class="st4" d="M1429.4,438.2c90.3,0,90.3-0.8,180.6-0.8"/>
							</g>
							<g>
								<path class="st4" d="M1304.9,517c49.9,0,49.9,1.6,99.9,1.6"/>
							</g>
							<g>
								<path class="st4" d="M995.7,517.5c45.1,0,45.1,1.5,90.3,1.5"/>
							</g>
							<g>
								<path class="st4" d="M905.5,518.6c40.4,0,40.4,1.3,80.7,1.3"/>
							</g>
							<g>
								<path class="st4" d="M1504.7,519.4c64.3,0,64.3-0.1,128.6-0.1"/>
							</g>
							<g>
								<path class="st4" d="M1662,520.3c36.3,0,36.3-2.1,72.6-2.1"/>
							</g>
							<g>
								<path class="st4" d="M1533.4,66.7c49.9,0,49.9-1.5,99.9-1.5"/>
							</g>
							<g>
								<path class="st4" d="M1473.2,519.7c6.2,0,6.2,0.6,12.3,0.6"/>
							</g>
							<g>
								<path class="st4" d="M920.1,366.9c0,32.4-1.2,32.4-1.2,64.8"/>
							</g>
							<g>
								<path class="st4" d="M966.4,453.7c0,32.4,0.4,32.4,0.4,64.8"/>
							</g>
							<g>
								<path class="st4" d="M1108.1,365.5c0,27-0.8,27-0.8,54"/>
							</g>
							<g>
								<path class="st4" d="M1153.5,453.7c0,32.4-1.2,32.4-1.2,64.8"/>
							</g>
							<g>
								<path class="st4" d="M1218.8,366.9c0,32.4-1.5,32.4-1.5,64.8"/>
							</g>
							<g>
								<path class="st4" d="M1253.4,453.7c0,32.4-1.6,32.4-1.6,64.8"/>
							</g>
							<g>
								<path class="st4" d="M1374.3,384.1c0,23.8,1.2,23.8,1.2,47.5"/>
							</g>
							<g>
								<path class="st4" d="M1421,453.7c0,32.4-0.4,32.4-0.4,64.8"/>
							</g>
							<g>
								<path class="st4" d="M1713.5,453.7c0,32.4,2.7,32.4,2.7,64.8"/>
							</g>
							<g>
								<path class="st4" d="M1557.8,366.9c0,32.4-0.8,32.4-0.8,64.8"/>
							</g>
							<g>
								<path class="st4" d="M1602.7,453.7c0,32.4,0.3,32.4,0.3,64.8"/>
							</g>
							<g>
								<path class="st4" d="M929.3,377c31.5,0,31.5,2.9,62.9,2.9"/>
							</g>
							<g>
								<path class="st4" d="M1525.2,301.4c31.5,0,31.5-1.8,62.9-1.8"/>
							</g>
							<g>
								<path class="st4" d="M1103.8,452.9c31.5,0,31.5-1.4,62.9-1.4"/>
							</g>
							<g>
								<path class="st4" d="M1077.8,65.2c59.5,0,59.5,1.8,119.1,1.8"/>
							</g>
							<g>
								<path class="st4" d="M1567.5,380.5c31.5,0,31.5,0.7,62.9,0.7"/>
							</g>
						</g>
					</g>
				</g>
				<g>
					<g>
						<g>
							<g>
								<path class="st4" d="M1735.9,130.6c98.5,0,98.5,0.8,197,0.8"/>
							</g>
							<g>
								<path class="st4" d="M1752.4,65.7c49.4,0,49.4-1.7,98.8-1.7"/>
							</g>
							<g>
								<path class="st4" d="M1923.4,209.5c90.3,0,90.3-1.3,180.6-1.3"/>
							</g>
							<g>
								<path class="st4" d="M1964.4,131.7c49.9,0,49.9-1.1,99.9-1.1"/>
							</g>
							<g>
								<path class="st4" d="M2192.9,129.6"/>
							</g>
							<g>
								<path class="st4" d="M1866.6,66.7c6.5,0,6.5,1.3,13,1.3"/>
							</g>
							<g>
								<path class="st4" d="M1816.7,209.9c49.9,0,49.9-0.9,99.9-0.9"/>
							</g>
							<g>
								<path class="st4" d="M1735.9,208.7c49.9,0,49.9,1.2,99.9,1.2"/>
							</g>
							<g>
								<path class="st4" d="M1752.4,282.7c90.3,0,90.3,0.7,180.6,0.7"/>
							</g>
							<g>
								<path class="st4" d="M2032.8,366.9c61.5,0,61.5,0.7,122.9,0.7"/>
							</g>
							<g>
								<path class="st4" d="M1923.4,365c46.5,0,46.5,1.3,93,1.3"/>
							</g>
							<g>
								<path class="st4" d="M1964.4,281.3c78.5,0,78.5,2.7,157,2.7"/>
							</g>
							<g>
								<path class="st4" d="M2155.7,283"/>
							</g>
							<g>
								<path class="st4" d="M1843.1,364.8c34.4,0,34.4,2.3,68.9,2.3"/>
							</g>
							<g>
								<path class="st4" d="M1735.9,364.9c49.9,0,49.9-0.1,99.9-0.1"/>
							</g>
							<g>
								<path class="st4" d="M1811.7,66.4c0,32.4-1.5,32.4-1.5,64.8"/>
							</g>
							<g>
								<path class="st4" d="M1878.9,143.6c0,32.4,0.6,32.4,0.6,64.8"/>
							</g>
							<g>
								<path class="st4" d="M1756.1,218c0,32.4-1.5,32.4-1.5,64.8"/>
							</g>
							<g>
								<path class="st4" d="M1796.7,300.7c0,32.4-1.4,32.4-1.4,64.8"/>
							</g>
							<g>
								<path class="st4" d="M1996.8,66.4c0,32.4,2,32.4,2,64.8"/>
							</g>
							<g>
								<path class="st4" d="M1944.8,218c0,32.4-2.8,32.4-2.8,64.8"/>
							</g>
							<g>
								<path class="st4" d="M1982.9,300.7c0,32.4,1.1,32.4,1.1,64.8"/>
							</g>
							<g>
								<path class="st4" d="M2041.8,218c0,32.4,3.4,32.4,3.4,64.8"/>
							</g>
							<g>
								<path class="st4" d="M1894.6,145.7c31.5,0,31.5-1.8,62.9-1.8"/>
							</g>
							<g>
								<path class="st4" d="M1772.9,221.2c31.5,0,31.5,0.2,62.9,0.2"/>
							</g>
							<g>
								<path class="st4" d="M1953.5,222.5c31.5,0,31.5-0.3,62.9-0.3"/>
							</g>
							<g>
								<path class="st4" d="M2049.8,582.4c-49.9,0-49.9-3.7-99.9-3.7"/>
							</g>
							<g>
								<path class="st4" d="M2178.4,579.1"/>
							</g>
							<g>
								<path class="st4" d="M1975.7,580.5c0,32.4,2.6,32.4,2.6,64.8"/>
							</g>
							<g>
								<path class="st4" d="M1816.2,593.1c0,26.1,0,26.1,0,52.2"/>
							</g>
							<g>
								<path class="st4" d="M1758.7,515.1c0,32.4-0.1,32.4-0.1,64.8"/>
							</g>
							<g>
								<path class="st4" d="M1856.5,518.9c0,32.4,0.6,32.4,0.6,64.8"/>
							</g>
							<g>
								<path class="st4" d="M2026.5,515.1c0,32.4-0.6,32.4-0.6,64.8"/>
							</g>
							<g>
								<path class="st4" d="M1831,529c-31.5,0-31.5-0.1-62.9-0.1"/>
							</g>
							<g>
								<path class="st4" d="M1994.5,298.1c31.5,0,31.5,2,62.9,2"/>
							</g>
							<g>
								<path class="st4" d="M1902.8,436.7c49.9,0,49.9-0.9,99.9-0.9"/>
							</g>
							<g>
								<path class="st4" d="M1765.4,437.5c38.6,0,38.6-0.5,77.3-0.5"/>
							</g>
							<g>
								<path class="st4" d="M1922,519.9c90.3,0,90.3-0.9,180.6-0.9"/>
							</g>
							<g>
								<path class="st4" d="M1824.9,517.5c45.1,0,45.1,1.5,90.3,1.5"/>
							</g>
							<g>
								<path class="st4" d="M1734.6,518.6c40.4,0,40.4,1.3,80.7,1.3"/>
							</g>
							<g>
								<path class="st4" d="M1749.2,366.9c0,32.4-1.2,32.4-1.2,64.8"/>
							</g>
							<g>
								<path class="st4" d="M1795.5,453.7c0,32.4,0.4,32.4,0.4,64.8"/>
							</g>
							<g>
								<path class="st4" d="M1937.2,365.5c0,27-0.8,27-0.8,54"/>
							</g>
							<g>
								<path class="st4" d="M1982.6,453.7c0,32.4-1.2,32.4-1.2,64.8"/>
							</g>
							<g>
								<path class="st4" d="M2047.9,366.9c0,32.4-1.5,32.4-1.5,64.8"/>
							</g>
							<g>
								<path class="st4" d="M1758.5,377c31.5,0,31.5,2.9,62.9,2.9"/>
							</g>
							<g>
								<path class="st4" d="M1932.9,452.9c31.5,0,31.5-1.4,62.9-1.4"/>
							</g>
							<g>
								<path class="st4" d="M1906.9,65.2c59.5,0,59.5,1.8,119.1,1.8"/>
							</g>
						</g>
					</g>
				</g>
			</g>
			<g>
				<g>
					<g>
						<g>
							<g>
								<path class="st4" d="M1853.9,711.8c90.3,0,90.3,1.1,180.6,1.1"/>
							</g>
							<g>
								<path class="st4" d="M1803.2,788.8c93.8,0,93.8,0.1,187.5,0.1"/>
							</g>
							<g>
								<path class="st4" d="M2038.6,788.9c28.7,0,28.7-0.7,57.5-0.7"/>
							</g>
							<g>
								<path class="st4" d="M2061.9,862.6"/>
							</g>
							<g>
								<path class="st4" d="M1853.9,863.1c90.3,0,90.3,1.7,180.6,1.7"/>
							</g>
							<g>
								<path class="st4" d="M1790.9,861.5c26.4,0,26.4,2.2,52.7,2.2"/>
							</g>
							<g>
								<path class="st4" d="M1800.9,944.6c21.4,0,21.4-0.5,42.7-0.5"/>
							</g>
							<g>
								<path class="st4" d="M2119.3,943.2"/>
							</g>
							<g>
								<path class="st4" d="M1890.9,946.3c49.9,0,49.9-0.8,99.9-0.8"/>
							</g>
							<g>
								<path class="st4" d="M1794.7,644.9c34.3,0,34.3,1.4,68.6,1.4"/>
							</g>
							<g>
								<path class="st4" d="M1790.9,1014.9c52.7,0,52.7,2.7,105.4,2.7"/>
							</g>
							<g>
								<path class="st4" d="M2038.6,945c19.6,0,19.6,1.2,39.3,1.2"/>
							</g>
							<g>
								<path class="st4" d="M2022,788c0-32.4-0.7-32.4-0.7-64.8"/>
							</g>
							<g>
								<path class="st4" d="M1906.5,710.8c0-32.4-1.2-32.4-1.2-64.8"/>
							</g>
							<g>
								<path class="st4" d="M1840,788c0-32.4-1.7-32.4-1.7-64.8"/>
							</g>
							<g>
								<path class="st4" d="M1961.5,862.4c0-32.4-1.4-32.4-1.4-64.8"/>
							</g>
							<g>
								<path class="st4" d="M1922.9,945.1c0-32.4-1.9-32.4-1.9-64.8"/>
							</g>
							<g>
								<path class="st4" d="M1856.5,853.4c0-32.4-1.1-32.4-1.1-64.8"/>
							</g>
							<g>
								<path class="st4" d="M1957.2,1161.4c-49.9,0-49.9-2.5-99.9-2.5"/>
							</g>
							<g>
								<path class="st4" d="M2176.2,1161.6c-88.3,0-88.3-3.3-176.6-3.3"/>
							</g>
							<g>
								<path class="st4" d="M1810.9,1162c-10,0-10-3-20-3"/>
							</g>
							<g>
								<path class="st4" d="M1924.9,1224.9c0-32.4,0.5-32.4,0.5-64.8"/>
							</g>
							<g>
								<path class="st4" d="M2022.4,1224.9c0-32.4,1.6-32.4,1.6-64.8"/>
							</g>
							<g>
								<path class="st4" d="M1934.6,728.2c31.5,0,31.5-2.2,62.9-2.2"/>
							</g>
							<g>
								<path class="st4" d="M1915.5,1017.8c90.3,0,90.3-0.8,180.6-0.8"/>
							</g>
							<g>
								<path class="st4" d="M1892.2,1099c64.3,0,64.3-0.1,128.6-0.1"/>
							</g>
							<g>
								<path class="st4" d="M1790.9,1099.9c36.3,0,36.3-2.1,72.6-2.1"/>
							</g>
							<g>
								<path class="st4" d="M1892.2,646.3c49.9,0,49.9-1.5,99.9-1.5"/>
							</g>
							<g>
								<path class="st4" d="M2040,1099.2c6.2,0,6.2,0.6,12.3,0.6"/>
							</g>
							<g>
								<path class="st4" d="M1812,1098.1c0-32.4-2.7-32.4-2.7-64.8"/>
							</g>
							<g>
								<path class="st4" d="M1967.7,1011.2c0-32.4,0.8-32.4,0.8-64.8"/>
							</g>
							<g>
								<path class="st4" d="M1922.8,1098.1c0-32.4-0.3-32.4-0.3-64.8"/>
							</g>
							<g>
								<path class="st4" d="M1937.4,880.9c31.5,0,31.5-1.8,62.9-1.8"/>
							</g>
							<g>
								<path class="st4" d="M1895,960.1c31.5,0,31.5,0.7,62.9,0.7"/>
							</g>
						</g>
					</g>
				</g>
				<g>
					<g>
						<g>
							<g>
								<path class="st4" d="M1595.9,710.2c98.5,0,98.5,0.8,197,0.8"/>
							</g>
							<g>
								<path class="st4" d="M1677.7,645.3c49.4,0,49.4-1.7,98.8-1.7"/>
							</g>
							<g>
								<path class="st4" d="M1424.9,789.1c90.3,0,90.3-1.3,180.6-1.3"/>
							</g>
							<g>
								<path class="st4" d="M1464.6,711.2c49.9,0,49.9-1.1,99.9-1.1"/>
							</g>
							<g>
								<path class="st4" d="M1236.1,709.2c49.9,0,49.9-0.2,99.9-0.2"/>
							</g>
							<g>
								<path class="st4" d="M1236.1,645.3c49.9,0,49.9-0.8,99.9-0.8"/>
							</g>
							<g>
								<path class="st4" d="M1649.3,646.3c6.5,0,6.5,1.3,13,1.3"/>
							</g>
							<g>
								<path class="st4" d="M1373.2,712.4c11.5,0,11.5-2.2,23-2.2"/>
							</g>
							<g>
								<path class="st4" d="M1362,645.4c45.4,0,45.4,2.4,90.8,2.4"/>
							</g>
							<g>
								<path class="st4" d="M1028.2,711.8c90.3,0,90.3,1.1,180.6,1.1"/>
							</g>
							<g>
								<path class="st4" d="M1293.6,788c49.9,0,49.9-0.8,99.9-0.8"/>
							</g>
							<g>
								<path class="st4" d="M1612.4,789.5c49.9,0,49.9-0.9,99.9-0.9"/>
							</g>
							<g>
								<path class="st4" d="M1693.1,788.3c49.9,0,49.9,1.2,99.9,1.2"/>
							</g>
							<g>
								<path class="st4" d="M977.5,788.8c93.8,0,93.8,0.1,187.5,0.1"/>
							</g>
							<g>
								<path class="st4" d="M1212.9,788.9c28.7,0,28.7-0.7,57.5-0.7"/>
							</g>
							<g>
								<path class="st4" d="M1595.9,862.3c90.3,0,90.3,0.7,180.6,0.7"/>
							</g>
							<g>
								<path class="st4" d="M1373.2,946.5c61.5,0,61.5,0.7,122.9,0.7"/>
							</g>
							<g>
								<path class="st4" d="M1512.5,944.6c46.5,0,46.5,1.3,93,1.3"/>
							</g>
							<g>
								<path class="st4" d="M1407.5,860.9c78.5,0,78.5,2.7,157,2.7"/>
							</g>
							<g>
								<path class="st4" d="M1236.1,862.6c68.5,0,68.5-1,137.1-1"/>
							</g>
							<g>
								<path class="st4" d="M1383.9,863c6.2,0,6.2-2,12.3-2"/>
							</g>
							<g>
								<path class="st4" d="M1028.2,863.1c90.3,0,90.3,1.7,180.6,1.7"/>
							</g>
							<g>
								<path class="st4" d="M965.2,861.5c26.4,0,26.4,2.2,52.7,2.2"/>
							</g>
							<g>
								<path class="st4" d="M975.2,944.6c21.4,0,21.4-0.5,42.7-0.5"/>
							</g>
							<g>
								<path class="st4" d="M1293.6,943.2c34.2,0,34.2,0.3,68.4,0.3"/>
							</g>
							<g>
								<path class="st4" d="M1616.9,944.4c34.4,0,34.4,2.3,68.9,2.3"/>
							</g>
							<g>
								<path class="st4" d="M1693.1,944.5c49.9,0,49.9-0.1,99.9-0.1"/>
							</g>
							<g>
								<path class="st4" d="M1065.1,946.3c49.9,0,49.9-0.8,99.9-0.8"/>
							</g>
							<g>
								<path class="st4" d="M969,644.9c34.3,0,34.3,1.4,68.6,1.4"/>
							</g>
							<g>
								<path class="st4" d="M965.2,1014.9c52.7,0,52.7,2.7,105.4,2.7"/>
							</g>
							<g>
								<path class="st4" d="M1212.9,945c19.6,0,19.6,1.2,39.3,1.2"/>
							</g>
							<g>
								<path class="st4" d="M1717.2,710.8c0-32.4,1.5-32.4,1.5-64.8"/>
							</g>
							<g>
								<path class="st4" d="M1650,788c0-32.4-0.6-32.4-0.6-64.8"/>
							</g>
							<g>
								<path class="st4" d="M1772.8,862.4c0-32.4,1.5-32.4,1.5-64.8"/>
							</g>
							<g>
								<path class="st4" d="M1732.1,945.1c0-32.4,1.4-32.4,1.4-64.8"/>
							</g>
							<g>
								<path class="st4" d="M1532.1,710.8c0-32.4-2-32.4-2-64.8"/>
							</g>
							<g>
								<path class="st4" d="M1461.1,788c0-32.4-0.1-32.4-0.1-64.8"/>
							</g>
							<g>
								<path class="st4" d="M1584.1,862.4c0-32.4,2.8-32.4,2.8-64.8"/>
							</g>
							<g>
								<path class="st4" d="M1545.9,945.1c0-32.4-1.1-32.4-1.1-64.8"/>
							</g>
							<g>
								<path class="st4" d="M1431.6,710.8c0-32.4-0.9-32.4-0.9-64.8"/>
							</g>
							<g>
								<path class="st4" d="M1360.8,788c0-32.4,3-32.4,3-64.8"/>
							</g>
							<g>
								<path class="st4" d="M1487.1,862.4c0-32.4-3.4-32.4-3.4-64.8"/>
							</g>
							<g>
								<path class="st4" d="M1447.4,945.1c0-32.4-2.6-32.4-2.6-64.8"/>
							</g>
							<g>
								<path class="st4" d="M1261.6,710.8c0-32.4,0.7-32.4,0.7-64.8"/>
							</g>
							<g>
								<path class="st4" d="M1196.2,788c0-32.4-0.7-32.4-0.7-64.8"/>
							</g>
							<g>
								<path class="st4" d="M1319.4,862.4c0-32.4,0.7-32.4,0.7-64.8"/>
							</g>
							<g>
								<path class="st4" d="M1277,945.1c0-32.4,3.4-32.4,3.4-64.8"/>
							</g>
							<g>
								<path class="st4" d="M1080.8,710.8c0-32.4-1.2-32.4-1.2-64.8"/>
							</g>
							<g>
								<path class="st4" d="M1014.2,788c0-32.4-1.7-32.4-1.7-64.8"/>
							</g>
							<g>
								<path class="st4" d="M1135.8,862.4c0-32.4-1.4-32.4-1.4-64.8"/>
							</g>
							<g>
								<path class="st4" d="M1097.2,945.1c0-32.4-1.9-32.4-1.9-64.8"/>
							</g>
							<g>
								<path class="st4" d="M1030.8,853.4c0-32.4-1.1-32.4-1.1-64.8"/>
							</g>
							<g>
								<path class="st4" d="M1571.3,725.3c31.5,0,31.5-1.8,62.9-1.8"/>
							</g>
							<g>
								<path class="st4" d="M1693.1,800.8c31.5,0,31.5,0.2,62.9,0.2"/>
							</g>
							<g>
								<path class="st4" d="M1512.5,802.1c31.5,0,31.5-0.3,62.9-0.3"/>
							</g>
							<g>
								<path class="st4" d="M1578.9,1161.9c-49.9,0-49.9-3.7-99.9-3.7"/>
							</g>
							<g>
								<path class="st4" d="M1131.5,1161.4c-49.9,0-49.9-2.5-99.9-2.5"/>
							</g>
							<g>
								<path class="st4" d="M1350.4,1161.6c-88.3,0-88.3-3.3-176.6-3.3"/>
							</g>
							<g>
								<path class="st4" d="M1452.8,1159.4c-27.3,0-27.3-1-54.5-1"/>
							</g>
							<g>
								<path class="st4" d="M985.2,1162c-10,0-10-3-20-3"/>
							</g>
							<g>
								<path class="st4" d="M1553.2,1224.9c0-32.4-2.6-32.4-2.6-64.8"/>
							</g>
							<g>
								<path class="st4" d="M1712.7,1224.9c0-26.1,0-26.1,0-52.2"/>
							</g>
							<g>
								<path class="st4" d="M1363.4,1224.9c0-32.4,1.2-32.4,1.2-64.8"/>
							</g>
							<g>
								<path class="st4" d="M1770.2,1159.4c0-32.4,0.1-32.4,0.1-64.8"/>
							</g>
							<g>
								<path class="st4" d="M1672.4,1163.3c0-32.4-0.6-32.4-0.6-64.8"/>
							</g>
							<g>
								<path class="st4" d="M1099.1,1224.9c0-32.4,0.5-32.4,0.5-64.8"/>
							</g>
							<g>
								<path class="st4" d="M1502.4,1159.4c0-32.4,0.6-32.4,0.6-64.8"/>
							</g>
							<g>
								<path class="st4" d="M1196.7,1224.9c0-32.4,1.6-32.4,1.6-64.8"/>
							</g>
							<g>
								<path class="st4" d="M1321.8,1159.4c0-32.4,1.8-32.4,1.8-64.8"/>
							</g>
							<g>
								<path class="st4" d="M1760.8,1108.6c-31.5,0-31.5-0.1-62.9-0.1"/>
							</g>
							<g>
								<path class="st4" d="M1471.4,877.7c31.5,0,31.5,2,62.9,2"/>
							</g>
							<g>
								<path class="st4" d="M1108.9,728.2c31.5,0,31.5-2.2,62.9-2.2"/>
							</g>
							<g>
								<path class="st4" d="M1526.2,1016.3c49.9,0,49.9-0.9,99.9-0.9"/>
							</g>
							<g>
								<path class="st4" d="M1686.2,1017.1c38.6,0,38.6-0.5,77.3-0.5"/>
							</g>
							<g>
								<path class="st4" d="M1297.7,1016.1c49.9,0,49.9,1.5,99.9,1.5"/>
							</g>
							<g>
								<path class="st4" d="M1426.3,1015.4c15.7,0,15.7,2.2,31.5,2.2"/>
							</g>
							<g>
								<path class="st4" d="M1426.3,1099.4c90.3,0,90.3-0.9,180.6-0.9"/>
							</g>
							<g>
								<path class="st4" d="M1089.8,1017.8c90.3,0,90.3-0.8,180.6-0.8"/>
							</g>
							<g>
								<path class="st4" d="M1295,1096.6c49.9,0,49.9,1.6,99.9,1.6"/>
							</g>
							<g>
								<path class="st4" d="M1613.7,1097.1c45.1,0,45.1,1.5,90.3,1.5"/>
							</g>
							<g>
								<path class="st4" d="M1713.6,1098.2c40.4,0,40.4,1.3,80.7,1.3"/>
							</g>
							<g>
								<path class="st4" d="M1066.5,1099c64.3,0,64.3-0.1,128.6-0.1"/>
							</g>
							<g>
								<path class="st4" d="M965.2,1099.9c36.3,0,36.3-2.1,72.6-2.1"/>
							</g>
							<g>
								<path class="st4" d="M1066.5,646.3c49.9,0,49.9-1.5,99.9-1.5"/>
							</g>
							<g>
								<path class="st4" d="M1214.3,1099.2c6.2,0,6.2,0.6,12.3,0.6"/>
							</g>
							<g>
								<path class="st4" d="M1779.7,1011.2c0-32.4,1.2-32.4,1.2-64.8"/>
							</g>
							<g>
								<path class="st4" d="M1733.4,1098.1c0-32.4-0.4-32.4-0.4-64.8"/>
							</g>
							<g>
								<path class="st4" d="M1591.7,999.1c0-27,0.8-27,0.8-54"/>
							</g>
							<g>
								<path class="st4" d="M1546.3,1098.1c0-32.4,1.2-32.4,1.2-64.8"/>
							</g>
							<g>
								<path class="st4" d="M1481,1011.2c0-32.4,1.5-32.4,1.5-64.8"/>
							</g>
							<g>
								<path class="st4" d="M1446.4,1098.1c0-32.4,1.6-32.4,1.6-64.8"/>
							</g>
							<g>
								<path class="st4" d="M1325.4,1011.2c0-23.8-1.2-23.8-1.2-47.5"/>
							</g>
							<g>
								<path class="st4" d="M1278.8,1098.1c0-32.4,0.4-32.4,0.4-64.8"/>
							</g>
							<g>
								<path class="st4" d="M986.3,1098.1c0-32.4-2.7-32.4-2.7-64.8"/>
							</g>
							<g>
								<path class="st4" d="M1142,1011.2c0-32.4,0.8-32.4,0.8-64.8"/>
							</g>
							<g>
								<path class="st4" d="M1097.1,1098.1c0-32.4-0.3-32.4-0.3-64.8"/>
							</g>
							<g>
								<path class="st4" d="M1707.5,956.5c31.5,0,31.5,2.9,62.9,2.9"/>
							</g>
							<g>
								<path class="st4" d="M1111.6,880.9c31.5,0,31.5-1.8,62.9-1.8"/>
							</g>
							<g>
								<path class="st4" d="M1533,1032.5c31.5,0,31.5-1.4,62.9-1.4"/>
							</g>
							<g>
								<path class="st4" d="M1502.9,644.8c59.5,0,59.5,1.8,119.1,1.8"/>
							</g>
							<g>
								<path class="st4" d="M1069.3,960.1c31.5,0,31.5,0.7,62.9,0.7"/>
							</g>
						</g>
					</g>
				</g>
				<g>
					<g>
						<g>
							<g>
								<path class="st4" d="M766.8,710.2c98.5,0,98.5,0.8,197,0.8"/>
							</g>
							<g>
								<path class="st4" d="M848.6,645.3c49.4,0,49.4-1.7,98.8-1.7"/>
							</g>
							<g>
								<path class="st4" d="M595.8,789.1c90.3,0,90.3-1.3,180.6-1.3"/>
							</g>
							<g>
								<path class="st4" d="M635.5,711.2c49.9,0,49.9-1.1,99.9-1.1"/>
							</g>
							<g>
								<path class="st4" d="M820.2,646.3c6.5,0,6.5,1.3,13,1.3"/>
							</g>
							<g>
								<path class="st4" d="M532.9,645.4c45.4,0,45.4,2.4,90.8,2.4"/>
							</g>
							<g>
								<path class="st4" d="M783.2,789.5c49.9,0,49.9-0.9,99.9-0.9"/>
							</g>
							<g>
								<path class="st4" d="M864,788.3c49.9,0,49.9,1.2,99.9,1.2"/>
							</g>
							<g>
								<path class="st4" d="M766.8,862.3c90.3,0,90.3,0.7,180.6,0.7"/>
							</g>
							<g>
								<path class="st4" d="M544.1,946.5c61.5,0,61.5,0.7,122.9,0.7"/>
							</g>
							<g>
								<path class="st4" d="M683.4,944.6c46.5,0,46.5,1.3,93,1.3"/>
							</g>
							<g>
								<path class="st4" d="M578.3,860.9c78.5,0,78.5,2.7,157,2.7"/>
							</g>
							<g>
								<path class="st4" d="M787.8,944.4c34.4,0,34.4,2.3,68.9,2.3"/>
							</g>
							<g>
								<path class="st4" d="M864,944.5c49.9,0,49.9-0.1,99.9-0.1"/>
							</g>
							<g>
								<path class="st4" d="M888.1,710.8c0-32.4,1.5-32.4,1.5-64.8"/>
							</g>
							<g>
								<path class="st4" d="M820.9,788c0-32.4-0.6-32.4-0.6-64.8"/>
							</g>
							<g>
								<path class="st4" d="M943.7,862.4c0-32.4,1.5-32.4,1.5-64.8"/>
							</g>
							<g>
								<path class="st4" d="M903,945.1c0-32.4,1.4-32.4,1.4-64.8"/>
							</g>
							<g>
								<path class="st4" d="M702.9,710.8c0-32.4-2-32.4-2-64.8"/>
							</g>
							<g>
								<path class="st4" d="M632,788c0-32.4-0.1-32.4-0.1-64.8"/>
							</g>
							<g>
								<path class="st4" d="M755,862.4c0-32.4,2.8-32.4,2.8-64.8"/>
							</g>
							<g>
								<path class="st4" d="M716.8,945.1c0-32.4-1.1-32.4-1.1-64.8"/>
							</g>
							<g>
								<path class="st4" d="M602.5,710.8c0-32.4-0.9-32.4-0.9-64.8"/>
							</g>
							<g>
								<path class="st4" d="M657.9,862.4c0-32.4-3.4-32.4-3.4-64.8"/>
							</g>
							<g>
								<path class="st4" d="M618.2,945.1c0-32.4-2.6-32.4-2.6-64.8"/>
							</g>
							<g>
								<path class="st4" d="M742.2,725.3c31.5,0,31.5-1.8,62.9-1.8"/>
							</g>
							<g>
								<path class="st4" d="M864,800.8c31.5,0,31.5,0.2,62.9,0.2"/>
							</g>
							<g>
								<path class="st4" d="M683.4,802.1c31.5,0,31.5-0.3,62.9-0.3"/>
							</g>
							<g>
								<path class="st4" d="M749.8,1161.9c-49.9,0-49.9-3.7-99.9-3.7"/>
							</g>
							<g>
								<path class="st4" d="M623.7,1159.4c-27.3,0-27.3-1-54.5-1"/>
							</g>
							<g>
								<path class="st4" d="M724.1,1224.9c0-32.4-2.6-32.4-2.6-64.8"/>
							</g>
							<g>
								<path class="st4" d="M883.6,1224.9c0-26.1,0-26.1,0-52.2"/>
							</g>
							<g>
								<path class="st4" d="M941.1,1159.4c0-32.4,0.1-32.4,0.1-64.8"/>
							</g>
							<g>
								<path class="st4" d="M843.2,1163.3c0-32.4-0.6-32.4-0.6-64.8"/>
							</g>
							<g>
								<path class="st4" d="M673.3,1159.4c0-32.4,0.6-32.4,0.6-64.8"/>
							</g>
							<g>
								<path class="st4" d="M931.7,1108.6c-31.5,0-31.5-0.1-62.9-0.1"/>
							</g>
							<g>
								<path class="st4" d="M642.3,877.7c31.5,0,31.5,2,62.9,2"/>
							</g>
							<g>
								<path class="st4" d="M697.1,1016.3c49.9,0,49.9-0.9,99.9-0.9"/>
							</g>
							<g>
								<path class="st4" d="M857.1,1017.1c38.6,0,38.6-0.5,77.3-0.5"/>
							</g>
							<g>
								<path class="st4" d="M597.2,1015.4c15.7,0,15.7,2.2,31.5,2.2"/>
							</g>
							<g>
								<path class="st4" d="M597.2,1099.4c90.3,0,90.3-0.9,180.6-0.9"/>
							</g>
							<g>
								<path class="st4" d="M784.6,1097.1c45.1,0,45.1,1.5,90.3,1.5"/>
							</g>
							<g>
								<path class="st4" d="M884.5,1098.2c40.4,0,40.4,1.3,80.7,1.3"/>
							</g>
							<g>
								<path class="st4" d="M950.6,1011.2c0-32.4,1.2-32.4,1.2-64.8"/>
							</g>
							<g>
								<path class="st4" d="M904.3,1098.1c0-32.4-0.4-32.4-0.4-64.8"/>
							</g>
							<g>
								<path class="st4" d="M762.6,999.1c0-27,0.8-27,0.8-54"/>
							</g>
							<g>
								<path class="st4" d="M717.2,1098.1c0-32.4,1.2-32.4,1.2-64.8"/>
							</g>
							<g>
								<path class="st4" d="M651.8,1011.2c0-32.4,1.5-32.4,1.5-64.8"/>
							</g>
							<g>
								<path class="st4" d="M617.3,1098.1c0-32.4,1.6-32.4,1.6-64.8"/>
							</g>
							<g>
								<path class="st4" d="M878.4,956.5c31.5,0,31.5,2.9,62.9,2.9"/>
							</g>
							<g>
								<path class="st4" d="M703.9,1032.5c31.5,0,31.5-1.4,62.9-1.4"/>
							</g>
							<g>
								<path class="st4" d="M673.8,644.8c59.5,0,59.5,1.8,119.1,1.8"/>
							</g>
						</g>
					</g>
				</g>
			</g>
			<g>
				<g>
					<g>
						<g>
							<g>
								<path class="st4" d="M538,1288.7c49.9,0,49.9-0.2,99.9-0.2"/>
							</g>
							<g>
								<path class="st4" d="M538,1224.9c49.9,0,49.9-0.8,99.9-0.8"/>
							</g>
							<g>
								<path class="st4" d="M665.2,1291.4c90.3,0,90.3,1.1,180.6,1.1"/>
							</g>
							<g>
								<path class="st4" d="M709,1368.4c93.8,0,93.8,0.1,187.5,0.1"/>
							</g>
							<g>
								<path class="st4" d="M603.7,1368.5c28.7,0,28.7-0.7,57.5-0.7"/>
							</g>
							<g>
								<path class="st4" d="M500.8,1442.1c68.5,0,68.5-1,137.1-1"/>
							</g>
							<g>
								<path class="st4" d="M665.2,1442.7c90.3,0,90.3,1.7,180.6,1.7"/>
							</g>
							<g>
								<path class="st4" d="M856.1,1441.1c26.4,0,26.4,2.2,52.7,2.2"/>
							</g>
							<g>
								<path class="st4" d="M856.1,1524.2c21.4,0,21.4-0.5,42.7-0.5"/>
							</g>
							<g>
								<path class="st4" d="M709,1525.8c49.9,0,49.9-0.8,99.9-0.8"/>
							</g>
							<g>
								<path class="st4" d="M836.5,1224.5c34.3,0,34.3,1.4,68.6,1.4"/>
							</g>
							<g>
								<path class="st4" d="M803.4,1594.5c52.7,0,52.7,2.7,105.4,2.7"/>
							</g>
							<g>
								<path class="st4" d="M621.9,1524.6c19.6,0,19.6,1.2,39.3,1.2"/>
							</g>
							<g>
								<path class="st4" d="M612.4,1225.6c0,32.4-0.7,32.4-0.7,64.8"/>
							</g>
							<g>
								<path class="st4" d="M677.8,1302.8c0,32.4,0.7,32.4,0.7,64.8"/>
							</g>
							<g>
								<path class="st4" d="M793.2,1225.6c0,32.4,1.2,32.4,1.2,64.8"/>
							</g>
							<g>
								<path class="st4" d="M859.8,1302.8c0,32.4,1.7,32.4,1.7,64.8"/>
							</g>
							<g>
								<path class="st4" d="M738.2,1377.2c0,32.4,1.4,32.4,1.4,64.8"/>
							</g>
							<g>
								<path class="st4" d="M776.9,1459.9c0,32.4,1.9,32.4,1.9,64.8"/>
							</g>
							<g>
								<path class="st4" d="M843.2,1368.2c0,32.4,1.1,32.4,1.1,64.8"/>
							</g>
							<g>
								<path class="st4" d="M842.4,1741c-49.9,0-49.9-2.5-99.9-2.5"/>
							</g>
							<g>
								<path class="st4" d="M700.2,1741.1c-88.3,0-88.3-3.3-176.6-3.3"/>
							</g>
							<g>
								<path class="st4" d="M908.8,1741.6c-10,0-10-3-20-3"/>
							</g>
							<g>
								<path class="st4" d="M774.9,1739.7c0,32.4-0.5,32.4-0.5,64.8"/>
							</g>
							<g>
								<path class="st4" d="M677.3,1739.7c0,32.4-1.6,32.4-1.6,64.8"/>
							</g>
							<g>
								<path class="st4" d="M702.2,1307.8c31.5,0,31.5-2.2,62.9-2.2"/>
							</g>
							<g>
								<path class="st4" d="M603.7,1597.4c90.3,0,90.3-0.8,180.6-0.8"/>
							</g>
							<g>
								<path class="st4" d="M678.9,1678.6c64.3,0,64.3-0.1,128.6-0.1"/>
							</g>
							<g>
								<path class="st4" d="M836.2,1679.4c36.3,0,36.3-2.1,72.6-2.1"/>
							</g>
							<g>
								<path class="st4" d="M707.7,1225.9c49.9,0,49.9-1.5,99.9-1.5"/>
							</g>
							<g>
								<path class="st4" d="M647.5,1678.8c6.2,0,6.2,0.6,12.3,0.6"/>
							</g>
							<g>
								<path class="st4" d="M887.8,1612.9c0,32.4,2.7,32.4,2.7,64.8"/>
							</g>
							<g>
								<path class="st4" d="M732.1,1526c0,32.4-0.8,32.4-0.8,64.8"/>
							</g>
							<g>
								<path class="st4" d="M777,1612.9c0,32.4,0.3,32.4,0.3,64.8"/>
							</g>
							<g>
								<path class="st4" d="M699.4,1460.5c31.5,0,31.5-1.8,62.9-1.8"/>
							</g>
							<g>
								<path class="st4" d="M741.8,1539.7c31.5,0,31.5,0.7,62.9,0.7"/>
							</g>
						</g>
					</g>
				</g>
				<g>
					<g>
						<g>
							<g>
								<path class="st4" d="M906.8,1289.8c98.5,0,98.5,0.8,197,0.8"/>
							</g>
							<g>
								<path class="st4" d="M923.2,1224.9c49.4,0,49.4-1.7,98.8-1.7"/>
							</g>
							<g>
								<path class="st4" d="M1094.2,1368.7c90.3,0,90.3-1.3,180.6-1.3"/>
							</g>
							<g>
								<path class="st4" d="M1135.3,1290.8c49.9,0,49.9-1.1,99.9-1.1"/>
							</g>
							<g>
								<path class="st4" d="M1363.7,1288.7c49.9,0,49.9-0.2,99.9-0.2"/>
							</g>
							<g>
								<path class="st4" d="M1363.7,1224.9c49.9,0,49.9-0.8,99.9-0.8"/>
							</g>
							<g>
								<path class="st4" d="M1037.5,1225.9c6.5,0,6.5,1.3,13,1.3"/>
							</g>
							<g>
								<path class="st4" d="M1303.6,1292c11.5,0,11.5-2.2,23-2.2"/>
							</g>
							<g>
								<path class="st4" d="M1246.9,1225c45.4,0,45.4,2.4,90.8,2.4"/>
							</g>
							<g>
								<path class="st4" d="M1491,1291.4c90.3,0,90.3,1.1,180.6,1.1"/>
							</g>
							<g>
								<path class="st4" d="M1306.3,1367.6c49.9,0,49.9-0.8,99.9-0.8"/>
							</g>
							<g>
								<path class="st4" d="M987.5,1369.1c49.9,0,49.9-0.9,99.9-0.9"/>
							</g>
							<g>
								<path class="st4" d="M906.8,1367.9c49.9,0,49.9,1.2,99.9,1.2"/>
							</g>
							<g>
								<path class="st4" d="M1534.8,1368.4c93.8,0,93.8,0.1,187.5,0.1"/>
							</g>
							<g>
								<path class="st4" d="M1429.4,1368.5c28.7,0,28.7-0.7,57.5-0.7"/>
							</g>
							<g>
								<path class="st4" d="M923.2,1441.9c90.3,0,90.3,0.7,180.6,0.7"/>
							</g>
							<g>
								<path class="st4" d="M1203.6,1526.1c61.5,0,61.5,0.7,122.9,0.7"/>
							</g>
							<g>
								<path class="st4" d="M1094.2,1524.2c46.5,0,46.5,1.3,93,1.3"/>
							</g>
							<g>
								<path class="st4" d="M1135.3,1440.5c78.5,0,78.5,2.7,157,2.7"/>
							</g>
							<g>
								<path class="st4" d="M1326.6,1442.1c68.5,0,68.5-1,137.1-1"/>
							</g>
							<g>
								<path class="st4" d="M1303.6,1442.6c6.2,0,6.2-2,12.3-2"/>
							</g>
							<g>
								<path class="st4" d="M1491,1442.7c90.3,0,90.3,1.7,180.6,1.7"/>
							</g>
							<g>
								<path class="st4" d="M1681.8,1441.1c26.4,0,26.4,2.2,52.7,2.2"/>
							</g>
							<g>
								<path class="st4" d="M1681.8,1524.2c21.4,0,21.4-0.5,42.7-0.5"/>
							</g>
							<g>
								<path class="st4" d="M1337.8,1522.8c34.2,0,34.2,0.3,68.4,0.3"/>
							</g>
							<g>
								<path class="st4" d="M1014,1524c34.4,0,34.4,2.3,68.9,2.3"/>
							</g>
							<g>
								<path class="st4" d="M906.8,1524.1c49.9,0,49.9-0.1,99.9-0.1"/>
							</g>
							<g>
								<path class="st4" d="M1534.8,1525.8c49.9,0,49.9-0.8,99.9-0.8"/>
							</g>
							<g>
								<path class="st4" d="M1662.2,1224.5c34.3,0,34.3,1.4,68.6,1.4"/>
							</g>
							<g>
								<path class="st4" d="M1629.1,1594.5c52.7,0,52.7,2.7,105.4,2.7"/>
							</g>
							<g>
								<path class="st4" d="M1447.6,1524.6c19.6,0,19.6,1.2,39.3,1.2"/>
							</g>
							<g>
								<path class="st4" d="M982.6,1225.6c0,32.4-1.5,32.4-1.5,64.8"/>
							</g>
							<g>
								<path class="st4" d="M1049.8,1302.8c0,32.4,0.6,32.4,0.6,64.8"/>
							</g>
							<g>
								<path class="st4" d="M927,1377.2c0,32.4-1.5,32.4-1.5,64.8"/>
							</g>
							<g>
								<path class="st4" d="M967.6,1459.9c0,32.4-1.4,32.4-1.4,64.8"/>
							</g>
							<g>
								<path class="st4" d="M1167.7,1225.6c0,32.4,2,32.4,2,64.8"/>
							</g>
							<g>
								<path class="st4" d="M1238.6,1302.8c0,32.4,0.1,32.4,0.1,64.8"/>
							</g>
							<g>
								<path class="st4" d="M1115.7,1377.2c0,32.4-2.8,32.4-2.8,64.8"/>
							</g>
							<g>
								<path class="st4" d="M1153.8,1459.9c0,32.4,1.1,32.4,1.1,64.8"/>
							</g>
							<g>
								<path class="st4" d="M1268.1,1225.6c0,32.4,0.9,32.4,0.9,64.8"/>
							</g>
							<g>
								<path class="st4" d="M1339,1302.8c0,32.4-3,32.4-3,64.8"/>
							</g>
							<g>
								<path class="st4" d="M1212.7,1377.2c0,32.4,3.4,32.4,3.4,64.8"/>
							</g>
							<g>
								<path class="st4" d="M1252.4,1459.9c0,32.4,2.6,32.4,2.6,64.8"/>
							</g>
							<g>
								<path class="st4" d="M1438.1,1225.6c0,32.4-0.7,32.4-0.7,64.8"/>
							</g>
							<g>
								<path class="st4" d="M1503.5,1302.8c0,32.4,0.7,32.4,0.7,64.8"/>
							</g>
							<g>
								<path class="st4" d="M1380.4,1377.2c0,32.4-0.7,32.4-0.7,64.8"/>
							</g>
							<g>
								<path class="st4" d="M1422.8,1459.9c0,32.4-3.4,32.4-3.4,64.8"/>
							</g>
							<g>
								<path class="st4" d="M1619,1225.6c0,32.4,1.2,32.4,1.2,64.8"/>
							</g>
							<g>
								<path class="st4" d="M1685.5,1302.8c0,32.4,1.7,32.4,1.7,64.8"/>
							</g>
							<g>
								<path class="st4" d="M1564,1377.2c0,32.4,1.4,32.4,1.4,64.8"/>
							</g>
							<g>
								<path class="st4" d="M1602.6,1459.9c0,32.4,1.9,32.4,1.9,64.8"/>
							</g>
							<g>
								<path class="st4" d="M1669,1368.2c0,32.4,1.1,32.4,1.1,64.8"/>
							</g>
							<g>
								<path class="st4" d="M1065.5,1304.9c31.5,0,31.5-1.8,62.9-1.8"/>
							</g>
							<g>
								<path class="st4" d="M943.8,1380.4c31.5,0,31.5,0.2,62.9,0.2"/>
							</g>
							<g>
								<path class="st4" d="M1124.3,1381.7c31.5,0,31.5-0.3,62.9-0.3"/>
							</g>
							<g>
								<path class="st4" d="M1220.7,1741.5c-49.9,0-49.9-3.7-99.9-3.7"/>
							</g>
							<g>
								<path class="st4" d="M1668.1,1741c-49.9,0-49.9-2.5-99.9-2.5"/>
							</g>
							<g>
								<path class="st4" d="M1525.9,1741.1c-88.3,0-88.3-3.3-176.6-3.3"/>
							</g>
							<g>
								<path class="st4" d="M1301.4,1739c-27.3,0-27.3-1-54.5-1"/>
							</g>
							<g>
								<path class="st4" d="M1734.6,1741.6c-10,0-10-3-20-3"/>
							</g>
							<g>
								<path class="st4" d="M1146.6,1739.7c0,32.4,2.6,32.4,2.6,64.8"/>
							</g>
							<g>
								<path class="st4" d="M987.1,1752.3c0,26.1,0,26.1,0,52.2"/>
							</g>
							<g>
								<path class="st4" d="M1336.3,1739.7c0,32.4-1.2,32.4-1.2,64.8"/>
							</g>
							<g>
								<path class="st4" d="M929.5,1674.2c0,32.4-0.1,32.4-0.1,64.8"/>
							</g>
							<g>
								<path class="st4" d="M1027.4,1678.1c0,32.4,0.6,32.4,0.6,64.8"/>
							</g>
							<g>
								<path class="st4" d="M1600.6,1739.7c0,32.4-0.5,32.4-0.5,64.8"/>
							</g>
							<g>
								<path class="st4" d="M1197.3,1674.2c0,32.4-0.6,32.4-0.6,64.8"/>
							</g>
							<g>
								<path class="st4" d="M1503.1,1739.7c0,32.4-1.6,32.4-1.6,64.8"/>
							</g>
							<g>
								<path class="st4" d="M1377.9,1674.2c0,32.4-1.8,32.4-1.8,64.8"/>
							</g>
							<g>
								<path class="st4" d="M1001.9,1688.2c-31.5,0-31.5-0.1-62.9-0.1"/>
							</g>
							<g>
								<path class="st4" d="M1165.4,1457.2c31.5,0,31.5,2,62.9,2"/>
							</g>
							<g>
								<path class="st4" d="M1527.9,1307.8c31.5,0,31.5-2.2,62.9-2.2"/>
							</g>
							<g>
								<path class="st4" d="M1073.7,1595.9c49.9,0,49.9-0.9,99.9-0.9"/>
							</g>
							<g>
								<path class="st4" d="M936.2,1596.6c38.6,0,38.6-0.5,77.3-0.5"/>
							</g>
							<g>
								<path class="st4" d="M1302.2,1595.7c49.9,0,49.9,1.5,99.9,1.5"/>
							</g>
							<g>
								<path class="st4" d="M1242,1594.9c15.7,0,15.7,2.2,31.5,2.2"/>
							</g>
							<g>
								<path class="st4" d="M1092.9,1679c90.3,0,90.3-0.9,180.6-0.9"/>
							</g>
							<g>
								<path class="st4" d="M1429.4,1597.4c90.3,0,90.3-0.8,180.6-0.8"/>
							</g>
							<g>
								<path class="st4" d="M1304.9,1676.2c49.9,0,49.9,1.6,99.9,1.6"/>
							</g>
							<g>
								<path class="st4" d="M995.7,1676.7c45.1,0,45.1,1.5,90.3,1.5"/>
							</g>
							<g>
								<path class="st4" d="M905.5,1677.8c40.4,0,40.4,1.3,80.7,1.3"/>
							</g>
							<g>
								<path class="st4" d="M1504.7,1678.6c64.3,0,64.3-0.1,128.6-0.1"/>
							</g>
							<g>
								<path class="st4" d="M1662,1679.4c36.3,0,36.3-2.1,72.6-2.1"/>
							</g>
							<g>
								<path class="st4" d="M1533.4,1225.9c49.9,0,49.9-1.5,99.9-1.5"/>
							</g>
							<g>
								<path class="st4" d="M1473.2,1678.8c6.2,0,6.2,0.6,12.3,0.6"/>
							</g>
							<g>
								<path class="st4" d="M920.1,1526c0,32.4-1.2,32.4-1.2,64.8"/>
							</g>
							<g>
								<path class="st4" d="M966.4,1612.9c0,32.4,0.4,32.4,0.4,64.8"/>
							</g>
							<g>
								<path class="st4" d="M1108.1,1524.7c0,27-0.8,27-0.8,54"/>
							</g>
							<g>
								<path class="st4" d="M1153.5,1612.9c0,32.4-1.2,32.4-1.2,64.8"/>
							</g>
							<g>
								<path class="st4" d="M1218.8,1526c0,32.4-1.5,32.4-1.5,64.8"/>
							</g>
							<g>
								<path class="st4" d="M1253.4,1612.9c0,32.4-1.6,32.4-1.6,64.8"/>
							</g>
							<g>
								<path class="st4" d="M1374.3,1543.3c0,23.8,1.2,23.8,1.2,47.5"/>
							</g>
							<g>
								<path class="st4" d="M1421,1612.9c0,32.4-0.4,32.4-0.4,64.8"/>
							</g>
							<g>
								<path class="st4" d="M1713.5,1612.9c0,32.4,2.7,32.4,2.7,64.8"/>
							</g>
							<g>
								<path class="st4" d="M1557.8,1526c0,32.4-0.8,32.4-0.8,64.8"/>
							</g>
							<g>
								<path class="st4" d="M1602.7,1612.9c0,32.4,0.3,32.4,0.3,64.8"/>
							</g>
							<g>
								<path class="st4" d="M929.3,1536.1c31.5,0,31.5,2.9,62.9,2.9"/>
							</g>
							<g>
								<path class="st4" d="M1525.2,1460.5c31.5,0,31.5-1.8,62.9-1.8"/>
							</g>
							<g>
								<path class="st4" d="M1103.8,1612.1c31.5,0,31.5-1.4,62.9-1.4"/>
							</g>
							<g>
								<path class="st4" d="M1077.8,1224.4c59.5,0,59.5,1.8,119.1,1.8"/>
							</g>
							<g>
								<path class="st4" d="M1567.5,1539.7c31.5,0,31.5,0.7,62.9,0.7"/>
							</g>
						</g>
					</g>
				</g>
				<g>
					<g>
						<g>
							<g>
								<path class="st4" d="M1735.9,1289.8c98.5,0,98.5,0.8,197,0.8"/>
							</g>
							<g>
								<path class="st4" d="M1752.4,1224.9c49.4,0,49.4-1.7,98.8-1.7"/>
							</g>
							<g>
								<path class="st4" d="M1923.4,1368.7c90.3,0,90.3-1.3,180.6-1.3"/>
							</g>
							<g>
								<path class="st4" d="M1964.4,1290.8c49.9,0,49.9-1.1,99.9-1.1"/>
							</g>
							<g>
								<path class="st4" d="M2192.9,1224.9"/>
							</g>
							<g>
								<path class="st4" d="M1866.6,1225.9c6.5,0,6.5,1.3,13,1.3"/>
							</g>
							<g>
								<path class="st4" d="M1816.7,1369.1c49.9,0,49.9-0.9,99.9-0.9"/>
							</g>
							<g>
								<path class="st4" d="M1735.9,1367.9c49.9,0,49.9,1.2,99.9,1.2"/>
							</g>
							<g>
								<path class="st4" d="M1752.4,1441.9c90.3,0,90.3,0.7,180.6,0.7"/>
							</g>
							<g>
								<path class="st4" d="M2032.8,1526.1c61.5,0,61.5,0.7,122.9,0.7"/>
							</g>
							<g>
								<path class="st4" d="M1923.4,1524.2c46.5,0,46.5,1.3,93,1.3"/>
							</g>
							<g>
								<path class="st4" d="M1964.4,1440.5c78.5,0,78.5,2.7,157,2.7"/>
							</g>
							<g>
								<path class="st4" d="M2155.7,1442.1"/>
							</g>
							<g>
								<path class="st4" d="M1843.1,1524c34.4,0,34.4,2.3,68.9,2.3"/>
							</g>
							<g>
								<path class="st4" d="M1735.9,1524.1c49.9,0,49.9-0.1,99.9-0.1"/>
							</g>
							<g>
								<path class="st4" d="M1811.7,1225.6c0,32.4-1.5,32.4-1.5,64.8"/>
							</g>
							<g>
								<path class="st4" d="M1878.9,1302.8c0,32.4,0.6,32.4,0.6,64.8"/>
							</g>
							<g>
								<path class="st4" d="M1756.1,1377.2c0,32.4-1.5,32.4-1.5,64.8"/>
							</g>
							<g>
								<path class="st4" d="M1796.7,1459.9c0,32.4-1.4,32.4-1.4,64.8"/>
							</g>
							<g>
								<path class="st4" d="M1996.8,1225.6c0,32.4,2,32.4,2,64.8"/>
							</g>
							<g>
								<path class="st4" d="M1944.8,1377.2c0,32.4-2.8,32.4-2.8,64.8"/>
							</g>
							<g>
								<path class="st4" d="M1982.9,1459.9c0,32.4,1.1,32.4,1.1,64.8"/>
							</g>
							<g>
								<path class="st4" d="M2041.8,1377.2c0,32.4,3.4,32.4,3.4,64.8"/>
							</g>
							<g>
								<path class="st4" d="M1894.6,1304.9c31.5,0,31.5-1.8,62.9-1.8"/>
							</g>
							<g>
								<path class="st4" d="M1772.9,1380.4c31.5,0,31.5,0.2,62.9,0.2"/>
							</g>
							<g>
								<path class="st4" d="M1953.5,1381.7c31.5,0,31.5-0.3,62.9-0.3"/>
							</g>
							<g>
								<path class="st4" d="M2049.8,1741.5c-49.9,0-49.9-3.7-99.9-3.7"/>
							</g>
							<g>
								<path class="st4" d="M2178.4,1738.2"/>
							</g>
							<g>
								<path class="st4" d="M1975.7,1739.7c0,32.4,2.6,32.4,2.6,64.8"/>
							</g>
							<g>
								<path class="st4" d="M1816.2,1752.3c0,26.1,0,26.1,0,52.2"/>
							</g>
							<g>
								<path class="st4" d="M1758.7,1674.2c0,32.4-0.1,32.4-0.1,64.8"/>
							</g>
							<g>
								<path class="st4" d="M1856.5,1678.1c0,32.4,0.6,32.4,0.6,64.8"/>
							</g>
							<g>
								<path class="st4" d="M2026.5,1674.2c0,32.4-0.6,32.4-0.6,64.8"/>
							</g>
							<g>
								<path class="st4" d="M1831,1688.2c-31.5,0-31.5-0.1-62.9-0.1"/>
							</g>
							<g>
								<path class="st4" d="M1994.5,1457.2c31.5,0,31.5,2,62.9,2"/>
							</g>
							<g>
								<path class="st4" d="M1902.8,1595.9c49.9,0,49.9-0.9,99.9-0.9"/>
							</g>
							<g>
								<path class="st4" d="M1765.4,1596.6c38.6,0,38.6-0.5,77.3-0.5"/>
							</g>
							<g>
								<path class="st4" d="M1922,1679c90.3,0,90.3-0.9,180.6-0.9"/>
							</g>
							<g>
								<path class="st4" d="M1824.9,1676.7c45.1,0,45.1,1.5,90.3,1.5"/>
							</g>
							<g>
								<path class="st4" d="M1734.6,1677.8c40.4,0,40.4,1.3,80.7,1.3"/>
							</g>
							<g>
								<path class="st4" d="M1749.2,1526c0,32.4-1.2,32.4-1.2,64.8"/>
							</g>
							<g>
								<path class="st4" d="M1795.5,1612.9c0,32.4,0.4,32.4,0.4,64.8"/>
							</g>
							<g>
								<path class="st4" d="M1937.2,1524.7c0,27-0.8,27-0.8,54"/>
							</g>
							<g>
								<path class="st4" d="M1982.6,1612.9c0,32.4-1.2,32.4-1.2,64.8"/>
							</g>
							<g>
								<path class="st4" d="M2047.9,1526c0,32.4-1.5,32.4-1.5,64.8"/>
							</g>
							<g>
								<path class="st4" d="M1758.5,1536.1c31.5,0,31.5,2.9,62.9,2.9"/>
							</g>
							<g>
								<path class="st4" d="M1932.9,1612.1c31.5,0,31.5-1.4,62.9-1.4"/>
							</g>
							<g>
								<path class="st4" d="M1906.9,1224.4c59.5,0,59.5,1.8,119.1,1.8"/>
							</g>
						</g>
					</g>
				</g>
			</g>
			<g>
				<g>
					<g>
						<g>
							<g>
								<path class="st4" d="M1853.9,1871c90.3,0,90.3,1.1,180.6,1.1"/>
							</g>
							<g>
								<path class="st4" d="M1803.2,1948c93.8,0,93.8,0.1,187.5,0.1"/>
							</g>
							<g>
								<path class="st4" d="M2038.6,1948c28.7,0,28.7-0.7,57.5-0.7"/>
							</g>
							<g>
								<path class="st4" d="M2198.9,2105.6"/>
							</g>
							<g>
								<path class="st4" d="M1853.9,2022.3c90.3,0,90.3,1.7,180.6,1.7"/>
							</g>
							<g>
								<path class="st4" d="M1790.9,2020.7c26.4,0,26.4,2.2,52.7,2.2"/>
							</g>
							<g>
								<path class="st4" d="M1800.9,2103.8c21.4,0,21.4-0.5,42.7-0.5"/>
							</g>
							<g>
								<path class="st4" d="M1890.9,2105.4c49.9,0,49.9-0.8,99.9-0.8"/>
							</g>
							<g>
								<path class="st4" d="M1794.7,1804.1c34.3,0,34.3,1.4,68.6,1.4"/>
							</g>
							<g>
								<path class="st4" d="M1790.9,2174.1c52.7,0,52.7,2.7,105.4,2.7"/>
							</g>
							<g>
								<path class="st4" d="M2038.6,2104.1c19.6,0,19.6,1.2,39.3,1.2"/>
							</g>
							<g>
								<path class="st4" d="M2022,1947.1c0-32.4-0.7-32.4-0.7-64.8"/>
							</g>
							<g>
								<path class="st4" d="M1906.5,1869.9c0-32.4-1.2-32.4-1.2-64.8"/>
							</g>
							<g>
								<path class="st4" d="M1840,1947.1c0-32.4-1.7-32.4-1.7-64.8"/>
							</g>
							<g>
								<path class="st4" d="M1961.5,2021.6c0-32.4-1.4-32.4-1.4-64.8"/>
							</g>
							<g>
								<path class="st4" d="M1922.9,2104.3c0-32.4-1.9-32.4-1.9-64.8"/>
							</g>
							<g>
								<path class="st4" d="M1856.5,2012.6c0-32.4-1.1-32.4-1.1-64.8"/>
							</g>
							<g>
								<path class="st4" d="M1957.2,2320.6c-49.9,0-49.9-2.5-99.9-2.5"/>
							</g>
							<g>
								<path class="st4" d="M2176.2,2320.7c-88.3,0-88.3-3.3-176.6-3.3"/>
							</g>
							<g>
								<path class="st4" d="M1810.9,2321.2c-10,0-10-3-20-3"/>
							</g>
							<g>
								<path class="st4" d="M1924.9,2384c0-32.4,0.5-32.4,0.5-64.8"/>
							</g>
							<g>
								<path class="st4" d="M2022.4,2384c0-32.4,1.6-32.4,1.6-64.8"/>
							</g>
							<g>
								<path class="st4" d="M1934.6,1887.4c31.5,0,31.5-2.2,62.9-2.2"/>
							</g>
							<g>
								<path class="st4" d="M1915.5,2177c90.3,0,90.3-0.8,180.6-0.8"/>
							</g>
							<g>
								<path class="st4" d="M1892.2,2258.2c64.3,0,64.3-0.1,128.6-0.1"/>
							</g>
							<g>
								<path class="st4" d="M1790.9,2259c36.3,0,36.3-2.1,72.6-2.1"/>
							</g>
							<g>
								<path class="st4" d="M1892.2,1805.4c49.9,0,49.9-1.5,99.9-1.5"/>
							</g>
							<g>
								<path class="st4" d="M2040,2258.4c6.2,0,6.2,0.6,12.3,0.6"/>
							</g>
							<g>
								<path class="st4" d="M1812,2257.2c0-32.4-2.7-32.4-2.7-64.8"/>
							</g>
							<g>
								<path class="st4" d="M1967.7,2170.4c0-32.4,0.8-32.4,0.8-64.8"/>
							</g>
							<g>
								<path class="st4" d="M1922.8,2257.2c0-32.4-0.3-32.4-0.3-64.8"/>
							</g>
							<g>
								<path class="st4" d="M1937.4,2040.1c31.5,0,31.5-1.8,62.9-1.8"/>
							</g>
							<g>
								<path class="st4" d="M1895,2119.3c31.5,0,31.5,0.7,62.9,0.7"/>
							</g>
						</g>
					</g>
				</g>
				<g>
					<g>
						<g>
							<g>
								<path class="st4" d="M1595.9,1869.4c98.5,0,98.5,0.8,197,0.8"/>
							</g>
							<g>
								<path class="st4" d="M1677.7,1804.4c49.4,0,49.4-1.7,98.8-1.7"/>
							</g>
							<g>
								<path class="st4" d="M1424.9,1948.3c90.3,0,90.3-1.3,180.6-1.3"/>
							</g>
							<g>
								<path class="st4" d="M1464.6,1870.4c49.9,0,49.9-1.1,99.9-1.1"/>
							</g>
							<g>
								<path class="st4" d="M1236.1,1868.3c49.9,0,49.9-0.2,99.9-0.2"/>
							</g>
							<g>
								<path class="st4" d="M1236.1,1804.5c49.9,0,49.9-0.8,99.9-0.8"/>
							</g>
							<g>
								<path class="st4" d="M1649.3,1805.4c6.5,0,6.5,1.3,13,1.3"/>
							</g>
							<g>
								<path class="st4" d="M1373.2,1871.5c11.5,0,11.5-2.2,23-2.2"/>
							</g>
							<g>
								<path class="st4" d="M1362,1804.6c45.4,0,45.4,2.4,90.8,2.4"/>
							</g>
							<g>
								<path class="st4" d="M1028.2,1871c90.3,0,90.3,1.1,180.6,1.1"/>
							</g>
							<g>
								<path class="st4" d="M1293.6,1947.2c49.9,0,49.9-0.8,99.9-0.8"/>
							</g>
							<g>
								<path class="st4" d="M1612.4,1948.7c49.9,0,49.9-0.9,99.9-0.9"/>
							</g>
							<g>
								<path class="st4" d="M1693.1,1947.5c49.9,0,49.9,1.2,99.9,1.2"/>
							</g>
							<g>
								<path class="st4" d="M977.5,1948c93.8,0,93.8,0.1,187.5,0.1"/>
							</g>
							<g>
								<path class="st4" d="M1212.9,1948c28.7,0,28.7-0.7,57.5-0.7"/>
							</g>
							<g>
								<path class="st4" d="M1595.9,2021.4c90.3,0,90.3,0.7,180.6,0.7"/>
							</g>
							<g>
								<path class="st4" d="M1373.2,2105.6c61.5,0,61.5,0.7,122.9,0.7"/>
							</g>
							<g>
								<path class="st4" d="M1512.5,2103.8c46.5,0,46.5,1.3,93,1.3"/>
							</g>
							<g>
								<path class="st4" d="M1407.5,2020c78.5,0,78.5,2.7,157,2.7"/>
							</g>
							<g>
								<path class="st4" d="M1236.1,2021.7c68.5,0,68.5-1,137.1-1"/>
							</g>
							<g>
								<path class="st4" d="M1383.9,2022.1c6.2,0,6.2-2,12.3-2"/>
							</g>
							<g>
								<path class="st4" d="M1028.2,2022.3c90.3,0,90.3,1.7,180.6,1.7"/>
							</g>
							<g>
								<path class="st4" d="M965.2,2020.7c26.4,0,26.4,2.2,52.7,2.2"/>
							</g>
							<g>
								<path class="st4" d="M975.2,2103.8c21.4,0,21.4-0.5,42.7-0.5"/>
							</g>
							<g>
								<path class="st4" d="M1293.6,2102.3c34.2,0,34.2,0.3,68.4,0.3"/>
							</g>
							<g>
								<path class="st4" d="M1616.9,2103.5c34.4,0,34.4,2.3,68.9,2.3"/>
							</g>
							<g>
								<path class="st4" d="M1693.1,2103.7c49.9,0,49.9-0.1,99.9-0.1"/>
							</g>
							<g>
								<path class="st4" d="M1065.1,2105.4c49.9,0,49.9-0.8,99.9-0.8"/>
							</g>
							<g>
								<path class="st4" d="M969,1804.1c34.3,0,34.3,1.4,68.6,1.4"/>
							</g>
							<g>
								<path class="st4" d="M965.2,2174.1c52.7,0,52.7,2.7,105.4,2.7"/>
							</g>
							<g>
								<path class="st4" d="M1212.9,2104.1c19.6,0,19.6,1.2,39.3,1.2"/>
							</g>
							<g>
								<path class="st4" d="M1717.2,1869.9c0-32.4,1.5-32.4,1.5-64.8"/>
							</g>
							<g>
								<path class="st4" d="M1650,1947.1c0-32.4-0.6-32.4-0.6-64.8"/>
							</g>
							<g>
								<path class="st4" d="M1772.8,2021.6c0-32.4,1.5-32.4,1.5-64.8"/>
							</g>
							<g>
								<path class="st4" d="M1732.1,2104.3c0-32.4,1.4-32.4,1.4-64.8"/>
							</g>
							<g>
								<path class="st4" d="M1532.1,1869.9c0-32.4-2-32.4-2-64.8"/>
							</g>
							<g>
								<path class="st4" d="M1461.1,1947.1c0-32.4-0.1-32.4-0.1-64.8"/>
							</g>
							<g>
								<path class="st4" d="M1584.1,2021.6c0-32.4,2.8-32.4,2.8-64.8"/>
							</g>
							<g>
								<path class="st4" d="M1545.9,2104.3c0-32.4-1.1-32.4-1.1-64.8"/>
							</g>
							<g>
								<path class="st4" d="M1431.6,1869.9c0-32.4-0.9-32.4-0.9-64.8"/>
							</g>
							<g>
								<path class="st4" d="M1360.8,1947.1c0-32.4,3-32.4,3-64.8"/>
							</g>
							<g>
								<path class="st4" d="M1487.1,2021.6c0-32.4-3.4-32.4-3.4-64.8"/>
							</g>
							<g>
								<path class="st4" d="M1447.4,2104.3c0-32.4-2.6-32.4-2.6-64.8"/>
							</g>
							<g>
								<path class="st4" d="M1261.6,1869.9c0-32.4,0.7-32.4,0.7-64.8"/>
							</g>
							<g>
								<path class="st4" d="M1196.2,1947.1c0-32.4-0.7-32.4-0.7-64.8"/>
							</g>
							<g>
								<path class="st4" d="M1319.4,2021.6c0-32.4,0.7-32.4,0.7-64.8"/>
							</g>
							<g>
								<path class="st4" d="M1277,2104.3c0-32.4,3.4-32.4,3.4-64.8"/>
							</g>
							<g>
								<path class="st4" d="M1080.8,1869.9c0-32.4-1.2-32.4-1.2-64.8"/>
							</g>
							<g>
								<path class="st4" d="M1014.2,1947.1c0-32.4-1.7-32.4-1.7-64.8"/>
							</g>
							<g>
								<path class="st4" d="M1135.8,2021.6c0-32.4-1.4-32.4-1.4-64.8"/>
							</g>
							<g>
								<path class="st4" d="M1097.2,2104.3c0-32.4-1.9-32.4-1.9-64.8"/>
							</g>
							<g>
								<path class="st4" d="M1030.8,2012.6c0-32.4-1.1-32.4-1.1-64.8"/>
							</g>
							<g>
								<path class="st4" d="M1571.3,1884.5c31.5,0,31.5-1.8,62.9-1.8"/>
							</g>
							<g>
								<path class="st4" d="M1693.1,1960c31.5,0,31.5,0.2,62.9,0.2"/>
							</g>
							<g>
								<path class="st4" d="M1512.5,1961.3c31.5,0,31.5-0.3,62.9-0.3"/>
							</g>
							<g>
								<path class="st4" d="M1578.9,2321.1c-49.9,0-49.9-3.7-99.9-3.7"/>
							</g>
							<g>
								<path class="st4" d="M1131.5,2320.6c-49.9,0-49.9-2.5-99.9-2.5"/>
							</g>
							<g>
								<path class="st4" d="M1350.4,2320.7c-88.3,0-88.3-3.3-176.6-3.3"/>
							</g>
							<g>
								<path class="st4" d="M1452.8,2318.6c-27.3,0-27.3-1-54.5-1"/>
							</g>
							<g>
								<path class="st4" d="M985.2,2321.2c-10,0-10-3-20-3"/>
							</g>
							<g>
								<path class="st4" d="M1553.2,2384c0-32.4-2.6-32.4-2.6-64.8"/>
							</g>
							<g>
								<path class="st4" d="M1712.7,2384c0-26.1,0-26.1,0-52.2"/>
							</g>
							<g>
								<path class="st4" d="M1363.4,2384c0-32.4,1.2-32.4,1.2-64.8"/>
							</g>
							<g>
								<path class="st4" d="M1770.2,2318.6c0-32.4,0.1-32.4,0.1-64.8"/>
							</g>
							<g>
								<path class="st4" d="M1672.4,2322.5c0-32.4-0.6-32.4-0.6-64.8"/>
							</g>
							<g>
								<path class="st4" d="M1099.1,2384c0-32.4,0.5-32.4,0.5-64.8"/>
							</g>
							<g>
								<path class="st4" d="M1502.4,2318.6c0-32.4,0.6-32.4,0.6-64.8"/>
							</g>
							<g>
								<path class="st4" d="M1196.7,2384c0-32.4,1.6-32.4,1.6-64.8"/>
							</g>
							<g>
								<path class="st4" d="M1321.8,2318.6c0-32.4,1.8-32.4,1.8-64.8"/>
							</g>
							<g>
								<path class="st4" d="M1760.8,2267.7c-31.5,0-31.5-0.1-62.9-0.1"/>
							</g>
							<g>
								<path class="st4" d="M1471.4,2036.8c31.5,0,31.5,2,62.9,2"/>
							</g>
							<g>
								<path class="st4" d="M1108.9,1887.4c31.5,0,31.5-2.2,62.9-2.2"/>
							</g>
							<g>
								<path class="st4" d="M1526.2,2175.5c49.9,0,49.9-0.9,99.9-0.9"/>
							</g>
							<g>
								<path class="st4" d="M1686.2,2176.2c38.6,0,38.6-0.5,77.3-0.5"/>
							</g>
							<g>
								<path class="st4" d="M1297.7,2175.3c49.9,0,49.9,1.5,99.9,1.5"/>
							</g>
							<g>
								<path class="st4" d="M1426.3,2174.5c15.7,0,15.7,2.2,31.5,2.2"/>
							</g>
							<g>
								<path class="st4" d="M1426.3,2258.6c90.3,0,90.3-0.9,180.6-0.9"/>
							</g>
							<g>
								<path class="st4" d="M1089.8,2177c90.3,0,90.3-0.8,180.6-0.8"/>
							</g>
							<g>
								<path class="st4" d="M1295,2255.7c49.9,0,49.9,1.6,99.9,1.6"/>
							</g>
							<g>
								<path class="st4" d="M1613.7,2256.3c45.1,0,45.1,1.5,90.3,1.5"/>
							</g>
							<g>
								<path class="st4" d="M1713.6,2257.4c40.4,0,40.4,1.3,80.7,1.3"/>
							</g>
							<g>
								<path class="st4" d="M1066.5,2258.2c64.3,0,64.3-0.1,128.6-0.1"/>
							</g>
							<g>
								<path class="st4" d="M965.2,2259c36.3,0,36.3-2.1,72.6-2.1"/>
							</g>
							<g>
								<path class="st4" d="M1066.5,1805.4c49.9,0,49.9-1.5,99.9-1.5"/>
							</g>
							<g>
								<path class="st4" d="M1214.3,2258.4c6.2,0,6.2,0.6,12.3,0.6"/>
							</g>
							<g>
								<path class="st4" d="M1779.7,2170.4c0-32.4,1.2-32.4,1.2-64.8"/>
							</g>
							<g>
								<path class="st4" d="M1733.4,2257.2c0-32.4-0.4-32.4-0.4-64.8"/>
							</g>
							<g>
								<path class="st4" d="M1591.7,2158.3c0-27,0.8-27,0.8-54"/>
							</g>
							<g>
								<path class="st4" d="M1546.3,2257.2c0-32.4,1.2-32.4,1.2-64.8"/>
							</g>
							<g>
								<path class="st4" d="M1481,2170.4c0-32.4,1.5-32.4,1.5-64.8"/>
							</g>
							<g>
								<path class="st4" d="M1446.4,2257.2c0-32.4,1.6-32.4,1.6-64.8"/>
							</g>
							<g>
								<path class="st4" d="M1325.4,2170.4c0-23.8-1.2-23.8-1.2-47.5"/>
							</g>
							<g>
								<path class="st4" d="M1278.8,2257.2c0-32.4,0.4-32.4,0.4-64.8"/>
							</g>
							<g>
								<path class="st4" d="M986.3,2257.2c0-32.4-2.7-32.4-2.7-64.8"/>
							</g>
							<g>
								<path class="st4" d="M1142,2170.4c0-32.4,0.8-32.4,0.8-64.8"/>
							</g>
							<g>
								<path class="st4" d="M1097.1,2257.2c0-32.4-0.3-32.4-0.3-64.8"/>
							</g>
							<g>
								<path class="st4" d="M1707.5,2115.7c31.5,0,31.5,2.9,62.9,2.9"/>
							</g>
							<g>
								<path class="st4" d="M1111.6,2040.1c31.5,0,31.5-1.8,62.9-1.8"/>
							</g>
							<g>
								<path class="st4" d="M1533,2191.7c31.5,0,31.5-1.4,62.9-1.4"/>
							</g>
							<g>
								<path class="st4" d="M1502.9,1804c59.5,0,59.5,1.8,119.1,1.8"/>
							</g>
							<g>
								<path class="st4" d="M1069.3,2119.3c31.5,0,31.5,0.7,62.9,0.7"/>
							</g>
						</g>
					</g>
				</g>
				<g>
					<g>
						<g>
							<g>
								<path class="st4" d="M766.8,1869.4c98.5,0,98.5,0.8,197,0.8"/>
							</g>
							<g>
								<path class="st4" d="M848.6,1804.4c49.4,0,49.4-1.7,98.8-1.7"/>
							</g>
							<g>
								<path class="st4" d="M595.8,1948.3c90.3,0,90.3-1.3,180.6-1.3"/>
							</g>
							<g>
								<path class="st4" d="M635.5,1870.4c49.9,0,49.9-1.1,99.9-1.1"/>
							</g>
							<g>
								<path class="st4" d="M820.2,1805.4c6.5,0,6.5,1.3,13,1.3"/>
							</g>
							<g>
								<path class="st4" d="M532.9,1804.6c45.4,0,45.4,2.4,90.8,2.4"/>
							</g>
							<g>
								<path class="st4" d="M783.2,1948.7c49.9,0,49.9-0.9,99.9-0.9"/>
							</g>
							<g>
								<path class="st4" d="M864,1947.5c49.9,0,49.9,1.2,99.9,1.2"/>
							</g>
							<g>
								<path class="st4" d="M766.8,2021.4c90.3,0,90.3,0.7,180.6,0.7"/>
							</g>
							<g>
								<path class="st4" d="M544.1,2105.6c61.5,0,61.5,0.7,122.9,0.7"/>
							</g>
							<g>
								<path class="st4" d="M683.4,2103.8c46.5,0,46.5,1.3,93,1.3"/>
							</g>
							<g>
								<path class="st4" d="M578.3,2020c78.5,0,78.5,2.7,157,2.7"/>
							</g>
							<g>
								<path class="st4" d="M787.8,2103.5c34.4,0,34.4,2.3,68.9,2.3"/>
							</g>
							<g>
								<path class="st4" d="M864,2103.7c49.9,0,49.9-0.1,99.9-0.1"/>
							</g>
							<g>
								<path class="st4" d="M888.1,1869.9c0-32.4,1.5-32.4,1.5-64.8"/>
							</g>
							<g>
								<path class="st4" d="M820.9,1947.1c0-32.4-0.6-32.4-0.6-64.8"/>
							</g>
							<g>
								<path class="st4" d="M943.7,2021.6c0-32.4,1.5-32.4,1.5-64.8"/>
							</g>
							<g>
								<path class="st4" d="M903,2104.3c0-32.4,1.4-32.4,1.4-64.8"/>
							</g>
							<g>
								<path class="st4" d="M702.9,1869.9c0-32.4-2-32.4-2-64.8"/>
							</g>
							<g>
								<path class="st4" d="M632,1947.1c0-32.4-0.1-32.4-0.1-64.8"/>
							</g>
							<g>
								<path class="st4" d="M755,2021.6c0-32.4,2.8-32.4,2.8-64.8"/>
							</g>
							<g>
								<path class="st4" d="M716.8,2104.3c0-32.4-1.1-32.4-1.1-64.8"/>
							</g>
							<g>
								<path class="st4" d="M602.5,1869.9c0-32.4-0.9-32.4-0.9-64.8"/>
							</g>
							<g>
								<path class="st4" d="M657.9,2021.6c0-32.4-3.4-32.4-3.4-64.8"/>
							</g>
							<g>
								<path class="st4" d="M618.2,2104.3c0-32.4-2.6-32.4-2.6-64.8"/>
							</g>
							<g>
								<path class="st4" d="M742.2,1884.5c31.5,0,31.5-1.8,62.9-1.8"/>
							</g>
							<g>
								<path class="st4" d="M864,1960c31.5,0,31.5,0.2,62.9,0.2"/>
							</g>
							<g>
								<path class="st4" d="M683.4,1961.3c31.5,0,31.5-0.3,62.9-0.3"/>
							</g>
							<g>
								<path class="st4" d="M749.8,2321.1c-49.9,0-49.9-3.7-99.9-3.7"/>
							</g>
							<g>
								<path class="st4" d="M623.7,2318.6c-27.3,0-27.3-1-54.5-1"/>
							</g>
							<g>
								<path class="st4" d="M724.1,2384c0-32.4-2.6-32.4-2.6-64.8"/>
							</g>
							<g>
								<path class="st4" d="M883.6,2384c0-26.1,0-26.1,0-52.2"/>
							</g>
							<g>
								<path class="st4" d="M941.1,2318.6c0-32.4,0.1-32.4,0.1-64.8"/>
							</g>
							<g>
								<path class="st4" d="M843.2,2322.5c0-32.4-0.6-32.4-0.6-64.8"/>
							</g>
							<g>
								<path class="st4" d="M673.3,2318.6c0-32.4,0.6-32.4,0.6-64.8"/>
							</g>
							<g>
								<path class="st4" d="M931.7,2267.7c-31.5,0-31.5-0.1-62.9-0.1"/>
							</g>
							<g>
								<path class="st4" d="M642.3,2036.8c31.5,0,31.5,2,62.9,2"/>
							</g>
							<g>
								<path class="st4" d="M697.1,2175.5c49.9,0,49.9-0.9,99.9-0.9"/>
							</g>
							<g>
								<path class="st4" d="M857.1,2176.2c38.6,0,38.6-0.5,77.3-0.5"/>
							</g>
							<g>
								<path class="st4" d="M597.2,2174.5c15.7,0,15.7,2.2,31.5,2.2"/>
							</g>
							<g>
								<path class="st4" d="M597.2,2258.6c90.3,0,90.3-0.9,180.6-0.9"/>
							</g>
							<g>
								<path class="st4" d="M784.6,2256.3c45.1,0,45.1,1.5,90.3,1.5"/>
							</g>
							<g>
								<path class="st4" d="M884.5,2257.4c40.4,0,40.4,1.3,80.7,1.3"/>
							</g>
							<g>
								<path class="st4" d="M950.6,2170.4c0-32.4,1.2-32.4,1.2-64.8"/>
							</g>
							<g>
								<path class="st4" d="M904.3,2257.2c0-32.4-0.4-32.4-0.4-64.8"/>
							</g>
							<g>
								<path class="st4" d="M762.6,2158.3c0-27,0.8-27,0.8-54"/>
							</g>
							<g>
								<path class="st4" d="M717.2,2257.2c0-32.4,1.2-32.4,1.2-64.8"/>
							</g>
							<g>
								<path class="st4" d="M651.8,2170.4c0-32.4,1.5-32.4,1.5-64.8"/>
							</g>
							<g>
								<path class="st4" d="M617.3,2257.2c0-32.4,1.6-32.4,1.6-64.8"/>
							</g>
							<g>
								<path class="st4" d="M878.4,2115.7c31.5,0,31.5,2.9,62.9,2.9"/>
							</g>
							<g>
								<path class="st4" d="M703.9,2191.7c31.5,0,31.5-1.4,62.9-1.4"/>
							</g>
							<g>
								<path class="st4" d="M673.8,1804c59.5,0,59.5,1.8,119.1,1.8"/>
							</g>
						</g>
					</g>
				</g>
			</g>
		</g>
	</g>
</g>
<path class="st2" d="M887.2,13.1c35.5,1.2,35.5,2.1,70.9,3.2"/>
</svg>
