<?xml version="1.0" encoding="utf-8"?>
<!-- Generator: Adobe Illustrator 27.0.0, SVG Export Plug-In . SVG Version: 6.00 Build 0)  -->
<svg version="1.1" id="Layer_1" xmlns="http://www.w3.org/2000/svg" xmlns:xlink="http://www.w3.org/1999/xlink" x="0px" y="0px"
	 viewBox="0 0 1920 1080" style="enable-background:new 0 0 1920 1080;" xml:space="preserve">
<style type="text/css">
	.st0{clip-path:url(#SVGID_00000054950786038536952480000009289140812346813614_);}
	.st1{fill:none;stroke:#FF6737;stroke-width:5;}
	.st2{fill:#FF450B;}
	.st3{fill:none;stroke:#FF6F42;stroke-width:5;}
</style>
<g>
	<defs>
		<rect id="SVGID_1_" x="0" y="489.4" width="1920" height="91.2"/>
	</defs>
	<clipPath id="SVGID_00000088109437606008304310000007309106227411611833_">
		<use xlink:href="#SVGID_1_"  style="overflow:visible;"/>
	</clipPath>
	<g style="clip-path:url(#SVGID_00000088109437606008304310000007309106227411611833_);">
		<g>
			<path class="st1" d="M21.8,523.4c47.1,1.6,47,2.8,94.2,4.3"/>
			<path class="st1" d="M392.3,519.1c47.1,1.6,47,2.8,94.2,4.3"/>
			<path class="st2" d="M251.8,580.9l3.9-75.9c0,0-23.2-0.8-33.3-1.3c-17.8-0.8-72.4-1.1-72.4-1.1l-41.2,5.4
				c-36.4,0-111.6-4.8-111.6-4.8s0.3,30.8,0,41.3c-0.3,9.4,0,36.4,0,36.4H251.8z"/>
			<polygon class="st2" points="519.2,580.8 517.6,546 512.6,543.9 509.9,507.9 505.6,507.6 478.5,506.4 469.5,501.9 365.9,501.9 
				366,516 360.8,517.9 357.5,581.1 			"/>
			<path class="st2" d="M993.8,581l3.9-76.1c0,0-23.2-0.8-33.3-1.3c-17.8-0.9-72.4-1.2-72.4-1.2l-41.3,5.4
				c-36.5,0-111.7-4.8-111.7-4.8s0.3,30.8,0,41.3c-0.1,7.8-0.1,30,0,36.5L993.8,581z"/>
			<path class="st2" d="M1318,581l3.7-82c0,0-23.2-0.9-33.3-1.5c-17.8-0.9-72.4-1.3-72.4-1.3l-41.3,6.1c-36.5,0-111.7-5.3-111.7-5.3
				s0.3,33.9,0,45.6c-0.1,8.1-0.1,29.9,0,38.3L1318,581z"/>
			<path class="st2" d="M1891.8,502.3l-92.4,2.1l-10.1,2l-12-2h-10.1l2.9,38.6l-0.4,21.9c0,0,2.7,14.5,2.8,16H1920l1-34l2-36.5
				L1891.8,502.3z"/>
			<polygon class="st2" points="1653.4,580.9 1651.8,546.3 1646.8,544.2 1644.1,508.2 1639.9,507.9 1612.8,506.7 1603.8,502.2 
				1500,502.2 1500.1,516.3 1494.9,518.2 1491.3,580.9 			"/>
		</g>
	</g>
	<g style="clip-path:url(#SVGID_00000088109437606008304310000007309106227411611833_);">
		<path class="st3" d="M1072.5,509.4c47.3,1.7,47.3,3.1,94.4,4.8"/>
		<path class="st3" d="M1537.4,513.3c47.3,1.6,47.3,2.8,94.4,4.3"/>
		<path class="st3" d="M1838.5,512.2c47.3,1.6,12.6-0.1,60,1.5"/>
		<path class="st3" d="M748.7,514.1c47.3,1.6,47.3,2.8,94.4,4.3"/>
		<path class="st3" d="M2.1,514.1c47.3,1.6,47.3,2.8,94.4,4.3"/>
		<path class="st3" d="M380.1,515.1c47.1,1.6,47.1,2.8,94.2,4.3"/>
	</g>
</g>
</svg>
