<?xml version="1.0" encoding="utf-8"?>
<!-- Generator: Adobe Illustrator 26.0.2, SVG Export Plug-In . SVG Version: 6.00 Build 0)  -->
<svg version="1.1" id="Layer_1" xmlns="http://www.w3.org/2000/svg" xmlns:xlink="http://www.w3.org/1999/xlink" x="0px" y="0px"
	 viewBox="0 0 1261.2 299" style="enable-background:new 0 0 1261.2 299;" xml:space="preserve">
<style type="text/css">
	.st0{fill:none;stroke:#ECECEC;stroke-width:10;stroke-linecap:round;stroke-linejoin:round;}
</style>
<path class="st0" d="M59,215.8l96.3,0c6.3,0,12.3-2.5,16.7-6.9c4.4-4.4,6.9-10.4,6.9-16.7s-2.5-12.3-6.9-16.7
	c-4.4-4.4-10.5-6.9-16.7-6.9"/>
<path class="st0" d="M175,176.6l50.7,0c6.2,0,12.1-2.5,16.5-6.9c4.4-4.4,6.8-10.4,6.8-16.7s-2.5-12.3-6.8-16.7s-10.3-6.9-16.5-6.9"
	/>
<path class="st0" d="M1075,168.6l96.3,0c6.3,0,12.3-2.5,16.7-6.9c4.4-4.4,6.9-10.4,6.9-16.7c0-6.3-2.5-12.3-6.9-16.7
	c-4.4-4.4-10.5-6.9-16.7-6.9"/>
<path class="st0" d="M883,138.5l96.3,0c6.3,0,12.3-2.5,16.7-6.9c4.4-4.4,6.9-10.4,6.9-16.7s-2.5-12.3-6.9-16.7
	c-4.4-4.4-10.5-6.9-16.7-6.9"/>
<path class="st0" d="M1003,103.3l50.7,0c6.2,0,12.1-2.5,16.5-6.9c4.4-4.4,6.8-10.4,6.8-16.7c0-6.3-2.5-12.3-6.8-16.7
	c-4.4-4.4-10.3-6.9-16.5-6.9"/>
</svg>
