<svg width="679" height="801" viewBox="0 0 679 801" fill="none" xmlns="http://www.w3.org/2000/svg">
<path d="M591.436 714.83H86.4912V336.157C86.9339 269.494 113.726 205.711 161.022 158.729C208.317 111.746 272.276 85.3781 338.941 85.3781C405.606 85.3781 469.565 111.746 516.86 158.729C564.156 205.711 590.948 269.494 591.391 336.157L591.436 714.83Z" fill="#D43503"/>
<path d="M339.905 6.33965C156.914 6.33965 8.56616 154.687 8.56616 337.678V795.211H671.242V337.678C671.242 154.687 522.895 6.33965 339.905 6.33965ZM592.36 716.35H87.4601V337.678C87.4601 270.725 114.057 206.515 161.399 159.173C208.742 111.83 272.952 85.2334 339.905 85.2334C406.857 85.2334 471.067 111.83 518.41 159.173C565.752 206.515 592.349 270.725 592.349 337.678L592.36 716.35Z" fill="#EA420D"/>
<path d="M671.61 692.872C675.717 587.651 668.548 587.495 665.754 482.24" stroke="#FF6737" stroke-width="4.80473"/>
<path d="M651.594 792.116C659.81 794.999 668.738 802.135 670.976 793.763C679.391 762.204 675.595 759.855 671.421 727.46" stroke="#FF6737" stroke-width="4.80473"/>
<path d="M412.364 791.726C514.98 794.888 515.114 798.606 617.73 795.177" stroke="#FF6737" stroke-width="4.80473"/>
<path d="M223.974 790.635C301.743 794.053 301.676 793.741 379.457 790.635" stroke="#FF6737" stroke-width="4.80473"/>
<path d="M140.994 793.897C165.329 797.459 166.02 797.136 190.388 793.897" stroke="#FF6737" stroke-width="4.80473"/>
<path d="M12.9518 293.472C11.5937 293.472 10.5135 290.834 9.25561 290.555C7.25182 305.294 5.15931 320.29 5.15931 335.585C5.15931 453.03 3.17761 453.052 4.42442 570.474" stroke="#FF6737" stroke-width="4.80473"/>
<path d="M192.648 41.0721C192.648 40.1259 190.421 39.0126 190.544 38.1109C104.247 80.7695 40.5596 160.387 16.8815 255.868" stroke="#FF6737" stroke-width="4.80473"/>
<path d="M455.467 25.9212C455.467 25.5538 452.262 26.667 452.273 26.2997C416.316 12.941 377.932 2.99999 337.311 2.99999C295.253 2.99999 254.142 10.4586 217.083 24.7411" stroke="#FF6737" stroke-width="4.80473"/>
<path d="M659.543 246.338C634.106 154.62 567.223 79.6785 483.331 38.3892" stroke="#FF6737" stroke-width="4.80473"/>
<path d="M666.779 382.541C669.985 359.163 669.328 359.163 669.328 335.585C669.328 317.05 666.8 298.927 663.873 281.216C663.35 281.271 663.16 281.828 662.637 281.828" stroke="#FF6737" stroke-width="4.80473"/>
<path d="M667.769 450.525C670.385 433.493 670.218 433.426 667.068 416.483" stroke="#FF6737" stroke-width="4.80473"/>
<path d="M3 665.365C3 718.61 5.82762 718.61 5.82762 771.867" stroke="#FF6737" stroke-width="4.80473"/>
<path d="M5.97205 792.361C58.6273 792.361 58.6271 792.706 111.271 792.706" stroke="#FF6737" stroke-width="4.80473"/>
<path d="M588.208 395.421C588.208 395.421 588.107 392.994 588.118 392.994C588.987 392.994 589.855 393.94 589.855 393.072C589.855 364.328 588.653 364.328 588.653 335.585C588.653 301.331 583.632 267.679 570.708 237.065" stroke="#FF6737" stroke-width="4.80473" stroke-miterlimit="10"/>
<path d="M589.254 636.866C589.421 636.866 590.634 636.421 590.801 636.421C590.89 566.188 590.734 566.188 590.656 495.955C590.489 495.955 589.443 496.523 589.276 496.534" stroke="#FF6737" stroke-width="4.80473" stroke-miterlimit="10"/>
<path d="M432.802 712.51C432.802 712.588 432.212 712.665 432.223 712.743C432.223 713.612 435.107 717.341 435.975 717.341C512.097 717.341 512.097 712.354 588.218 712.354C589.098 712.354 588.018 713.545 588.018 712.665C588.018 692.282 589.321 692.282 589.232 671.888C589.065 671.888 589.476 671.276 589.309 671.276" stroke="#FF6737" stroke-width="4.80473" stroke-miterlimit="10"/>
<path d="M320.111 711.497C320.111 711.897 325.198 712.265 325.176 712.61C325.176 713.523 323.829 716.116 324.742 716.116C361 716.116 361 711.074 397.246 711.074C398.159 711.074 396.99 713.523 396.945 712.599C396.945 712.599 399.05 712.409 399.05 712.365" stroke="#FF6737" stroke-width="4.80473" stroke-miterlimit="10"/>
<path d="M205.383 711.363C205.438 711.762 205.472 712.163 205.483 712.565C205.483 713.478 206.195 715.615 207.108 715.615C246.65 715.615 246.65 711.619 286.147 711.619C287.104 711.619 289.175 713.267 289.063 712.32C289.063 711.953 289.364 711.652 289.342 711.274" stroke="#FF6737" stroke-width="4.80473" stroke-miterlimit="10"/>
<path d="M86.2239 620.658C85.1775 620.213 82.8843 619.022 82.8843 620.168C82.8843 666.411 83.0403 666.411 83.0403 712.665C83.0403 713.545 85.5228 716.439 86.3799 716.439C127.424 716.439 127.424 712.254 168.48 712.254C169.437 712.254 169.181 713.523 169.07 712.576C169.07 712.209 172.02 711.641 172.009 711.263" stroke="#FF6737" stroke-width="4.80473" stroke-miterlimit="10"/>
<path d="M90.788 539.738C89.2963 539.939 87.8603 540.529 86.3351 540.729C86.2684 540.729 86.3351 542.621 86.246 542.621C85.7784 542.621 85.7564 541.33 85.3111 541.297C85.0884 562.96 87.6044 562.96 87.6044 584.612C87.6044 585.725 86.1679 586.838 87.2032 586.438" stroke="#FF6737" stroke-width="4.80473" stroke-miterlimit="10"/>
<path d="M87.7937 449.69C86.7584 448.855 83.8638 450.057 83.8638 451.382C83.8638 477.621 84.6098 477.621 84.8324 503.859C85.2888 503.792 85.7343 503.392 86.1908 503.336C86.2576 503.336 86.3463 502.768 86.4131 502.768" stroke="#FF6737" stroke-width="4.80473" stroke-miterlimit="10"/>
<path d="M97.5345 263.727C96.6551 263.137 94.9074 264.072 94.6069 265.096C88.0723 287.694 87.8716 311.406 87.8716 335.585C87.8716 378.266 86.2909 378.266 86.2909 420.958C86.2909 422.26 85.055 421.325 86.0903 420.535" stroke="#FF6737" stroke-width="4.80473" stroke-miterlimit="10"/>
<path d="M113.108 223.272C112.351 222.571 110.436 221.781 109.979 222.705C108.922 224.82 107.753 226.924 106.785 229.05C106.351 230.007 107.798 234.616 108.833 234.805" stroke="#FF6737" stroke-width="4.80473" stroke-miterlimit="10"/>
<path d="M222.326 111.294C222.326 111.183 221.446 110.325 221.435 110.181C198.024 122.148 176.602 137.66 157.926 156.168C146.972 167.122 137.22 179.723 128.593 192.203" stroke="#FF6737" stroke-width="4.80473" stroke-miterlimit="10"/>
<path d="M413.877 95.4083C389.387 87.6157 363.783 82.5617 337.311 82.5617C307.51 82.5617 279.668 90.3543 252.45 100.229" stroke="#FF6737" stroke-width="4.80473" stroke-miterlimit="10"/>
<path d="M522.016 163.125C520.112 161.099 516.739 160.109 514.757 158.138C495.037 138.197 472.076 121.748 446.851 109.49" stroke="#FF6737" stroke-width="4.80473" stroke-miterlimit="10"/>
<path d="M52.2484 166.42C82.4834 181.004 80.7134 184.666 110.948 199.249" stroke="#FF6737" stroke-width="4.80473" stroke-miterlimit="10"/>
<path d="M553.464 204.314C583.332 192.069 583.053 191.412 612.932 179.2" stroke="#FF6737" stroke-width="4.80473" stroke-miterlimit="10"/>
<path d="M338.557 4.24679C338.557 36.1962 337.221 36.1962 337.221 68.1455" stroke="#FF6737" stroke-width="4.80473" stroke-miterlimit="10"/>
<path d="M499.239 46.4378C482.062 73.9343 479.78 72.5094 462.603 100.017" stroke="#FF6737" stroke-width="4.80473" stroke-miterlimit="10"/>
<path d="M236.976 19.6871C249.7 46.8608 249.912 46.7606 262.636 73.9231" stroke="#FF6737" stroke-width="4.80473" stroke-miterlimit="10"/>
<path d="M7.64209 301.532C40.5488 302.066 40.4932 305.595 73.4111 306.141" stroke="#FF6737" stroke-width="4.80473" stroke-miterlimit="10"/>
<path d="M160.787 155.233C137.51 130.196 137.132 130.541 113.854 105.494" stroke="#FF6737" stroke-width="4.80473" stroke-miterlimit="10"/>
<path d="M590.333 311.584C623.897 304.571 623.864 304.448 657.427 297.424" stroke="#FF6737" stroke-width="4.80473" stroke-miterlimit="10"/>
<path d="M84.8661 375.472C51.0688 375.472 51.0685 377.264 17.2712 377.264" stroke="#FF6737" stroke-width="4.80473" stroke-miterlimit="10"/>
<path d="M84.8661 508.613C51.0688 508.613 51.0685 509.158 17.2712 509.158" stroke="#FF6737" stroke-width="4.80473" stroke-miterlimit="10"/>
<path d="M5.97205 618.832C38.6005 618.832 38.6006 615.804 71.229 615.804" stroke="#FF6737" stroke-width="4.80473" stroke-miterlimit="10"/>
<path d="M85.1666 716.551C51.3693 721.003 50.8679 717.252 17.0706 721.727" stroke="#FF6737" stroke-width="4.80473" stroke-miterlimit="10"/>
<path d="M159.619 718.733C155.845 755.936 155.734 755.925 151.96 793.129" stroke="#FF6737" stroke-width="4.80473" stroke-miterlimit="10"/>
<path d="M293.895 793.318C290.656 758.897 290.878 758.875 287.639 724.454" stroke="#FF6737" stroke-width="4.80473" stroke-miterlimit="10"/>
<path d="M431.244 793.63C437.711 756.426 433.693 755.78 440.149 718.532" stroke="#FF6737" stroke-width="4.80473" stroke-miterlimit="10"/>
<path d="M534.562 719.011C546.974 752.552 548.298 752.062 560.711 785.592" stroke="#FF6737" stroke-width="4.80473" stroke-miterlimit="10"/>
<path d="M589.677 668.326C625.044 664.664 624.966 663.873 660.322 660.244" stroke="#FF6737" stroke-width="4.80473" stroke-miterlimit="10"/>
<path d="M589.766 441.597C626.747 441.597 626.747 440.74 663.728 440.74" stroke="#FF6737" stroke-width="4.80473" stroke-miterlimit="10"/>
<path d="M668.649 546.262C632.725 548.956 632.914 551.516 597.002 554.21" stroke="#FF6737" stroke-width="4.80473" stroke-miterlimit="10"/>
<path d="M178.243 730.343C217.328 730.343 217.328 727.494 256.424 727.494" stroke="#FF6737" stroke-width="4.80473" stroke-miterlimit="10"/>
<path d="M16.7924 401.165C16.7924 449.79 15.6792 449.79 15.6792 498.427" stroke="#FF6737" stroke-width="4.80473" stroke-miterlimit="10"/>
<path d="M71.6521 654.489C71.6521 678.189 72.9653 678.189 72.9653 701.878" stroke="#FF6737" stroke-width="4.80473" stroke-miterlimit="10"/>
<path d="M69.7708 162.613C82.1943 136.631 86.7362 133.091 108.733 121.736" stroke="#FF6737" stroke-width="4.80473" stroke-miterlimit="10"/>
<path d="M349.199 15.4346C389.843 14.6553 393.951 16.904 426.902 33.9474" stroke="#FF6737" stroke-width="4.80473" stroke-miterlimit="10"/>
<path d="M657.583 316.07C657.583 369.316 656.403 369.316 656.403 422.55" stroke="#FF6737" stroke-width="4.80473" stroke-miterlimit="10"/>
<path d="M659.309 678.189C659.309 727.705 654.455 727.705 654.455 777.266" stroke="#FF6737" stroke-width="4.80473" stroke-miterlimit="10"/>
<path d="M455.49 725.434C469.739 725.434 469.739 725.434 483.988 725.434" stroke="#FF6737" stroke-width="4.80473" stroke-miterlimit="10"/>
<path d="M268.217 180.872L294.698 154.66C295.013 154.426 295.403 154.312 295.796 154.34C296.19 154.367 296.559 154.534 296.838 154.81C297.117 155.086 297.285 155.452 297.313 155.841C297.341 156.23 297.227 156.616 296.99 156.928L275.135 178.561C274.424 179.304 274.034 180.291 274.048 181.314C274.062 182.336 274.478 183.313 275.209 184.036C275.94 184.759 276.926 185.171 277.96 185.185C278.993 185.199 279.99 184.813 280.74 184.109L302.595 162.476C302.909 162.21 303.311 162.072 303.723 162.087C304.136 162.103 304.526 162.272 304.818 162.561C305.109 162.849 305.28 163.236 305.296 163.644C305.312 164.052 305.172 164.45 304.904 164.76L287.698 181.825C286.987 182.567 286.597 183.554 286.611 184.577C286.625 185.599 287.041 186.576 287.772 187.299C288.503 188.022 289.489 188.434 290.523 188.448C291.556 188.462 292.553 188.076 293.303 187.372L310.529 170.324C310.844 170.09 311.234 169.977 311.627 170.004C312.02 170.032 312.39 170.199 312.669 170.475C312.947 170.75 313.116 171.116 313.144 171.506C313.172 171.895 313.057 172.281 312.821 172.593L300.238 185.075C299.591 185.718 299.19 186.563 299.104 187.467C299.018 188.37 299.252 189.275 299.767 190.026C299.909 190.235 300.072 190.431 300.251 190.61C300.618 190.973 301.054 191.262 301.534 191.459C302.014 191.656 302.528 191.757 303.047 191.757C303.567 191.757 304.081 191.656 304.561 191.459C305.041 191.262 305.476 190.973 305.843 190.61L309.085 187.402C312.991 183.536 317.598 178.075 318.479 173.062C319.903 165.049 315.273 157.145 308.983 150.936L301.895 143.918L301.855 143.882C300.866 142.903 299.525 142.353 298.126 142.353C296.728 142.353 295.386 142.903 294.397 143.882L283.592 154.575C283.458 154.708 283.32 154.835 283.18 154.958C283.091 155.032 283.006 155.107 282.924 155.188L262.582 175.324C261.871 176.066 261.481 177.054 261.495 178.076C261.509 179.099 261.925 180.076 262.656 180.799C263.386 181.522 264.373 181.934 265.406 181.948C266.44 181.961 267.437 181.575 268.187 180.872H268.217Z" fill="#AC2A01"/>
<path d="M415.257 180.872L388.772 154.66C388.458 154.411 388.063 154.286 387.661 154.307C387.26 154.328 386.881 154.495 386.596 154.775C386.31 155.055 386.139 155.43 386.115 155.827C386.091 156.224 386.215 156.616 386.464 156.928L408.319 178.561C409.029 179.304 409.419 180.291 409.406 181.314C409.392 182.336 408.975 183.313 408.245 184.036C407.514 184.759 406.527 185.171 405.494 185.185C404.461 185.199 403.463 184.813 402.713 184.109L380.858 162.476C380.543 162.229 380.146 162.107 379.745 162.131C379.344 162.155 378.966 162.324 378.683 162.606C378.4 162.889 378.231 163.264 378.21 163.661C378.188 164.059 378.315 164.45 378.566 164.76L395.792 181.808C396.537 182.545 396.956 183.544 396.957 184.587C396.958 185.63 396.541 186.63 395.797 187.367C395.052 188.105 394.043 188.52 392.989 188.521C391.936 188.522 390.925 188.109 390.18 187.372L372.954 170.324C372.64 170.076 372.245 169.95 371.844 169.971C371.443 169.993 371.063 170.159 370.778 170.44C370.493 170.72 370.322 171.094 370.297 171.491C370.273 171.888 370.397 172.28 370.646 172.593L383.242 185.059C383.889 185.701 384.29 186.547 384.376 187.451C384.462 188.354 384.228 189.259 383.713 190.01C383.57 190.219 383.408 190.414 383.229 190.593C382.862 190.957 382.426 191.246 381.946 191.442C381.466 191.639 380.952 191.741 380.432 191.741C379.913 191.741 379.399 191.639 378.919 191.442C378.439 191.246 378.003 190.957 377.636 190.593L374.395 187.385C370.489 183.519 365.882 178.059 365.001 173.046C363.577 165.032 368.207 157.129 374.48 150.92L381.608 143.866C382.597 142.887 383.939 142.337 385.337 142.337C386.736 142.337 388.077 142.887 389.066 143.866L399.871 154.559C400.006 154.692 400.143 154.818 400.284 154.942C400.372 155.016 400.457 155.091 400.539 155.172L420.885 175.308C421.596 176.05 421.986 177.038 421.972 178.06C421.958 179.083 421.542 180.059 420.811 180.783C420.08 181.506 419.093 181.918 418.06 181.932C417.027 181.945 416.029 181.559 415.28 180.856L415.257 180.872Z" fill="#AC2A01"/>
<path d="M341.735 201.008C355.686 201.008 366.995 194.353 366.995 186.144C366.995 177.935 355.686 171.28 341.735 171.28C327.784 171.28 316.475 177.935 316.475 186.144C316.475 194.353 327.784 201.008 341.735 201.008Z" fill="#AC2A01"/>
<path d="M341.722 176.501C330.491 176.501 321.393 186.893 321.393 186.893C321.393 186.893 330.491 197.285 341.722 197.285C352.952 197.285 362.048 186.893 362.048 186.893C362.048 186.893 352.952 176.501 341.722 176.501ZM341.722 194.437C340.214 194.437 338.74 193.995 337.486 193.167C336.232 192.338 335.255 191.16 334.677 189.782C334.1 188.404 333.949 186.887 334.242 185.423C334.536 183.959 335.262 182.615 336.328 181.56C337.394 180.504 338.752 179.785 340.23 179.494C341.709 179.203 343.242 179.352 344.635 179.923C346.028 180.494 347.218 181.461 348.056 182.701C348.894 183.942 349.341 185.401 349.341 186.893C349.341 188.893 348.538 190.811 347.11 192.226C345.681 193.641 343.743 194.436 341.722 194.437Z" fill="#D43503"/>
<path d="M315.234 210.526H318.302C317.896 210.526 317.486 210.526 317.084 210.526H315.234Z" fill="#AC2A01"/>
<path d="M369.723 210.526H370.944C371.366 210.526 371.798 210.526 372.234 210.548L373.128 210.509C373.128 210.509 369.641 210.526 369.723 210.526Z" fill="#AC2A01"/>
<path d="M377.358 209.518C377.698 209.284 378.006 209.006 378.272 208.691C378.373 208.576 378.468 208.454 378.556 208.329C378.615 208.244 378.674 208.163 378.73 208.079C378.886 207.826 379.023 207.562 379.139 207.288C379.15 207.262 379.16 207.235 379.169 207.207C379.271 206.953 379.358 206.692 379.427 206.426C379.453 206.336 379.48 206.245 379.499 206.154C379.545 205.963 379.575 205.769 379.607 205.571C379.83 204.015 379.75 202.431 379.372 200.905C377.757 194.051 374.5 187.735 371.157 181.582C365.067 170.37 354.632 155.311 339.944 156.63C335.36 157.041 331.055 159.177 327.476 162.058C321.127 167.165 316.187 174.498 312.339 181.585C308.996 187.742 305.735 194.054 304.121 200.908C303.234 204.677 303.594 209.463 308.224 210.383C309.615 210.662 311.105 210.539 312.516 210.529H317.084C317.486 210.529 317.896 210.529 318.302 210.529H373.128C374.539 210.438 376.176 210.253 377.358 209.518ZM341.722 197.285C330.491 197.285 321.393 186.893 321.393 186.893C321.393 186.893 330.495 176.501 341.722 176.501C352.949 176.501 362.048 186.893 362.048 186.893C362.048 186.893 352.952 197.285 341.722 197.285Z" fill="#AC2A01"/>
<path d="M341.725 194.437C345.935 194.437 349.347 191.059 349.347 186.893C349.347 182.726 345.935 179.349 341.725 179.349C337.515 179.349 334.103 182.726 334.103 186.893C334.103 191.059 337.515 194.437 341.725 194.437Z" fill="#AC2A01"/>
</svg>
