<?xml version="1.0" encoding="utf-8"?>
<!-- Generator: Adobe Illustrator 27.0.0, SVG Export Plug-In . SVG Version: 6.00 Build 0)  -->
<svg version="1.1" id="Layer_1" xmlns="http://www.w3.org/2000/svg" xmlns:xlink="http://www.w3.org/1999/xlink" x="0px" y="0px"
	 viewBox="0 0 679 1200" style="enable-background:new 0 0 679 1200;" xml:space="preserve">
<style type="text/css">
	.st0{fill:#D43503;}
	.st1{fill:#EA420D;}
	.st2{fill:none;stroke:#FF6737;stroke-width:4.8047;}
	.st3{fill:none;stroke:#FF6737;stroke-width:4.8047;stroke-miterlimit:10;}
	.st4{fill:#AC2A01;}
</style>
<path class="st0" d="M601.9,1130.1H76V329.4c0.5-69.4,28.4-135.9,77.6-184.8c49.3-48.9,115.9-76.4,185.3-76.4S475,95.6,524.3,144.5
	s77.2,115.4,77.6,184.8L601.9,1130.1z"/>
<path class="st1" d="M339.9,6.3C156.9,6.3,8.6,154.7,8.6,337.7v855.5h662.7V337.7C671.2,154.7,522.9,6.3,339.9,6.3z M592.4,1114.3
	H87.5V337.7c0-67,26.6-131.2,73.9-178.5S273,85.3,339.9,85.3c67,0,131.2,26.6,178.5,73.9c47.3,47.3,73.9,111.6,73.9,178.5
	L592.4,1114.3z"/>
<path class="st2" d="M671.6,1090.9c4.1-105.2-3.1-503.4-5.9-608.6"/>
<path class="st2" d="M651.6,1190.1c8.2,2.9,17.1,10,19.4,1.6c8.4-31.6,4.6-33.9,0.4-66.3"/>
<path class="st2" d="M412.4,1189.7c102.6,3.2,102.8,6.9,205.4,3.5"/>
<path class="st2" d="M224,1188.6c77.8,3.4,77.7,3.1,155.5,0"/>
<path class="st2" d="M141,1191.9c24.3,3.6,25,3.2,49.4,0"/>
<path class="st2" d="M13,293.5c-1.4,0-2.4-2.6-3.7-2.9c-2,14.7-4.1,29.7-4.1,45c0,117.4-2,117.5-0.7,234.9"/>
<path class="st2" d="M192.6,41.1c0-0.9-2.2-2.1-2.1-3c-86.3,42.7-150,122.3-173.7,217.8"/>
<path class="st2" d="M455.5,25.9c0-0.4-3.2,0.7-3.2,0.4C416.3,12.9,377.9,3,337.3,3c-42.1,0-83.2,7.5-120.2,21.7"/>
<path class="st2" d="M659.5,246.3c-25.4-91.7-92.3-166.7-176.2-207.9"/>
<path class="st2" d="M666.8,382.5c3.2-23.4,2.5-23.4,2.5-47c0-18.5-2.5-36.7-5.5-54.4c-0.5,0.1-0.7,0.6-1.2,0.6"/>
<path class="st2" d="M667.8,450.5c2.6-17,2.4-17.1-0.7-34"/>
<path class="st2" d="M3,1063.4c0,53.2,2.8,53.2,2.8,106.5"/>
<path class="st2" d="M6,1190.4c52.7,0,52.7,0.3,105.3,0.3"/>
<path class="st3" d="M588.2,395.4l-0.1-2.4c0.9,0,1.7,0.9,1.7,0.1c0-28.7-1.2-28.7-1.2-57.5c0-34.3-5-67.9-17.9-98.5"/>
<path class="st3" d="M590.7,596c0-41-0.1-77.3-0.1-100c-0.2,0-1.2,0.6-1.4,0.6"/>
<path class="st3" d="M589.4,793.2c0.8-0.1,1.4-0.3,1.4-0.7v-143"/>
<path class="st3" d="M432.8,1110.5c0,0.1-0.6,0.2-0.6,0.2c0,0.9,2.9,4.6,3.8,4.6c76.1,0,76.1-5,152.2-5c0.9,0-0.2,1.2-0.2,0.3
	c0-20.4,1.3-20.4,1.2-40.8c-0.2,0,0.2-0.6,0.1-0.6"/>
<path class="st3" d="M320.1,1109.5c0,0.4,5.1,0.8,5.1,1.1c0,0.9-1.3,3.5-0.4,3.5c36.3,0,36.3-5,72.5-5c0.9,0-0.3,2.4-0.3,1.5
	l2.1-0.2"/>
<path class="st3" d="M205.4,1109.4c0.1,0.4,0.1,0.8,0.1,1.2c0,0.9,0.7,3,1.6,3c39.5,0,39.5-4,79-4c1,0,3,1.6,2.9,0.7
	c0-0.4,0.3-0.7,0.3-1"/>
<path class="st3" d="M86.2,1018.7c-1-0.4-3.3-1.6-3.3-0.5c0,46.2,0.2,46.2,0.2,92.5c0,0.9,2.5,3.8,3.3,3.8c41,0,41-4.2,82.1-4.2
	c1,0,0.7,1.3,0.6,0.3c0-0.4,2.9-0.9,2.9-1.3"/>
<path class="st3" d="M90.8,539.7c-1.5,0.2-2.9,0.8-4.5,1c-0.1,0,0,1.9-0.1,1.9c-0.5,0-0.5-1.3-0.9-1.3c-0.2,21.7,2.3,21.7,2.3,43.3
	c0,1.1-1.4,2.2-0.4,1.8"/>
<path class="st3" d="M87.8,449.7c-1-0.8-3.9,0.4-3.9,1.7c0,26.2,0.7,26.2,1,52.5c0.5-0.1,0.9-0.5,1.4-0.5c0.1,0,0.2-0.6,0.2-0.6"/>
<path class="st3" d="M97.5,263.7c-0.9-0.6-2.6,0.3-2.9,1.4c-6.5,22.6-6.7,46.3-6.7,70.5c0,42.7-1.6,42.7-1.6,85.4
	c0,1.3-1.2,0.4-0.2-0.4"/>
<path class="st3" d="M113.1,223.3c-0.8-0.7-2.7-1.5-3.1-0.6c-1.1,2.1-2.2,4.2-3.2,6.3c-0.4,1,1,5.6,2,5.8"/>
<path class="st3" d="M222.3,111.3c0-0.1-0.9-1-0.9-1.1c-23.4,12-44.8,27.5-63.5,46c-11,11-20.7,23.6-29.3,36"/>
<path class="st3" d="M413.9,95.4c-24.5-7.8-50.1-12.8-76.6-12.8c-29.8,0-57.6,7.8-84.9,17.7"/>
<path class="st3" d="M522,163.1c-1.9-2-5.3-3-7.3-5c-19.7-19.9-42.7-36.4-67.9-48.6"/>
<path class="st3" d="M52.2,166.4c30.2,14.6,28.5,18.2,58.7,32.8"/>
<path class="st3" d="M553.5,204.3c29.9-12.2,29.6-12.9,59.5-25.1"/>
<path class="st3" d="M338.6,4.2c0,31.9-1.3,31.9-1.3,63.9"/>
<path class="st3" d="M499.2,46.4C482,73.9,479.7,72.5,462.6,100"/>
<path class="st3" d="M237,19.7c12.7,27.2,12.9,27.1,25.7,54.2"/>
<path class="st3" d="M7.6,301.5c32.9,0.5,32.9,4.1,65.8,4.6"/>
<path class="st3" d="M160.8,155.2c-23.3-25-23.7-24.7-46.9-49.7"/>
<path class="st3" d="M590.3,311.6c33.6-7,33.5-7.1,67.1-14.2"/>
<path class="st3" d="M84.9,375.5c-33.8,0-33.8,1.8-67.6,1.8"/>
<path class="st3" d="M71.7,766.4c-33.8,0-33.8,1.8-67.6,1.8"/>
<path class="st3" d="M84.9,508.6c-33.8,0-33.8,0.5-67.6,0.5"/>
<path class="st3" d="M6,1016.8c32.6,0,32.6-3,65.3-3"/>
<path class="st3" d="M85.2,1114.6c-33.8,4.5-34.3,0.7-68.1,5.2"/>
<path class="st3" d="M159.6,1116.7c-3.8,37.2-3.9,37.2-7.7,74.4"/>
<path class="st3" d="M293.9,1191.3c-3.2-34.4-3-34.4-6.3-68.9"/>
<path class="st3" d="M431.2,1191.6c6.5-37.2,2.4-37.8,8.9-75.1"/>
<path class="st3" d="M534.6,1117c12.4,33.5,13.7,33.1,26.1,66.6"/>
<path class="st3" d="M589.7,1066.3c35.4-3.7,35.3-4.5,70.6-8.1"/>
<path class="st3" d="M589.7,660.3c35.4-3.7,35.3-4.5,70.6-8.1"/>
<path class="st3" d="M589.8,441.6c37,0,37-0.9,74-0.9"/>
<path class="st3" d="M16,653.5c35.4-3.7,35.3-4.5,70.6-8.1"/>
<path class="st3" d="M-122,586.9c37,0,37-0.9,74-0.9"/>
<path class="st3" d="M668.6,546.3c-35.9,2.7-35.7,5.3-71.6,7.9"/>
<path class="st3" d="M178.2,1128.3c39.1,0,39.1-2.8,78.2-2.8"/>
<path class="st3" d="M16.8,401.2c0,48.6-1.1,48.6-1.1,97.3"/>
<path class="st3" d="M71.7,1052.5c0,23.7,1.3,23.7,1.3,47.4"/>
<path class="st3" d="M69.8,162.6c12.4-26,17-29.5,39-40.9"/>
<path class="st3" d="M349.2,15.4c40.6-0.8,44.8,1.5,77.7,18.5"/>
<path class="st3" d="M657.6,316.1c0,53.2-1.2,53.2-1.2,106.5"/>
<path class="st3" d="M659.3,1076.2c0,49.5-4.9,49.5-4.9,99.1"/>
<path class="st3" d="M455.5,1123.4c14.2,0,14.2,0,28.5,0"/>
<path class="st0" d="M341.7,176.5c-11.2,0-20.3,10.4-20.3,10.4s9.1,10.4,20.3,10.4c11.2,0,20.3-10.4,20.3-10.4
	S353,176.5,341.7,176.5z M341.7,194.4c-1.5,0-3-0.4-4.2-1.3c-1.3-0.8-2.2-2-2.8-3.4c-0.6-1.4-0.7-2.9-0.4-4.4c0.3-1.5,1-2.8,2.1-3.9
	c1.1-1.1,2.4-1.8,3.9-2.1s3-0.1,4.4,0.4s2.6,1.5,3.4,2.8c0.8,1.2,1.3,2.7,1.3,4.2c0,2-0.8,3.9-2.2,5.3
	C345.7,193.6,343.7,194.4,341.7,194.4z"/>
<path class="st4" d="M315.2,210.5h3.1c-0.4,0-0.8,0-1.2,0H315.2z"/>
<path class="st4" d="M369.7,210.5h1.2c0.4,0,0.9,0,1.3,0h0.9C373.1,210.5,369.6,210.5,369.7,210.5z"/>
<g>
	<path class="st4" d="M277,167.9l22.5-22.3c0.3-0.2,0.6-0.3,0.9-0.3s0.6,0.2,0.9,0.4c0.2,0.2,0.4,0.5,0.4,0.9c0,0.3-0.1,0.7-0.3,0.9
		l-18.6,18.4c-0.6,0.6-0.9,1.5-0.9,2.3c0,0.9,0.4,1.7,1,2.3s1.5,1,2.3,1c0.9,0,1.7-0.3,2.4-0.9l18.6-18.4c0.3-0.2,0.6-0.3,1-0.3
		s0.7,0.2,0.9,0.4c0.2,0.2,0.4,0.6,0.4,0.9c0,0.3-0.1,0.7-0.3,0.9l-14.6,14.5c-0.6,0.6-0.9,1.5-0.9,2.3c0,0.9,0.4,1.7,1,2.3
		s1.5,1,2.3,1c0.9,0,1.7-0.3,2.4-0.9l14.7-14.5c0.3-0.2,0.6-0.3,0.9-0.3s0.6,0.2,0.9,0.4c0.2,0.2,0.4,0.5,0.4,0.9
		c0,0.3-0.1,0.7-0.3,0.9l-10.7,10.6c-0.6,0.5-0.9,1.3-1,2c-0.1,0.8,0.1,1.5,0.6,2.2c0.1,0.2,0.3,0.3,0.4,0.5
		c0.3,0.3,0.7,0.6,1.1,0.7s0.8,0.3,1.3,0.3c0.4,0,0.9-0.1,1.3-0.3s0.8-0.4,1.1-0.7l2.8-2.7c3.3-3.3,7.2-7.9,8-12.2
		c1.2-6.8-2.7-13.5-8.1-18.8l-6-6l0,0c-0.8-0.8-2-1.3-3.2-1.3s-2.3,0.5-3.2,1.3l-9.2,9.1c-0.1,0.1-0.2,0.2-0.4,0.3
		c-0.1,0.1-0.1,0.1-0.2,0.2L272.3,163c-0.6,0.6-0.9,1.5-0.9,2.3c0,0.9,0.4,1.7,1,2.3s1.5,1,2.3,1C275.5,168.8,276.3,168.5,277,167.9
		L277,167.9z"/>
	<path class="st4" d="M402,167.9l-22.5-22.3c-0.3-0.2-0.6-0.3-0.9-0.3s-0.7,0.2-0.9,0.4c-0.2,0.2-0.4,0.6-0.4,0.9
		c0,0.3,0.1,0.7,0.3,0.9l18.6,18.4c0.6,0.6,0.9,1.5,0.9,2.3c0,0.9-0.4,1.7-1,2.3s-1.5,1-2.3,1s-1.7-0.3-2.4-0.9l-18.6-18.4
		c-0.3-0.2-0.6-0.3-0.9-0.3s-0.7,0.2-0.9,0.4c-0.2,0.2-0.4,0.6-0.4,0.9c0,0.3,0.1,0.7,0.3,0.9l14.7,14.5c0.6,0.6,1,1.5,1,2.4
		s-0.4,1.7-1,2.4c-0.6,0.6-1.5,1-2.4,1s-1.8-0.4-2.4-1l-14.7-14.5c-0.3-0.2-0.6-0.3-0.9-0.3s-0.7,0.2-0.9,0.4
		c-0.2,0.2-0.4,0.6-0.4,0.9c0,0.3,0.1,0.7,0.3,0.9l10.7,10.6c0.6,0.5,0.9,1.3,1,2c0.1,0.8-0.1,1.5-0.6,2.2c-0.1,0.2-0.3,0.3-0.4,0.5
		c-0.3,0.3-0.7,0.6-1.1,0.7c-0.4,0.2-0.8,0.3-1.3,0.3c-0.4,0-0.9-0.1-1.3-0.3s-0.8-0.4-1.1-0.7l-2.8-2.7c-3.3-3.3-7.2-7.9-8-12.2
		c-1.2-6.8,2.7-13.5,8.1-18.8l6.1-6c0.8-0.8,2-1.3,3.2-1.3s2.3,0.5,3.2,1.3l9.2,9.1c0.1,0.1,0.2,0.2,0.4,0.3
		c0.1,0.1,0.1,0.1,0.2,0.2l17.3,17.1c0.6,0.6,0.9,1.5,0.9,2.3c0,0.9-0.4,1.7-1,2.3s-1.5,1-2.3,1C403.5,168.8,402.7,168.5,402,167.9
		L402,167.9z"/>
	<path class="st4" d="M369.8,192.3c0.3-0.2,0.6-0.4,0.8-0.7c0.1-0.1,0.2-0.2,0.2-0.3c0.1-0.1,0.1-0.1,0.1-0.2
		c0.1-0.2,0.2-0.4,0.3-0.7c0,0,0,0,0-0.1c0.1-0.2,0.2-0.4,0.2-0.7c0-0.1,0-0.2,0.1-0.2c0-0.2,0.1-0.3,0.1-0.5c0.2-1.3,0.1-2.7-0.2-4
		c-1.4-5.8-4.1-11.2-7-16.4c-5.2-9.5-14.1-22.3-26.5-21.2c-3.9,0.3-7.6,2.2-10.6,4.6c-5.4,4.3-9.6,10.6-12.9,16.6
		c-2.8,5.2-5.6,10.6-7,16.4c-0.8,3.2-0.4,7.3,3.5,8.1c1.2,0.2,2.5,0.1,3.7,0.1h3.9c0.3,0,0.7,0,1,0h46.6
		C367.4,193.1,368.8,192.9,369.8,192.3z M339.5,181.9c-9.6,0-17.3-8.8-17.3-8.8s7.7-8.8,17.3-8.8c9.5,0,17.3,8.8,17.3,8.8
		S349,181.9,339.5,181.9z"/>
	<path class="st4" d="M339.5,179.5c3.6,0,6.5-2.9,6.5-6.4s-2.9-6.4-6.5-6.4s-6.5,2.9-6.5,6.4S335.9,179.5,339.5,179.5z"/>
</g>
<line class="st3" x1="87.5" y1="643.6" x2="87.5" y2="677.5"/>
<path class="st3" d="M90.4,890.6c-32.8,2.2-33.1-1.4-66,0.8"/>
<path class="st3" d="M87.5,711.8c1.3,28.6,2,57.2,2.1,85.8c0,17.2-0.1,34.4-0.3,51.6c-0.4,42-0.9,83.9-1.3,125.9"/>
<path class="st3" d="M7.4,968.8c0,0,2.4-207.1,1.3-264.1"/>
<path class="st3" d="M605.4,887.5c23.1,1.5,46.3,1.3,69.4-0.6"/>
<path class="st3" d="M593.2,853.3c4.5,60.3-2.5,117.6,0.9,181.3"/>
</svg>
