<?xml version="1.0" encoding="UTF-8"?>
<svg id="Layer_2" data-name="Layer 2" xmlns="http://www.w3.org/2000/svg" viewBox="0 0 50 50">
  <defs>
    <style>
      .cls-1 {
        fill: #00272d;
      }

      .cls-2 {
        fill: none;
        stroke: #00272d;
        stroke-linecap: round;
        stroke-width: 2.5px;
      }
    </style>
  </defs>
  <g id="Layer_1-2" data-name="Layer 1">
    <path class="cls-1" d="M36.05,2.5c6.31,0,11.45,4.61,11.45,10.28v24.44c0,5.67-5.14,10.28-11.45,10.28H13.95c-6.31,0-11.45-4.61-11.45-10.28V12.78C2.5,7.11,7.64,2.5,13.95,2.5h22.1m0-2.5H13.95C6.25,0,0,5.72,0,12.78v24.44c0,7.06,6.25,12.78,13.95,12.78h22.1c7.71,0,13.95-5.72,13.95-12.78V12.78c0-7.06-6.25-12.78-13.95-12.78h0Z"/>
    <g>
      <g>
        <polyline class="cls-2" points="25.28 11.28 38.72 11.28 38.72 24.72"/>
        <line class="cls-2" x1="38.72" y1="11.28" x2="27.07" y2="22.93"/>
      </g>
      <g>
        <polyline class="cls-2" points="24.72 38.72 11.28 38.72 11.28 25.28"/>
        <line class="cls-2" x1="11.28" y1="38.72" x2="22.93" y2="27.07"/>
      </g>
    </g>
  </g>
</svg>