<svg width="270" height="300" viewBox="0 0 270 300" fill="none" xmlns="http://www.w3.org/2000/svg">
<path d="M47.364 198.102C46.9499 196.876 46.632 195.621 46.4131 194.347C46.3276 193.837 46.4051 193.314 46.6349 192.85C46.8648 192.387 47.2356 192.005 47.696 191.758C48.1563 191.511 48.6835 191.412 49.2043 191.473C49.7252 191.535 50.214 191.754 50.603 192.102C62.412 202.735 78.1539 208.548 93.5378 213.719C93.899 213.841 94.2834 213.882 94.6622 213.837C95.0411 213.792 95.4047 213.664 95.7259 213.461C96.0471 213.259 96.3175 212.987 96.517 212.667C96.7164 212.347 96.8399 211.987 96.878 211.613C97.8416 201.485 91.48 191.408 83.544 184.498C74.8164 176.918 64.1245 171.817 55.2959 164.346C44.1766 154.95 36.5435 141.69 33.5398 127.561C32.3234 121.839 31.882 115.984 32.2271 110.15C32.219 110.125 32.2109 110.099 32.2302 110.071C32.5758 104.829 34.8201 104.466 37.0572 109.235C37.3903 109.941 37.7337 110.644 38.0806 111.34C39.6875 114.69 41.5904 117.894 43.7673 120.917C49.238 128.33 57.2645 132.335 65.8521 135.296C66.2667 135.438 66.7128 135.466 67.1419 135.377C67.5711 135.287 67.9669 135.083 68.2865 134.788C68.6061 134.492 68.8372 134.116 68.9549 133.7C69.0726 133.284 69.0723 132.844 68.9541 132.427C66.0478 122.411 65.6631 111.394 71.5417 102.99C73.8288 99.7147 76.9305 97.0576 79.3054 93.8439C81.4093 90.9669 82.9056 87.7029 83.7061 84.2449C84.5065 80.7868 84.5948 77.2047 83.9658 73.7102C82.0048 63.1626 72.6043 54.6636 63.7571 49.1891C63.2971 48.9095 62.94 48.4923 62.738 47.9987C62.536 47.5051 62.4997 46.961 62.6345 46.4462C62.7694 45.9314 63.0683 45.4729 63.4873 45.138C63.9064 44.803 64.4236 44.6092 64.9632 44.585C80.6132 43.9638 96.3916 47.6413 110.707 54.0392C125.359 60.5846 138.586 69.8831 150.669 80.3821C151.063 80.7214 151.553 80.9327 152.073 80.987C152.593 81.0413 153.117 80.9359 153.573 80.6853C154.03 80.4347 154.396 80.0512 154.621 79.5872C154.847 79.1233 154.921 78.6018 154.834 78.0941C152.891 66.9995 148.431 56.4753 141.787 47.3056C141.461 46.866 141.29 46.3339 141.3 45.7904C141.309 45.2468 141.499 44.7216 141.84 44.2945C142.181 43.8674 142.654 43.5619 143.188 43.4245C143.722 43.2871 144.288 43.3253 144.798 43.5332C154.208 47.3509 163.309 51.8661 171.344 57.987C181.897 66.0527 190.477 77.2636 192.953 90.184C195.191 101.812 192.398 113.725 191.8 125.546C191.256 136.632 193.337 148.972 201.53 156.332C202.004 156.76 202.625 156.995 203.267 156.989C203.91 156.984 204.525 156.738 204.99 156.302C211.414 150.173 210.523 139.128 212.179 130.036C213.453 123.269 216.51 116.954 221.044 111.723C221.427 111.279 221.955 110.982 222.538 110.883C223.12 110.783 223.72 110.887 224.233 111.177C224.746 111.467 225.14 111.924 225.348 112.47C225.555 113.016 225.562 113.615 225.368 114.164C222.828 121.36 222.41 129.441 223.426 137.068C225.005 149.094 229.764 160.446 233.459 172.009C237.154 183.572 239.953 195.874 237.52 207.743C235.316 218.56 228.881 228.144 221.381 236.345C201.416 258.181 171.215 266.78 141.546 270.095C119.397 272.575 94.7265 268.489 79.782 252.17C70.8541 242.405 66.4833 229.505 59.333 218.394C55.1438 211.874 49.7592 205.226 47.364 198.102Z" fill="#01282F"/>
<path d="M178.656 178.35C181.227 173.299 181.523 172.882 181.567 166.859C181.602 162.17 181.479 157.431 180.48 152.836C180.071 150.99 177.681 140.908 174.129 144.731C170.226 150.98 165.622 156.892 158.802 159.553C157.731 159.883 155.801 159.383 155.677 157.153C158.014 130.993 135.582 112.853 114.566 100.736C114.136 100.49 113.598 100.24 113.15 100.465C109.921 102.113 114.875 107.526 115.863 109.133C121.398 118.152 124.892 129.247 126.723 139.578C127.005 141.135 127.824 144.794 125.973 145.764C124.036 146.783 118.324 144.836 116.383 144.339C108.531 142.23 102.083 137.54 95.6494 133C95.1513 132.612 94.5958 132.3 94.0013 132.073C92.6663 131.63 89.8775 132.249 90.4623 134.079C91.8688 141.259 95.8948 147.539 100.584 153.133C102.55 155.463 104.942 157.513 107.089 159.683C108.816 161.424 117.641 167.693 113.489 170.277C112.541 170.758 111.488 171.006 110.422 170.998L105.44 171.34C104.438 171.327 103.446 171.561 102.558 172.02C101.31 172.805 100.851 174.414 101.114 175.802C101.464 177.178 102.153 178.448 103.122 179.504C104.801 181.582 106.729 183.457 108.867 185.09C111.113 186.808 113.632 188.266 115.503 190.368C119.422 194.758 119.083 200.653 117.874 206.038" stroke="#636A6B" stroke-width="4.48" stroke-miterlimit="10"/>
<path d="M155.16 204.967C172.828 199.52 192.353 211.382 192.353 211.382C192.353 211.382 183.231 232.077 165.563 237.525C147.895 242.973 128.369 231.111 128.369 231.111C128.369 231.111 137.492 210.415 155.16 204.967Z" fill="white"/>
<path d="M164.14 233.068C157.515 235.111 150.454 231.476 148.368 224.95C146.283 218.423 149.963 211.477 156.588 209.434C163.212 207.392 170.273 211.026 172.359 217.553C174.444 224.079 170.764 231.025 164.14 233.068Z" fill="#09262C"/>
</svg>
