<svg width="349" height="168" viewBox="0 0 349 168" fill="none" xmlns="http://www.w3.org/2000/svg">
<g clip-path="url(#clip0_538_2023)">
<path d="M332.82 63.7306L266.51 104.882C265.741 105.359 264.815 105.511 263.934 105.305C263.054 105.1 262.291 104.552 261.814 103.784C261.338 103.016 261.186 102.09 261.392 101.21C261.599 100.329 262.147 99.5665 262.915 99.0895L317.639 65.1288C319.432 63.9432 320.693 62.1056 321.154 60.0064C321.614 57.9071 321.238 55.7115 320.105 53.886C318.972 52.0605 317.172 50.7488 315.086 50.2296C313.001 49.7103 310.794 50.0244 308.936 51.1052L254.212 85.0658C253.444 85.5428 252.517 85.6952 251.637 85.4893C250.756 85.2835 249.993 84.7363 249.517 83.9681C249.04 83.2 248.888 82.2739 249.095 81.3934C249.301 80.5129 249.849 79.7503 250.618 79.2733L293.748 52.5069C295.542 51.3213 296.803 49.4837 297.263 47.3844C297.724 45.2852 297.347 43.0896 296.215 41.2641C295.082 39.4386 293.281 38.1269 291.196 37.6076C289.11 37.0884 286.904 37.4025 285.045 38.4833L241.915 65.2496C241.146 65.7267 240.219 65.879 239.339 65.6731C238.458 65.4673 237.696 64.9201 237.219 64.152C236.742 63.3838 236.591 62.4577 236.797 61.5772C237.003 60.6968 237.551 59.9341 238.32 59.4571L269.858 39.8851C271.478 38.8735 272.696 37.3304 273.304 35.5202C273.912 33.71 273.872 31.7452 273.19 29.9623C273.004 29.4648 272.769 28.9869 272.489 28.5358C271.341 26.679 269.503 25.3544 267.377 24.8529C265.252 24.3514 263.014 24.7141 261.155 25.8613L253.04 30.8973C243.262 36.9657 231.315 45.984 227.097 55.8232C220.363 71.5717 225.953 89.9585 235.695 105.656L246.763 123.491C247.522 124.716 248.515 125.779 249.686 126.62C250.856 127.461 252.181 128.063 253.585 128.392C254.988 128.72 256.443 128.769 257.866 128.535C259.289 128.302 260.651 127.79 261.877 127.03L286.54 111.724C287.12 111.364 287.7 111.004 288.319 110.708L341.512 77.6972C343.305 76.5116 344.566 74.674 345.027 72.5748C345.487 70.4755 345.111 68.2799 343.978 66.4544C342.845 64.6289 341.045 63.3172 338.959 62.798C336.874 62.2787 334.668 62.5928 332.809 63.6735L332.82 63.7306Z" fill="#0A262C"/>
</g>
<g clip-path="url(#clip1_538_2023)">
<path d="M15.6874 63.7306L81.9978 104.882C82.7665 105.359 83.693 105.511 84.5736 105.305C85.4542 105.1 86.2167 104.552 86.6934 103.784C87.1701 103.016 87.3219 102.09 87.1155 101.21C86.909 100.329 86.3612 99.5665 85.5926 99.0895L30.8691 65.1288C29.0757 63.9432 27.8148 62.1056 27.3543 60.0064C26.8938 57.9071 27.27 55.7115 28.4028 53.886C29.5357 52.0605 31.3361 50.7488 33.4216 50.2296C35.5071 49.7103 37.7135 50.0244 39.572 51.1052L94.2955 85.0658C95.0641 85.5428 95.9907 85.6952 96.8713 85.4893C97.7519 85.2835 98.5144 84.7363 98.9911 83.9681C99.4678 83.2 99.6196 82.2739 99.4132 81.3934C99.2067 80.5129 98.6589 79.7503 97.8903 79.2733L54.7595 52.5069C52.9661 51.3213 51.7052 49.4837 51.2447 47.3844C50.7842 45.2852 51.1604 43.0896 52.2932 41.2641C53.4261 39.4386 55.2266 38.1269 57.3121 37.6076C59.3976 37.0884 61.6039 37.4025 63.4624 38.4833L106.593 65.2496C107.362 65.7267 108.288 65.879 109.169 65.6731C110.05 65.4673 110.812 64.9201 111.289 64.152C111.765 63.3838 111.917 62.4577 111.711 61.5772C111.504 60.6968 110.957 59.9341 110.188 59.4571L78.6499 39.8851C77.0297 38.8735 75.8114 37.3304 75.2035 35.5202C74.5956 33.71 74.6361 31.7452 75.3179 29.9623C75.5037 29.4648 75.7383 28.9869 76.0185 28.5358C77.1665 26.679 79.0052 25.3544 81.1305 24.8529C83.2559 24.3514 85.4939 24.7141 87.3528 25.8613L95.4678 30.8973C105.246 36.9657 117.192 45.984 121.411 55.8232C128.145 71.5717 122.555 89.9585 112.813 105.656L101.745 123.491C100.986 124.716 99.9928 125.779 98.8222 126.62C97.6517 127.461 96.3268 128.063 94.9232 128.392C93.5197 128.72 92.0649 128.769 90.6421 128.535C89.2193 128.302 87.8564 127.79 86.6311 127.03L61.9676 111.724C61.3879 111.364 60.8083 111.004 60.1891 110.708L6.99586 77.6972C5.20244 76.5116 3.94154 74.674 3.48105 72.5748C3.02055 70.4755 3.39672 68.2799 4.52961 66.4544C5.66251 64.6289 7.46288 63.3172 9.54839 62.798C11.6339 62.2787 13.8402 62.5928 15.6988 63.6735L15.6874 63.7306Z" fill="#0A262C"/>
</g>
<g clip-path="url(#clip2_538_2023)">
<ellipse cx="173.458" cy="117.996" rx="52.2085" ry="35.1876" fill="white"/>
<path d="M234.394 167.923H237.019H239.798H241.728C241.728 167.923 234.279 167.903 234.394 167.923Z" fill="#0A262C"/>
<path d="M250.895 165.737C251.613 165.222 252.261 164.618 252.825 163.938C253.038 163.667 253.25 163.416 253.443 163.125C253.576 162.953 253.699 162.772 253.81 162.584C254.147 162.033 254.444 161.457 254.697 160.862V160.688C254.924 160.135 255.111 159.566 255.257 158.986C255.32 158.789 255.371 158.589 255.412 158.386C255.412 157.98 255.585 157.554 255.643 157.129C256.113 153.736 255.943 150.284 255.141 146.954C251.667 132.001 244.642 118.228 237.444 104.803C224.339 80.3523 201.855 47.5061 170.242 50.3883C160.322 51.5839 150.979 55.7041 143.397 62.2269C129.713 73.3497 119.079 89.3086 110.8 104.784C103.601 118.209 96.5758 131.981 93.1019 146.934C91.1719 155.156 91.9632 165.582 101.941 167.594C104.998 168.007 108.089 168.11 111.166 167.904H116.956H120.932C121.8 167.904 122.688 167.904 123.557 167.904H241.612C244.836 167.944 248.021 167.201 250.895 165.737ZM174.16 139.023C149.997 139.023 130.389 116.352 130.389 116.352C130.389 116.352 149.997 93.6804 174.16 93.6804C198.323 93.6804 217.932 116.352 217.932 116.352C217.932 116.352 198.343 139.023 174.16 139.023Z" fill="#0A262C"/>
<path d="M174.18 132.832C183.24 132.832 190.584 125.471 190.584 116.39C190.584 107.309 183.24 99.9473 174.18 99.9473C165.12 99.9473 157.775 107.309 157.775 116.39C157.775 125.471 165.12 132.832 174.18 132.832Z" fill="#0A262C"/>
</g>
<defs>
<clipPath id="clip0_538_2023">
<rect width="112.853" height="86.4093" fill="white" transform="translate(207.055 59.5073) rotate(-31.8232)"/>
</clipPath>
<clipPath id="clip1_538_2023">
<rect width="112.853" height="86.4093" fill="white" transform="matrix(-0.849679 -0.5273 -0.5273 0.849679 141.453 59.5073)"/>
</clipPath>
<clipPath id="clip2_538_2023">
<rect width="163.661" height="117.786" fill="white" transform="translate(92.3687 50.2139)"/>
</clipPath>
</defs>
</svg>
