<svg width="217" height="264" viewBox="0 0 217 264" fill="none" xmlns="http://www.w3.org/2000/svg">
<path d="M161.942 114.09C159.778 112.714 157.451 111.604 155.013 110.785C137.736 105.009 118.979 105.173 101.809 111.252C83.9761 117.798 69.0704 130.344 59.7298 146.67C51.1834 161.707 56.7934 179.029 62.7261 194.079L66.8543 204.552C67.8052 206.945 69.682 208.867 72.0722 209.898C74.4624 210.928 77.1703 210.982 79.6008 210.047C80.1909 209.82 80.7574 209.537 81.2926 209.202C83.2252 208.008 84.6761 206.19 85.3967 204.058C86.1174 201.927 86.0629 199.615 85.2427 197.519L69.9548 158.735C69.7631 158.246 69.671 157.724 69.6839 157.2C69.6968 156.676 69.8144 156.16 70.03 155.681C70.2456 155.201 70.555 154.769 70.9404 154.407C71.3259 154.046 71.78 153.762 72.2766 153.573C72.7726 153.383 73.3018 153.291 73.8341 153.301C74.3664 153.312 74.8913 153.426 75.3788 153.637C75.8664 153.848 76.307 154.151 76.6756 154.529C77.0441 154.907 77.3334 155.353 77.5268 155.842L106.658 229.746C107.608 232.139 109.483 234.063 111.872 235.095C114.262 236.127 116.97 236.183 119.401 235.25C121.601 234.416 123.424 232.832 124.538 230.787C125.651 228.741 125.982 226.369 125.468 224.104C125.365 223.639 125.228 223.183 125.057 222.738L95.9178 148.814C95.5361 147.836 95.5604 146.749 95.9855 145.789C96.4106 144.828 97.2025 144.07 98.1902 143.679C99.1864 143.312 100.289 143.346 101.261 143.773C102.232 144.201 102.993 144.988 103.379 145.963L127.501 207.157C127.971 208.343 128.674 209.425 129.569 210.343C130.464 211.261 131.534 211.997 132.718 212.508C133.902 213.019 135.176 213.295 136.469 213.321C137.761 213.347 139.046 213.122 140.25 212.659L140.36 212.617C141.566 212.159 142.669 211.471 143.605 210.594C144.541 209.717 145.293 208.666 145.817 207.503C146.341 206.339 146.627 205.086 146.658 203.813C146.69 202.541 146.467 201.275 146.002 200.088L121.881 138.894C121.499 137.916 121.523 136.829 121.948 135.868C122.374 134.908 123.165 134.15 124.153 133.759C125.149 133.392 126.252 133.426 127.224 133.853C128.195 134.281 128.956 135.067 129.342 136.043L158.474 209.948C158.652 210.389 158.864 210.818 159.106 211.229L163.002 221.113C163.473 222.299 164.175 223.382 165.071 224.3C165.966 225.218 167.036 225.953 168.22 226.464C169.403 226.975 170.678 227.251 171.97 227.277C173.263 227.303 174.547 227.078 175.751 226.615C176.957 226.157 178.06 225.47 178.996 224.592C179.932 223.715 180.684 222.664 181.208 221.501C181.732 220.338 182.018 219.084 182.05 217.812C182.081 216.54 181.858 215.274 181.393 214.086L155.47 148.321C155.47 148.321 155.445 148.257 155.43 148.219L147.836 128.955C147.499 128.077 147.489 127.11 147.808 126.225C148.127 125.341 148.755 124.597 149.579 124.125C149.736 124.03 149.901 123.948 150.072 123.878C151.072 123.494 152.187 123.516 153.171 123.94C154.155 124.364 154.927 125.155 155.319 126.139L177.969 183.599C178.798 185.692 180.34 187.435 182.332 188.53C184.323 189.626 186.639 190.005 188.883 189.603C189.509 189.491 190.123 189.321 190.715 189.094C191.921 188.637 193.022 187.95 193.958 187.073C194.893 186.197 195.644 185.147 196.168 183.984C196.691 182.822 196.977 181.569 197.009 180.298C197.041 179.026 196.818 177.761 196.353 176.575L184.848 147.388C179.799 134.596 173.909 121.663 161.942 114.09Z" fill="#09262C"/>
<path d="M78.4444 55.7497C58.6702 63.3053 49.8182 87.632 49.8182 87.632C49.8182 87.632 73.023 99.7172 92.7972 92.1616C112.571 84.606 121.421 60.2729 121.421 60.2729C121.421 60.2729 98.2121 48.1965 78.4444 55.7497ZM90.8289 87.1682C89.0663 87.8427 87.1859 88.1684 85.2952 88.127C83.4046 88.0856 81.5408 87.6777 79.8104 86.9267C78.08 86.1757 76.5169 85.0962 75.2105 83.75C73.904 82.4039 72.8798 80.8174 72.1965 79.0813C71.5125 77.3461 71.1824 75.4952 71.2252 73.6344C71.268 71.7736 71.6827 69.9393 72.4457 68.2364C73.2087 66.5334 74.305 64.995 75.672 63.7093C77.0391 62.4236 78.65 61.4158 80.4127 60.7432C83.9716 59.3833 87.9333 59.4706 91.4268 60.9859C94.9204 62.5012 97.6597 65.3203 99.0426 68.8236C100.424 72.3286 100.335 76.2305 98.7946 79.6707C97.2543 83.111 94.3889 85.8079 90.8289 87.1682Z" fill="white"/>
<path d="M163.832 78.85C156.259 67.9207 146.158 59.0532 136.019 50.524C117.555 34.9793 88.7735 15.6084 63.8203 27.806C56.0331 31.6127 49.934 38.2615 45.6118 45.7027C37.9575 58.9266 34.3252 75.094 32.4398 90.101C30.7989 103.131 29.4183 116.386 31.316 129.484C32.3519 136.68 36.2923 144.819 45.09 143.348C47.7298 142.899 50.2741 141.676 52.7498 140.716L57.5359 138.887L60.7829 137.646C61.4972 137.373 62.218 137.098 62.9323 136.825L159.485 99.9327C161.919 98.8481 164.676 97.4267 166.245 95.3412C166.683 94.7025 167.033 94.0097 167.286 93.2808C167.386 93.0091 167.469 92.7318 167.534 92.4504C167.583 92.27 167.629 92.0832 167.668 91.899C167.771 91.3501 167.829 90.7941 167.842 90.2362C167.845 90.1827 167.844 90.1289 167.839 90.0756C167.843 89.5597 167.817 89.044 167.76 88.5312C167.736 88.3564 167.721 88.1856 167.697 88.0109C167.642 87.6423 167.56 87.2836 167.482 86.916C166.802 84.0219 165.562 81.2837 163.832 78.85ZM92.7971 92.1617C73.0229 99.7173 49.8181 87.6321 49.8181 87.6321C49.8181 87.6321 58.6701 63.3054 78.4442 55.7498C98.2184 48.1942 121.421 60.273 121.421 60.273C121.421 60.273 112.565 84.6086 92.7971 92.1617Z" fill="#09262C"/>
<path d="M90.8291 87.1683C98.2424 84.3357 101.92 76.1225 99.0428 68.8237C96.1657 61.5248 87.8237 57.9042 80.4104 60.7368C72.997 63.5694 69.3196 71.7826 72.1967 79.0814C75.0737 86.3803 83.4157 90.0009 90.8291 87.1683Z" fill="#09262C"/>
<path d="M68.3999 134.772L140.003 107.413" stroke="#636A6B" stroke-width="5" stroke-miterlimit="10"/>
</svg>
