<?xml version="1.0" encoding="utf-8"?>
<!-- Generator: Adobe Illustrator 27.0.0, SVG Export Plug-In . SVG Version: 6.00 Build 0)  -->
<svg version="1.1" id="Layer_1" xmlns="http://www.w3.org/2000/svg" xmlns:xlink="http://www.w3.org/1999/xlink" x="0px" y="0px"
	 viewBox="0 0 1440 365" style="enable-background:new 0 0 1440 365;" xml:space="preserve">
<style type="text/css">
	.st0{fill:#007264;}
	.st1{fill:none;stroke:#00272D;stroke-miterlimit:10;}
</style>
<rect class="st0" width="1440" height="365"/>
<path class="st1" d="M116.8,162.4l-4.5-8.2l-4.5,7.8l-4.2-7l-3.2,6.1l0,0c-1.7-3.4-5.3-9.6-5.3-9.6L88.3,162"/>
<path class="st1" d="M305.9,214.3l-4.5-8.2l-4.5,7.8l-4.2-7l-3.2,6.1l0,0c-1.7-3.4-5.3-9.6-5.3-9.6l-6.9,10.5"/>
<path class="st1" d="M217.6,100.7l-4.5-8.2l-4.5,7.8l-4.2-7l-3.2,6.1l0,0c-1.7-3.4-5.3-9.6-5.3-9.6l-6.9,10.5"/>
<path class="st1" d="M81.3,55.8l-4.5-8.2l-4.5,7.8l-4.2-7l-3.2,6.1l0,0c-1.7-3.4-5.3-9.6-5.3-9.6l-6.9,10.5"/>
<path class="st1" d="M340.2,67.5l-4.5-8.2l-4.5,7.8l-4.2-7l-3.2,6.1l0,0c-1.7-3.4-5.3-9.6-5.3-9.6l-6.9,10.5"/>
<path class="st1" d="M418.4,176.6l-4.5-8.1l-4.5,7.7l-4.2-7l-3.2,6.1l0,0c-1.7-3.4-5.3-9.6-5.3-9.6l-6.9,10.4"/>
<path class="st1" d="M520.7,230.6l-4.5-8.1l-4.5,7.7l-4.2-7l-3.2,6.1l0,0c-1.7-3.4-5.3-9.6-5.3-9.6l-6.9,10.4"/>
<path class="st1" d="M687.9,61.2l-4.5-8.1l-4.5,7.7l-4.2-7l-3.2,6.1l0,0c-1.7-3.4-5.3-9.6-5.3-9.6l-6.9,10.4"/>
<path class="st1" d="M739.6,176.6l-4.5-8.1l-4.5,7.7l-4.2-7l-3.2,6.1l0,0c-1.7-3.4-5.3-9.6-5.3-9.6l-6.9,10.4"/>
<path class="st1" d="M499,89.8l-4.5-8.1l-4.5,7.7l-4.2-7l-3.2,6.1l0,0c-1.7-3.4-5.3-9.6-5.3-9.6l-6.9,10.4"/>
<path class="st1" d="M606.2,133.5l-4.5-8.1l-4.5,7.7l-4.2-7l-3.2,6.1l0,0c-1.7-3.4-5.3-9.6-5.3-9.6l-6.9,10.4"/>
<path class="st1" d="M197,270l-4.5-8.2l-4.5,7.8l-4.2-7l-3.2,6.1l0,0c-1.7-3.4-5.3-9.6-5.3-9.6l-6.9,10.5"/>
<path class="st1" d="M896.8,162.4l-4.5-8.2l-4.5,7.8l-4.2-7l-3.2,6.1l0,0c-1.7-3.4-5.3-9.6-5.3-9.6l-6.9,10.5"/>
<path class="st1" d="M1085.9,214.3l-4.5-8.2l-4.5,7.8l-4.2-7l-3.2,6.1l0,0c-1.7-3.4-5.3-9.6-5.3-9.6l-6.9,10.5"/>
<path class="st1" d="M997.6,100.7l-4.5-8.2l-4.5,7.8l-4.2-7l-3.2,6.1l0,0c-1.7-3.4-5.3-9.6-5.3-9.6l-6.9,10.5"/>
<path class="st1" d="M861.3,55.8l-4.5-8.2l-4.5,7.8l-4.2-7l-3.2,6.1l0,0c-1.7-3.4-5.3-9.6-5.3-9.6l-6.9,10.5"/>
<path class="st1" d="M1120.2,67.5l-4.5-8.2l-4.5,7.8l-4.2-7l-3.2,6.1l0,0c-1.7-3.4-5.3-9.6-5.3-9.6l-6.9,10.5"/>
<path class="st1" d="M1189.4,167.8l-4.5-8.1l-4.5,7.7l-4.2-7l-3.2,6.1l0,0c-1.7-3.4-5.3-9.6-5.3-9.6l-6.9,10.4"/>
<path class="st1" d="M1272.9,241.4l-4.5-8.1l-4.5,7.7l-4.2-7l-3.2,6.1l0,0c-1.7-3.4-5.3-9.6-5.3-9.6l-6.9,10.4"/>
<path class="st1" d="M1420.3,219.7l-4.5-8.1l-4.5,7.7l-4.2-7l-3.2,6.1l0,0c-1.7-3.4-5.3-9.6-5.3-9.6l-6.9,10.4"/>
<path class="st1" d="M1279,100.6l-4.5-8.1l-4.5,7.7l-4.2-7l-3.2,6.1l0,0c-1.7-3.4-5.3-9.6-5.3-9.6l-6.9,10.4"/>
<path class="st1" d="M1379.2,71.8l-4.5-8.1l-4.5,7.7l-4.2-7l-3.2,6.1l0,0c-1.7-3.4-5.3-9.6-5.3-9.6l-6.9,10.4"/>
<path class="st1" d="M977,270l-4.5-8.2l-4.5,7.8l-4.2-7l-3.2,6.1l0,0c-1.7-3.4-5.3-9.6-5.3-9.6l-6.9,10.5"/>
<path class="st1" d="M81.3,302.9l-4.5-8.2l-4.5,7.8l-4.2-7l-3.2,6.1l0,0c-1.7-3.4-5.3-9.6-5.3-9.6l-6.9,10.5"/>
<path class="st1" d="M340.2,313.8l-4.5-8.2l-4.5,7.8l-4.2-7l-3.2,6.1l0,0c-1.7-3.4-5.3-9.6-5.3-9.6l-6.9,10.5"/>
<path class="st1" d="M702.1,297.5l-4.5-8.1l-4.5,7.7l-4.2-7l-3.2,6.1l0,0c-1.7-3.4-5.3-9.6-5.3-9.6l-6.9,10.4"/>
<path class="st1" d="M567.7,319.3l-4.5-8.1l-4.5,7.7l-4.2-7l-3.2,6.1l0,0c-1.7-3.4-5.3-9.6-5.3-9.6l-6.9,10.4"/>
<path class="st1" d="M851.5,335.6l-4.5-8.2l-4.5,7.8l-4.2-7l-3.2,6.1l0,0c-1.7-3.4-5.3-9.6-5.3-9.6l-6.9,10.5"/>
<path class="st1" d="M1130.3,330.2l-4.5-8.2l-4.5,7.8l-4.2-7l-3.2,6.1l0,0c-1.7-3.4-5.3-9.6-5.3-9.6l-6.9,10.5"/>
<path class="st1" d="M1373.6,330.1l-4.5-8.1l-4.5,7.7l-4.2-7l-3.2,6.1l0,0c-1.7-3.4-5.3-9.6-5.3-9.6l-6.9,10.4"/>
</svg>
