<?xml version="1.0" encoding="utf-8"?>
<!-- Generator: Adobe Illustrator 27.0.0, SVG Export Plug-In . SVG Version: 6.00 Build 0)  -->
<svg version="1.1" id="Layer_1" xmlns="http://www.w3.org/2000/svg" xmlns:xlink="http://www.w3.org/1999/xlink" x="0px" y="0px"
	 viewBox="0 0 1440 2060" style="enable-background:new 0 0 1440 2060;" xml:space="preserve">
<style type="text/css">
	.st0{fill:#1B7353;}
	.st1{fill:none;stroke:#104D2F;stroke-width:4;stroke-miterlimit:10;}
</style>
<rect y="-0.5" class="st0" width="1440" height="2061"/>
<g>
	<path class="st1" d="M149.7,48.4c5-8.7,12.4-14.8,20.9-17.3c-5.2-0.8-10.4-0.2-15.4,1.7c-5,2-9.5,5.2-13.3,9.5
		c-2.2-4-5.2-7.2-8.7-9.4s-7.4-3.3-11.3-3.1c3.4,1.5,6.6,3.9,9.1,7.1c2.6,3.2,4.4,7.1,5.5,11.4"/>
	<path class="st1" d="M749.7,745.8c5-8.7,12.4-14.8,20.9-17.3c-5.2-0.8-10.4-0.2-15.4,1.7c-5,2-9.5,5.2-13.3,9.5
		c-2.2-4-5.2-7.2-8.7-9.4s-7.4-3.3-11.3-3.1c3.4,1.5,6.6,3.9,9.1,7.1c2.6,3.2,4.4,7.1,5.5,11.4"/>
	<path class="st1" d="M679.1,202c-2.3-10.9-9.7-19.8-20.2-23.3c1.6,0.1,3.2,0.2,4.7,0.5c9.6,1.7,17.3,7.5,21.6,15.5
		c4.3-10.9,13.4-19,25.3-21.1c1.7-0.3,3.4-0.5,5.2-0.5c-10.3,3.6-18,12-21.2,22.5c4.9-6.3,11.9-10.9,20.4-12.3
		c1.7-0.3,3.4-0.5,5.2-0.5c-9.3,3.2-16.3,10.3-20.1,19.3"/>
	<path class="st1" d="M1340,765.7c-1-12.6-8.2-23.8-19.6-29.2c1.8,0.3,3.6,0.7,5.3,1.2c10.7,3.3,18.5,11,22.2,20.6
		c6.4-11.7,17.9-19.6,31.6-20.4c2-0.1,4-0.1,5.9,0.2c-12.2,2.6-22,11-27.2,22.5c6.5-6.5,15-10.6,24.7-11.1c2-0.1,4-0.1,5.9,0.2
		c-10.9,2.3-19.9,9.3-25.5,19"/>
	<path class="st1" d="M361.2,405.8c2.7-14.8,12.5-27.1,26.4-31.9c-2.1,0.1-4.1,0.2-6.2,0.6c-14,2.5-24.7,12-29.8,24.8
		c-3.8-8.8-11.4-15.4-21.3-17.2c-1.5-0.2-3-0.4-4.4-0.4c10.4,3.6,17.6,12.9,19.3,24.1"/>
	<path class="st1" d="M1018,480.3c-2.5-12.2-11.3-22.1-23.9-26c1.8,0.1,3.7,0.2,5.6,0.5c12.6,2,22.4,9.8,27,20.3
		c3.4-7.2,10.3-12.6,19.2-14.1c1.3-0.2,2.7-0.3,4-0.4c-9.4,2.9-15.9,10.5-17.4,19.7"/>
	<path class="st1" d="M1277.9,148.6c2.6-12.2,10.9-22.1,22.8-26c-1.8,0.1-3.6,0.2-5.3,0.5c-10.9,1.8-19.4,8.4-24.3,17.3
		c-4.8-12.2-15.1-21.3-28.5-23.6c-1.9-0.4-3.9-0.5-5.9-0.6c11.6,4,20.2,13.4,23.9,25.2c-5.5-7.1-13.4-12.2-22.9-13.8
		c-1.9-0.4-3.9-0.5-5.9-0.5c10.4,3.6,18.4,11.5,22.6,21.6"/>
	<path class="st1" d="M133.6,762c2.6-12.2,10.9-22.1,22.8-26c-1.8,0.1-3.6,0.2-5.3,0.5c-10.9,1.8-19.4,8.4-24.3,17.3
		c-4.8-12.2-15.1-21.3-28.5-23.6c-1.9-0.4-3.9-0.5-5.9-0.6c11.6,4,20.2,13.4,23.9,25.2c-5.5-7.1-13.4-12.2-22.9-13.8
		c-1.9-0.4-3.9-0.5-5.9-0.5c10.4,3.6,18.4,11.5,22.6,21.6"/>
</g>
<path class="st1" d="M749.7,1467.7c5-8.7,12.4-14.8,20.9-17.3c-5.2-0.8-10.4-0.2-15.4,1.7c-5,2-9.5,5.2-13.3,9.5
	c-2.2-4-5.2-7.2-8.7-9.4c-3.5-2.2-7.4-3.3-11.3-3.1c3.4,1.5,6.6,3.9,9.1,7.1c2.6,3.2,4.4,7.1,5.5,11.4"/>
<path class="st1" d="M440.4,1078.8c-2.3-10.9-9.7-19.8-20.2-23.3c1.6,0.1,3.2,0.2,4.7,0.5c9.6,1.7,17.3,7.5,21.6,15.5
	c4.3-10.9,13.4-19,25.3-21.1c1.7-0.3,3.4-0.5,5.2-0.5c-10.3,3.6-18,12-21.2,22.5c4.9-6.3,11.9-10.9,20.4-12.3
	c1.7-0.3,3.4-0.5,5.2-0.5c-9.3,3.2-16.3,10.3-20.1,19.3"/>
<path class="st1" d="M1305.7,1478.3c-1-12.6-8.2-23.8-19.6-29.2c1.8,0.3,3.6,0.7,5.3,1.2c10.7,3.3,18.5,11,22.2,20.6
	c6.4-11.7,17.9-19.6,31.6-20.4c2-0.1,4-0.1,5.9,0.2c-12.2,2.6-22,11-27.2,22.5c6.5-6.5,15-10.6,24.7-11.1c2-0.1,4-0.1,5.9,0.2
	c-10.9,2.3-19.9,9.3-25.5,19"/>
<path class="st1" d="M1007.4,1742.9c-1-12.6-8.2-23.8-19.6-29.2c1.8,0.3,3.6,0.7,5.3,1.2c10.7,3.3,18.5,11,22.2,20.6
	c6.4-11.7,17.9-19.6,31.6-20.4c2-0.1,4-0.1,5.9,0.2c-12.2,2.6-22,11-27.2,22.5c6.5-6.5,15-10.6,24.7-11.1c2-0.1,4-0.1,5.9,0.2
	c-10.9,2.3-19.9,9.3-25.5,19"/>
<path class="st1" d="M1054.5,1163.4c2.7-14.8,12.5-27.1,26.4-31.9c-2.1,0.1-4.1,0.2-6.2,0.6c-14,2.5-24.7,12-29.8,24.8
	c-3.8-8.8-11.4-15.4-21.3-17.2c-1.5-0.2-3-0.4-4.4-0.4c10.4,3.6,17.6,12.9,19.3,24.1"/>
<path class="st1" d="M166.5,1432.2c-2.5-12.2-11.3-22.1-23.9-26c1.8,0.1,3.7,0.2,5.6,0.5c12.6,2,22.4,9.8,27,20.3
	c3.4-7.2,10.3-12.6,19.2-14.1c1.3-0.2,2.7-0.3,4-0.4c-9.4,2.9-15.9,10.5-17.4,19.7"/>
<path class="st1" d="M202,1964c5-8.7,12.4-14.8,20.9-17.3c-5.2-0.8-10.4-0.2-15.4,1.7c-5,2-9.5,5.2-13.3,9.5c-2.2-4-5.2-7.2-8.7-9.4
	s-7.4-3.3-11.3-3.1c3.4,1.5,6.6,3.9,9.1,7.1c2.6,3.2,4.4,7.1,5.5,11.4"/>
<path class="st1" d="M1282,1977c-2.5-12.2-11.3-22.1-23.9-26c1.8,0.1,3.7,0.2,5.6,0.5c12.6,2,22.4,9.8,27,20.3
	c3.4-7.2,10.3-12.6,19.2-14.1c1.3-0.2,2.7-0.3,4-0.4c-9.4,2.9-15.9,10.5-17.4,19.7"/>
<path class="st1" d="M399.2,1746c2.6-12.2,10.9-22.1,22.8-26c-1.8,0.1-3.6,0.2-5.3,0.5c-10.9,1.8-19.4,8.4-24.3,17.3
	c-4.8-12.2-15.1-21.3-28.5-23.6c-1.9-0.4-3.9-0.5-5.9-0.6c11.6,4,20.2,13.4,23.9,25.2c-5.5-7.1-13.4-12.2-22.9-13.8
	c-1.9-0.4-3.9-0.5-5.9-0.5c10.4,3.6,18.4,11.5,22.6,21.6"/>
</svg>
