<svg xmlns="http://www.w3.org/2000/svg" viewBox="0 0 1440 113.9"><path d="M383.9-.1c-3.1 0-6.1.3-9.1.9-20.3 3.8-36 18.5-43.7 38.2h-.8c-5.7-13.5-16.8-23.5-31-26.2-2.2-.4-4.4-.7-6.6-.7 12 4.4 21.1 14.4 25.7 27.1-9.2.5-18.3 1.8-27.3 4.2-12.8 3.4-25.1 9.1-38.3 10.4-12.8 1.3-25.6-1.5-38.5-2-23.1-.9-47.1 8.6-70.8 9.4-5.6.2-11.1.3-16.7.3l-16.6.1c-17.7.1-28.6-2.7-45-9C50.7 47 35.8 41 19.7 41.5c-6.02.17-12.74 1.9-19.7 4.82v67.58h1440V76c-.3-.07-.59-.15-.9-.2-5.4-.8-10.5 2.3-16 3.2-10.7 1.8-21.1-5.4-31.9-4.6-6.5.5-13.8 3.6-18.9-.2-1.9-1.4-3-3.6-4.8-5.1-6.7-5.7-17.8-.4-26.2-3.4-2.7-.9-5.1-2.8-8-3.1-3.6-.4-6.9 1.7-10.5 2.4-9.1 1.8-16.4-5.4-23.8-9.1-8.7-4.3-17.2-4.3-26.7-3.2-17.5 2-35.2 5.2-52.8 5.4 2.7-4.6 6.4-8.6 10.9-11.7 4.5-3.1 9.6-5.3 15-6.5-5.9-.7-11.9-.2-17.6 1.5s-10.9 4.6-15.3 8.4c-2.5-3.5-5.9-6.4-9.9-8.3-4-2-8.4-2.9-12.9-2.8 4.1 1.4 7.8 3.7 10.8 6.7s5.2 6.7 6.3 10.7c-.3.4-.7.9-1 1.4-3.4-.3-6.8-.8-10.2-1.5-23.9-4.9-44.9-18.9-68.8-23.9-21.3-4.5-43.5-1.5-65.1 1.5L965.3 47c-25.1 3.5-51.3 6.9-75.3-.8-29-9.3-52.2-34.1-82.8-35.9-18.3-1.1-35.7 6.4-52.9 12.3-21.3 7.3-40.8 15.6-63.8 12.7-5.1-.7-10.5-1.6-15.3.1-3.6 1.3-6.4 4-9.6 6s-7.3 3.4-10.8 1.8c-2.6-1.2-4.2-3.9-6.8-5.2-5.7-3-12.3 1.8-17.3 5.8-5 4.1-13.2 7.5-17.4 2.8-1.5-1.8-2-4.2-3.7-5.8-2.9-2.7-7.9-1.9-11.6-.1-21.3 10.4-54.1 14.3-78.1 16.7-28.3 2.9-56.8 2.2-84.9-1.9 2-16.3 11.8-29.9 26.2-35-2 0-4 .2-6 .6-12.2 2.2-21.8 10.1-27.3 20.9-5.5-14.6-17-25.7-32-28.5-2.2-.4-4.4-.7-6.6-.7C402.4 17.6 412 29 416.2 43c-6.2-8.6-15.1-14.7-25.7-16.7-2.2-.4-4.4-.7-6.6-.7 11.4 4.2 20.2 13.4 25 25.1-20.5-4-41.1-8.6-61.5-10.6 6-18.8 19-33.8 36.5-40.2Z" style="fill:#1c7353"/></svg>