<?xml version="1.0" encoding="utf-8"?>
<!-- Generator: Adobe Illustrator 27.0.0, SVG Export Plug-In . SVG Version: 6.00 Build 0)  -->
<svg version="1.1" id="Layer_1" xmlns="http://www.w3.org/2000/svg" xmlns:xlink="http://www.w3.org/1999/xlink" x="0px" y="0px"
	 viewBox="0 0 1440 113.9" style="enable-background:new 0 0 1440 113.9;" xml:space="preserve">
<style type="text/css">
	.st0{clip-path:url(#SVGID_00000019663571717440237370000016919321937473409459_);}
	.st1{fill:#E25A5A;}
	.st2{fill:#1B7353;}
</style>
<g>
	<g>
		<defs>
			<rect id="SVGID_1_" y="-0.1" width="1443.9" height="114.1"/>
		</defs>
		<clipPath id="SVGID_00000160156079873206887820000003482426846982410425_">
			<use xlink:href="#SVGID_1_"  style="overflow:visible;"/>
		</clipPath>
		<g style="clip-path:url(#SVGID_00000160156079873206887820000003482426846982410425_);">
			<path class="st1" d="M1439.1,75.8c8.2,1.3,11.6,10.4,13.3,18c0.9,4.1,4,13.1,1.8,17.4c-0.1,0.2-0.2,0.3-0.2,0.4
				c-2.6,4-5.6,2.4-10.1,2.4c-12.6,0.1-25.1-0.1-37.7-0.1H-66c11.4-34.7,56.6-71.6,85.7-72.4c16.1-0.5,31,5.5,45.5,11.1
				c16.4,6.3,27.3,9.1,45,9l16.6-0.1c5.6,0,11.1-0.1,16.7-0.3c23.7-0.8,47.7-10.3,70.8-9.4c12.9,0.5,25.7,3.3,38.5,2
				c13.2-1.3,25.5-7,38.3-10.4c9-2.4,18.1-3.7,27.3-4.2c-4.6-12.7-13.7-22.7-25.7-27.1c2.2,0,4.4,0.3,6.6,0.7
				c14.2,2.7,25.3,12.7,31,26.2h0.8c7.7-19.7,23.4-34.4,43.7-38.2c3-0.6,6-0.9,9.1-0.9c-17.5,6.4-30.5,21.4-36.5,40.2
				c20.4,2,41,6.6,61.5,10.6c-4.8-11.7-13.6-20.9-25-25.1c2.2,0,4.4,0.3,6.6,0.7c10.6,2,19.5,8.1,25.7,16.7
				c-4.2-14-13.8-25.4-26.9-30.2c2.2,0,4.4,0.3,6.6,0.7c15,2.8,26.5,13.9,32,28.5c5.5-10.8,15.1-18.7,27.3-20.9c2-0.4,4-0.6,6-0.6
				c-14.4,5.1-24.2,18.7-26.2,35c28.1,4.1,56.6,4.8,84.9,1.9c24-2.4,56.8-6.3,78.1-16.7c3.7-1.8,8.7-2.6,11.6,0.1
				c1.7,1.6,2.2,4,3.7,5.8c4.2,4.7,12.4,1.3,17.4-2.8c5-4,11.6-8.8,17.3-5.8c2.6,1.3,4.2,4,6.8,5.2c3.5,1.6,7.6,0.2,10.8-1.8
				s6-4.7,9.6-6c4.8-1.7,10.2-0.8,15.3-0.1c23,2.9,42.5-5.4,63.8-12.7c17.2-5.9,34.6-13.4,52.9-12.3c30.6,1.8,53.8,26.6,82.8,35.9
				c24,7.7,50.2,4.3,75.3,0.8l96.4-13.4c21.6-3,43.8-6,65.1-1.5c23.9,5,44.9,19,68.8,23.9c3.4,0.7,6.8,1.2,10.2,1.5
				c0.3-0.5,0.7-1,1-1.4c-1.1-4-3.3-7.7-6.3-10.7s-6.7-5.3-10.8-6.7c4.5-0.1,8.9,0.8,12.9,2.8c4,1.9,7.4,4.8,9.9,8.3
				c4.4-3.8,9.6-6.7,15.3-8.4s11.7-2.2,17.6-1.5c-5.4,1.2-10.5,3.4-15,6.5s-8.2,7.1-10.9,11.7c17.6-0.2,35.3-3.4,52.8-5.4
				c9.5-1.1,18-1.1,26.7,3.2c7.4,3.7,14.7,10.9,23.8,9.1c3.6-0.7,6.9-2.8,10.5-2.4c2.9,0.3,5.3,2.2,8,3.1c8.4,3,19.5-2.3,26.2,3.4
				c1.8,1.5,2.9,3.7,4.8,5.1c5.1,3.8,12.4,0.7,18.9,0.2c10.8-0.8,21.2,6.4,31.9,4.6C1428.6,78.1,1433.7,75,1439.1,75.8L1439.1,75.8z
				"/>
		</g>
	</g>
</g>
<rect x="454" y="-182" class="st2" width="113" height="113"/>
</svg>
