<?xml version="1.0" encoding="utf-8"?>
<!-- Generator: Adobe Illustrator 27.0.0, SVG Export Plug-In . SVG Version: 6.00 Build 0)  -->
<svg version="1.1" id="Layer_2_00000013915185721050033520000007562448090755521418_"
	 xmlns="http://www.w3.org/2000/svg" xmlns:xlink="http://www.w3.org/1999/xlink" x="0px" y="0px" viewBox="0 0 130 165"
	 style="enable-background:new 0 0 130 165;" xml:space="preserve">
<style type="text/css">
	.st0{fill:#007264;}
	.st1{fill:none;stroke:#00272D;stroke-width:0.5;stroke-miterlimit:10;}
	.st2{fill:#00272D;}
	.st3{clip-path:url(#SVGID_00000008845404518408224170000000686464363454356671_);}
	.st4{fill:#FFFFFF;}
	.st5{fill:none;stroke:#FFFFFF;stroke-width:4;stroke-miterlimit:10;}
</style>
<g id="Layer_1-2">
	<g>
		<path class="st0" d="M130.1,9.7v145c0,5.5-4.5,10-10,10h-110c-5.5,0-10-4.5-10-10V9.7c0-5.5,4.5-10,10-10h110
			C125.6-0.3,130.1,4.2,130.1,9.7z"/>
		<g>
			<path class="st1" d="M18.3,58.7l-1.8-3.3l-1.8,3.2L13,55.7l-1.3,2.5l0,0c-0.7-1.4-2.2-3.9-2.2-3.9l-2.8,4.3"/>
			<path class="st1" d="M25.4,14.4L23.5,11l-1.8,3.2L20,11.4l-1.3,2.5l0,0c-0.7-1.4-2.1-3.9-2.1-3.9l-2.8,4.3"/>
			<path class="st1" d="M20.5,102.4l-1.8-3.3l-1.8,3.2l-1.7-2.8l-1.3,2.5l0,0c-0.7-1.4-2.1-3.9-2.1-3.9l-2.8,4.2"/>
			<path class="st1" d="M111.6,86.1l-1.8-3.3L108,86l-1.7-2.8l-1.3,2.5l0,0c-0.7-1.4-2.2-3.9-2.2-3.9L100,86"/>
			<path class="st1" d="M116.9,49.7l-1.8-3.3l-1.8,3.2l-1.7-2.8l-1.3,2.5l0,0c-0.7-1.4-2.2-3.9-2.2-3.9l-2.8,4.2"/>
			<path class="st1" d="M110.5,122.4l-1.8-3.3l-1.8,3.2l-1.7-2.8l-1.3,2.5l0,0c-0.7-1.4-2.2-3.9-2.2-3.9l-2.8,4.2"/>
			<path class="st1" d="M115.8,14.8l-1.8-3.3l-1.8,3.1l-1.7-2.8l-1.3,2.5l0,0c-0.7-1.4-2.2-3.9-2.2-3.9l-2.8,4.2"/>
			<path class="st1" d="M116.2,151.8l-1.8-3.3l-1.8,3.1l-1.7-2.8l-1.3,2.5l0,0c-0.7-1.4-2.2-3.9-2.2-3.9l-2.8,4.2"/>
			<path class="st1" d="M66.5,21.4l-1.8-3.3l-1.8,3.1l-1.7-2.8l-1.3,2.5l0,0c-0.7-1.4-2.2-3.9-2.2-3.9l-2.8,4.2"/>
			<path class="st1" d="M25.4,133l-1.8-3.3l-1.8,3.2L20,130l-1.3,2.5l0,0c-0.7-1.4-2.1-3.9-2.1-3.9l-2.8,4.3"/>
			<path class="st1" d="M84.9,142.2l-1.8-3.3l-1.8,3.1l-1.7-2.8l-1.3,2.5l0,0c-0.7-1.4-2.2-3.9-2.2-3.9l-2.8,4.2"/>
			<path class="st1" d="M48.9,153.4l-1.8-3.3l-1.8,3.1l-1.7-2.8l-1.3,2.5l0,0c-0.7-1.4-2.2-3.9-2.2-3.9l-2.8,4.2"/>
		</g>
	</g>
	<g>
		<path class="st2" d="M76.5,27.1c-1.3-6.5-6.8-12-9.9-14.7c-1.3-1.1-3.4-1.1-4.7,0c-3.2,2.7-8.5,8.2-9.9,14.7c-0.3,1.5,1.2,3,3.2,3
			h18.1C75.3,30,76.8,28.6,76.5,27.1L76.5,27.1z"/>
		<g>
			<defs>
				<path id="SVGID_1_" d="M129.9,10.3v145c0,5.5-4.5,10-10,10H9.9c-5.5,0-10-4.5-10-10v-145c0-5.5,4.5-10,10-10h110
					C125.4,0.3,129.9,4.8,129.9,10.3z"/>
			</defs>
			<clipPath id="SVGID_00000060739185947499077590000004564360385771091612_">
				<use xlink:href="#SVGID_1_"  style="overflow:visible;"/>
			</clipPath>
			<g style="clip-path:url(#SVGID_00000060739185947499077590000004564360385771091612_);">
				<ellipse class="st2" cx="64.3" cy="149.9" rx="67.4" ry="34.4"/>
			</g>
		</g>
		<ellipse class="st4" cx="64.3" cy="119.2" rx="40.7" ry="20.8"/>
		<g>
			<path class="st2" d="M29.8,79.3c1.8,3.1,4,6,5.7,9.1c0.7,1.2,1.2,2.4,1.7,3.7c2.2,6,1.5,12.7,1.7,19.1
				c0.4,10.4,6.3,19.6,16.2,23.4c3.2,1.2,6.5,1.8,9.9,1.7c3.4,0,6.8-0.6,9.9-1.9c9.8-4.1,15.5-13.3,15.8-23.8
				c0.1-6.4-0.7-13,1.3-19.1c0.4-1.3,1-2.5,1.6-3.7c1.7-3.2,3.8-6.1,5.5-9.2c7-13.1,5.6-30.1-3.2-42c-7.2-9.7-19-15.6-31-16.2v-0.1
				c-0.4,0-0.7,0-1.1,0c-0.4,0-0.7,0-1.1,0v0.1c-12,0.9-23.7,7.1-30.6,16.9C23.5,49.3,22.5,66.4,29.8,79.3L29.8,79.3z"/>
			<g>
				<path class="st4" d="M64.1,46.8c-11.3,0.1-20.4,10.8-20.4,10.8S53.1,68,64.4,67.9c11.3-0.1,20.4-10.8,20.4-10.8
					S75.4,46.6,64.1,46.8z"/>
				<path class="st2" d="M64.2,49.7c-1.5,0-3,0.5-4.3,1.3c-1.3,0.9-2.2,2.1-2.8,3.5c-0.6,1.4-0.7,3-0.4,4.4c0.3,1.5,1.1,2.8,2.1,3.9
					c1.1,1.1,2.5,1.8,4,2.1s3,0.1,4.4-0.5s2.6-1.6,3.4-2.9c0.8-1.3,1.3-2.8,1.2-4.3c0-2-0.8-4-2.3-5.4
					C68.2,50.4,66.2,49.6,64.2,49.7z"/>
			</g>
		</g>
		<g>
			<path class="st2" d="M39.3,52.3c-0.3,0-0.7,0-1-0.1c-13.5-2.5-23-15.2-21.5-29c0-0.2,0-0.4,0.1-0.6c0.2-1.6,1.1-3.1,2.5-3.9
				c0.9-0.6,2-0.9,3-0.9c0.5,0,1.1,0.1,1.6,0.2c1.6,0.5,2.8,1.6,3.5,3.1c2.5,5.7,7.6,9.8,13.8,10.9c2.9,0.5,4.9,3.2,4.6,6.1l-1,9.2
				c-0.2,1.7-1.1,3.2-2.5,4.1C41.4,52,40.3,52.3,39.3,52.3L39.3,52.3z"/>
			<path class="st2" d="M89.3,52.3c0.3,0,0.7,0,1-0.1c13.6-2.5,23-15.2,21.5-29c0-0.2-0.1-0.4-0.1-0.6c-0.2-1.6-1.1-3.1-2.5-3.9
				c-0.9-0.6-2-0.9-3.1-0.9c-0.6,0-1.1,0.1-1.6,0.2c-1.6,0.5-2.8,1.6-3.4,3.1c-2.5,5.7-7.6,9.8-13.8,10.9c-2.9,0.5-4.9,3.2-4.6,6.1
				l1,9.2c0.2,1.7,1.1,3.2,2.5,4.1C87.2,52,88.2,52.3,89.3,52.3L89.3,52.3z"/>
		</g>
		<g>
			<path class="st2" d="M42.4,36l-8.6,31.9L9,53.4c-3.8-1.4-5.9-6-4.7-10.5l0,0c1.2-4.5,5.2-7.4,9.3-6.7L42.4,36L42.4,36z"/>
			<path class="st2" d="M87.1,34.6l5.7,32.6l25.9-12.3c3.9-1.1,6.4-5.4,5.6-10l0,0c-0.8-4.6-4.6-7.9-8.7-7.5L87.1,34.6L87.1,34.6z"
				/>
		</g>
		<path class="st5" d="M59.2,125.8c0.1,1.2,0.7,2.4,1.6,3.3c2.1,1.9,5.3,1.8,7.2-0.3c0.8-0.9,1.2-1.9,1.3-2.9"/>
	</g>
</g>
</svg>
