<?xml version="1.0" encoding="UTF-8"?>
<svg id="Layer_2" data-name="Layer 2" xmlns="http://www.w3.org/2000/svg" xmlns:xlink="http://www.w3.org/1999/xlink" viewBox="0 0 134.83 184.68">
  <defs>
    <style>
      .cls-1, .cls-2, .cls-3 {
        fill: none;
      }

      .cls-4 {
        clip-path: url(#clippath);
      }

      .cls-5 {
        fill: #00272d;
      }

      .cls-6 {
        fill: #007264;
      }

      .cls-7 {
        fill: #fff;
      }

      .cls-2 {
        stroke: #fff;
        stroke-width: 4px;
      }

      .cls-2, .cls-3 {
        stroke-miterlimit: 10;
      }

      .cls-3 {
        stroke: #00272d;
        stroke-width: .5px;
      }
    </style>
    <clipPath id="clippath">
      <rect class="cls-1" x="-14.44" y="18.08" width="165" height="130" rx="10" ry="10" transform="translate(151.13 15.02) rotate(90)"/>
    </clipPath>
  </defs>
  <g id="Layer_1-2" data-name="Layer 1">
    <g>
      <rect class="cls-6" x="-14.29" y="17.5" width="165" height="130" rx="10" ry="10" transform="translate(150.71 14.29) rotate(90)"/>
      <g>
        <path class="cls-3" d="M21.46,59l-1.81-3.33-1.81,3.18-1.72-2.86-1.3,2.5h0c-.7-1.39-2.15-3.93-2.15-3.93l-2.81,4.29"/>
        <path class="cls-3" d="M28.49,14.65l-1.81-3.33-1.81,3.18-1.72-2.86-1.3,2.5h0c-.7-1.39-2.15-3.93-2.15-3.93l-2.81,4.29"/>
        <path class="cls-3" d="M23.67,102.72l-1.81-3.31-1.81,3.15-1.72-2.84-1.3,2.48h0c-.7-1.38-2.15-3.9-2.15-3.9l-2.81,4.25"/>
        <path class="cls-3" d="M114.71,86.41l-1.81-3.31-1.81,3.15-1.72-2.84-1.3,2.48h0c-.7-1.38-2.15-3.9-2.15-3.9l-2.81,4.25"/>
        <path class="cls-3" d="M120.08,49.97l-1.81-3.31-1.81,3.15-1.72-2.84-1.3,2.48h0c-.7-1.38-2.15-3.9-2.15-3.9l-2.81,4.25"/>
        <path class="cls-3" d="M113.62,122.72l-1.81-3.31-1.81,3.15-1.72-2.84-1.3,2.48h0c-.7-1.38-2.15-3.9-2.15-3.9l-2.81,4.25"/>
        <path class="cls-3" d="M118.92,15.1l-1.81-3.31-1.81,3.15-1.72-2.84-1.3,2.48h0c-.7-1.38-2.15-3.9-2.15-3.9l-2.81,4.25"/>
        <path class="cls-3" d="M119.33,152.07l-1.81-3.31-1.81,3.15-1.72-2.84-1.3,2.48h0c-.7-1.38-2.15-3.9-2.15-3.9l-2.81,4.25"/>
        <path class="cls-3" d="M69.67,21.68l-1.81-3.31-1.81,3.15-1.72-2.84-1.3,2.48h0c-.7-1.38-2.15-3.9-2.15-3.9l-2.81,4.25"/>
        <path class="cls-3" d="M28.49,133.28l-1.81-3.33-1.81,3.18-1.72-2.86-1.3,2.5h0c-.7-1.39-2.15-3.93-2.15-3.93l-2.81,4.29"/>
        <path class="cls-3" d="M88.07,142.52l-1.81-3.31-1.81,3.15-1.72-2.84-1.3,2.48h0c-.7-1.38-2.15-3.9-2.15-3.9l-2.81,4.25"/>
        <path class="cls-3" d="M52.07,153.7l-1.81-3.31-1.81,3.15-1.72-2.84-1.3,2.48h0c-.7-1.38-2.15-3.9-2.15-3.9l-2.81,4.25"/>
      </g>
    </g>
    <g>
      <path class="cls-5" d="M79.63,27.35c-1.34-6.53-6.75-12-9.91-14.72-1.26-1.08-3.39-1.08-4.65,0-3.15,2.72-8.54,8.19-9.88,14.71-.32,1.55,1.2,2.96,3.16,2.96h18.11c1.96,0,3.48-1.41,3.16-2.96Z"/>
      <g class="cls-4">
        <ellipse class="cls-5" cx="67.41" cy="150.23" rx="67.41" ry="34.45"/>
      </g>
      <ellipse class="cls-7" cx="67.41" cy="119.46" rx="40.69" ry="20.79"/>
      <g>
        <path class="cls-5" d="M32.95,79.58c1.76,3.11,3.96,5.99,5.67,9.11,.66,1.19,1.25,2.42,1.71,3.71,2.18,6.03,1.45,12.67,1.72,19.08,.44,10.43,6.33,19.56,16.25,23.44,3.15,1.23,6.54,1.77,9.92,1.68,3.38,.02,6.76-.59,9.88-1.89,9.84-4.09,15.54-13.34,15.75-23.78,.13-6.41-.74-13.03,1.31-19.11,.44-1.3,1-2.54,1.63-3.74,1.65-3.15,3.79-6.08,5.48-9.23,7.02-13.07,5.64-30.14-3.2-42.05-7.19-9.68-18.96-15.62-30.98-16.24v-.08c-.37,0-.74,.02-1.1,.04-.37,0-.73-.01-1.1-.01v.08c-12,.87-23.65,7.06-30.63,16.9-8.59,12.1-9.61,29.2-2.3,42.11Z"/>
        <g>
          <path class="cls-7" d="M67.27,47.05c-11.32,.12-20.36,10.79-20.36,10.79,0,0,9.3,10.45,20.59,10.33,11.28-.12,20.36-10.8,20.36-10.8,0,0-9.31-10.44-20.59-10.32Z"/>
          <path class="cls-5" d="M67.3,49.95c-1.52,.01-3.01,.48-4.26,1.34-1.26,.86-2.23,2.07-2.8,3.48-.57,1.41-.7,2.96-.39,4.45,.31,1.49,1.06,2.85,2.14,3.91,1.09,1.06,2.46,1.78,3.96,2.06,1.5,.28,3.04,.11,4.44-.49,1.4-.6,2.58-1.6,3.42-2.87,.83-1.27,1.26-2.77,1.25-4.29-.02-2.04-.85-3.98-2.31-5.4-1.45-1.42-3.41-2.21-5.45-2.19Z"/>
        </g>
      </g>
      <g>
        <path class="cls-5" d="M42.42,52.6c-.34,0-.68-.03-1.02-.09-13.55-2.53-22.97-15.25-21.45-28.96,.02-.2,.05-.39,.07-.58,.22-1.62,1.13-3.06,2.5-3.94,.9-.58,1.96-.89,3.05-.89,.55,0,1.1,.08,1.63,.24,1.57,.48,2.79,1.58,3.45,3.1,2.49,5.73,7.63,9.81,13.76,10.9,2.88,.51,4.89,3.18,4.56,6.09l-1.02,9.18c-.19,1.68-1.11,3.17-2.54,4.08-.9,.57-1.93,.88-2.99,.88Z"/>
        <path class="cls-5" d="M92.41,52.6c.34,0,.68-.03,1.02-.09,13.55-2.53,22.97-15.25,21.45-28.96-.02-.2-.05-.39-.07-.58-.22-1.62-1.13-3.06-2.5-3.94-.9-.58-1.96-.89-3.05-.89-.55,0-1.1,.08-1.63,.24-1.57,.48-2.79,1.58-3.45,3.1-2.49,5.73-7.63,9.81-13.76,10.9-2.88,.51-4.89,3.18-4.56,6.09l1.02,9.18c.19,1.68,1.11,3.17,2.54,4.08,.9,.57,1.93,.88,2.99,.88Z"/>
      </g>
      <g>
        <path class="cls-5" d="M45.49,36.28l-8.56,31.95-24.75-14.55c-3.84-1.39-5.88-5.95-4.67-10.46h0c1.21-4.51,5.25-7.44,9.28-6.72l28.71-.23Z"/>
        <path class="cls-5" d="M90.27,34.92l5.74,32.58,25.92-12.34c3.95-1.05,6.38-5.42,5.57-10.01h0c-.81-4.59-4.58-7.87-8.66-7.5l-28.58-2.73Z"/>
      </g>
      <path class="cls-2" d="M62.36,126.07c.12,1.21,.66,2.38,1.63,3.27,2.07,1.89,5.29,1.75,7.19-.32,.77-.85,1.2-1.88,1.3-2.94"/>
    </g>
  </g>
</svg>