<?xml version="1.0" encoding="UTF-8"?>
<svg id="Layer_2" data-name="Layer 2" xmlns="http://www.w3.org/2000/svg" xmlns:xlink="http://www.w3.org/1999/xlink" viewBox="0 0 130.15 165.58">
  <defs>
    <style>
      .cls-1, .cls-2, .cls-3 {
        fill: none;
      }

      .cls-4 {
        clip-path: url(#clippath);
      }

      .cls-5 {
        fill: #00272d;
      }

      .cls-6 {
        fill: #007264;
      }

      .cls-7 {
        fill: #fff;
      }

      .cls-2 {
        stroke-linecap: round;
        stroke-width: 5px;
      }

      .cls-2, .cls-3 {
        stroke: #00272d;
        stroke-miterlimit: 10;
      }

      .cls-3 {
        stroke-width: .5px;
      }
    </style>
    <clipPath id="clippath">
      <rect class="cls-1" x="-17.5" y="18.08" width="165" height="130" rx="10" ry="10" transform="translate(148.08 18.08) rotate(90)"/>
    </clipPath>
  </defs>
  <g id="Layer_1-2" data-name="Layer 1">
    <g>
      <rect class="cls-6" x="-17.35" y="17.5" width="165" height="130" rx="10" ry="10" transform="translate(147.65 17.35) rotate(90)"/>
      <g>
        <path class="cls-3" d="M18.4,59l-1.81-3.33-1.81,3.18-1.72-2.86-1.3,2.5h0c-.7-1.39-2.15-3.93-2.15-3.93l-2.81,4.29"/>
        <path class="cls-3" d="M25.44,14.65l-1.81-3.33-1.81,3.18-1.72-2.86-1.3,2.5h0c-.7-1.39-2.15-3.93-2.15-3.93l-2.81,4.29"/>
        <path class="cls-3" d="M20.62,102.72l-1.81-3.31-1.81,3.15-1.72-2.84-1.3,2.48h0c-.7-1.38-2.15-3.9-2.15-3.9l-2.81,4.25"/>
        <path class="cls-3" d="M111.66,86.41l-1.81-3.31-1.81,3.15-1.72-2.84-1.3,2.48h0c-.7-1.38-2.15-3.9-2.15-3.9l-2.81,4.25"/>
        <path class="cls-3" d="M117.02,49.97l-1.81-3.31-1.81,3.15-1.72-2.84-1.3,2.48h0c-.7-1.38-2.15-3.9-2.15-3.9l-2.81,4.25"/>
        <path class="cls-3" d="M110.57,122.72l-1.81-3.31-1.81,3.15-1.72-2.84-1.3,2.48h0c-.7-1.38-2.15-3.9-2.15-3.9l-2.81,4.25"/>
        <path class="cls-3" d="M115.87,15.1l-1.81-3.31-1.81,3.15-1.72-2.84-1.3,2.48h0c-.7-1.38-2.15-3.9-2.15-3.9l-2.81,4.25"/>
        <path class="cls-3" d="M116.28,152.07l-1.81-3.31-1.81,3.15-1.72-2.84-1.3,2.48h0c-.7-1.38-2.15-3.9-2.15-3.9l-2.81,4.25"/>
        <path class="cls-3" d="M66.61,21.68l-1.81-3.31-1.81,3.15-1.72-2.84-1.3,2.48h0c-.7-1.38-2.15-3.9-2.15-3.9l-2.81,4.25"/>
        <path class="cls-3" d="M25.44,133.28l-1.81-3.33-1.81,3.18-1.72-2.86-1.3,2.5h0c-.7-1.39-2.15-3.93-2.15-3.93l-2.81,4.29"/>
        <path class="cls-3" d="M85.02,142.52l-1.81-3.31-1.81,3.15-1.72-2.84-1.3,2.48h0c-.7-1.38-2.15-3.9-2.15-3.9l-2.81,4.25"/>
        <path class="cls-3" d="M49.01,153.7l-1.81-3.31-1.81,3.15-1.72-2.84-1.3,2.48h0c-.7-1.38-2.15-3.9-2.15-3.9l-2.81,4.25"/>
      </g>
    </g>
    <g>
      <g>
        <g class="cls-4">
          <ellipse class="cls-5" cx="65" cy="170.84" rx="53.02" ry="54.24"/>
        </g>
        <ellipse class="cls-7" cx="65" cy="119.46" rx="40.69" ry="20.79"/>
      </g>
      <g>
        <path class="cls-5" d="M85.31,48.75c-.87-.32-1.54-1-1.84-1.87l-2.96-8.62c-.52-1.51,.23-3.17,1.71-3.79,6.42-2.69,11.04-8.39,12.35-15.26,.17-.89,.69-1.61,1.45-2.05,.78-.44,1.74-.52,2.59-.21s1.48,.95,1.79,1.8c.06,.16,.12,.32,.17,.49,4.01,11.66-1.72,24.6-13.03,29.45-.71,.3-1.5,.33-2.22,.06h0Z"/>
        <path class="cls-5" d="M44.69,48.75c.87-.32,1.54-1,1.84-1.87l2.96-8.62c.52-1.51-.23-3.17-1.71-3.79-6.42-2.69-11.04-8.39-12.35-15.26-.17-.89-.69-1.61-1.45-2.05-.78-.44-1.74-.52-2.59-.21s-1.48,.95-1.79,1.8c-.06,.16-.12,.32-.17,.49-4.01,11.66,1.72,24.6,13.03,29.45,.71,.3,1.5,.33,2.22,.06h0Z"/>
      </g>
      <path class="cls-5" d="M12.57,70.4c0,4.3,11.8,4.3,11.8,8.6,0,24.29,15.83,47.85,40.13,47.85h.99c24.3,0,40.13-23.56,40.13-47.85,0-4.3,11.8-4.3,11.8-8.6,0-24.29-27.63-40.13-51.93-40.13h-.99c-24.29,0-51.93,15.83-51.93,40.13Z"/>
      <g>
        <path class="cls-7" d="M58.46,101.14h13.05c2.54,0,4.59,2.06,4.59,4.59v2.61c0,6.14-4.98,11.12-11.12,11.12h0c-6.14,0-11.12-4.98-11.12-11.12v-2.61c0-2.54,2.06-4.59,4.59-4.59Z"/>
        <line class="cls-2" x1="64.98" y1="101.14" x2="64.98" y2="113.8"/>
      </g>
      <g>
        <path class="cls-7" d="M75.56,61.58c-.12-11.32-10.79-20.36-10.79-20.36,0,0-10.45,9.3-10.33,20.59,.12,11.28,10.8,20.36,10.8,20.36,0,0,10.44-9.31,10.32-20.59Z"/>
        <path class="cls-5" d="M72.66,61.61c-.01-1.52-.48-3.01-1.34-4.26-.86-1.26-2.07-2.23-3.48-2.8-1.41-.57-2.96-.7-4.45-.39-1.49,.31-2.85,1.06-3.91,2.14-1.06,1.09-1.78,2.46-2.06,3.96-.28,1.5-.11,3.04,.49,4.44,.6,1.4,1.6,2.58,2.87,3.42,1.27,.83,2.77,1.26,4.29,1.25,2.04-.02,3.98-.85,5.4-2.31,1.42-1.45,2.21-3.41,2.19-5.45Z"/>
      </g>
      <g>
        <g>
          <path class="cls-7" d="M87.73,87.32c5.18-4.7,4.98-13.36,4.98-13.36,0,0-8.59-1.01-13.76,3.68-5.17,4.69-4.98,13.36-4.98,13.36,0,0,8.59,1,13.76-3.69Z"/>
          <path class="cls-5" d="M86.53,85.99c.7-.63,1.19-1.46,1.42-2.37,.23-.91,.18-1.87-.13-2.76-.32-.88-.89-1.66-1.65-2.22-.76-.56-1.66-.88-2.6-.93-.94-.04-1.87,.19-2.68,.67-.81,.48-1.45,1.2-1.85,2.05-.4,.85-.54,1.8-.4,2.73,.14,.93,.55,1.8,1.18,2.49,.85,.93,2.03,1.49,3.29,1.55,1.26,.06,2.49-.38,3.42-1.22Z"/>
        </g>
        <g>
          <path class="cls-7" d="M42.27,87.32c-5.18-4.7-4.98-13.36-4.98-13.36,0,0,8.59-1.01,13.76,3.68s4.98,13.36,4.98,13.36c0,0-8.59,1-13.76-3.69Z"/>
          <path class="cls-5" d="M43.47,85.99c-.7-.63-1.19-1.46-1.42-2.37-.23-.91-.18-1.87,.13-2.76,.32-.88,.89-1.66,1.65-2.22,.76-.56,1.66-.88,2.6-.93,.94-.04,1.87,.19,2.68,.67,.81,.48,1.45,1.2,1.85,2.05,.4,.85,.54,1.8,.4,2.73-.14,.93-.55,1.8-1.18,2.49-.85,.93-2.03,1.49-3.29,1.55-1.26,.06-2.49-.38-3.42-1.22Z"/>
        </g>
      </g>
    </g>
  </g>
</svg>