<?xml version="1.0" encoding="UTF-8"?>
<svg id="Layer_2" data-name="Layer 2" xmlns="http://www.w3.org/2000/svg" viewBox="0 0 130 165">
  <defs>
    <style>
      .cls-1 {
        fill: #00272d;
      }

      .cls-2 {
        fill: #008cbe;
      }

      .cls-3 {
        fill: #fff;
      }

      .cls-4 {
        fill: none;
        stroke: #00637f;
        stroke-miterlimit: 10;
        stroke-width: .5px;
      }
    </style>
  </defs>
  <g id="Layer_1-2" data-name="Layer 1">
    <g>
      <rect class="cls-2" x="-17.5" y="17.5" width="165" height="130" rx="10" ry="10" transform="translate(147.5 17.5) rotate(90)"/>
      <g>
        <path class="cls-4" d="M18.25,59l-1.81-3.33-1.81,3.18-1.72-2.86-1.3,2.5h0c-.7-1.39-2.15-3.93-2.15-3.93l-2.81,4.29"/>
        <path class="cls-4" d="M25.28,14.65l-1.81-3.33-1.81,3.18-1.72-2.86-1.3,2.5h0c-.7-1.39-2.15-3.93-2.15-3.93l-2.81,4.29"/>
        <path class="cls-4" d="M20.46,102.72l-1.81-3.31-1.81,3.15-1.72-2.84-1.3,2.48h0c-.7-1.38-2.15-3.9-2.15-3.9l-2.81,4.25"/>
        <path class="cls-4" d="M111.51,86.41l-1.81-3.31-1.81,3.15-1.72-2.84-1.3,2.48h0c-.7-1.38-2.15-3.9-2.15-3.9l-2.81,4.25"/>
        <path class="cls-4" d="M116.87,49.97l-1.81-3.31-1.81,3.15-1.72-2.84-1.3,2.48h0c-.7-1.38-2.15-3.9-2.15-3.9l-2.81,4.25"/>
        <path class="cls-4" d="M110.42,122.72l-1.81-3.31-1.81,3.15-1.72-2.84-1.3,2.48h0c-.7-1.38-2.15-3.9-2.15-3.9l-2.81,4.25"/>
        <path class="cls-4" d="M115.71,15.1l-1.81-3.31-1.81,3.15-1.72-2.84-1.3,2.48h0c-.7-1.38-2.15-3.9-2.15-3.9l-2.81,4.25"/>
        <path class="cls-4" d="M116.12,152.07l-1.81-3.31-1.81,3.15-1.72-2.84-1.3,2.48h0c-.7-1.38-2.15-3.9-2.15-3.9l-2.81,4.25"/>
        <path class="cls-4" d="M66.46,21.68l-1.81-3.31-1.81,3.15-1.72-2.84-1.3,2.48h0c-.7-1.38-2.15-3.9-2.15-3.9l-2.81,4.25"/>
        <path class="cls-4" d="M25.28,133.28l-1.81-3.33-1.81,3.18-1.72-2.86-1.3,2.5h0c-.7-1.39-2.15-3.93-2.15-3.93l-2.81,4.29"/>
        <path class="cls-4" d="M84.86,142.52l-1.81-3.31-1.81,3.15-1.72-2.84-1.3,2.48h0c-.7-1.38-2.15-3.9-2.15-3.9l-2.81,4.25"/>
        <path class="cls-4" d="M48.86,153.7l-1.81-3.31-1.81,3.15-1.72-2.84-1.3,2.48h0c-.7-1.38-2.15-3.9-2.15-3.9l-2.81,4.25"/>
      </g>
    </g>
    <g>
      <path class="cls-1" d="M122.14,82.5c0,2.48-8.63,4.26-9.01,6.64s7.27,6.79,6.52,9.1c-.76,2.34-9.52,1.37-10.62,3.55s4.87,8.65,3.45,10.65-9.5-1.52-11.2,.25,2.19,9.67,.25,11.19-8.7-4.13-10.82-2.89-.53,9.9-2.8,10.84-7.27-6.31-9.66-5.68-3.11,9.4-5.56,9.72-5.38-7.98-7.86-7.98-5.47,8.29-7.86,7.98-3.22-9.1-5.56-9.72-7.42,6.6-9.66,5.68-.71-9.62-2.8-10.84-8.91,4.39-10.82,2.89,1.94-9.44,.25-11.19-9.78,1.74-11.2-.25c-1.42-1.99,4.56-8.46,3.45-10.65s-9.86-1.21-10.62-3.55,6.91-6.66,6.52-9.09-9.01-4.16-9.01-6.64,8.63-4.26,9.01-6.64-7.27-6.79-6.52-9.1,9.52-1.37,10.62-3.55-4.87-8.65-3.45-10.65,9.5,1.52,11.2-.25-2.19-9.67-.25-11.19,8.7,4.13,10.82,2.89,.53-9.9,2.8-10.84,7.27,6.31,9.66,5.68,3.11-9.4,5.56-9.72,5.38,7.98,7.86,7.98,5.47-8.29,7.86-7.98,3.22,9.1,5.56,9.72,7.42-6.6,9.66-5.68,.71,9.62,2.8,10.84,8.91-4.39,10.82-2.89-1.94,9.44-.25,11.19,9.78-1.74,11.2,.25-4.56,8.46-3.45,10.65,9.86,1.21,10.62,3.55-6.91,6.66-6.52,9.09,9.01,4.16,9.01,6.64Z"/>
      <g>
        <g>
          <path class="cls-3" d="M64.85,72.15c-11.09,0-20.06,10.36-20.06,10.36,0,0,9,10.33,20.06,10.33s20.06-10.37,20.06-10.37c0,0-9.01-10.32-20.06-10.32Z"/>
          <path class="cls-1" d="M64.85,74.99c-1.49,0-2.95,.44-4.18,1.27-1.24,.83-2.21,2-2.78,3.38-.57,1.38-.72,2.89-.43,4.35,.29,1.46,1.01,2.8,2.06,3.86,1.06,1.05,2.4,1.77,3.86,2.06,1.46,.29,2.98,.14,4.35-.43,1.38-.57,2.55-1.54,3.38-2.78,.83-1.24,1.27-2.7,1.27-4.19,0-1.99-.79-3.91-2.21-5.32-1.41-1.41-3.32-2.2-5.31-2.2Z"/>
        </g>
        <g>
          <path class="cls-3" d="M64.85,52.15c-7.55,0-13.67,7.06-13.67,7.06,0,0,6.13,7.04,13.67,7.04s13.67-7.06,13.67-7.06c0,0-6.14-7.03-13.67-7.03Z"/>
          <path class="cls-1" d="M64.85,54.08c-1.02,0-2.01,.3-2.85,.86-.84,.56-1.5,1.36-1.89,2.3-.39,.94-.49,1.97-.29,2.96,.2,1,.69,1.91,1.4,2.63,.72,.72,1.63,1.21,2.63,1.4,1,.2,2.03,.1,2.97-.29,.94-.39,1.74-1.05,2.3-1.89,.56-.84,.86-1.84,.86-2.85,0-1.36-.54-2.66-1.5-3.62-.96-.96-2.26-1.5-3.62-1.5Z"/>
        </g>
        <g>
          <path class="cls-3" d="M64.85,98.76c-7.55,0-13.67,7.06-13.67,7.06,0,0,6.13,7.04,13.67,7.04s13.67-7.06,13.67-7.06c0,0-6.14-7.03-13.67-7.03Z"/>
          <path class="cls-1" d="M64.85,100.69c-1.02,0-2.01,.3-2.85,.86-.84,.56-1.5,1.36-1.89,2.3-.39,.94-.49,1.97-.29,2.96,.2,1,.69,1.91,1.4,2.63,.72,.72,1.63,1.21,2.63,1.4,1,.2,2.03,.1,2.97-.29,.94-.39,1.74-1.05,2.3-1.89,.56-.84,.86-1.84,.86-2.85,0-1.36-.54-2.66-1.5-3.62-.96-.96-2.26-1.5-3.62-1.5Z"/>
        </g>
      </g>
    </g>
  </g>
</svg>