<?xml version="1.0" encoding="UTF-8"?>
<svg id="Layer_2" data-name="Layer 2" xmlns="http://www.w3.org/2000/svg" viewBox="0 0 130 165">
  <defs>
    <style>
      .cls-1 {
        fill: #00272d;
      }

      .cls-2 {
        fill: #008cbe;
      }

      .cls-3 {
        fill: #fff;
      }

      .cls-4 {
        fill: none;
        stroke: #00637f;
        stroke-miterlimit: 10;
        stroke-width: .5px;
      }
    </style>
  </defs>
  <g id="Layer_1-2" data-name="Layer 1">
    <g>
      <rect class="cls-2" x="-17.5" y="17.5" width="165" height="130" rx="10" ry="10" transform="translate(147.5 17.5) rotate(90)"/>
      <g>
        <path class="cls-4" d="M18.25,59l-1.81-3.33-1.81,3.18-1.72-2.86-1.3,2.5h0c-.7-1.39-2.15-3.93-2.15-3.93l-2.81,4.29"/>
        <path class="cls-4" d="M25.28,14.65l-1.81-3.33-1.81,3.18-1.72-2.86-1.3,2.5h0c-.7-1.39-2.15-3.93-2.15-3.93l-2.81,4.29"/>
        <path class="cls-4" d="M20.46,102.72l-1.81-3.31-1.81,3.15-1.72-2.84-1.3,2.48h0c-.7-1.38-2.15-3.9-2.15-3.9l-2.81,4.25"/>
        <path class="cls-4" d="M111.51,86.41l-1.81-3.31-1.81,3.15-1.72-2.84-1.3,2.48h0c-.7-1.38-2.15-3.9-2.15-3.9l-2.81,4.25"/>
        <path class="cls-4" d="M116.87,49.97l-1.81-3.31-1.81,3.15-1.72-2.84-1.3,2.48h0c-.7-1.38-2.15-3.9-2.15-3.9l-2.81,4.25"/>
        <path class="cls-4" d="M110.42,122.72l-1.81-3.31-1.81,3.15-1.72-2.84-1.3,2.48h0c-.7-1.38-2.15-3.9-2.15-3.9l-2.81,4.25"/>
        <path class="cls-4" d="M115.71,15.1l-1.81-3.31-1.81,3.15-1.72-2.84-1.3,2.48h0c-.7-1.38-2.15-3.9-2.15-3.9l-2.81,4.25"/>
        <path class="cls-4" d="M116.12,152.07l-1.81-3.31-1.81,3.15-1.72-2.84-1.3,2.48h0c-.7-1.38-2.15-3.9-2.15-3.9l-2.81,4.25"/>
        <path class="cls-4" d="M66.46,21.68l-1.81-3.31-1.81,3.15-1.72-2.84-1.3,2.48h0c-.7-1.38-2.15-3.9-2.15-3.9l-2.81,4.25"/>
        <path class="cls-4" d="M25.28,133.28l-1.81-3.33-1.81,3.18-1.72-2.86-1.3,2.5h0c-.7-1.39-2.15-3.93-2.15-3.93l-2.81,4.29"/>
        <path class="cls-4" d="M84.86,142.52l-1.81-3.31-1.81,3.15-1.72-2.84-1.3,2.48h0c-.7-1.38-2.15-3.9-2.15-3.9l-2.81,4.25"/>
        <path class="cls-4" d="M48.86,153.7l-1.81-3.31-1.81,3.15-1.72-2.84-1.3,2.48h0c-.7-1.38-2.15-3.9-2.15-3.9l-2.81,4.25"/>
      </g>
    </g>
    <g>
      <g>
        <path class="cls-1" d="M117.29,82.4c0-4.85-17.61-4.85-17.61-9.69,0-27.38-8.78-45.04-34.31-45.04h-1.04c-25.53,0-34.31,17.66-34.31,45.04,0,4.85-17.61,4.85-17.61,9.69,0,27.38,26.39,61.16,51.92,61.16h1.04c25.53,0,51.93-33.78,51.93-61.16Z"/>
        <g>
          <path class="cls-1" d="M54.69,28.12c-3.61-4.18-9.72-5.94-13.1-6.62-1.34-.27-2.89,.59-3.35,1.88-1.17,3.24-2.85,9.37-1.18,14.62,.4,1.25,2.06,1.65,3.48,.86l13.08-7.32c1.41-.79,1.94-2.42,1.08-3.42Z"/>
          <path class="cls-1" d="M75,28.12c3.61-4.18,9.72-5.94,13.1-6.62,1.34-.27,2.89,.59,3.35,1.88,1.17,3.24,2.85,9.37,1.18,14.62-.4,1.25-2.06,1.65-3.48,.86l-13.08-7.32c-1.41-.79-1.94-2.42-1.08-3.42Z"/>
        </g>
      </g>
      <g>
        <path class="cls-3" d="M64.85,43.5c-10.05,0-18.18,9.39-18.18,9.39,0,0,8.16,9.37,18.18,9.37s18.18-9.4,18.18-9.4c0,0-8.16-9.36-18.18-9.36Z"/>
        <path class="cls-1" d="M64.85,46.08c-1.35,0-2.67,.4-3.79,1.15-1.12,.75-2,1.81-2.52,3.06-.52,1.25-.65,2.62-.39,3.94,.26,1.32,.91,2.54,1.87,3.5,.96,.96,2.17,1.61,3.5,1.87,1.32,.26,2.7,.13,3.95-.39,1.25-.52,2.31-1.39,3.06-2.52,.75-1.12,1.15-2.44,1.15-3.79,0-1.81-.72-3.54-2-4.82-1.28-1.28-3.01-2-4.82-2Z"/>
      </g>
    </g>
  </g>
</svg>