<?xml version="1.0" encoding="utf-8"?>
<!-- Generator: Adobe Illustrator 27.0.0, SVG Export Plug-In . SVG Version: 6.00 Build 0)  -->
<svg version="1.1" id="Layer_2_00000030488628537166974300000003899222962148030865_"
	 xmlns="http://www.w3.org/2000/svg" xmlns:xlink="http://www.w3.org/1999/xlink" x="0px" y="0px" viewBox="0 0 130 165"
	 style="enable-background:new 0 0 130 165;" xml:space="preserve">
<style type="text/css">
	.st0{fill:#007264;}
	.st1{fill:none;stroke:#00272D;stroke-width:0.5;stroke-miterlimit:10;}
	.st2{clip-path:url(#SVGID_00000047029587544708307910000015486624716047033744_);}
	.st3{fill:#00272D;}
	.st4{fill:#FFFFFF;}
	.st5{fill:none;stroke:#FFFFFF;stroke-width:3;stroke-miterlimit:10;}
</style>
<g id="Layer_1-2">
	<g>
		<g>
			<path class="st0" d="M130.1,10v145c0,5.5-4.5,10-10,10h-110c-5.5,0-10-4.5-10-10V10c0-5.5,4.5-10,10-10h110
				C125.6,0,130.1,4.5,130.1,10z"/>
			<g>
				<path class="st1" d="M18.3,59l-1.8-3.3l-1.8,3.2L13,56l-1.3,2.5l0,0c-0.7-1.4-2.1-3.9-2.1-3.9l-2.8,4.3"/>
				<path class="st1" d="M25.4,14.6l-1.8-3.3l-1.8,3.2L20,11.6l-1.3,2.5l0,0c-0.7-1.4-2.1-3.9-2.1-3.9l-2.8,4.3"/>
				<path class="st1" d="M20.5,102.7l-1.8-3.3l-1.8,3.2l-1.7-2.8l-1.3,2.5l0,0c-0.7-1.4-2.1-3.9-2.1-3.9l-2.8,4.2"/>
				<path class="st1" d="M111.6,86.4l-1.8-3.3l-1.8,3.2l-1.7-2.8l-1.3,2.5l0,0c-0.7-1.4-2.2-3.9-2.2-3.9l-2.8,4.2"/>
				<path class="st1" d="M116.9,50l-1.8-3.3l-1.8,3.2l-1.7-2.8l-1.3,2.5l0,0c-0.7-1.4-2.2-3.9-2.2-3.9l-2.8,4.2"/>
				<path class="st1" d="M110.5,122.7l-1.8-3.3l-1.8,3.2l-1.7-2.8l-1.3,2.5l0,0c-0.7-1.4-2.2-3.9-2.2-3.9l-2.8,4.2"/>
				<path class="st1" d="M115.8,15.1l-1.8-3.3l-1.8,3.1l-1.7-2.8l-1.3,2.5l0,0c-0.7-1.4-2.2-3.9-2.2-3.9l-2.8,4.2"/>
				<path class="st1" d="M116.2,152.1l-1.8-3.3l-1.8,3.1l-1.7-2.8l-1.3,2.5l0,0c-0.7-1.4-2.2-3.9-2.2-3.9l-2.8,4.2"/>
				<path class="st1" d="M66.5,21.7l-1.8-3.3l-1.8,3.1l-1.7-2.8l-1.3,2.5l0,0c-0.7-1.4-2.2-3.9-2.2-3.9l-2.8,4.2"/>
				<path class="st1" d="M25.4,133.3l-1.8-3.3l-1.8,3.2l-1.7-2.9l-1.3,2.5l0,0c-0.7-1.4-2.1-3.9-2.1-3.9l-2.8,4.3"/>
				<path class="st1" d="M84.9,142.5l-1.8-3.3l-1.8,3.1l-1.7-2.8l-1.3,2.5l0,0c-0.7-1.4-2.2-3.9-2.2-3.9l-2.8,4.2"/>
				<path class="st1" d="M48.9,153.7l-1.8-3.3l-1.8,3.1l-1.7-2.8l-1.3,2.5l0,0c-0.7-1.4-2.2-3.9-2.2-3.9l-2.8,4.2"/>
			</g>
		</g>
		<g>
			<defs>
				<path id="SVGID_1_" d="M129.9,10v145c0,5.5-4.5,10-10,10H9.9c-5.5,0-10-4.5-10-10V10c0-5.5,4.5-10,10-10h110
					C125.4,0,129.9,4.5,129.9,10z"/>
			</defs>
			<clipPath id="SVGID_00000173146346645042598050000002719997195762020760_">
				<use xlink:href="#SVGID_1_"  style="overflow:visible;"/>
			</clipPath>
			<g style="clip-path:url(#SVGID_00000173146346645042598050000002719997195762020760_);">
				<g>
					<ellipse class="st3" cx="64.3" cy="149.2" rx="67.4" ry="34.4"/>
					<ellipse class="st4" cx="64.3" cy="118.5" rx="40.7" ry="20.8"/>
					<g>
						<path class="st3" d="M91.3,126.9h-54c-10.7,0-19.2-9.2-18.3-19.9l5.6-66.2C25.3,31.3,33.3,24,42.8,24h42.9
							c9.5,0,17.5,7.3,18.3,16.8l5.6,66.2C110.5,117.7,102,126.9,91.3,126.9z"/>
						<g>
							<path class="st4" d="M64.2,48.1c-11.9,0-21.6,11.1-21.6,11.1s9.7,11.1,21.6,11.1s21.6-11.2,21.6-11.2S76.1,48.1,64.2,48.1z"
								/>
							<path class="st3" d="M64.2,51.2c-1.6,0-3.2,0.5-4.5,1.4s-2.4,2.2-3,3.6c-0.6,1.5-0.8,3.1-0.5,4.7s1.1,3,2.2,4.2
								c1.1,1.1,2.6,1.9,4.2,2.2s3.2,0.2,4.7-0.5c1.5-0.6,2.7-1.7,3.6-3c0.9-1.3,1.4-2.9,1.4-4.5c0-2.2-0.8-4.2-2.4-5.7
								C68.4,52,66.4,51.2,64.2,51.2L64.2,51.2z"/>
						</g>
						<g>
							<g>
								<g>
									<path class="st4" d="M86.1,87.8c-2.1,1.7-3.1,4.3-3.5,5.7c-0.2,0.6,0.2,1.2,0.8,1.3c1.4,0.3,4.2,0.7,6.7-0.2
										c0.6-0.2,0.8-0.9,0.5-1.5L87.7,88C87.3,87.5,86.6,87.3,86.1,87.8z"/>
									<path class="st4" d="M42.3,87.8c2.1,1.7,3.1,4.3,3.5,5.7c0.2,0.6-0.2,1.2-0.8,1.3c-1.5,0.3-4.2,0.7-6.7-0.2
										c-0.6-0.2-0.8-0.9-0.5-1.5l2.9-5.1C41.1,87.5,41.8,87.3,42.3,87.8z"/>
								</g>
								<g>
									<path class="st4" d="M66.1,83.1c-0.1,5.3,2.6,10.1,4.2,12.6c0.6,1,2,1.2,2.9,0.5c2.3-1.8,6.5-5.5,8.2-10.4
										c0.4-1.2-0.3-2.4-1.6-2.7l-11.4-2C67.3,80.9,66.1,81.9,66.1,83.1L66.1,83.1z"/>
									<path class="st4" d="M61.8,83.2c0,4.8-2.4,9.3-3.8,11.5c-0.6,0.9-1.8,1.1-2.7,0.5c-2.2-1.6-5.9-5-7.5-9.5
										c-0.4-1.1,0.3-2.2,1.4-2.4l10.4-1.8C60.7,81.2,61.8,82,61.8,83.2L61.8,83.2z"/>
								</g>
							</g>
							<g>
								<g>
									<path class="st4" d="M42.3,108c2.1-1.7,3.1-4.3,3.5-5.7c0.2-0.6-0.2-1.2-0.8-1.3c-1.5-0.3-4.2-0.7-6.7,0.2
										c-0.6,0.2-0.8,0.9-0.5,1.5l2.9,5.1C41.1,108.2,41.8,108.4,42.3,108z"/>
									<path class="st4" d="M86.1,108c-2.1-1.7-3.1-4.3-3.5-5.7c-0.2-0.6,0.2-1.2,0.8-1.3c1.4-0.3,4.2-0.7,6.7,0.2
										c0.6,0.2,0.8,0.9,0.5,1.5l-2.9,5.1C87.3,108.2,86.6,108.4,86.1,108z"/>
								</g>
								<g>
									<path class="st4" d="M62.3,112.6c0.1-5.3-2.6-10.1-4.2-12.6c-0.6-1-2-1.2-2.9-0.5c-2.3,1.8-6.5,5.5-8.2,10.4
										c-0.4,1.2,0.3,2.4,1.6,2.7l11.4,2C61.2,114.8,62.3,113.9,62.3,112.6L62.3,112.6z"/>
									<path class="st4" d="M68.1,112.5c-0.1-4.3,2.1-8.3,3.4-10.3c0.5-0.8,1.6-1,2.4-0.4c1.9,1.5,5.3,4.5,6.8,8.6
										c0.3,1-0.3,2-1.3,2.2l-9.3,1.7C69.1,114.3,68.1,113.6,68.1,112.5L68.1,112.5z"/>
								</g>
							</g>
						</g>
					</g>
					<g>
						<path class="st3" d="M80.3,31.6L90.5,63l24-15.8c3.8-1.6,5.6-6.2,4.1-10.7l0,0c-1.4-4.4-5.6-7.2-9.6-6.2L80.3,31.6z"/>
						<path class="st5" d="M115.2,47c0.6,1.1,0.4,2.5-0.5,3.5c-1.1,1.2-3.1,1.3-4.3,0.2s-1.3-3.1-0.2-4.3"/>
					</g>
					<path class="st3" d="M47.7,31.6L37.5,63l-24-15.8C9.8,45.6,8,41,9.4,36.5l0,0c1.4-4.4,5.6-7.2,9.6-6.2
						C19,30.3,47.7,31.6,47.7,31.6z"/>
				</g>
				<path class="st3" d="M76.5,26.2c-1.3-6.5-6.8-12-9.9-14.7c-1.3-1.1-3.4-1.1-4.7,0c-3.2,2.7-8.5,8.2-9.9,14.7
					c-0.3,1.5,1.2,3,3.2,3h18.1C75.3,29.2,76.8,27.8,76.5,26.2L76.5,26.2z"/>
			</g>
		</g>
	</g>
</g>
</svg>
