<?xml version="1.0" encoding="UTF-8"?>
<svg id="Layer_2" data-name="Layer 2" xmlns="http://www.w3.org/2000/svg" xmlns:xlink="http://www.w3.org/1999/xlink" viewBox="0 0 130.15 165">
  <defs>
    <style>
      .cls-1, .cls-2, .cls-3 {
        fill: none;
      }

      .cls-2 {
        stroke: #fff;
        stroke-width: 3px;
      }

      .cls-2, .cls-3 {
        stroke-miterlimit: 10;
      }

      .cls-4 {
        clip-path: url(#clippath);
      }

      .cls-5 {
        fill: #00272d;
      }

      .cls-6 {
        fill: #007264;
      }

      .cls-7 {
        fill: #fff;
      }

      .cls-3 {
        stroke: #00272d;
        stroke-width: .5px;
      }
    </style>
    <clipPath id="clippath">
      <rect class="cls-1" x="-17.5" y="17.5" width="165" height="130" rx="10" ry="10" transform="translate(147.5 17.5) rotate(90)"/>
    </clipPath>
  </defs>
  <g id="Layer_1-2" data-name="Layer 1">
    <g>
      <g>
        <rect class="cls-6" x="-17.35" y="17.5" width="165" height="130" rx="10" ry="10" transform="translate(147.65 17.35) rotate(90)"/>
        <g>
          <path class="cls-3" d="M18.4,59l-1.81-3.33-1.81,3.18-1.72-2.86-1.3,2.5h0c-.7-1.39-2.15-3.93-2.15-3.93l-2.81,4.29"/>
          <path class="cls-3" d="M25.44,14.65l-1.81-3.33-1.81,3.18-1.72-2.86-1.3,2.5h0c-.7-1.39-2.15-3.93-2.15-3.93l-2.81,4.29"/>
          <path class="cls-3" d="M20.62,102.72l-1.81-3.31-1.81,3.15-1.72-2.84-1.3,2.48h0c-.7-1.38-2.15-3.9-2.15-3.9l-2.81,4.25"/>
          <path class="cls-3" d="M111.66,86.41l-1.81-3.31-1.81,3.15-1.72-2.84-1.3,2.48h0c-.7-1.38-2.15-3.9-2.15-3.9l-2.81,4.25"/>
          <path class="cls-3" d="M117.02,49.97l-1.81-3.31-1.81,3.15-1.72-2.84-1.3,2.48h0c-.7-1.38-2.15-3.9-2.15-3.9l-2.81,4.25"/>
          <path class="cls-3" d="M110.57,122.72l-1.81-3.31-1.81,3.15-1.72-2.84-1.3,2.48h0c-.7-1.38-2.15-3.9-2.15-3.9l-2.81,4.25"/>
          <path class="cls-3" d="M115.87,15.1l-1.81-3.31-1.81,3.15-1.72-2.84-1.3,2.48h0c-.7-1.38-2.15-3.9-2.15-3.9l-2.81,4.25"/>
          <path class="cls-3" d="M116.28,152.07l-1.81-3.31-1.81,3.15-1.72-2.84-1.3,2.48h0c-.7-1.38-2.15-3.9-2.15-3.9l-2.81,4.25"/>
          <path class="cls-3" d="M66.61,21.68l-1.81-3.31-1.81,3.15-1.72-2.84-1.3,2.48h0c-.7-1.38-2.15-3.9-2.15-3.9l-2.81,4.25"/>
          <path class="cls-3" d="M25.44,133.28l-1.81-3.33-1.81,3.18-1.72-2.86-1.3,2.5h0c-.7-1.39-2.15-3.93-2.15-3.93l-2.81,4.29"/>
          <path class="cls-3" d="M85.02,142.52l-1.81-3.31-1.81,3.15-1.72-2.84-1.3,2.48h0c-.7-1.38-2.15-3.9-2.15-3.9l-2.81,4.25"/>
          <path class="cls-3" d="M49.01,153.7l-1.81-3.31-1.81,3.15-1.72-2.84-1.3,2.48h0c-.7-1.38-2.15-3.9-2.15-3.9l-2.81,4.25"/>
        </g>
      </g>
      <g class="cls-4">
        <g>
          <ellipse class="cls-5" cx="64.36" cy="149.25" rx="67.41" ry="34.45"/>
          <ellipse class="cls-7" cx="64.36" cy="118.47" rx="40.69" ry="20.79"/>
          <g>
            <path class="cls-5" d="M91.38,126.91H37.33c-10.74,0-19.18-9.18-18.28-19.88l5.56-66.2c.8-9.5,8.74-16.81,18.28-16.81h42.93c9.54,0,17.48,7.31,18.28,16.81l5.56,66.2c.9,10.7-7.54,19.88-18.28,19.88Z"/>
            <g>
              <path class="cls-7" d="M64.3,48.11c-11.93,0-21.58,11.14-21.58,11.14,0,0,9.68,11.12,21.58,11.12s21.58-11.15,21.58-11.15c0,0-9.69-11.11-21.58-11.11Z"/>
              <path class="cls-5" d="M64.3,51.16c-1.61,0-3.17,.47-4.5,1.36-1.33,.89-2.37,2.15-2.99,3.63-.61,1.48-.77,3.11-.46,4.68,.31,1.57,1.08,3.02,2.21,4.15,1.14,1.13,2.58,1.91,4.15,2.22,1.57,.31,3.2,.15,4.68-.46,1.48-.61,2.74-1.65,3.63-2.99,.89-1.33,1.36-2.9,1.36-4.5,0-2.15-.85-4.2-2.37-5.72-1.52-1.52-3.57-2.37-5.72-2.37Z"/>
            </g>
            <g>
              <g>
                <g>
                  <path class="cls-7" d="M86.2,87.75c-2.06,1.69-3.09,4.3-3.52,5.73-.17,.57,.17,1.17,.75,1.3,1.45,.33,4.23,.74,6.71-.19,.59-.22,.84-.93,.52-1.48l-2.92-5.07c-.32-.55-1.05-.69-1.54-.29Z"/>
                  <path class="cls-7" d="M42.4,87.75c2.06,1.69,3.09,4.3,3.52,5.73,.17,.57-.17,1.17-.75,1.3-1.45,.33-4.23,.74-6.71-.19-.59-.22-.84-.93-.52-1.48l2.92-5.07c.32-.55,1.05-.69,1.54-.29Z"/>
                </g>
                <g>
                  <path class="cls-7" d="M66.18,83.13c-.06,5.26,2.59,10.13,4.2,12.6,.64,.98,1.98,1.22,2.92,.51,2.35-1.78,6.5-5.46,8.24-10.41,.41-1.18-.35-2.45-1.58-2.67l-11.38-2.01c-1.23-.22-2.38,.72-2.39,1.97Z"/>
                  <path class="cls-7" d="M61.89,83.17c.05,4.81-2.37,9.27-3.84,11.53-.59,.9-1.82,1.11-2.67,.47-2.15-1.63-5.94-4.99-7.54-9.52-.38-1.08,.32-2.24,1.44-2.44l10.41-1.84c1.13-.2,2.18,.65,2.19,1.8Z"/>
                </g>
              </g>
              <g>
                <g>
                  <path class="cls-7" d="M42.4,107.98c2.06-1.69,3.09-4.3,3.52-5.73,.17-.57-.17-1.17-.75-1.3-1.45-.33-4.23-.74-6.71,.19-.59,.22-.84,.93-.52,1.48l2.92,5.07c.32,.55,1.05,.69,1.54,.29Z"/>
                  <path class="cls-7" d="M86.2,107.98c-2.06-1.69-3.09-4.3-3.52-5.73-.17-.57,.17-1.17,.75-1.3,1.45-.33,4.23-.74,6.71,.19,.59,.22,.84,.93,.52,1.48l-2.92,5.07c-.32,.55-1.05,.69-1.54,.29Z"/>
                </g>
                <g>
                  <path class="cls-7" d="M62.42,112.6c.06-5.26-2.59-10.13-4.2-12.6-.64-.98-1.98-1.22-2.92-.51-2.35,1.78-6.5,5.46-8.24,10.41-.41,1.18,.35,2.45,1.58,2.67l11.38,2.01c1.23,.22,2.38-.72,2.39-1.97Z"/>
                  <path class="cls-7" d="M68.18,112.53c-.05-4.32,2.12-8.32,3.45-10.35,.53-.81,1.63-1,2.4-.42,1.93,1.46,5.34,4.48,6.77,8.55,.34,.97-.28,2.01-1.3,2.19l-9.35,1.65c-1.01,.18-1.95-.59-1.97-1.61Z"/>
                </g>
              </g>
            </g>
          </g>
          <g>
            <path class="cls-5" d="M80.35,31.56l10.19,31.47,23.97-15.8c3.77-1.59,5.57-6.25,4.13-10.68h0c-1.44-4.44-5.63-7.16-9.61-6.24l-28.68,1.25Z"/>
            <path class="cls-2" d="M115.26,46.99c.56,1.1,.42,2.48-.47,3.45-1.14,1.25-3.07,1.33-4.32,.2s-1.33-3.07-.2-4.32"/>
          </g>
          <path class="cls-5" d="M47.8,31.56l-10.19,31.47-23.97-15.8c-3.77-1.59-5.57-6.25-4.13-10.68h0c1.44-4.44,5.63-7.16,9.61-6.24l28.68,1.25Z"/>
        </g>
        <path class="cls-5" d="M76.57,26.23c-1.34-6.53-6.75-12-9.91-14.72-1.26-1.08-3.39-1.08-4.65,0-3.15,2.72-8.54,8.19-9.88,14.71-.32,1.55,1.2,2.96,3.16,2.96h18.11c1.96,0,3.48-1.41,3.16-2.96Z"/>
      </g>
    </g>
  </g>
</svg>