<svg width="522" height="428" viewBox="0 0 522 428" fill="none" xmlns="http://www.w3.org/2000/svg">
<path d="M18.7765 174.018C17.1 174.018 15.5744 173.917 14.1327 174.018H18.7765Z" fill="#09262C"/>
<path d="M4.49295 175.912C4.01484 176.202 3.57543 176.551 3.18529 176.952C3.03441 177.119 2.91706 177.304 2.78294 177.471C3.28323 176.88 3.85802 176.356 4.49295 175.912Z" fill="#09262C"/>
<path d="M40.2688 160.79C40.2688 161.394 40.2689 162.014 40.1683 162.618C40.1683 162.014 40.2689 161.394 40.2856 160.79H40.2688Z" fill="#09262C"/>
<path d="M26.7062 174.051H18.7765C21.4178 174.194 24.0649 174.194 26.7062 174.051Z" fill="#09262C"/>
<path d="M8.46618 174.286C7.0407 174.566 5.6882 175.137 4.49295 175.962C7.1753 174.286 11.1988 174.118 14.0824 174.018C12.2061 173.904 10.3231 173.994 8.46618 174.286Z" fill="#09262C"/>
<path d="M520.87 314.825C517.853 301.866 511.75 289.929 505.497 278.294C499.537 267.17 492.216 256.831 483.703 247.514C476.796 239.937 467.894 233.734 457.734 231.722C455.861 231.388 453.968 231.169 452.068 231.068C442.206 230.856 432.591 234.161 424.943 240.389C422.173 242.533 419.598 244.918 417.248 247.514C408.741 256.836 401.42 267.174 395.453 278.294C389.2 289.929 383.115 301.866 380.097 314.825C378.957 319.703 378.42 325.403 381.773 329.192C384.188 331.992 387.775 332.964 391.296 333.467C400.282 334.741 417.013 331.355 418.27 341.849C418.354 342.52 418.421 344.901 418.421 345.672V353.434C418.426 356.592 417.176 359.623 414.948 361.861C412.719 364.099 409.693 365.361 406.535 365.37H379.041C372.486 365.37 365.495 360.022 365.495 353.434V291.404C365.513 283.826 362.521 276.551 357.176 271.179C351.832 265.806 344.573 262.776 336.995 262.753H313.558C311.993 262.751 310.445 262.441 309 261.839C307.556 261.238 306.244 260.358 305.14 259.249C304.036 258.141 303.162 256.825 302.566 255.378C301.971 253.932 301.667 252.382 301.672 250.817V224.429C301.665 221.359 302.846 218.406 304.968 216.187C307.089 213.968 309.988 212.656 313.055 212.526H501.775C507.056 212.375 512.07 210.17 515.752 206.381C519.434 202.591 521.494 197.516 521.494 192.233C521.494 186.949 519.434 181.874 515.752 178.085C512.07 174.295 507.056 172.091 501.775 171.939H310.004C307.781 171.939 305.648 171.056 304.076 169.484C302.504 167.912 301.621 165.78 301.621 163.557C301.621 161.333 302.504 159.201 304.076 157.629C305.648 156.057 307.781 155.174 310.004 155.174H468.279C473.561 155.022 478.575 152.818 482.257 149.029C485.938 145.239 487.998 140.164 487.998 134.881C487.998 129.597 485.938 124.522 482.257 120.733C478.575 116.943 473.561 114.739 468.279 114.587H310.004C307.781 114.587 305.648 113.704 304.076 112.132C302.504 110.56 301.621 108.428 301.621 106.205C301.621 103.981 302.504 101.849 304.076 100.277C305.648 98.7053 307.781 97.8222 310.004 97.8222H434.75C440.031 97.6704 445.045 95.4657 448.727 91.6765C452.409 87.8872 454.469 82.8119 454.469 77.5285C454.469 72.2451 452.409 67.1698 448.727 63.3805C445.045 59.5913 440.031 57.3866 434.75 57.2348H310.004C307.781 57.2348 305.648 56.3517 304.076 54.7797C302.504 53.2077 301.621 51.0756 301.621 48.8525C301.621 46.6293 302.504 44.4972 304.076 42.9252C305.648 41.3532 307.781 40.4701 310.004 40.4701H401.221C405.907 40.479 410.451 38.8609 414.078 35.892C417.704 32.9232 420.187 28.7877 421.103 24.1916C421.351 22.9097 421.48 21.6077 421.489 20.3021C421.496 17.6426 420.978 15.0079 419.967 12.5483C418.955 10.0887 417.469 7.85244 415.593 5.96722C413.717 4.08199 411.488 2.58472 409.034 1.56088C406.579 0.53703 403.947 0.00666496 401.288 6.84289e-05H377.817C349.518 6.84289e-05 312.904 3.35301 291.345 18.4413C256.809 42.5992 244.655 88.2998 244.655 133.699V185.049C244.655 214.303 244.655 250.7 244.655 250.7C244.655 252.263 244.347 253.811 243.749 255.255C243.151 256.699 242.274 258.011 241.169 259.116C240.063 260.222 238.751 261.098 237.307 261.697C235.863 262.295 234.315 262.603 232.752 262.603C231.189 262.603 229.641 262.295 228.197 261.697C226.753 261.098 225.441 260.222 224.335 259.116C223.23 258.011 222.353 256.699 221.755 255.255C221.157 253.811 220.849 252.263 220.849 250.7V87.7634C220.882 76.2627 218.648 64.8683 214.274 54.2317C209.901 43.595 203.473 33.9248 195.36 25.7739C187.246 17.623 177.606 11.1513 166.989 6.72881C156.373 2.30634 144.989 0.0198497 133.488 6.84289e-05H127.587C113.036 -0.0182095 98.7155 3.62544 85.9432 10.5954C72.1924 18.2684 60.7186 29.4458 52.6886 42.9912C44.6585 56.5366 40.3585 71.9669 40.2258 87.7131V154.537C40.2258 156.566 40.36 158.678 40.2258 160.74C40.2258 161.344 40.2258 161.964 40.1085 162.568C39.9927 164.691 39.3534 166.753 38.2476 168.569C36.9433 170.625 35.0169 172.211 32.7488 173.096C30.7846 173.758 28.7182 174.064 26.6464 174.001C21.3655 174.353 16.0344 173.599 10.7702 174.001C9.18743 174.049 7.6302 174.413 6.19049 175.072C4.75078 175.732 3.45779 176.673 2.38789 177.84C-0.596233 181.595 -0.311233 187.681 0.711415 192.107C3.72906 205.066 9.83143 217.003 16.0847 228.637C27.4679 249.828 46.982 278.278 74.4594 275.796C83.0748 274.752 91.1886 271.183 97.7791 265.536C109.665 255.897 118.903 242.066 126.095 228.654C132.348 217.019 138.45 205.083 141.468 192.124C143.144 184.999 142.457 175.963 133.79 174.219C131.129 173.861 128.438 173.771 125.759 173.951H117.226C113.001 173.951 108.978 173.716 105.742 170.598C101.769 166.809 101.987 161.78 101.987 156.733V90.7307C101.987 83.172 104.99 75.923 110.335 70.5782C115.679 65.2334 122.928 62.2307 130.487 62.2307C138.046 62.2307 145.295 65.2334 150.64 70.5782C155.984 75.923 158.987 83.172 158.987 90.7307V262.653H159.104V398.447C159.085 402.202 159.807 405.925 161.23 409.4C162.654 412.875 164.75 416.035 167.398 418.697C170.047 421.36 173.195 423.473 176.663 424.914C180.131 426.356 183.849 427.098 187.604 427.098L330.105 426.746H451.464C459.041 426.719 466.297 423.687 471.641 418.316C476.984 412.944 479.978 405.672 479.964 398.095V351.154C479.964 346.829 479.629 342.201 481.842 338.279C484.29 333.903 489.755 334.087 494.147 333.97C498.54 333.853 503.267 334.171 507.777 333.719C512.287 333.266 516.444 332.344 519.127 329.209C522.614 325.286 521.96 319.469 520.87 314.825Z" fill="#09262C"/>
<path d="M450.468 268.705C429.462 268.705 412.446 288.336 412.446 288.336C412.446 288.336 429.512 307.918 450.468 307.918C471.424 307.918 488.49 288.269 488.49 288.269C488.49 288.269 471.424 268.705 450.468 268.705Z" fill="white"/>
<path d="M33.1103 218.679C33.1103 218.679 50.1433 238.31 71.1495 238.31C92.1556 238.31 109.172 218.679 109.172 218.679C109.172 218.679 92.1389 199.031 71.1495 199.031C50.16 199.031 33.1103 218.679 33.1103 218.679Z" fill="white"/>
<path d="M450.468 274.086C447.645 274.083 444.884 274.917 442.535 276.484C440.187 278.05 438.355 280.278 437.274 282.886C436.192 285.493 435.908 288.363 436.458 291.132C437.008 293.901 438.367 296.445 440.363 298.441C442.359 300.438 444.903 301.797 447.672 302.347C450.441 302.897 453.311 302.613 455.919 301.531C458.526 300.449 460.754 298.618 462.321 296.269C463.887 293.92 464.721 291.16 464.718 288.336C464.718 284.557 463.217 280.932 460.544 278.26C457.872 275.588 454.247 274.086 450.468 274.086Z" fill="#09262C"/>
<path d="M71.1494 232.929C73.9719 232.929 76.7309 232.092 79.0774 230.523C81.4239 228.955 83.2525 226.726 84.3318 224.118C85.4111 221.51 85.6927 218.641 85.1409 215.873C84.589 213.105 83.2286 210.563 81.2316 208.568C79.2347 206.574 76.6911 205.216 73.9225 204.667C71.1539 204.119 68.2848 204.404 65.6782 205.486C63.0715 206.569 60.8446 208.4 59.2789 210.748C57.7133 213.097 56.8794 215.857 56.8827 218.679C56.8827 220.552 57.2518 222.406 57.969 224.136C58.6862 225.866 59.7373 227.438 61.0623 228.761C62.3874 230.085 63.9602 231.134 65.6911 231.849C67.4219 232.564 69.2767 232.931 71.1494 232.929Z" fill="#09262C"/>
<path d="M71.3171 427.048C109.371 427.048 140.22 396.199 140.22 358.145C140.22 320.091 109.371 289.242 71.3171 289.242C33.263 289.242 2.41412 320.091 2.41412 358.145C2.41412 396.199 33.263 427.048 71.3171 427.048Z" fill="#09262C"/>
<path d="M114.57 353.568H77.6877V316.685C77.7255 316.062 77.6353 315.438 77.4228 314.851C77.2103 314.264 76.8799 313.726 76.452 313.272C76.0241 312.817 75.5077 312.455 74.9345 312.207C74.3614 311.96 73.7437 311.832 73.1193 311.832C72.495 311.832 71.8772 311.96 71.3041 312.207C70.7309 312.455 70.2145 312.817 69.7866 313.272C69.3587 313.726 69.0283 314.264 68.8158 314.851C68.6033 315.438 68.5132 316.062 68.5509 316.685V353.568H31.6686C30.4547 353.568 29.2906 354.05 28.4323 354.908C27.574 355.767 27.0918 356.931 27.0918 358.145C27.0918 359.358 27.574 360.523 28.4323 361.381C29.2906 362.239 30.4547 362.721 31.6686 362.721H68.5509V399.604C68.5132 400.227 68.6033 400.851 68.8158 401.438C69.0283 402.025 69.3587 402.563 69.7866 403.018C70.2145 403.472 70.7309 403.834 71.3041 404.082C71.8772 404.33 72.495 404.457 73.1193 404.457C73.7437 404.457 74.3614 404.33 74.9345 404.082C75.5077 403.834 76.0241 403.472 76.452 403.018C76.8799 402.563 77.2103 402.025 77.4228 401.438C77.6353 400.851 77.7255 400.227 77.6877 399.604V362.721H114.57C115.171 362.721 115.766 362.603 116.322 362.373C116.877 362.143 117.381 361.806 117.806 361.381C118.231 360.956 118.568 360.451 118.798 359.896C119.028 359.341 119.147 358.746 119.147 358.145C119.147 357.544 119.028 356.948 118.798 356.393C118.568 355.838 118.231 355.333 117.806 354.908C117.381 354.483 116.877 354.146 116.322 353.916C115.766 353.686 115.171 353.568 114.57 353.568Z" fill="white"/>
</svg>
