<svg width="236" height="243" viewBox="0 0 236 243" fill="none" xmlns="http://www.w3.org/2000/svg">
<g clip-path="url(#clip0_538_2155)">
<path d="M29.4914 75.1651L29.4346 75.1514L38.1374 38.9522C38.6274 36.895 39.5266 34.9576 40.7814 33.2555C42.0362 31.5533 43.621 30.1213 45.4412 29.0448C47.2614 27.9683 49.2797 27.2695 51.3759 26.9898C53.472 26.7102 55.603 26.8556 57.6417 27.4173C60.2523 28.1394 62.9214 28.8327 65.6347 29.485C92.6866 35.9887 119.66 27.1261 133.103 22.9677C135.88 22.1044 138.838 22.0074 141.665 22.6871C144.492 23.3668 147.083 24.7978 149.164 26.8289C159.255 36.6453 179.253 56.8006 206.305 63.3044C209.018 63.9567 211.711 64.5524 214.364 65.0958C216.434 65.5232 218.398 66.363 220.136 67.5652C221.875 68.7673 223.354 70.3072 224.485 72.0931C225.617 73.879 226.377 75.8744 226.72 77.9602C227.064 80.0461 226.984 82.1797 226.485 84.2341L217.777 120.458L217.687 120.436C217.207 124.147 216.092 127.748 214.389 131.081C206.252 147.308 194.364 161.189 182.359 174.63C160.493 199.098 125.525 230.632 89.8687 218.562C78.7436 214.796 69.3561 206.877 62.2112 197.528C49.5374 180.938 41.6985 159.607 36.4245 139.545C31.8411 122.116 27.5545 104.346 27.6822 86.1935C27.6664 82.4422 28.2779 78.7147 29.4914 75.1651Z" fill="#09262C"/>
<path d="M176.365 163.531C175.422 164.593 174.477 165.655 173.529 166.716C144.264 199.475 118.532 213.466 97.0614 208.304C95.9322 208.032 94.8004 207.7 93.6784 207.327C83.594 203.915 76.1274 196.19 71.6362 190.315C61.7906 177.439 54.0422 159.842 47.8934 136.485C47.5256 135.108 47.1659 133.732 46.8144 132.359" stroke="#636A6B" stroke-width="5" stroke-miterlimit="10"/>
<path d="M41.8997 74.7024C44.8947 61.4584 49.6628 41.6973 49.6628 41.6973C49.8935 40.6899 50.5145 39.8152 51.3894 39.2651C52.2644 38.7151 53.3218 38.5346 54.3297 38.7633L54.4271 38.7867C57.182 39.5521 60.0055 40.2825 62.8325 40.9622C92.1753 48.0167 120.2 39.2864 135.233 34.6597L136.569 34.2505C137.313 34.0128 138.108 33.9837 138.867 34.1662C139.626 34.3487 140.32 34.7359 140.875 35.2856L141.871 36.2554C153.156 47.2525 174.152 67.7251 203.503 74.7815C206.33 75.4612 209.201 76.0999 211.97 76.6626L212.116 76.6977C213.118 76.9521 213.978 77.5936 214.507 78.4812C215.036 79.3689 215.192 80.4302 214.94 81.4324C214.94 81.4324 210.188 101.197 206.884 114.367" stroke="#636A6B" stroke-width="5" stroke-miterlimit="10"/>
<path d="M123.548 97.9923C146.408 103.488 159.791 129.315 159.791 129.315C159.791 129.315 136.131 146.236 113.271 140.74C90.4111 135.244 77.035 109.419 77.035 109.419C77.035 109.419 100.702 92.4996 123.548 97.9923Z" fill="white"/>
<path d="M114.693 134.885C106.124 132.825 100.847 124.208 102.908 115.639C104.968 107.07 113.584 101.794 122.153 103.854C130.722 105.914 135.999 114.531 133.939 123.1C131.879 131.669 123.262 136.945 114.693 134.885Z" fill="#09262C"/>
</g>
<defs>
<clipPath id="clip0_538_2155">
<rect width="193.924" height="202.772" fill="white" transform="matrix(-0.972295 -0.233755 -0.233755 0.972295 235.95 45.3307)"/>
</clipPath>
</defs>
</svg>
