<svg width="241" height="214" viewBox="0 0 241 214" fill="none" xmlns="http://www.w3.org/2000/svg">
<g clip-path="url(#clip0_538_2141)">
<path d="M105.796 170.004C135.418 176.74 162.679 167.923 166.684 150.311C170.689 132.698 149.922 112.96 120.299 106.224C90.6762 99.4875 63.4154 108.304 59.4104 125.917C55.4054 143.529 76.1727 163.268 105.796 170.004Z" fill="white"/>
<path d="M160.583 203.923L163.177 204.512C164.074 204.716 164.991 204.925 165.905 205.184L167.822 205.532C167.822 205.532 160.418 203.878 160.583 203.923Z" fill="#09262C"/>
<path d="M177.285 205.461C178.12 205.121 178.908 204.673 179.628 204.129C179.902 203.921 180.169 203.711 180.418 203.483C180.667 203.254 180.74 203.19 180.901 203.03C181.357 202.563 181.776 202.061 182.156 201.531C182.169 201.475 182.223 201.429 182.263 201.38C182.602 200.878 182.913 200.358 183.195 199.822C183.288 199.639 183.387 199.464 183.474 199.271C183.663 198.89 183.822 198.481 183.986 198.079C185.219 194.848 185.822 191.412 185.762 187.954C185.687 172.465 181.842 157.348 177.748 142.524C170.285 115.536 155.476 78.183 123.645 73.9206C113.711 72.5902 103.527 75.0928 94.5241 79.5385C78.5521 87.4299 64.4819 100.784 52.857 114.124C42.755 125.72 32.7509 137.688 25.9851 151.621C22.2624 159.278 20.6852 169.719 30.0668 173.929C32.8871 175.192 36.1105 175.647 39.1101 176.314L44.8804 177.627L48.8085 178.52C49.6705 178.716 50.5326 178.912 51.4016 179.109L167.811 205.581C170.858 206.069 174.418 206.461 177.285 205.461ZM109.172 155.059C85.3326 149.638 71.0753 122.947 71.0753 122.947C71.0753 122.947 95.4726 105.046 119.312 110.467C143.151 115.888 157.409 142.579 157.409 142.579C157.409 142.579 133.011 160.48 109.172 155.059Z" fill="#09262C"/>
<path d="M110.562 148.948C119.5 150.98 128.394 145.382 130.427 136.443C132.46 127.504 126.861 118.61 117.922 116.578C108.984 114.545 100.09 120.144 98.0571 129.082C96.0245 138.021 101.623 146.915 110.562 148.948Z" fill="#09262C"/>
<path d="M176.389 75.3489L173.795 86.7576C173.585 87.6795 173.75 88.647 174.254 89.4472C174.758 90.2473 175.559 90.8145 176.481 91.0242L183.433 92.6051C184.355 92.8147 185.322 92.6496 186.122 92.146C186.922 91.6423 187.49 90.8414 187.699 89.9194L194.289 60.9424C194.85 58.7666 196.237 56.8951 198.155 55.7256C200.074 54.5561 202.373 54.1805 204.564 54.6787C206.755 55.177 208.666 56.5097 209.89 58.3939C211.114 60.2781 211.555 62.5653 211.12 64.7698L204.531 93.7468C204.321 94.6688 204.486 95.6363 204.99 96.4365C205.494 97.2366 206.295 97.8038 207.217 98.0135C208.139 98.2231 209.106 98.058 209.906 97.5543C210.706 97.0507 211.274 96.2497 211.483 95.3278L221.666 50.5482C222.114 48.6028 223.224 46.8736 224.807 45.6568C226.389 44.44 228.346 43.8113 230.341 43.8783C230.896 43.8985 231.447 43.97 231.989 44.0921C234.211 44.5915 236.144 45.9514 237.365 47.8738C238.586 49.7961 238.996 52.1241 238.504 54.3478L236.29 64.081C234.261 73.0077 232.146 81.9224 229.283 90.6525C227.056 97.4578 223.593 104.421 218.012 109.221C212.187 114.228 204.075 115.622 196.635 116.058C187.554 116.482 178.455 115.827 169.528 114.106C166.258 113.501 163.002 112.805 159.756 112.066C158.585 111.801 157.479 111.308 156.499 110.615C155.519 109.922 154.686 109.043 154.046 108.027C153.407 107.012 152.973 105.881 152.771 104.698C152.569 103.515 152.602 102.304 152.868 101.134L159.599 71.531C160.16 69.3552 161.548 67.4838 163.466 66.3142C165.385 65.1447 167.684 64.7691 169.875 65.2674C172.066 65.7656 173.976 67.0984 175.2 68.9826C176.425 70.8668 176.866 73.154 176.431 75.3584L176.389 75.3489Z" fill="#09262C"/>
<path d="M83.0755 54.1297L80.4812 65.5383C80.2716 66.4603 79.7043 67.2612 78.9041 67.7649C78.104 68.2686 77.1366 68.4337 76.2146 68.224L69.2624 66.6431C68.3404 66.4335 67.5395 65.8662 67.0359 65.0661C66.5322 64.2659 66.367 63.2984 66.5767 62.3765L73.166 33.3994C73.601 31.195 73.1596 28.9078 71.9354 27.0236C70.7112 25.1394 68.8007 23.8066 66.6097 23.3084C64.4186 22.8101 62.1197 23.1857 60.2011 24.3552C58.2825 25.5248 56.8954 27.3962 56.3344 29.572L49.7451 58.5491C49.5355 59.471 48.9682 60.2719 48.168 60.7756C47.3679 61.2793 46.4005 61.4444 45.4785 61.2347C44.5566 61.0251 43.7557 60.4579 43.252 59.6577C42.7484 58.8576 42.5832 57.8901 42.7929 56.9681L52.9756 12.1885C53.4131 10.2418 53.1605 8.20356 52.261 6.42251C51.3616 4.64146 49.8713 3.22826 48.045 2.42474C47.536 2.20339 47.0077 2.02942 46.4668 1.90503C44.2465 1.39236 41.9136 1.78124 39.9797 2.98632C38.0457 4.19139 36.6686 6.11427 36.1505 8.33326L33.9372 18.0665C31.9073 26.9932 29.9661 35.9474 28.7651 45.0553C27.8377 52.1562 27.9417 59.9304 30.9052 66.6731C33.9925 73.7071 40.6963 78.4707 47.2164 82.081C55.2212 86.3899 63.7091 89.7338 72.502 92.0425C75.7187 92.9129 78.9559 93.6929 82.1957 94.4296C84.5577 94.9667 87.0362 94.5435 89.0862 93.2531C91.1362 91.9628 92.5897 89.9109 93.1268 87.5489L99.8584 57.9461C100.293 55.7416 99.852 53.4544 98.6278 51.5702C97.4036 49.686 95.4931 48.3532 93.302 47.855C91.111 47.3568 88.8121 47.7323 86.8935 48.9019C84.9749 50.0714 83.5878 51.9428 83.0268 54.1186L83.0755 54.1297Z" fill="#09262C"/>
<path d="M73.1494 160.482C73.0689 160.516 72.9926 160.56 72.9222 160.613L72.8422 160.675C72.8401 160.694 72.8359 160.713 72.8296 160.731L72.7097 160.872C72.6986 160.92 72.6513 160.968 72.6178 161.019C72.6163 161.04 72.6115 161.061 72.6035 161.081L72.5767 161.2C72.4594 161.517 72.4004 161.853 72.4025 162.191C72.4671 163.697 72.7304 165.188 73.1856 166.624C73.9182 169.255 75.3625 172.903 78.4709 173.317C79.4499 173.422 80.4379 173.232 81.3079 172.771C82.8697 171.919 84.2523 170.773 85.38 169.397C86.4094 168.297 87.2912 167.067 88.0033 165.739C88.3643 164.987 88.5155 163.969 87.6004 163.556C87.3107 163.461 87.0128 163.393 86.7104 163.353L74.1477 160.497C73.8215 160.408 73.4782 160.403 73.1494 160.482Z" fill="white"/>
<path d="M98.8657 166.329C98.7852 166.364 98.7089 166.408 98.6385 166.46L98.5585 166.523C98.5564 166.542 98.5522 166.56 98.5459 166.578C98.5024 166.622 98.4623 166.669 98.4261 166.719C98.415 166.768 98.4023 166.824 98.3341 166.867C98.3326 166.888 98.3278 166.909 98.3198 166.929L98.293 167.047C98.1757 167.365 98.1167 167.7 98.1188 168.039C98.1834 169.545 98.4467 171.035 98.9019 172.472C99.6345 175.103 101.079 178.751 104.187 179.165C105.166 179.27 106.154 179.079 107.024 178.619C108.586 177.767 109.969 176.621 111.096 175.245C112.123 174.142 113.005 172.913 113.72 171.586C114.081 170.835 114.232 169.816 113.317 169.404C113.027 169.308 112.729 169.241 112.427 169.201L99.864 166.344C99.5378 166.256 99.1945 166.25 98.8657 166.329Z" fill="white"/>
<path d="M124.582 172.177C124.502 172.212 124.426 172.256 124.355 172.308L124.275 172.371C124.273 172.39 124.269 172.408 124.263 172.426C124.219 172.47 124.179 172.517 124.143 172.567C124.132 172.616 124.119 172.672 124.051 172.715C124.049 172.736 124.045 172.757 124.037 172.777L124.01 172.895C123.889 173.212 123.83 173.548 123.835 173.887C123.9 175.393 124.163 176.883 124.619 178.32C125.351 180.951 126.796 184.599 129.904 185.013C130.883 185.118 131.871 184.927 132.741 184.466C134.303 183.615 135.685 182.469 136.813 181.093C137.84 179.99 138.721 178.761 139.436 177.434C139.797 176.683 139.949 175.664 139.033 175.251C138.744 175.156 138.446 175.088 138.143 175.049L125.581 172.192C125.255 172.104 124.911 172.098 124.582 172.177Z" fill="white"/>
</g>
<defs>
<clipPath id="clip0_538_2141">
<rect width="207.433" height="171.777" fill="white" transform="translate(38.0894) rotate(12.811)"/>
</clipPath>
</defs>
</svg>
