<svg width="306" height="575" viewBox="0 0 306 575" fill="none" xmlns="http://www.w3.org/2000/svg">
<g clip-path="url(#clip0_538_2116)">
<path d="M56.7527 554.064C59.2162 554.949 61.8299 555.34 64.4446 555.215C67.0592 555.09 69.6238 554.45 71.9914 553.334C74.359 552.217 76.4833 550.645 78.2431 548.707C80.0029 546.769 81.3635 544.504 82.2475 542.04C84.0345 537.066 83.7725 531.586 81.5191 526.805C79.2656 522.024 75.2054 518.335 70.2315 516.548C67.7684 515.662 65.1548 515.269 62.5401 515.394C59.9253 515.518 57.3606 516.156 54.9926 517.271C52.6245 518.387 50.4995 519.958 48.7388 521.895C46.9781 523.832 45.6164 526.097 44.7313 528.561C43.8448 531.025 43.4526 533.639 43.5771 536.255C43.7015 538.87 44.3403 541.435 45.4567 543.804C46.5732 546.172 48.1455 548.298 50.0837 550.058C52.0219 551.819 54.2881 553.18 56.7527 554.064ZM66.0812 528.1C67.9913 528.786 69.5504 530.203 70.4158 532.039C71.2811 533.875 71.3819 535.979 70.6956 537.889C70.3567 538.836 69.8344 539.707 69.1586 540.452C68.4829 541.197 67.6671 541.801 66.7576 542.231C65.8481 542.66 64.8628 542.906 63.8583 542.954C62.8537 543.002 61.8496 542.852 60.9031 542.512C59.9555 542.173 59.0842 541.65 58.3389 540.974C57.5936 540.297 56.989 539.481 56.5598 538.57C56.1307 537.66 55.8853 536.674 55.8378 535.668C55.7904 534.663 55.9418 533.658 56.2832 532.711C56.6232 531.765 57.1465 530.895 57.8231 530.15C58.4997 529.406 59.3164 528.803 60.2264 528.375C61.1363 527.946 62.1217 527.702 63.1264 527.654C64.131 527.607 65.1351 527.759 66.0812 528.1Z" fill="#09262C"/>
<path d="M63.2578 425.903L133.297 451.067L242.186 99.3735L255.221 42.2428C257.518 32.2038 254.579 23.2837 248.249 21.0094C241.918 18.735 233.974 23.7449 229.349 32.9477L203.045 85.3109L63.2578 425.903Z" fill="#09262C"/>
<path d="M80.6662 432.158L115.889 444.813L74.7816 529.974L57.3309 523.704L80.6662 432.158Z" fill="#09262C"/>
<path d="M51.4658 392.103C50.1591 403.319 51.6017 414.597 53.2593 425.675C56.2759 445.869 63.7006 474.193 86.3512 480.085C93.4227 481.919 101.002 481.011 107.913 478.583C120.158 474.287 131.515 465.868 141.105 457.236C149.443 449.72 157.732 441.968 163.854 432.481C167.226 427.271 169.286 419.861 162.871 415.989C160.851 414.932 158.728 414.086 156.535 413.464L152.481 412.008L149.714 411.013C149.113 410.798 148.503 410.579 147.894 410.36L66.0149 380.942C63.8596 380.292 61.3135 379.693 59.1548 380.169C58.5194 380.335 57.9104 380.589 57.3455 380.923C57.1291 381.044 56.9191 381.176 56.7162 381.318C56.586 381.415 56.4503 381.5 56.3285 381.6C55.9595 381.901 55.61 382.225 55.282 382.571L55.194 382.683C54.9046 383.013 54.6335 383.359 54.3821 383.719L54.1315 384.097C53.9604 384.361 53.8063 384.63 53.6667 384.886C52.4816 387.13 51.7348 389.579 51.4658 392.103Z" fill="#09262C"/>
<path d="M71.0896 382.775L69.2701 382.121L67.3406 381.428L65.9905 381.01C65.9905 381.01 71.205 382.826 71.0896 382.775Z" fill="#09262C"/>
<path d="M94.4696 449.138C111.235 455.161 130.46 444.362 130.46 444.362C130.46 444.362 122.509 423.781 105.744 417.757C88.9789 411.734 69.7446 422.53 69.7446 422.53C69.7446 422.53 77.7045 443.115 94.4696 449.138Z" fill="white"/>
<path d="M51.4658 392.103C50.1591 403.319 51.6017 414.597 53.2593 425.675C56.2759 445.869 63.7006 474.193 86.3512 480.085C93.4227 481.919 101.002 481.011 107.913 478.583C120.158 474.287 131.515 465.868 141.105 457.236C149.443 449.72 157.732 441.968 163.854 432.481C167.226 427.271 169.286 419.861 162.871 415.989C160.851 414.932 158.728 414.086 156.535 413.464L152.481 412.008L149.714 411.013C149.113 410.798 148.503 410.579 147.894 410.36L66.0149 380.942C63.8596 380.292 61.3135 379.693 59.1548 380.169C58.5194 380.335 57.9104 380.589 57.3455 380.923C57.1291 381.044 56.9191 381.176 56.7162 381.318C56.586 381.415 56.4503 381.5 56.3285 381.6C55.9595 381.901 55.61 382.225 55.282 382.571L55.194 382.683C54.9046 383.013 54.6335 383.359 54.3821 383.719L54.1315 384.097C53.9604 384.361 53.8063 384.63 53.6667 384.886C52.4816 387.13 51.7348 389.579 51.4658 392.103ZM107.74 412.149C128.576 419.635 141.859 435.749 137.407 448.139C132.956 460.529 112.424 464.485 91.622 457.011C70.82 449.537 57.4946 433.407 61.943 421.026C66.3913 408.645 86.8957 404.66 107.74 412.149Z" fill="#09262C"/>
<path d="M91.6219 457.011C112.458 464.497 132.959 460.52 137.407 448.139C141.856 435.758 128.542 419.622 107.74 412.149C86.9379 404.675 66.3943 408.636 61.9429 421.026M105.744 417.757C122.509 423.781 130.466 444.346 130.466 444.346C130.466 444.346 111.241 455.144 94.4757 449.121C77.7105 443.098 69.7446 422.53 69.7446 422.53C69.7446 422.53 88.9788 411.734 105.744 417.757Z" fill="#09262C"/>
<path d="M104.193 422.073C97.9069 419.815 90.9797 423.08 88.7211 429.366C86.4625 435.653 89.7278 442.58 96.0143 444.839C102.301 447.097 109.228 443.832 111.487 437.546C113.745 431.259 110.48 424.332 104.193 422.073Z" fill="#09262C"/>
<path d="M116.025 396.454L116.457 396.609L222.631 92.3668L110.903 394.595L116.025 396.454Z" fill="#636A6B"/>
<path d="M146.773 407.549L80.5589 383.76" stroke="#636A6B" stroke-width="5" stroke-miterlimit="10"/>
</g>
<defs>
<clipPath id="clip0_538_2116">
<rect width="120.609" height="566.372" fill="white" transform="translate(113.505 574.454) rotate(-160.238)"/>
</clipPath>
</defs>
</svg>
