<?xml version="1.0" encoding="utf-8"?>
<!-- Generator: Adobe Illustrator 26.0.2, SVG Export Plug-In . SVG Version: 6.00 Build 0)  -->
<svg version="1.1" id="Layer_1" xmlns="http://www.w3.org/2000/svg" xmlns:xlink="http://www.w3.org/1999/xlink" x="0px" y="0px"
	 viewBox="0 0 1440 1236" style="enable-background:new 0 0 1440 1236;" xml:space="preserve">
<style type="text/css">
	.st0{fill:#308CC0;}
	.st1{fill:none;filter:url(#Adobe_OpacityMaskFilter);stroke:#FDFEFE;stroke-width:4;stroke-miterlimit:10;}
	.st2{fill:none;stroke:#FDFEFE;stroke-width:4;stroke-miterlimit:10;}
	.st3{mask:url(#mask0_705_7_00000019653202185514280750000002329033397044906414_);}
	.st4{fill:#1871A4;}
	.st5{clip-path:url(#SVGID_00000095331211894002290750000015480281668877887671_);fill:#308CC0;}
</style>
<g>
	<rect y="67" class="st0" width="1440" height="1169"/>
	<defs>
		<filter id="Adobe_OpacityMaskFilter" filterUnits="userSpaceOnUse" x="0" y="34" width="1440" height="1197">
			<feColorMatrix  type="matrix" values="1 0 0 0 0  0 1 0 0 0  0 0 1 0 0  0 0 0 1 0"/>
		</filter>
	</defs>
	
		<mask maskUnits="userSpaceOnUse" x="0" y="34" width="1440" height="1197" id="mask0_705_7_00000019653202185514280750000002329033397044906414_">
		<path class="st1" d="M1176.7,183.3c-4.6-6.4,45.7-26.8,41.7-60.3h-1.2c-4,33.5-102.2,53.9-161.1,60.3 M1056.1,183.3
			c-13.2,1.4-24.4,2.1-32.2,2.1c-7.8,0-11.5-0.7-12.5-2.1c-4.5-6.4,45.7-26.8,41.7-60.3h-1.2c-4,33.5-102.1,53.9-161,60.3
			 M846,183.3c1,1.4,4.8,2.2,12.5,2.2c7.8,0,19-0.7,32.3-2.2"/>
		<path class="st2" d="M1528.1,1082.2c4-8.1,45.3-27.7,41.7-58.2h-1.2c-1.6,13.2-17.8,24.4-40.5,33.4c-34.9,14-85.1,23-120.8,26.8
			c-13.2,1.4-24.3,2.1-32.1,2.1c-7.7,0-11.5-0.7-12.5-2.1c-4.6-6.3,45.7-26.8,41.7-60.3h-1.2c-4,33.5-102.2,53.9-161.1,60.3
			 M1242.1,1084.3c-13.2,1.4-24.4,2.2-32.2,2.2c-7.8,0-11.5-0.7-12.5-2.2c-4.5-6.4,45.7-26.8,41.7-60.3h-1.2
			c-4,33.5-102.1,53.9-161,60.3 M1032,1084.2c1,1.4,4.8,2.2,12.5,2.2c7.8,0,19-0.7,32.3-2.2"/>
		<path class="st2" d="M185.1,617.2c4-8.1,45.3-27.7,41.7-58.2h-1.2c-1.6,13.2-17.8,24.4-40.5,33.4c-34.9,14-85.1,23-120.8,26.8
			c-13.2,1.4-24.3,2.1-32.1,2.1s-11.5-0.7-12.5-2.1c-4.6-6.4,45.7-26.8,41.7-60.3h-1.2c-4,33.5-102.2,53.9-161.1,60.3 M-100.9,619.3
			c-13.2,1.4-24.4,2.1-32.2,2.1s-11.5-0.7-12.5-2.2c-4.5-6.4,45.7-26.8,41.7-60.3h-1.2c-4,33.5-102.1,53.9-161,60.3 M-311,619.3
			c1,1.4,4.8,2.2,12.5,2.2c7.8,0,19.1-0.7,32.3-2.2"/>
	</mask>
	<g class="st3">
		<rect y="34" class="st4" width="1440" height="1197"/>
	</g>
	<g>
		<defs>
			<path id="SVGID_1_" d="M1652.4,48.4c-41.8,0,33.7-16.5,28.8-47.9h-1.2c-4.8,31.5-149.2,47.9-191,47.9
				c-41.8,0,33.7-16.5,28.8-47.9h-1.2c-4.8,31.5-149.2,47.9-191,47.9s33.6-16.5,28.8-47.9h-1.2c-4.8,31.5-149.2,47.9-191,47.9
				c-41.8,0,33.6-16.5,28.8-47.9h-1.2c-4.8,31.5-149.2,47.9-191,47.9c-41.8,0,33.7-16.5,28.8-47.9h-1.2
				c-4.8,31.5-149.2,47.9-191,47.9S869.4,32,864.5,0.5h-1.2c-4.8,31.5-149.2,47.9-191,47.9c-41.8,0,33.6-16.5,28.8-47.9H700
				c-4.8,31.5-149.2,47.9-191,47.9c-41.8,0,33.6-16.5,28.8-47.9h-1.2c-4.8,31.5-149.2,47.9-191,47.9c-41.8,0,33.6-16.5,28.8-47.9
				h-1.2c-4.8,31.5-149.2,47.9-191,47.9S216,32,211.2,0.5H210C205.1,32,60.8,48.4,19,48.4S52.7,32,47.8,0.5h-1.2
				c-4.8,31.5-149.2,47.9-191,47.9c-41.8,0,33.6-16.5,28.8-47.9h-0.6L-226,104.3h1960.1L1844,0.5h-0.6
				C1838.6,32,1694.2,48.4,1652.4,48.4z"/>
		</defs>
		<clipPath id="SVGID_00000048498834989310129650000012895097311505233590_">
			<use xlink:href="#SVGID_1_"  style="overflow:visible;"/>
		</clipPath>
		
			<rect y="-71.3" style="clip-path:url(#SVGID_00000048498834989310129650000012895097311505233590_);fill:#308CC0;" width="1440" height="139.7"/>
	</g>
</g>
</svg>
