<?xml version="1.0" encoding="utf-8"?>
<!-- Generator: Adobe Illustrator 27.0.0, SVG Export Plug-In . SVG Version: 6.00 Build 0)  -->
<svg version="1.1" id="Layer_1" xmlns="http://www.w3.org/2000/svg" xmlns:xlink="http://www.w3.org/1999/xlink" x="0px" y="0px"
	 viewBox="0 0 1440 459" style="enable-background:new 0 0 1440 459;" xml:space="preserve">
<style type="text/css">
	.st0{fill:#404F50;}
	.st1{fill:none;stroke:#596465;stroke-width:6.8155;}
</style>
<g>
	<path class="st0" d="M-5,0c0,0.8,0.1,1.5,0.1,1.5V459H1440l1.8-457.2V0H-5z"/>
</g>
<g>
	<g>
		<g>
			<g>
				<g>
					<g>
						<g>
							<g>
								<g>
									<g>
										<g>
											<g>
												<path class="st1" d="M-68.3,68.9c50.1,0,50.1-0.2,100.2-0.2"/>
											</g>
											<g>
												<path class="st1" d="M-68.3,4.9c50.1,0,50.1-0.8,100.2-0.8"/>
											</g>
											<g>
												<path class="st1" d="M59.3,71.5c90.6,0,90.6,1.1,181.1,1.1"/>
											</g>
											<g>
												<path class="st1" d="M103.2,148.8c94.1,0,94.1,0.1,188,0.1"/>
											</g>
											<g>
												<path class="st1" d="M-2.4,148.9c28.8,0,28.8-0.7,57.7-0.7"/>
											</g>
											<g>
												<path class="st1" d="M-105.7,222.8c68.7,0,68.7-1,137.5-1"/>
											</g>
											<g>
												<path class="st1" d="M59.3,223.4c90.6,0,90.6,1.7,181.1,1.7"/>
											</g>
											<g>
												<path class="st1" d="M250.8,221.8c26.5,0,26.5,2.2,52.9,2.2"/>
											</g>
											<g>
												<path class="st1" d="M250.8,305.1c21.5,0,21.5-0.5,42.8-0.5"/>
											</g>
											<g>
												<path class="st1" d="M103.2,306.7c50.1,0,50.1-0.8,100.2-0.8"/>
											</g>
											<g>
												<path class="st1" d="M231.1,4.5c34.4,0,34.4,1.4,68.8,1.4"/>
											</g>
											<g>
												<path class="st1" d="M197.9,375.6c52.9,0,52.9,2.7,105.7,2.7"/>
											</g>
											<g>
												<path class="st1" d="M15.9,305.4c19.7,0,19.7,1.2,39.4,1.2"/>
											</g>
											<g>
												<path class="st1" d="M6.3,5.6c0,32.5-0.7,32.5-0.7,65"/>
											</g>
											<g>
												<path class="st1" d="M72,83c0,32.5,0.7,32.5,0.7,65"/>
											</g>
											<g>
												<path class="st1" d="M187.7,5.6c0,32.5,1.2,32.5,1.2,65"/>
											</g>
											<g>
												<path class="st1" d="M254.5,83c0,32.5,1.7,32.5,1.7,65"/>
											</g>
											<g>
												<path class="st1" d="M132.5,157.6c0,32.5,1.4,32.5,1.4,65"/>
											</g>
											<g>
												<path class="st1" d="M171.3,240.6c0,32.5,1.9,32.5,1.9,65"/>
											</g>
											<g>
												<path class="st1" d="M237.8,148.7c0,32.5,1.1,32.5,1.1,65"/>
											</g>
											<g>
												<path class="st1" d="M96.3,88c31.6,0,31.6-2.2,63.1-2.2"/>
											</g>
											<g>
												<path class="st1" d="M-2.4,378.5c90.6,0,90.6-0.8,181.1-0.8"/>
											</g>
											<g>
												<path class="st1" d="M101.9,5.9c50.1,0,50.1-1.5,100.2-1.5"/>
											</g>
											<g>
												<path class="st1" d="M282.6,394c0,32.5,2.7,32.5,2.7,65"/>
											</g>
											<g>
												<path class="st1" d="M126.3,306.9c0,32.5-0.8,32.5-0.8,65"/>
											</g>
											<g>
												<path class="st1" d="M171.4,394c0,32.5,0.3,32.5,0.3,65"/>
											</g>
											<g>
												<path class="st1" d="M93.5,241.3c31.6,0,31.6-1.8,63.1-1.8"/>
											</g>
											<g>
												<path class="st1" d="M136.1,320.6c31.6,0,31.6,0.7,63.1,0.7"/>
											</g>
										</g>
									</g>
								</g>
								<g>
									<g>
										<g>
											<g>
												<path class="st1" d="M301.5,69.9c98.8,0,98.8,0.8,197.6,0.8"/>
											</g>
											<g>
												<path class="st1" d="M318,4.9c49.6,0,49.6-1.7,99.1-1.7"/>
											</g>
											<g>
												<path class="st1" d="M489.6,149.1c90.6,0,90.6-1.3,181.1-1.3"/>
											</g>
											<g>
												<path class="st1" d="M530.7,71c50.1,0,50.1-1.1,100.2-1.1"/>
											</g>
											<g>
												<path class="st1" d="M759.8,68.9c50.1,0,50.1-0.2,100.2-0.2"/>
											</g>
											<g>
												<path class="st1" d="M759.8,4.9c50.1,0,50.1-0.8,100.2-0.8"/>
											</g>
											<g>
												<path class="st1" d="M432.7,5.9c6.5,0,6.5,1.3,13,1.3"/>
											</g>
											<g>
												<path class="st1" d="M699.6,72.1c11.5,0,11.5-2.2,23.1-2.2"/>
											</g>
											<g>
												<path class="st1" d="M642.7,5c45.6,0,45.6,2.4,91.1,2.4"/>
											</g>
											<g>
												<path class="st1" d="M887.6,71.5c90.6,0,90.6,1.1,181.1,1.1"/>
											</g>
											<g>
												<path class="st1" d="M702.3,148c50.1,0,50.1-0.8,100.2-0.8"/>
											</g>
											<g>
												<path class="st1" d="M382.5,149.5c50.1,0,50.1-0.9,100.2-0.9"/>
											</g>
											<g>
												<path class="st1" d="M301.5,148.3c50.1,0,50.1,1.2,100.2,1.2"/>
											</g>
											<g>
												<path class="st1" d="M931.4,148.8c94.1,0,94.1,0.1,188,0.1"/>
											</g>
											<g>
												<path class="st1" d="M825.8,148.9c28.8,0,28.8-0.7,57.7-0.7"/>
											</g>
											<g>
												<path class="st1" d="M318,222.5c90.6,0,90.6,0.7,181.1,0.7"/>
											</g>
											<g>
												<path class="st1" d="M599.3,306.9c61.7,0,61.7,0.7,123.2,0.7"/>
											</g>
											<g>
												<path class="st1" d="M489.6,305c46.7,0,46.7,1.3,93.3,1.3"/>
											</g>
											<g>
												<path class="st1" d="M530.7,221.1c78.8,0,78.8,2.7,157.4,2.7"/>
											</g>
											<g>
												<path class="st1" d="M722.6,222.8c68.7,0,68.7-1,137.5-1"/>
											</g>
											<g>
												<path class="st1" d="M699.6,223.3c6.2,0,6.2-2,12.3-2"/>
											</g>
											<g>
												<path class="st1" d="M887.6,223.4c90.6,0,90.6,1.7,181.1,1.7"/>
											</g>
											<g>
												<path class="st1" d="M1078.9,221.8c26.5,0,26.5,2.2,52.9,2.2"/>
											</g>
											<g>
												<path class="st1" d="M1078.9,305.1c21.5,0,21.5-0.5,42.8-0.5"/>
											</g>
											<g>
												<path class="st1" d="M733.8,303.6c34.3,0,34.3,0.3,68.6,0.3"/>
											</g>
											<g>
												<path class="st1" d="M409.1,304.8c34.5,0,34.5,2.3,69.1,2.3"/>
											</g>
											<g>
												<path class="st1" d="M301.5,304.9c50.1,0,50.1-0.1,100.2-0.1"/>
											</g>
											<g>
												<path class="st1" d="M931.4,306.7c50.1,0,50.1-0.8,100.2-0.8"/>
											</g>
											<g>
												<path class="st1" d="M1059.3,4.5c34.4,0,34.4,1.4,68.8,1.4"/>
											</g>
											<g>
												<path class="st1" d="M1026.1,375.6c52.9,0,52.9,2.7,105.7,2.7"/>
											</g>
											<g>
												<path class="st1" d="M844,305.4c19.7,0,19.7,1.2,39.4,1.2"/>
											</g>
											<g>
												<path class="st1" d="M377.6,5.6c0,32.5-1.5,32.5-1.5,65"/>
											</g>
											<g>
												<path class="st1" d="M445,83c0,32.5,0.6,32.5,0.6,65"/>
											</g>
											<g>
												<path class="st1" d="M321.8,157.6c0,32.5-1.5,32.5-1.5,65"/>
											</g>
											<g>
												<path class="st1" d="M362.6,240.6c0,32.5-1.4,32.5-1.4,65"/>
											</g>
											<g>
												<path class="st1" d="M563.3,5.6c0,32.5,2,32.5,2,65"/>
											</g>
											<g>
												<path class="st1" d="M634.4,83c0,32.5,0.1,32.5,0.1,65"/>
											</g>
											<g>
												<path class="st1" d="M511.1,157.6c0,32.5-2.8,32.5-2.8,65"/>
											</g>
											<g>
												<path class="st1" d="M549.3,240.6c0,32.5,1.1,32.5,1.1,65"/>
											</g>
											<g>
												<path class="st1" d="M664,5.6c0,32.5,0.9,32.5,0.9,65"/>
											</g>
											<g>
												<path class="st1" d="M735,83c0,32.5-3,32.5-3,65"/>
											</g>
											<g>
												<path class="st1" d="M608.4,157.6c0,32.5,3.4,32.5,3.4,65"/>
											</g>
											<g>
												<path class="st1" d="M648.2,240.6c0,32.5,2.6,32.5,2.6,65"/>
											</g>
											<g>
												<path class="st1" d="M834.5,5.6c0,32.5-0.7,32.5-0.7,65"/>
											</g>
											<g>
												<path class="st1" d="M900.1,83c0,32.5,0.7,32.5,0.7,65"/>
											</g>
											<g>
												<path class="st1" d="M776.6,157.6c0,32.5-0.7,32.5-0.7,65"/>
											</g>
											<g>
												<path class="st1" d="M819.1,240.6c0,32.5-3.4,32.5-3.4,65"/>
											</g>
											<g>
												<path class="st1" d="M1015.9,5.6c0,32.5,1.2,32.5,1.2,65"/>
											</g>
											<g>
												<path class="st1" d="M1082.6,83c0,32.5,1.7,32.5,1.7,65"/>
											</g>
											<g>
												<path class="st1" d="M960.7,157.6c0,32.5,1.4,32.5,1.4,65"/>
											</g>
											<g>
												<path class="st1" d="M999.5,240.6c0,32.5,1.9,32.5,1.9,65"/>
											</g>
											<g>
												<path class="st1" d="M1066.1,148.7c0,32.5,1.1,32.5,1.1,65"/>
											</g>
											<g>
												<path class="st1" d="M460.8,85.1c31.6,0,31.6-1.8,63.1-1.8"/>
											</g>
											<g>
												<path class="st1" d="M338.7,160.8c-252.4,0-219.8,0.2,63.1,0.2"/>
											</g>
											<g>
												<path class="st1" d="M519.7,162.1c31.6,0,31.6-0.3,63.1-0.3"/>
												<path class="st1" d="M209.1,393.4c31.6,0,31.6,0.2,63.1,0.2"/>
											</g>
											<g>
												<path class="st1" d="M560.9,238c31.6,0,31.6,2,63.1,2"/>
											</g>
											<g>
												<path class="st1" d="M924.5,88c31.6,0,31.6-2.2,63.1-2.2"/>
											</g>
											<g>
												<path class="st1" d="M469,377c50.1,0,50.1-0.9,100.2-0.9"/>
											</g>
											<g>
												<path class="st1" d="M331.1,377.8c38.7,0,38.7-0.5,77.6-0.5"/>
											</g>
											<g>
												<path class="st1" d="M698.2,376.8c50.1,0,50.1,1.5,100.2,1.5"/>
											</g>
											<g>
												<path class="st1" d="M637.8,376.1c15.8,0,15.8,2.2,31.6,2.2"/>
											</g>
											<g>
												<path class="st1" d="M825.8,378.5c90.6,0,90.6-0.8,181.1-0.8"/>
											</g>
											<g>
												<path class="st1" d="M930,5.9c50.1,0,50.1-1.5,100.2-1.5"/>
											</g>
											<g>
												<path class="st1" d="M314.9,306.9c0,32.5-1.2,32.5-1.2,65"/>
											</g>
											<g>
												<path class="st1" d="M361.4,394c0,32.5,0.4,32.5,0.4,65"/>
											</g>
											<g>
												<path class="st1" d="M503.4,305.5c0,27.1-0.8,27.1-0.8,54.2"/>
											</g>
											<g>
												<path class="st1" d="M549,394c0,32.5-1.2,32.5-1.2,65"/>
											</g>
											<g>
												<path class="st1" d="M614.5,306.9c0,32.5-1.5,32.5-1.5,65"/>
											</g>
											<g>
												<path class="st1" d="M649.2,394c0,32.5-1.6,32.5-1.6,65"/>
											</g>
											<g>
												<path class="st1" d="M770.5,324.2c0,23.9,1.2,23.9,1.2,47.7"/>
											</g>
											<g>
												<path class="st1" d="M817.3,394c0,32.5-0.4,32.5-0.4,65"/>
											</g>
											<g>
												<path class="st1" d="M1110.7,394c0,32.5,2.7,32.5,2.7,65"/>
											</g>
											<g>
												<path class="st1" d="M954.5,306.9c0,32.5-0.8,32.5-0.8,65"/>
											</g>
											<g>
												<path class="st1" d="M999.6,394c0,32.5,0.3,32.5,0.3,65"/>
											</g>
											<g>
												<path class="st1" d="M324.1,317.1c31.6,0,31.6,2.9,63.1,2.9"/>
											</g>
											<g>
												<path class="st1" d="M921.8,241.3c31.6,0,31.6-1.8,63.1-1.8"/>
											</g>
											<g>
												<path class="st1" d="M473.1,4.4c59.7,0,59.7,1.8,119.4,1.8"/>
											</g>
											<g>
												<path class="st1" d="M964.2,320.6c31.6,0,31.6,0.7,63.1,0.7"/>
											</g>
										</g>
									</g>
								</g>
								<g>
									<g>
										<g>
											<g>
												<path class="st1" d="M1133.1,69.9c98.8,0,98.8,0.8,197.6,0.8"/>
											</g>
											<g>
												<path class="st1" d="M1149.7,4.9c49.6,0,49.6-1.7,99.1-1.7"/>
											</g>
											<g>
												<path class="st1" d="M1321.3,149.1c90.6,0,90.6-1.3,181.1-1.3"/>
											</g>
											<g>
												<path class="st1" d="M1362.3,71c50.1,0,50.1-1.1,100.2-1.1"/>
											</g>
											<g>
												<path class="st1" d="M1591.5,68.9"/>
											</g>
											<g>
												<path class="st1" d="M1264.3,5.9c6.5,0,6.5,1.3,13,1.3"/>
											</g>
											<g>
												<path class="st1" d="M1214.2,149.5c50.1,0,50.1-0.9,100.2-0.9"/>
											</g>
											<g>
												<path class="st1" d="M1133.1,148.3c50.1,0,50.1,1.2,100.2,1.2"/>
											</g>
											<g>
												<path class="st1" d="M1149.7,222.5c90.6,0,90.6,0.7,181.1,0.7"/>
											</g>
											<g>
												<path class="st1" d="M1431,306.9c61.7,0,61.7,0.7,123.2,0.7"/>
											</g>
											<g>
												<path class="st1" d="M1321.3,305c46.7,0,46.7,1.3,93.3,1.3"/>
											</g>
											<g>
												<path class="st1" d="M1362.3,221.1c78.8,0,78.8,2.7,157.4,2.7"/>
											</g>
											<g>
												<path class="st1" d="M1554.2,222.8"/>
											</g>
											<g>
												<path class="st1" d="M1240.7,304.8c34.5,0,34.5,2.3,69.1,2.3"/>
											</g>
											<g>
												<path class="st1" d="M1133.1,304.9c50.1,0,50.1-0.1,100.2-0.1"/>
											</g>
											<g>
												<path class="st1" d="M1209.2,5.6c0,32.5-1.5,32.5-1.5,65"/>
											</g>
											<g>
												<path class="st1" d="M1276.6,83c0,32.5,0.6,32.5,0.6,65"/>
											</g>
											<g>
												<path class="st1" d="M1153.4,157.6c0,32.5-1.5,32.5-1.5,65"/>
											</g>
											<g>
												<path class="st1" d="M1194.1,240.6c0,32.5-1.4,32.5-1.4,65"/>
											</g>
											<g>
												<path class="st1" d="M1394.8,5.6c0,32.5,2,32.5,2,65"/>
											</g>
											<g>
												<path class="st1" d="M1342.6,157.6c0,32.5-2.8,32.5-2.8,65"/>
											</g>
											<g>
												<path class="st1" d="M1380.9,240.6c0,32.5,1.1,32.5,1.1,65"/>
											</g>
											<g>
												<path class="st1" d="M1440,157.6c0,32.5,3.4,32.5,3.4,65"/>
											</g>
											<g>
												<path class="st1" d="M1292.4,85.1c31.6,0,31.6-1.8,63.1-1.8"/>
											</g>
											<g>
												<path class="st1" d="M1170.3,160.8c31.6,0,31.6,0.2,63.1,0.2"/>
											</g>
											<g>
												<path class="st1" d="M1351.4,162.1c31.6,0,31.6-0.3,63.1-0.3"/>
											</g>
											<g>
												<path class="st1" d="M1392.5,238c31.6,0,31.6,2,63.1,2"/>
											</g>
											<g>
												<path class="st1" d="M1300.6,377c50.1,0,50.1-0.9,100.2-0.9"/>
											</g>
											<g>
												<path class="st1" d="M1162.7,377.8c38.7,0,38.7-0.5,77.6-0.5"/>
											</g>
											<g>
												<path class="st1" d="M1146.5,306.9c0,32.5-1.2,32.5-1.2,65"/>
											</g>
											<g>
												<path class="st1" d="M1192.9,394c0,32.5,0.4,32.5,0.4,65"/>
											</g>
											<g>
												<path class="st1" d="M1335.1,305.5c0,27.1-0.8,27.1-0.8,54.2"/>
											</g>
											<g>
												<path class="st1" d="M1380.6,394c0,32.5-1.2,32.5-1.2,65"/>
											</g>
											<g>
												<path class="st1" d="M1446.1,306.9c0,32.5-1.5,32.5-1.5,65"/>
											</g>
											<g>
												<path class="st1" d="M1155.8,317.1c31.6,0,31.6,2.9,63.1,2.9"/>
											</g>
											<g>
												<path class="st1" d="M1330.8,393.2c31.6,0,31.6-1.4,63.1-1.4"/>
											</g>
											<g>
												<path class="st1" d="M1304.7,4.4c59.7,0,59.7,1.8,119.4,1.8"/>
											</g>
										</g>
									</g>
								</g>
							</g>
						</g>
					</g>
				</g>
			</g>
		</g>
	</g>
	<path class="st1" d="M705.8,393.6c31.6,0,39.3,0.7,70.8,0.7"/>
	<path class="st1" d="M941.2,16.6c31.6,0,31.6,0.2,63.1,0.2"/>
	<path class="st1" d="M487.5,19.1c31.6,0,31.6,0.2,63.1,0.2"/>
	<path class="st1" d="M86.8,394.4c31.6,0,31.6,0.2,63.1,0.2"/>
	<path class="st1" d="M1131.1,19.2c31.6,0,31.6,0.2,63.1,0.2"/>
</g>
</svg>
