<?xml version="1.0" encoding="utf-8"?>
<!-- Generator: Adobe Illustrator 27.0.0, SVG Export Plug-In . SVG Version: 6.00 Build 0)  -->
<svg version="1.1" id="Layer_1" xmlns="http://www.w3.org/2000/svg" xmlns:xlink="http://www.w3.org/1999/xlink" x="0px" y="0px"
	 viewBox="0 0 679 801" style="enable-background:new 0 0 679 801;" xml:space="preserve">
<style type="text/css">
	.st0{fill:#2F3F3F;}
	.st1{fill:#304342;}
	.st2{fill:none;stroke:#485454;stroke-width:6.8155;}
	.st3{fill:#BB1400;}
	.st4{fill:#404F50;}
</style>
<g>
	<path class="st0" d="M605.3,732.2H72.7V332.8c0.5-70.3,28.7-137.6,78.6-187.1C201.2,96.1,268.7,68.3,339,68.3
		s137.8,27.8,187.7,77.4s78.1,116.8,78.6,187.1V732.2z"/>
	<path class="st1" d="M339.9,6.5C156.9,6.5,8.6,154.8,8.6,337.8v457.5h662.7V337.8C671.2,154.8,522.9,6.5,339.9,6.5z M592.4,716.5
		H87.5V337.8c0-67,26.6-131.2,73.9-178.5s111.5-73.9,178.5-73.9s131.2,26.6,178.5,73.9c47.3,47.3,73.9,111.6,73.9,178.5L592.4,716.5
		z"/>
	<g>
		<path class="st2" d="M671.6,693c4.1-105.2-3.1-105.4-5.9-210.6"/>
		<path class="st2" d="M651.6,792.3c8.2,2.9,17.2,10,19.4,1.6c8.4-31.6,4.6-33.9,0.4-66.3"/>
		<path class="st2" d="M412.4,791.9c102.6,3.2,102.8,6.9,205.4,3.5"/>
		<path class="st2" d="M224,790.8c77.8,3.4,77.7,3.1,155.5,0"/>
		<path class="st2" d="M141,794.1c24.3,3.6,25,3.2,49.4,0"/>
		<path class="st2" d="M12.9,293.6c-1.4,0-2.4-2.6-3.7-2.9c-2,14.7-4.1,29.7-4.1,45c0,117.4-2,117.5-0.7,234.9"/>
		<path class="st2" d="M192.6,41.2c0-0.9-2.2-2.1-2.1-3C104.2,80.9,40.6,160.5,16.9,256"/>
		<path class="st2" d="M455.5,26.1c0-0.4-3.2,0.7-3.2,0.4c-36-13.4-74.3-23.3-115-23.3c-42.1,0-83.2,7.5-120.2,21.7"/>
		<path class="st2" d="M659.5,246.5c-25.4-91.7-92.3-166.7-176.2-207.9"/>
		<path class="st2" d="M666.8,382.7c3.2-23.4,2.5-23.4,2.5-47c0-18.5-2.5-36.7-5.5-54.4c-0.5,0.1-0.7,0.6-1.2,0.6"/>
		<path class="st2" d="M667.8,450.7c2.6-17,2.4-17.1-0.7-34"/>
		<path class="st2" d="M3,665.5c0,53.2,2.8,53.2,2.8,106.5"/>
		<path class="st2" d="M6,792.5c52.7,0,52.7,0.3,105.3,0.3"/>
		<path class="st2" d="M588.2,395.6l-0.1-2.4c0.9,0,1.7,0.9,1.7,0.1c0-28.7-1.2-28.7-1.2-57.5c0-34.3-5-67.9-17.9-98.5"/>
		<path class="st2" d="M589.2,637c0.2,0,1.4-0.4,1.6-0.4c0.1-70.2-0.1-70.2-0.1-140.5c-0.2,0-1.2,0.6-1.4,0.6"/>
		<path class="st2" d="M432.8,712.7c0,0.1-0.6,0.2-0.6,0.2c0,0.9,2.9,4.6,3.8,4.6c76.1,0,76.1-5,152.3-5c0.9,0-0.2,1.2-0.2,0.3
			c0-20.4,1.3-20.4,1.2-40.8c-0.2,0,0.2-0.6,0.1-0.6"/>
		<path class="st2" d="M320.1,711.7c0,0.4,5.1,0.8,5.1,1.1c0,0.9-1.4,3.5-0.4,3.5c36.3,0,36.3-5.1,72.5-5.1c0.9,0-0.3,2.5-0.3,1.5
			l2.1-0.2"/>
		<path class="st2" d="M205.4,711.5c0.1,0.4,0.1,0.8,0.1,1.2c0,0.9,0.7,3.1,1.6,3.1c39.5,0,39.5-4,79-4c0.9,0,3,1.7,2.9,0.7
			c0-0.4,0.3-0.7,0.3-1"/>
		<path class="st2" d="M86.2,620.8c-1-0.5-3.3-1.6-3.3-0.5c0,46.2,0.2,46.2,0.2,92.5c0,0.9,2.5,3.8,3.3,3.8c41,0,41-4.2,82.1-4.2
			c1,0,0.7,1.3,0.6,0.3c0-0.4,3-0.9,2.9-1.3"/>
		<path class="st2" d="M90.8,539.9c-1.5,0.2-2.9,0.8-4.5,1c-0.1,0,0,1.9-0.1,1.9c-0.5,0-0.5-1.3-0.9-1.3
			c-0.2,21.7,2.3,21.7,2.3,43.3c0,1.1-1.4,2.2-0.4,1.8"/>
		<path class="st2" d="M87.8,449.8c-1-0.8-3.9,0.4-3.9,1.7c0,26.2,0.8,26.2,1,52.5c0.5-0.1,0.9-0.5,1.4-0.5c0.1,0,0.2-0.6,0.2-0.6"
			/>
		<path class="st2" d="M97.5,263.9c-0.9-0.6-2.6,0.3-2.9,1.4c-6.5,22.6-6.7,46.3-6.7,70.5c0,42.7-1.6,42.7-1.6,85.4
			c0,1.3-1.2,0.4-0.2-0.4"/>
		<path class="st2" d="M113.1,223.4c-0.8-0.7-2.7-1.5-3.1-0.6c-1.1,2.1-2.2,4.2-3.2,6.3c-0.4,1,1,5.6,2,5.8"/>
		<path class="st2" d="M222.3,111.4c0-0.1-0.9-1-0.9-1.1c-23.4,12-44.8,27.5-63.5,46c-11,11-20.7,23.6-29.3,36"/>
		<path class="st2" d="M413.9,95.6c-24.5-7.8-50.1-12.8-76.6-12.8c-29.8,0-57.6,7.8-84.9,17.7"/>
		<path class="st2" d="M522,163.3c-1.9-2-5.3-3-7.3-5c-19.7-19.9-42.7-36.4-67.9-48.6"/>
		<path class="st2" d="M52.2,166.6c30.2,14.6,28.5,18.2,58.7,32.8"/>
		<path class="st2" d="M553.5,204.5c29.9-12.2,29.6-12.9,59.5-25.1"/>
		<path class="st2" d="M338.6,4.4c0,31.9-1.3,31.9-1.3,63.9"/>
		<path class="st2" d="M499.2,46.6c-17.2,27.5-19.5,26.1-36.6,53.6"/>
		<path class="st2" d="M237,19.8C249.7,47,249.9,46.9,262.7,74"/>
		<path class="st2" d="M7.6,301.7c32.9,0.5,32.8,4.1,65.8,4.6"/>
		<path class="st2" d="M160.8,155.4c-23.3-25-23.7-24.7-46.9-49.7"/>
		<path class="st2" d="M590.3,311.7c33.6-7,33.5-7.1,67.1-14.2"/>
		<path class="st2" d="M84.9,375.6c-33.8,0-33.8,1.8-67.6,1.8"/>
		<path class="st2" d="M84.9,508.8c-33.8,0-33.8,0.6-67.6,0.6"/>
		<path class="st2" d="M6,619c32.6,0,32.6-3,65.3-3"/>
		<path class="st2" d="M85.2,716.7c-33.8,4.4-34.3,0.7-68.1,5.2"/>
		<path class="st2" d="M159.6,718.9c-3.8,37.2-3.9,37.2-7.7,74.4"/>
		<path class="st2" d="M293.9,793.5c-3.2-34.4-3-34.4-6.3-68.9"/>
		<path class="st2" d="M431.2,793.8c6.5-37.2,2.4-37.8,8.9-75.1"/>
		<path class="st2" d="M534.6,719.2c12.4,33.5,13.7,33.1,26.1,66.6"/>
		<path class="st2" d="M589.7,668.5c35.4-3.7,35.3-4.5,70.6-8.1"/>
		<path class="st2" d="M589.8,441.8c37,0,37-0.9,74-0.9"/>
		<path class="st2" d="M668.6,546.4c-35.9,2.7-35.7,5.3-71.7,7.9"/>
		<path class="st2" d="M178.2,730.5c39.1,0,39.1-2.8,78.2-2.8"/>
		<path class="st2" d="M16.8,401.3c0,48.6-1.1,48.6-1.1,97.3"/>
		<path class="st2" d="M71.6,654.6c0,23.7,1.3,23.7,1.3,47.4"/>
		<path class="st2" d="M69.8,162.8c12.4-26,17-29.5,39-40.9"/>
		<path class="st2" d="M349.2,15.6c40.6-0.8,44.8,1.5,77.7,18.5"/>
		<path class="st2" d="M657.6,316.2c0,53.2-1.2,53.2-1.2,106.5"/>
		<path class="st2" d="M659.3,678.3c0,49.5-4.9,49.5-4.9,99.1"/>
		<path class="st2" d="M455.5,725.6c14.2,0,14.2,0,28.5,0"/>
	</g>
	<path class="st0" d="M341.7,176.7c-11.2,0-20.3,10.4-20.3,10.4s9.1,10.4,20.3,10.4S362,187,362,187S352.9,176.7,341.7,176.7z
		 M341.7,194.6c-1.5,0-3-0.4-4.2-1.3c-1.3-0.8-2.2-2-2.8-3.4c-0.6-1.4-0.7-2.9-0.4-4.4c0.3-1.5,1-2.8,2.1-3.9
		c1.1-1.1,2.4-1.8,3.9-2.1s3-0.1,4.4,0.4c1.4,0.6,2.6,1.5,3.4,2.8c0.8,1.2,1.3,2.7,1.3,4.2c0,2-0.8,3.9-2.2,5.3
		C345.7,193.8,343.7,194.6,341.7,194.6z"/>
	<path class="st3" d="M315.2,210.7h3.1c-0.4,0-0.8,0-1.2,0H315.2z"/>
	<path class="st3" d="M369.7,210.7h1.2c0.4,0,0.9,0,1.3,0h0.9C373.1,210.7,369.6,210.7,369.7,210.7z"/>
</g>
<g>
	<path class="st4" d="M420.9,175.5l-20.3-20.1c-0.1-0.1-0.2-0.2-0.3-0.2c-0.1-0.1-0.3-0.2-0.4-0.4L389.1,144c-1-1-2.3-1.5-3.7-1.5
		s-2.7,0.6-3.7,1.5l-7.1,7.1c-5.8,5.8-10.3,13-9.7,20.5c-6.1-8.4-14.4-15.7-24.9-14.8c-4.6,0.4-8.9,2.5-12.5,5.4
		c-3.3,2.7-6.2,5.9-8.8,9.4c0.6-7.5-3.8-14.8-9.7-20.6l-7.1-7l0,0c-1-1-2.3-1.5-3.7-1.5c-1.4,0-2.7,0.5-3.7,1.5l-10.8,10.7
		c-0.1,0.1-0.3,0.3-0.4,0.4c-0.1,0.1-0.2,0.1-0.3,0.2l-20.3,20.1c-0.7,0.7-1.1,1.7-1.1,2.8c0,1,0.4,2,1.2,2.7
		c0.7,0.7,1.7,1.1,2.8,1.1c1,0,2-0.4,2.8-1.1l0,0l26.5-26.2c0.3-0.2,0.7-0.3,1.1-0.3s0.8,0.2,1,0.5c0.3,0.3,0.5,0.6,0.5,1
		s-0.1,0.8-0.3,1.1l-21.9,21.6c-0.7,0.7-1.1,1.7-1.1,2.8c0,1,0.4,2,1.2,2.7c0.7,0.7,1.7,1.1,2.8,1.1c1,0,2-0.4,2.8-1.1l21.9-21.6
		c0.3-0.3,0.7-0.4,1.1-0.4s0.8,0.2,1.1,0.5c0.3,0.3,0.5,0.7,0.5,1.1c0,0.4-0.1,0.8-0.4,1.1L287.7,182c-0.7,0.7-1.1,1.7-1.1,2.8
		c0,1,0.4,2,1.2,2.7c0.7,0.7,1.7,1.1,2.8,1.1c1,0,2-0.4,2.8-1.1l17.2-17c0.3-0.2,0.7-0.3,1.1-0.3s0.8,0.2,1,0.5
		c0.3,0.3,0.4,0.6,0.5,1c0,0.4-0.1,0.8-0.3,1.1l-12.6,12.5c-0.7,0.6-1.1,1.5-1.1,2.4c-0.1,0.9,0.2,1.8,0.7,2.6
		c0.1,0.2,0.3,0.4,0.5,0.6c0.4,0.4,0.8,0.7,1.3,0.8c0.5,0.2,1,0.3,1.5,0.3s1-0.1,1.5-0.3s0.9-0.5,1.3-0.8l3.2-3.2
		c0.1-0.1,0.3-0.3,0.4-0.4c-2.2,4.5-4.2,9.1-5.4,13.9c-0.9,3.8-0.5,8.6,4.1,9.5c1.4,0.3,2.9,0.2,4.3,0.1h4.6c0.4,0,0.8,0,1.2,0h54.8
		c1.4-0.1,3.1-0.3,4.2-1c0.3-0.2,0.7-0.5,0.9-0.8c0.1-0.1,0.2-0.2,0.3-0.4c0.1-0.1,0.1-0.2,0.2-0.2c0.2-0.3,0.3-0.5,0.4-0.8v-0.1
		c0.1-0.3,0.2-0.5,0.3-0.8c0-0.1,0-0.2,0.1-0.3c0-0.2,0.1-0.4,0.1-0.6c0.2-1.6,0.1-3.1-0.2-4.7c-1.1-4.9-3.1-9.5-5.4-13.9
		c0.1,0.1,0.3,0.3,0.4,0.4l3.2,3.2c0.4,0.4,0.8,0.7,1.3,0.8c0.5,0.2,1,0.3,1.5,0.3s1-0.1,1.5-0.3s0.9-0.5,1.3-0.8
		c0.2-0.2,0.3-0.4,0.5-0.6c0.5-0.8,0.8-1.7,0.7-2.6c-0.1-0.9-0.5-1.8-1.1-2.4l-12.6-12.5c-0.2-0.3-0.4-0.7-0.3-1.1
		c0-0.4,0.2-0.8,0.5-1.1s0.7-0.4,1.1-0.5c0.4,0,0.8,0.1,1.1,0.4l17.2,17c0.7,0.7,1.8,1.1,2.8,1.1s2.1-0.4,2.8-1.2
		c0.7-0.7,1.2-1.7,1.2-2.8c0-1-0.4-2-1.2-2.8l-17.2-17c-0.3-0.3-0.4-0.7-0.4-1.1c0-0.4,0.2-0.8,0.5-1.1s0.7-0.5,1.1-0.5
		s0.8,0.1,1.1,0.3l21.8,21.6c0.8,0.7,1.8,1.1,2.8,1.1s2-0.4,2.8-1.1c0.7-0.7,1.2-1.7,1.2-2.7s-0.4-2-1.1-2.8l-21.9-21.6
		c-0.2-0.3-0.4-0.7-0.3-1.1c0-0.4,0.2-0.8,0.5-1.1s0.7-0.4,1.1-0.5s0.8,0.1,1.1,0.4l26.5,26.2l0,0c0.8,0.7,1.8,1.1,2.8,1.1
		s2-0.4,2.8-1.1c0.7-0.7,1.1-1.7,1.2-2.7C422,177.2,421.6,176.2,420.9,175.5z M341.7,197.4c-11.2,0-20.3-10.4-20.3-10.4
		s9.1-10.4,20.3-10.4S362,187,362,187S352.9,197.4,341.7,197.4z"/>
	<path class="st4" d="M341.7,179.5c-4.2,0-7.6,3.4-7.6,7.5c0,4.2,3.4,7.5,7.6,7.5s7.6-3.4,7.6-7.5
		C349.3,182.9,345.9,179.5,341.7,179.5z"/>
</g>
</svg>
