<?xml version="1.0" encoding="utf-8"?>
<!-- Generator: Adobe Illustrator 27.0.0, SVG Export Plug-In . SVG Version: 6.00 Build 0)  -->
<svg version="1.1" id="Layer_1" xmlns="http://www.w3.org/2000/svg" xmlns:xlink="http://www.w3.org/1999/xlink" x="0px" y="0px"
	 viewBox="0 0 270 300" style="enable-background:new 0 0 270 300;" xml:space="preserve">
<style type="text/css">
	.st0{fill:#A17D5D;}
	.st1{fill:none;stroke:#875F40;stroke-width:5;stroke-linecap:round;stroke-miterlimit:10;}
	.st2{fill:#DBD6C8;}
	.st3{fill:#FF0000;}
</style>
<g>
	<path class="st0" d="M47.4,198.1c-0.4-1.2-0.7-2.5-1-3.8c-0.1-0.5,0-1,0.2-1.5c0.2-0.5,0.6-0.8,1.1-1.1c0.5-0.2,1-0.3,1.5-0.3
		c0.5,0.1,1,0.3,1.4,0.6c11.8,10.6,27.6,16.4,42.9,21.6c0.4,0.1,0.7,0.2,1.1,0.1c0.4,0,0.7-0.2,1.1-0.4c0.3-0.2,0.6-0.5,0.8-0.8
		c0.2-0.3,0.3-0.7,0.4-1.1c1-10.1-5.4-20.2-13.3-27.1c-8.7-7.6-19.4-12.7-28.2-20.2c-11.1-9.4-18.8-22.7-21.8-36.8
		c-1.2-5.7-1.7-11.6-1.3-17.4c0,0,0-0.1,0-0.1c0.3-5.2,2.6-5.6,4.8-0.8c0.3,0.7,0.7,1.4,1,2.1c1.6,3.3,3.5,6.6,5.7,9.6
		c5.5,7.4,13.5,11.4,22.1,14.4c0.4,0.1,0.9,0.2,1.3,0.1c0.4-0.1,0.8-0.3,1.1-0.6c0.3-0.3,0.6-0.7,0.7-1.1c0.1-0.4,0.1-0.9,0-1.3
		c-2.9-10-3.3-21,2.6-29.4c2.3-3.3,5.4-5.9,7.8-9.1c2.1-2.9,3.6-6.1,4.4-9.6s0.9-7,0.3-10.5c-2-10.5-11.4-19-20.2-24.5
		c-0.5-0.3-0.8-0.7-1-1.2c-0.2-0.5-0.2-1-0.1-1.6c0.1-0.5,0.4-1,0.9-1.3s0.9-0.5,1.5-0.6c15.6-0.6,31.4,3.1,45.7,9.5
		c14.7,6.5,27.9,15.8,40,26.3c0.4,0.3,0.9,0.6,1.4,0.6s1-0.1,1.5-0.3c0.5-0.2,0.8-0.6,1-1.1c0.2-0.5,0.3-1,0.2-1.5
		c-1.9-11.1-6.4-21.6-13-30.8c-0.3-0.4-0.5-1-0.5-1.5c0-0.5,0.2-1.1,0.5-1.5c0.3-0.4,0.8-0.7,1.3-0.9c0.5-0.1,1.1-0.1,1.6,0.1
		c9.4,3.8,18.5,8.3,26.5,14.5c10.6,8.1,19.1,19.3,21.6,32.2c2.2,11.6-0.6,23.5-1.2,35.4c-0.5,11.1,1.5,23.4,9.7,30.8
		c0.5,0.4,1.1,0.7,1.7,0.7c0.6,0,1.3-0.3,1.7-0.7c6.4-6.1,5.5-17.2,7.2-26.3c1.3-6.8,4.3-13.1,8.9-18.3c0.4-0.4,0.9-0.7,1.5-0.8
		c0.6-0.1,1.2,0,1.7,0.3c0.5,0.3,0.9,0.7,1.1,1.3c0.2,0.5,0.2,1.1,0,1.7c-2.5,7.2-3,15.3-1.9,22.9c1.6,12,6.3,23.4,10,34.9
		c3.7,11.6,6.5,23.9,4.1,35.7c-2.2,10.8-8.6,20.4-16.1,28.6c-20,21.8-50.2,30.4-79.8,33.8c-22.1,2.5-46.8-1.6-61.8-17.9
		c-8.9-9.8-13.3-22.7-20.4-33.8C55.1,211.9,49.8,205.2,47.4,198.1z"/>
	<path class="st1" d="M178.7,178.4c2.6-5.1,2.9-5.5,2.9-11.5c0-4.7-0.1-9.4-1.1-14c-0.4-1.8-2.8-11.9-6.4-8.1
		c-3.9,6.2-8.5,12.2-15.3,14.8c-1.1,0.3-3-0.2-3.1-2.4c2.3-26.2-20.1-44.3-41.1-56.4c-0.4-0.2-1-0.5-1.4-0.3
		c-3.2,1.6,1.7,7.1,2.7,8.7c5.5,9,9,20.1,10.9,30.4c0.3,1.6,1.1,5.2-0.8,6.2c-1.9,1-7.7-0.9-9.6-1.4c-7.9-2.1-14.3-6.8-20.7-11.3
		c-0.5-0.4-1.1-0.7-1.6-0.9c-1.3-0.4-4.1,0.2-3.5,2c1.4,7.2,5.4,13.5,10.1,19.1c2,2.3,4.4,4.4,6.5,6.5c1.7,1.7,10.6,8,6.4,10.6
		c-0.9,0.5-2,0.7-3.1,0.7l-5,0.3c-1,0-2,0.2-2.9,0.7c-1.2,0.8-1.7,2.4-1.4,3.8c0.4,1.4,1,2.6,2,3.7c1.7,2.1,3.6,4,5.7,5.6
		c2.2,1.7,4.8,3.2,6.6,5.3c3.9,4.4,3.6,10.3,2.4,15.7"/>
	<path class="st2" d="M155.2,205c17.7-5.4,37.2,6.4,37.2,6.4s-9.1,20.7-26.8,26.1c-17.7,5.4-37.2-6.4-37.2-6.4
		S137.5,210.4,155.2,205z"/>
	<path class="st3" d="M164.1,233.1c-6.6,2-13.7-1.6-15.8-8.1c-2.1-6.5,1.6-13.5,8.2-15.5c6.6-2,13.7,1.6,15.8,8.1
		C174.4,224.1,170.8,231,164.1,233.1z"/>
</g>
</svg>
