<?xml version="1.0" encoding="utf-8"?>
<!-- Generator: Adobe Illustrator 27.0.0, SVG Export Plug-In . SVG Version: 6.00 Build 0)  -->
<svg version="1.1" id="Layer_1" xmlns="http://www.w3.org/2000/svg" xmlns:xlink="http://www.w3.org/1999/xlink" x="0px" y="0px"
	 viewBox="0 0 217 264" style="enable-background:new 0 0 217 264;" xml:space="preserve">
<style type="text/css">
	.st0{fill:#A17D5D;}
	.st1{fill:#DBD6C8;}
	.st2{fill:#FF0000;}
	.st3{fill:none;stroke:#875F40;stroke-width:5;stroke-miterlimit:10;}
</style>
<g>
	<path class="st0" d="M161.9,114.1c-2.2-1.4-4.5-2.5-6.9-3.3c-17.3-5.8-36-5.6-53.2,0.5c-17.8,6.5-32.7,19.1-42.1,35.4
		c-8.5,15-2.9,32.4,3,47.4l4.1,10.5c1,2.4,2.8,4.3,5.2,5.4c2.4,1,5.1,1.1,7.5,0.1c0.6-0.2,1.2-0.5,1.7-0.8c1.9-1.2,3.4-3,4.1-5.1
		s0.7-4.4-0.2-6.5l-15.3-38.8c-0.2-0.5-0.3-1-0.3-1.5c0-0.5,0.1-1,0.3-1.5s0.5-0.9,0.9-1.3c0.4-0.4,0.8-0.7,1.3-0.8
		c0.5-0.2,1-0.3,1.5-0.3c0.5,0,1.1,0.1,1.6,0.3s0.9,0.5,1.3,0.9c0.4,0.4,0.6,0.8,0.8,1.3l29.1,73.9c0.9,2.4,2.8,4.3,5.2,5.3
		c2.4,1,5.1,1.1,7.5,0.2c2.2-0.8,4-2.4,5.1-4.5c1.1-2,1.4-4.4,0.9-6.7c-0.1-0.5-0.2-0.9-0.4-1.4l-29.1-73.9c-0.4-1-0.4-2.1,0.1-3
		c0.4-1,1.2-1.7,2.2-2.1c1-0.4,2.1-0.3,3.1,0.1c1,0.4,1.7,1.2,2.1,2.2l24.1,61.2c0.5,1.2,1.2,2.3,2.1,3.2c0.9,0.9,2,1.7,3.2,2.2
		c1.2,0.5,2.5,0.8,3.8,0.8c1.3,0,2.6-0.2,3.8-0.7l0.1,0c1.2-0.5,2.3-1.1,3.2-2c0.9-0.9,1.7-1.9,2.2-3.1c0.5-1.2,0.8-2.4,0.8-3.7
		c0-1.3-0.2-2.5-0.7-3.7l-24.1-61.2c-0.4-1-0.4-2.1,0.1-3c0.4-1,1.2-1.7,2.2-2.1c1-0.4,2.1-0.3,3.1,0.1c1,0.4,1.7,1.2,2.1,2.2
		l29.1,73.9c0.2,0.4,0.4,0.9,0.6,1.3l3.9,9.9c0.5,1.2,1.2,2.3,2.1,3.2c0.9,0.9,2,1.7,3.2,2.2c1.2,0.5,2.5,0.8,3.8,0.8
		c1.3,0,2.6-0.2,3.8-0.7c1.2-0.5,2.3-1.1,3.2-2c0.9-0.9,1.7-1.9,2.2-3.1c0.5-1.2,0.8-2.4,0.8-3.7c0-1.3-0.2-2.5-0.7-3.7l-25.9-65.8
		c0,0,0-0.1,0-0.1l-7.6-19.3c-0.3-0.9-0.3-1.8,0-2.7c0.3-0.9,0.9-1.6,1.8-2.1c0.2-0.1,0.3-0.2,0.5-0.2c1-0.4,2.1-0.4,3.1,0.1
		c1,0.4,1.8,1.2,2.1,2.2l22.7,57.5c0.8,2.1,2.4,3.8,4.4,4.9c2,1.1,4.3,1.5,6.6,1.1c0.6-0.1,1.2-0.3,1.8-0.5c1.2-0.4,2.3-1.1,3.2-2
		c0.9-0.9,1.7-1.9,2.2-3.1c0.5-1.2,0.8-2.4,0.8-3.7s-0.2-2.5-0.7-3.7l-11.5-29.2C179.8,134.6,173.9,121.7,161.9,114.1z"/>
	<path class="st1" d="M78.4,55.7c-19.8,7.6-28.6,31.9-28.6,31.9s23.2,12.1,43,4.5c19.8-7.6,28.6-31.9,28.6-31.9S98.2,48.2,78.4,55.7
		z M90.8,87.2c-1.8,0.7-3.6,1-5.5,1c-1.9,0-3.8-0.4-5.5-1.2c-1.7-0.8-3.3-1.8-4.6-3.2c-1.3-1.4-2.3-2.9-3-4.7c-0.7-1.7-1-3.6-1-5.5
		c0-1.9,0.5-3.7,1.2-5.4c0.8-1.7,1.9-3.2,3.2-4.5c1.4-1.3,3-2.3,4.7-3c3.6-1.4,7.5-1.3,11,0.2c3.5,1.5,6.2,4.3,7.6,7.8
		c1.4,3.5,1.3,7.4-0.2,10.9C97.2,83.1,94.4,85.8,90.8,87.2L90.8,87.2z"/>
	<path class="st0" d="M163.8,78.8C156.3,67.9,146.2,59,136,50.5C117.6,35,88.8,15.6,63.8,27.8C56,31.6,49.9,38.3,45.6,45.7
		C38,58.9,34.3,75.1,32.4,90.1c-1.6,13-3,26.3-1.1,39.4c1,7.2,5,15.3,13.8,13.9c2.6-0.5,5.2-1.7,7.7-2.6l4.8-1.8l3.2-1.2
		c0.7-0.3,1.4-0.5,2.2-0.8l96.5-36.9c2.4-1.1,5.2-2.5,6.8-4.6c0.4-0.6,0.8-1.3,1-2.1c0.1-0.3,0.2-0.5,0.2-0.8c0-0.2,0.1-0.4,0.1-0.6
		c0.1-0.5,0.2-1.1,0.2-1.7c0-0.1,0-0.1,0-0.2c0-0.5,0-1-0.1-1.6c0-0.2,0-0.3-0.1-0.5c-0.1-0.4-0.1-0.7-0.2-1.1
		C166.8,84,165.6,81.3,163.8,78.8L163.8,78.8z M92.8,92.2c-19.8,7.6-43-4.5-43-4.5s8.9-24.3,28.6-31.9c19.8-7.6,43,4.5,43,4.5
		S112.6,84.6,92.8,92.2z"/>
	<path class="st2" d="M90.8,87.2c7.4-2.8,11.1-11,8.2-18.4c-2.9-7.3-11.2-10.9-18.6-8.1c-7.4,2.8-11.1,11-8.2,18.3
		C75.1,86.4,83.4,90,90.8,87.2z"/>
	<path class="st3" d="M68.4,134.8l71.6-27.4"/>
</g>
</svg>
