<?xml version="1.0" encoding="utf-8"?>
<!-- Generator: Adobe Illustrator 27.0.0, SVG Export Plug-In . SVG Version: 6.00 Build 0)  -->
<svg version="1.1" id="Layer_1" xmlns="http://www.w3.org/2000/svg" xmlns:xlink="http://www.w3.org/1999/xlink" x="0px" y="0px"
	 viewBox="0 0 1440 113.9" style="enable-background:new 0 0 1440 113.9;" xml:space="preserve">
<style type="text/css">
	.st0{fill:#C5562E;}
</style>
<polygon class="st0" points="1440,48.7 1394,98.8 1347.5,56.7 1294.4,99.9 1260.1,68.2 1195,99.6 1167.5,43.9 1133.8,85.2 
	1098.4,50.9 1060.9,83.3 1027.9,38.4 1000.4,86.9 951.7,32.9 934.4,95.5 859.9,53.9 826.5,89.5 780.4,56.9 745.4,85.2 699,40.1 
	637.6,85.2 568.8,46.3 531.6,85.2 496.2,50 468.3,92.3 423.7,36.1 366.1,98.8 319.6,56.7 266.5,99.9 232.2,68.2 167.1,99.6 
	139.6,43.9 105.9,85.2 70.5,50.9 33,83.3 0,38.4 0,113.9 1440,113.9 "/>
</svg>
