<?xml version="1.0" encoding="utf-8"?>
<!-- Generator: Adobe Illustrator 27.0.0, SVG Export Plug-In . SVG Version: 6.00 Build 0)  -->
<svg version="1.1" id="Layer_1" xmlns="http://www.w3.org/2000/svg" xmlns:xlink="http://www.w3.org/1999/xlink" x="0px" y="0px"
	 viewBox="0 0 2000 158.2" style="enable-background:new 0 0 2000 158.2;" xml:space="preserve">
<style type="text/css">
	.st0{fill:#C5562E;}
</style>
<path class="st0" d="M533.2-0.1c-4.3,0-8.5,0.4-12.6,1.2c-28.2,5.3-50,25.7-60.7,53.1h-1.1c-7.9-18.8-23.3-32.6-43.1-36.4
	c-3.1-0.6-6.1-1-9.2-1c16.7,6.1,29.3,20,35.7,37.6c-12.8,0.7-25.4,2.5-37.9,5.8c-17.8,4.7-34.9,12.6-53.2,14.4
	c-17.8,1.8-35.6-2.1-53.5-2.8c-32.1-1.3-65.4,11.9-98.3,13.1c-7.8,0.3-15.4,0.4-23.2,0.4l-23.1,0.1c-24.6,0.1-39.7-3.8-62.5-12.5
	C70.4,65.3,49.7,57,27.4,57.7C19,58,9.7,60.3,0,64.4v93.9h2000v-52.6c-0.4-0.1-0.8-0.3-1.2-0.3c-7.5-1.1-14.6,3.2-22.2,4.4
	c-14.9,2.5-29.3-7.5-44.3-6.4c-9,0.7-19.2,5-26.2-0.3c-2.6-1.9-4.2-5-6.7-7.1c-9.3-7.9-24.7-0.6-36.4-4.7c-3.7-1.3-7.1-3.9-11.1-4.3
	c-5-0.6-9.6,2.4-14.6,3.3c-12.6,2.5-22.8-7.5-33.1-12.6c-12.1-6-23.9-6-37.1-4.4c-24.3,2.8-48.9,7.2-73.3,7.5
	c3.7-6.4,8.9-11.9,15.1-16.2s13.3-7.4,20.8-9c-8.2-1-16.5-0.3-24.4,2.1c-7.9,2.4-15.1,6.4-21.3,11.7c-3.5-4.9-8.2-8.9-13.8-11.5
	c-5.6-2.8-11.7-4-17.9-3.9c5.7,1.9,10.8,5.1,15,9.3s7.2,9.3,8.8,14.9c-0.4,0.6-1,1.2-1.4,1.9c-4.7-0.4-9.4-1.1-14.2-2.1
	c-33.2-6.8-62.4-26.3-95.6-33.2c-29.6-6.2-60.4-2.1-90.4,2.1l-133.9,18.6c-34.9,4.9-71.2,9.6-104.6-1.1
	c-40.3-12.9-72.5-47.4-115-49.9c-25.4-1.5-49.6,8.9-73.5,17.1C1018.1,41.6,991,53.1,959,49.1c-7.1-1-14.6-2.2-21.2,0.1
	c-5,1.8-8.9,5.6-13.3,8.3c-4.4,2.8-10.1,4.7-15,2.5c-3.6-1.7-5.8-5.4-9.4-7.2c-7.9-4.2-17.1,2.5-24,8.1c-6.9,5.7-18.3,10.4-24.2,3.9
	c-2.1-2.5-2.8-5.8-5.1-8.1c-4-3.8-11-2.6-16.1-0.1C801,71,755.4,76.5,722.1,79.8c-39.3,4-78.9,3.1-117.9-2.6
	c2.8-22.6,16.4-41.5,36.4-48.6c-2.8,0-5.6,0.3-8.3,0.8c-16.9,3.1-30.3,14-37.9,29c-7.6-20.3-23.6-35.7-44.4-39.6
	c-3.1-0.6-6.1-1-9.2-1c18.2,6.7,31.5,22.5,37.4,41.9c-8.6-11.9-21-20.4-35.7-23.2c-3.1-0.6-6.1-1-9.2-1
	c15.8,5.8,28.1,18.6,34.7,34.9c-28.5-5.6-57.1-11.9-85.4-14.7C490.8,29.7,508.9,8.8,533.2-0.1z"/>
</svg>
