<?xml version="1.0" encoding="utf-8"?>
<!-- Generator: Adobe Illustrator 27.0.0, SVG Export Plug-In . SVG Version: 6.00 Build 0)  -->
<svg version="1.1" id="Layer_1" xmlns="http://www.w3.org/2000/svg" xmlns:xlink="http://www.w3.org/1999/xlink" x="0px" y="0px"
	 viewBox="0 0 1440 2060" style="enable-background:new 0 0 1440 2060;" xml:space="preserve">
<style type="text/css">
	.st0{fill:#00272D;}
	.st1{clip-path:url(#SVGID_00000023980624226444850880000014358206762993117603_);}
	.st2{fill:none;stroke:#404F50;stroke-width:3;stroke-miterlimit:10;}
	.st3{fill:#606060;}
</style>
<path class="st0" d="M0,0h1440v2060H0V0z"/>
<g>
	<g>
		<g>
			<defs>
				<rect id="SVGID_1_" width="1440" height="2060"/>
			</defs>
			<clipPath id="SVGID_00000143589453737943690860000017039779996477029254_">
				<use xlink:href="#SVGID_1_"  style="overflow:visible;"/>
			</clipPath>
			<g style="clip-path:url(#SVGID_00000143589453737943690860000017039779996477029254_);">
				<path class="st2" d="M657.7,87.4c-1.2-1.7,11.9-7,10.8-15.7h-0.3c-1.1,8.7-26.6,14-41.9,15.7 M626.3,87.4
					c-3.4,0.4-6.4,0.6-8.4,0.6s-3-0.2-3.3-0.6c-1.2-1.7,11.9-7,10.8-15.7h-0.3c-1.1,8.7-26.5,14-41.9,15.7 M571.6,87.4
					c0.3,0.4,1.2,0.6,3.3,0.6c2,0,4.9-0.2,8.4-0.6"/>
				<path class="st2" d="M657.4,382.5c1.1-2.1,11.8-7.2,10.8-15.2h-0.3c-0.4,3.4-4.6,6.3-10.5,8.7c-9,3.6-22.2,6-31.4,7
					c-3.4,0.4-6.3,0.6-8.3,0.6s-3-0.2-3.3-0.6c-1.2-1.7,11.9-6.9,10.8-15.7h-0.3c-1.1,8.7-26.6,14-41.9,15.7 M583,383.1
					c-3.4,0.4-6.4,0.6-8.4,0.6s-3-0.2-3.3-0.6c-1.2-1.7,11.9-7,10.8-15.7h-0.3c-1.1,8.7-26.5,14-41.9,15.7 M528.3,383.1
					c0.3,0.4,1.2,0.6,3.3,0.6c2,0,4.9-0.2,8.4-0.6"/>
				<path class="st2" d="M455.6,215.9c1.1-2.1,11.8-7.2,10.8-15.2h-0.3c-0.4,3.4-4.6,6.3-10.5,8.7c-9.1,3.6-22.2,6-31.4,7
					c-3.4,0.4-6.3,0.6-8.3,0.6s-3-0.2-3.3-0.6c-1.2-1.7,11.9-7,10.8-15.7H423c-1.1,8.7-26.6,14-41.9,15.7 M381.2,216.5
					c-3.4,0.4-6.4,0.6-8.4,0.6s-3-0.2-3.3-0.6c-1.2-1.7,11.9-7,10.8-15.7H380c-1.1,8.7-26.5,14-41.9,15.7 M326.5,216.5
					c0.3,0.4,1.2,0.6,3.3,0.6c2,0,4.9-0.2,8.4-0.6"/>
				<path class="st2" d="M210,87.4c-1.2-1.7,11.9-7,10.8-15.7h-0.3c-1.1,8.7-26.6,14-41.9,15.7 M178.7,87.4
					c-3.4,0.4-6.4,0.6-8.4,0.6s-3-0.2-3.3-0.6c-1.2-1.7,11.9-7,10.8-15.7h-0.3c-1.1,8.7-26.5,14-41.9,15.7 M124,87.4
					c0.3,0.4,1.2,0.6,3.3,0.6c2,0,4.9-0.2,8.4-0.6"/>
				<path class="st2" d="M108,345.4c1.1-2.1,11.8-7.2,10.8-15.2h-0.3c-0.4,3.4-4.6,6.3-10.5,8.7c-9,3.6-22.2,6-31.4,7
					c-3.4,0.4-6.3,0.6-8.3,0.6s-3-0.2-3.3-0.6c-1.2-1.7,11.9-6.9,10.8-15.7h-0.3c-1.1,8.7-26.6,14-41.9,15.7 M33.6,345.9
					c-3.4,0.4-6.4,0.6-8.4,0.6s-3-0.2-3.3-0.6c-1.2-1.7,11.9-7,10.8-15.7h-0.3c-1.1,8.7-26.5,14-41.9,15.7 M-21.1,345.9
					c0.3,0.4,1.2,0.6,3.3,0.6c2,0,4.9-0.2,8.4-0.6"/>
				<path class="st2" d="M749.1,709.7c1.1-2.1,11.8-7.2,10.8-15.2h-0.3c-0.4,3.4-4.6,6.3-10.5,8.7c-9,3.6-22.2,6-31.4,7
					c-3.4,0.4-6.3,0.6-8.3,0.6s-3-0.2-3.3-0.6c-1.2-1.7,11.9-6.9,10.8-15.7h-0.3c-1.1,8.7-26.6,14-41.9,15.7 M674.7,710.2
					c-3.4,0.4-6.4,0.6-8.4,0.6s-3-0.2-3.3-0.6c-1.2-1.7,11.9-7,10.8-15.7h-0.3c-1.1,8.7-26.5,14-41.9,15.7 M620,710.2
					c0.3,0.4,1.2,0.6,3.3,0.6c2,0,4.9-0.2,8.4-0.6"/>
				<path class="st2" d="M496.1,534.5c1.1-2.1,11.8-7.2,10.8-15.2h-0.3c-0.4,3.4-4.6,6.3-10.5,8.7c-9.1,3.6-22.2,6-31.4,7
					c-3.4,0.4-6.3,0.6-8.3,0.6s-3-0.2-3.3-0.6c-1.2-1.7,11.9-7,10.8-15.7h-0.3c-1.1,8.7-26.6,14-41.9,15.7 M421.7,535
					c-3.4,0.4-6.4,0.6-8.4,0.6s-3-0.2-3.3-0.6c-1.2-1.7,11.9-7,10.8-15.7h-0.3c-1.1,8.7-26.5,14-41.9,15.7 M367,535
					c0.3,0.4,1.2,0.6,3.3,0.6c2.1,0,4.9-0.2,8.4-0.6"/>
				<path class="st2" d="M108,656.3c1.1-2.1,11.8-7.2,10.8-15.2h-0.3c-0.4,3.4-4.6,6.3-10.5,8.7c-9,3.6-22.2,6-31.4,7
					c-3.4,0.4-6.3,0.6-8.3,0.6s-3-0.2-3.3-0.6c-1.2-1.7,11.9-6.9,10.8-15.7h-0.3c-1.1,8.7-26.6,14-41.9,15.7 M33.6,656.9
					c-3.4,0.4-6.4,0.6-8.4,0.6s-3-0.2-3.3-0.6c-1.2-1.7,11.9-7,10.8-15.7h-0.3c-1.1,8.7-26.5,14-41.9,15.7 M-21.1,656.8
					c0.3,0.4,1.2,0.6,3.3,0.6c2,0,4.9-0.2,8.4-0.6"/>
				<path class="st2" d="M673.3,993.4c1.1-2.1,11.8-7.2,10.8-15.2h-0.3c-0.4,3.4-4.6,6.3-10.5,8.7c-9.1,3.6-22.2,6-31.4,7
					c-3.4,0.4-6.3,0.6-8.3,0.6s-3-0.2-3.3-0.6c-1.2-1.7,11.9-7,10.8-15.7h-0.3c-1.1,8.7-26.6,14-41.9,15.7 M598.9,993.9
					c-3.4,0.4-6.4,0.6-8.4,0.6s-3-0.2-3.3-0.6c-1.2-1.7,11.9-7,10.8-15.7h-0.3c-1.1,8.7-26.5,14-41.9,15.7 M544.2,993.9
					c0.3,0.4,1.2,0.6,3.3,0.6s4.9-0.2,8.4-0.6"/>
				<path class="st2" d="M364.1,838.6c-1.2-1.7,11.9-7,10.8-15.7h-0.3c-1.1,8.7-26.6,14-41.9,15.7 M332.7,838.6
					c-3.4,0.4-6.4,0.6-8.4,0.6s-3-0.2-3.3-0.6c-1.2-1.7,11.9-7,10.8-15.7h-0.3c-1.1,8.7-26.5,14-41.9,15.7 M278,838.6
					c0.3,0.4,1.2,0.6,3.3,0.6c2,0,4.9-0.2,8.4-0.6"/>
				<path class="st2" d="M205.3,1096.4c1.1-2.1,11.8-7.2,10.8-15.2h-0.3c-0.4,3.4-4.6,6.3-10.5,8.7c-9,3.6-22.2,6-31.4,7
					c-3.4,0.4-6.3,0.6-8.3,0.6s-3-0.2-3.3-0.6c-1.2-1.7,11.9-6.9,10.8-15.7h-0.3c-1.1,8.7-26.6,14-41.9,15.7 M130.9,1096.9
					c-3.4,0.4-6.4,0.6-8.4,0.6s-3-0.2-3.3-0.6c-1.2-1.7,11.9-7,10.8-15.7h-0.3c-1.1,8.7-26.5,14-41.9,15.7 M76.2,1096.9
					c0.3,0.4,1.2,0.6,3.3,0.6c2,0,4.9-0.2,8.4-0.6"/>
				<path class="st2" d="M44.6,926.5c1.1-2.1,11.8-7.2,10.8-15.2h-0.3c-0.4,3.4-4.6,6.3-10.5,8.7c-9.1,3.6-22.2,6-31.4,7
					c-3.4,0.4-6.3,0.6-8.3,0.6s-3-0.2-3.3-0.6c-1.2-1.7,11.9-7,10.8-15.7h-0.2c-1.1,8.7-26.6,14-41.9,15.7 M-29.8,927.1
					c-3.4,0.4-6.4,0.6-8.4,0.6c-2,0-3-0.2-3.3-0.6c-1.2-1.7,11.9-7,10.8-15.7H-31c-1.1,8.7-26.5,14-41.9,15.7 M-84.4,927.1
					c0.3,0.4,1.2,0.6,3.3,0.6c2,0,4.9-0.2,8.4-0.6"/>
				<path class="st2" d="M1450.7,215.9c1.1-2.1,11.8-7.2,10.8-15.2h-0.3c-0.4,3.4-4.6,6.3-10.5,8.7c-9.1,3.6-22.2,6-31.4,7
					c-3.4,0.4-6.3,0.6-8.3,0.6s-3-0.2-3.3-0.6c-1.2-1.7,11.9-7,10.8-15.7h-0.3c-1.1,8.7-26.6,14-41.9,15.7 M1376.3,216.5
					c-3.4,0.4-6.4,0.6-8.4,0.6s-3-0.2-3.3-0.6c-1.2-1.7,11.9-7,10.8-15.7h-0.3c-1.1,8.7-26.5,14-41.9,15.7 M1321.6,216.5
					c0.3,0.4,1.2,0.6,3.3,0.6c2,0,4.9-0.2,8.4-0.6"/>
				<path class="st2" d="M1205.1,87.4c-1.2-1.7,11.9-7,10.8-15.7h-0.3c-1.1,8.7-26.6,14-41.9,15.7 M1173.8,87.4
					c-3.4,0.4-6.4,0.6-8.4,0.6s-3-0.2-3.3-0.6c-1.2-1.7,11.9-7,10.8-15.7h-0.3c-1.1,8.7-26.5,14-41.9,15.7 M1119.1,87.4
					c0.3,0.4,1.2,0.6,3.3,0.6c2,0,4.9-0.2,8.4-0.6"/>
				<path class="st2" d="M1103.1,345.4c1.1-2.1,11.8-7.2,10.8-15.2h-0.3c-0.4,3.4-4.6,6.3-10.5,8.7c-9,3.6-22.2,6-31.4,7
					c-3.4,0.4-6.3,0.6-8.3,0.6s-3-0.2-3.3-0.6c-1.2-1.7,11.9-6.9,10.8-15.7h-0.3c-1.1,8.7-26.6,14-41.9,15.7 M1028.7,345.9
					c-3.4,0.4-6.4,0.6-8.4,0.6s-3-0.2-3.3-0.6c-1.2-1.7,11.9-7,10.8-15.7h-0.3c-1.1,8.7-26.5,14-41.9,15.7 M974,345.9
					c0.3,0.4,1.2,0.6,3.3,0.6c2,0,4.9-0.2,8.4-0.6"/>
				<path class="st2" d="M947.1,200.3c1.1-2.1,11.8-7.2,10.8-15.2h-0.3c-0.4,3.4-4.6,6.3-10.5,8.7c-9.1,3.6-22.2,6-31.4,7
					c-3.4,0.4-6.3,0.6-8.3,0.6s-3-0.2-3.3-0.6c-1.2-1.7,11.9-7,10.8-15.7h-0.3c-1.1,8.7-26.6,14-41.9,15.7 M872.7,200.8
					c-3.4,0.4-6.4,0.6-8.4,0.6s-3-0.2-3.3-0.6c-1.2-1.7,11.9-7,10.8-15.7h-0.3c-1.1,8.7-26.5,14-41.9,15.7 M818.1,200.8
					c0.3,0.4,1.2,0.6,3.3,0.6c2,0,4.9-0.2,8.4-0.6"/>
				<path class="st2" d="M1491.2,534.5c1.1-2.1,11.8-7.2,10.8-15.2h-0.3c-0.4,3.4-4.6,6.3-10.5,8.7c-9.1,3.6-22.2,6-31.4,7
					c-3.4,0.4-6.3,0.6-8.3,0.6s-3-0.2-3.3-0.6c-1.2-1.7,11.9-7,10.8-15.7h-0.3c-1.1,8.7-26.6,14-41.9,15.7 M1416.8,535
					c-3.4,0.4-6.4,0.6-8.4,0.6s-3-0.2-3.3-0.6c-1.2-1.7,11.9-7,10.8-15.7h-0.3c-1.1,8.7-26.5,14-41.9,15.7 M1362.1,535
					c0.3,0.4,1.2,0.6,3.3,0.6c2.1,0,4.9-0.2,8.4-0.6"/>
				<path class="st2" d="M1103.1,656.3c1.1-2.1,11.8-7.2,10.8-15.2h-0.3c-0.4,3.4-4.6,6.3-10.5,8.7c-9,3.6-22.2,6-31.4,7
					c-3.4,0.4-6.3,0.6-8.3,0.6s-3-0.2-3.3-0.6c-1.2-1.7,11.9-6.9,10.8-15.7h-0.3c-1.1,8.7-26.6,14-41.9,15.7 M1028.7,656.9
					c-3.4,0.4-6.4,0.6-8.4,0.6s-3-0.2-3.3-0.6c-1.2-1.7,11.9-7,10.8-15.7h-0.3c-1.1,8.7-26.5,14-41.9,15.7 M974,656.8
					c0.3,0.4,1.2,0.6,3.3,0.6c2,0,4.9-0.2,8.4-0.6"/>
				<path class="st2" d="M969.8,518.8c1.1-2.1,11.8-7.2,10.8-15.2h-0.3c-0.4,3.4-4.6,6.3-10.5,8.7c-9.1,3.6-22.2,6-31.4,7
					c-3.4,0.4-6.3,0.6-8.3,0.6s-3-0.2-3.3-0.6c-1.2-1.7,11.9-7,10.8-15.7h-0.3c-1.1,8.7-26.6,14-41.9,15.7 M895.4,519.3
					c-3.4,0.4-6.4,0.6-8.4,0.6s-3-0.2-3.3-0.6c-1.2-1.7,11.9-7,10.8-15.7h-0.3c-1.1,8.7-26.5,14-41.9,15.7 M840.8,519.3
					c0.3,0.4,1.2,0.6,3.3,0.6c2,0,4.9-0.2,8.4-0.6"/>
				<path class="st2" d="M1359.2,838.6c-1.2-1.7,11.9-7,10.8-15.7h-0.3c-1.1,8.7-26.6,14-41.9,15.7 M1327.8,838.6
					c-3.4,0.4-6.4,0.6-8.4,0.6s-3-0.2-3.3-0.6c-1.2-1.7,11.9-7,10.8-15.7h-0.3c-1.1,8.7-26.5,14-41.9,15.7 M1273.2,838.6
					c0.3,0.4,1.2,0.6,3.3,0.6c2,0,4.9-0.2,8.4-0.6"/>
				<path class="st2" d="M1200.4,1096.4c1.1-2.1,11.8-7.2,10.8-15.2h-0.3c-0.4,3.4-4.6,6.3-10.5,8.7c-9,3.6-22.2,6-31.4,7
					c-3.4,0.4-6.3,0.6-8.3,0.6s-3-0.2-3.3-0.6c-1.2-1.7,11.9-6.9,10.8-15.7h-0.3c-1.1,8.7-26.6,14-41.9,15.7 M1126,1096.9
					c-3.4,0.4-6.4,0.6-8.4,0.6s-3-0.2-3.3-0.6c-1.2-1.7,11.9-7,10.8-15.7h-0.3c-1.1,8.7-26.5,14-41.9,15.7 M1071.3,1096.9
					c0.3,0.4,1.2,0.6,3.3,0.6c2,0,4.9-0.2,8.4-0.6"/>
				<path class="st2" d="M1039.7,926.5c1.1-2.1,11.8-7.2,10.8-15.2h-0.3c-0.4,3.4-4.6,6.3-10.5,8.7c-9.1,3.6-22.2,6-31.4,7
					c-3.4,0.4-6.3,0.6-8.3,0.6s-3-0.2-3.3-0.6c-1.2-1.7,11.9-7,10.8-15.7h-0.2c-1.1,8.7-26.6,14-41.9,15.7 M965.3,927.1
					c-3.4,0.4-6.4,0.6-8.4,0.6s-3-0.2-3.3-0.6c-1.2-1.7,11.9-7,10.8-15.7h-0.3c-1.1,8.7-26.5,14-41.9,15.7 M910.7,927.1
					c0.3,0.4,1.2,0.6,3.3,0.6c2,0,4.9-0.2,8.4-0.6"/>
				<path class="st2" d="M657.7,1181.1c-1.2-1.7,11.9-7,10.8-15.7h-0.3c-1.1,8.7-26.6,14-41.9,15.7 M626.3,1181.1
					c-3.4,0.4-6.4,0.6-8.4,0.6s-3-0.2-3.3-0.6c-1.2-1.7,11.9-7,10.8-15.7h-0.3c-1.1,8.7-26.5,14-41.9,15.7 M571.6,1181.1
					c0.3,0.4,1.2,0.6,3.3,0.6c2,0,4.9-0.2,8.4-0.6"/>
				<path class="st2" d="M657.4,1476.2c1.1-2.1,11.8-7.2,10.8-15.2h-0.3c-0.4,3.4-4.6,6.3-10.5,8.7c-9,3.6-22.2,6-31.4,7
					c-3.4,0.4-6.3,0.6-8.3,0.6s-3-0.2-3.3-0.6c-1.2-1.7,11.9-6.9,10.8-15.7h-0.3c-1.1,8.7-26.6,14-41.9,15.7 M583,1476.8
					c-3.4,0.4-6.4,0.6-8.4,0.6s-3-0.2-3.3-0.6c-1.2-1.7,11.9-7,10.8-15.7h-0.3c-1.1,8.7-26.5,14-41.9,15.7 M528.3,1476.8
					c0.3,0.4,1.2,0.6,3.3,0.6c2,0,4.9-0.2,8.4-0.6"/>
				<path class="st2" d="M455.6,1309.6c1.1-2.1,11.8-7.2,10.8-15.2h-0.3c-0.4,3.4-4.6,6.3-10.5,8.7c-9.1,3.6-22.2,6-31.4,7
					c-3.4,0.4-6.3,0.6-8.3,0.6s-3-0.2-3.3-0.6c-1.2-1.7,11.9-7,10.8-15.7H423c-1.1,8.7-26.6,14-41.9,15.7 M381.2,1310.2
					c-3.4,0.4-6.4,0.6-8.4,0.6s-3-0.2-3.3-0.6c-1.2-1.7,11.9-7,10.8-15.7H380c-1.1,8.7-26.5,14-41.9,15.7 M326.5,1310.2
					c0.3,0.4,1.2,0.6,3.3,0.6c2,0,4.9-0.2,8.4-0.6"/>
				<path class="st2" d="M108,1439.1c1.1-2.1,11.8-7.2,10.8-15.2h-0.3c-0.4,3.4-4.6,6.3-10.5,8.7c-9,3.6-22.2,6-31.4,7
					c-3.4,0.4-6.3,0.6-8.3,0.6s-3-0.2-3.3-0.6c-1.2-1.7,11.9-6.9,10.8-15.7h-0.3c-1.1,8.7-26.6,14-41.9,15.7 M33.6,1439.6
					c-3.4,0.4-6.4,0.6-8.4,0.6s-3-0.2-3.3-0.6c-1.2-1.7,11.9-7,10.8-15.7h-0.3c-1.1,8.7-26.5,14-41.9,15.7 M-21.1,1439.6
					c0.3,0.4,1.2,0.6,3.3,0.6c2,0,4.9-0.2,8.4-0.6"/>
				<path class="st2" d="M749.1,1803.4c1.1-2.1,11.8-7.2,10.8-15.2h-0.3c-0.4,3.4-4.6,6.3-10.5,8.7c-9,3.6-22.2,6-31.4,7
					c-3.4,0.4-6.3,0.6-8.3,0.6s-3-0.2-3.3-0.6c-1.2-1.7,11.9-6.9,10.8-15.7h-0.3c-1.1,8.7-26.6,14-41.9,15.7 M674.7,1803.9
					c-3.4,0.4-6.4,0.6-8.4,0.6s-3-0.2-3.3-0.6c-1.2-1.7,11.9-7,10.8-15.7h-0.3c-1.1,8.7-26.5,14-41.9,15.7 M620,1803.9
					c0.3,0.4,1.2,0.6,3.3,0.6c2,0,4.9-0.2,8.4-0.6"/>
				<path class="st2" d="M496.1,1628.2c1.1-2.1,11.8-7.2,10.8-15.2h-0.3c-0.4,3.4-4.6,6.3-10.5,8.7c-9.1,3.6-22.2,6-31.4,7
					c-3.4,0.4-6.3,0.6-8.3,0.6s-3-0.2-3.3-0.6c-1.2-1.7,11.9-7,10.8-15.7h-0.3c-1.1,8.7-26.6,14-41.9,15.7 M421.7,1628.7
					c-3.4,0.4-6.4,0.6-8.4,0.6s-3-0.2-3.3-0.6c-1.2-1.7,11.9-7,10.8-15.7h-0.3c-1.1,8.7-26.5,14-41.9,15.7 M367,1628.7
					c0.3,0.4,1.2,0.6,3.3,0.6c2.1,0,4.9-0.2,8.4-0.6"/>
				<path class="st2" d="M108,1750c1.1-2.1,11.8-7.2,10.8-15.2h-0.3c-0.4,3.4-4.6,6.3-10.5,8.7c-9,3.6-22.2,6-31.4,7
					c-3.4,0.4-6.3,0.6-8.3,0.6s-3-0.2-3.3-0.6c-1.2-1.7,11.9-6.9,10.8-15.7h-0.3c-1.1,8.7-26.6,14-41.9,15.7 M33.6,1750.6
					c-3.4,0.4-6.4,0.6-8.4,0.6s-3-0.2-3.3-0.6c-1.2-1.7,11.9-7,10.8-15.7h-0.3c-1.1,8.7-26.5,14-41.9,15.7 M-21.1,1750.5
					c0.3,0.4,1.2,0.6,3.3,0.6c2,0,4.9-0.2,8.4-0.6"/>
				<path class="st2" d="M364.1,1932.3c-1.2-1.7,11.9-7,10.8-15.7h-0.3c-1.1,8.7-26.6,14-41.9,15.7 M332.7,1932.3
					c-3.4,0.4-6.4,0.6-8.4,0.6s-3-0.2-3.3-0.6c-1.2-1.7,11.9-7,10.8-15.7h-0.3c-1.1,8.7-26.5,14-41.9,15.7 M278,1932.3
					c0.3,0.4,1.2,0.6,3.3,0.6c2,0,4.9-0.2,8.4-0.6"/>
				<path class="st2" d="M44.6,2020.2c1.1-2.1,11.8-7.2,10.8-15.2h-0.3c-0.4,3.4-4.6,6.3-10.5,8.7c-9.1,3.6-22.2,6-31.4,7
					c-3.4,0.4-6.3,0.6-8.3,0.6s-3-0.2-3.3-0.6c-1.2-1.7,11.9-7,10.8-15.7h-0.2c-1.1,8.7-26.6,14-41.9,15.7 M-29.8,2020.7
					c-3.4,0.4-6.4,0.6-8.4,0.6c-2,0-3-0.2-3.3-0.6c-1.2-1.7,11.9-7,10.8-15.7H-31c-1.1,8.7-26.5,14-41.9,15.7 M-84.4,2020.7
					c0.3,0.4,1.2,0.6,3.3,0.6c2,0,4.9-0.2,8.4-0.6"/>
				<path class="st2" d="M1450.7,1309.6c1.1-2.1,11.8-7.2,10.8-15.2h-0.3c-0.4,3.4-4.6,6.3-10.5,8.7c-9.1,3.6-22.2,6-31.4,7
					c-3.4,0.4-6.3,0.6-8.3,0.6s-3-0.2-3.3-0.6c-1.2-1.7,11.9-7,10.8-15.7h-0.3c-1.1,8.7-26.6,14-41.9,15.7 M1376.3,1310.2
					c-3.4,0.4-6.4,0.6-8.4,0.6s-3-0.2-3.3-0.6c-1.2-1.7,11.9-7,10.8-15.7h-0.3c-1.1,8.7-26.5,14-41.9,15.7 M1321.6,1310.2
					c0.3,0.4,1.2,0.6,3.3,0.6c2,0,4.9-0.2,8.4-0.6"/>
				<path class="st2" d="M1103.1,1439.1c1.1-2.1,11.8-7.2,10.8-15.2h-0.3c-0.4,3.4-4.6,6.3-10.5,8.7c-9,3.6-22.2,6-31.4,7
					c-3.4,0.4-6.3,0.6-8.3,0.6s-3-0.2-3.3-0.6c-1.2-1.7,11.9-6.9,10.8-15.7h-0.3c-1.1,8.7-26.6,14-41.9,15.7 M1028.7,1439.6
					c-3.4,0.4-6.4,0.6-8.4,0.6s-3-0.2-3.3-0.6c-1.2-1.7,11.9-7,10.8-15.7h-0.3c-1.1,8.7-26.5,14-41.9,15.7 M974,1439.6
					c0.3,0.4,1.2,0.6,3.3,0.6c2,0,4.9-0.2,8.4-0.6"/>
				<path class="st2" d="M947.1,1294c1.1-2.1,11.8-7.2,10.8-15.2h-0.3c-0.4,3.4-4.6,6.3-10.5,8.7c-9.1,3.6-22.2,6-31.4,7
					c-3.4,0.4-6.3,0.6-8.3,0.6s-3-0.2-3.3-0.6c-1.2-1.7,11.9-7,10.8-15.7h-0.3c-1.1,8.7-26.6,14-41.9,15.7 M872.7,1294.5
					c-3.4,0.4-6.4,0.6-8.4,0.6s-3-0.2-3.3-0.6c-1.2-1.7,11.9-7,10.8-15.7h-0.3c-1.1,8.7-26.5,14-41.9,15.7 M818.1,1294.5
					c0.3,0.4,1.2,0.6,3.3,0.6c2,0,4.9-0.2,8.4-0.6"/>
				<path class="st2" d="M1491.2,1628.2c1.1-2.1,11.8-7.2,10.8-15.2h-0.3c-0.4,3.4-4.6,6.3-10.5,8.7c-9.1,3.6-22.2,6-31.4,7
					c-3.4,0.4-6.3,0.6-8.3,0.6s-3-0.2-3.3-0.6c-1.2-1.7,11.9-7,10.8-15.7h-0.3c-1.1,8.7-26.6,14-41.9,15.7 M1416.8,1628.7
					c-3.4,0.4-6.4,0.6-8.4,0.6s-3-0.2-3.3-0.6c-1.2-1.7,11.9-7,10.8-15.7h-0.3c-1.1,8.7-26.5,14-41.9,15.7 M1362.1,1628.7
					c0.3,0.4,1.2,0.6,3.3,0.6c2.1,0,4.9-0.2,8.4-0.6"/>
				<path class="st2" d="M1103.1,1750c1.1-2.1,11.8-7.2,10.8-15.2h-0.3c-0.4,3.4-4.6,6.3-10.5,8.7c-9,3.6-22.2,6-31.4,7
					c-3.4,0.4-6.3,0.6-8.3,0.6s-3-0.2-3.3-0.6c-1.2-1.7,11.9-6.9,10.8-15.7h-0.3c-1.1,8.7-26.6,14-41.9,15.7 M1028.7,1750.6
					c-3.4,0.4-6.4,0.6-8.4,0.6s-3-0.2-3.3-0.6c-1.2-1.7,11.9-7,10.8-15.7h-0.3c-1.1,8.7-26.5,14-41.9,15.7 M974,1750.5
					c0.3,0.4,1.2,0.6,3.3,0.6c2,0,4.9-0.2,8.4-0.6"/>
				<path class="st2" d="M969.8,1612.5c1.1-2.1,11.8-7.2,10.8-15.2h-0.3c-0.4,3.4-4.6,6.3-10.5,8.7c-9.1,3.6-22.2,6-31.4,7
					c-3.4,0.4-6.3,0.6-8.3,0.6s-3-0.2-3.3-0.6c-1.2-1.7,11.9-7,10.8-15.7h-0.3c-1.1,8.7-26.6,14-41.9,15.7 M895.4,1613
					c-3.4,0.4-6.4,0.6-8.4,0.6s-3-0.2-3.3-0.6c-1.2-1.7,11.9-7,10.8-15.7h-0.3c-1.1,8.7-26.5,14-41.9,15.7 M840.8,1613
					c0.3,0.4,1.2,0.6,3.3,0.6c2,0,4.9-0.2,8.4-0.6"/>
				<path class="st2" d="M1359.2,1932.3c-1.2-1.7,11.9-7,10.8-15.7h-0.3c-1.1,8.7-26.6,14-41.9,15.7 M1327.8,1932.3
					c-3.4,0.4-6.4,0.6-8.4,0.6s-3-0.2-3.3-0.6c-1.2-1.7,11.9-7,10.8-15.7h-0.3c-1.1,8.7-26.5,14-41.9,15.7 M1273.2,1932.3
					c0.3,0.4,1.2,0.6,3.3,0.6c2,0,4.9-0.2,8.4-0.6"/>
				<path class="st2" d="M1039.7,2020.2c1.1-2.1,11.8-7.2,10.8-15.2h-0.3c-0.4,3.4-4.6,6.3-10.5,8.7c-9.1,3.6-22.2,6-31.4,7
					c-3.4,0.4-6.3,0.6-8.3,0.6s-3-0.2-3.3-0.6c-1.2-1.7,11.9-7,10.8-15.7h-0.2c-1.1,8.7-26.6,14-41.9,15.7 M965.3,2020.7
					c-3.4,0.4-6.4,0.6-8.4,0.6s-3-0.2-3.3-0.6c-1.2-1.7,11.9-7,10.8-15.7h-0.3c-1.1,8.7-26.5,14-41.9,15.7 M910.7,2020.7
					c0.3,0.4,1.2,0.6,3.3,0.6c2,0,4.9-0.2,8.4-0.6"/>
			</g>
		</g>
	</g>
</g>
<rect x="-66.3" y="1214.6" class="st3" width="41.7" height="41.7"/>
</svg>
