<?xml version="1.0" encoding="utf-8"?>
<!-- Generator: Adobe Illustrator 27.0.0, SVG Export Plug-In . SVG Version: 6.00 Build 0)  -->
<svg version="1.1" id="Layer_1" xmlns="http://www.w3.org/2000/svg" xmlns:xlink="http://www.w3.org/1999/xlink" x="0px" y="0px"
	 viewBox="0 0 1920 1080" style="enable-background:new 0 0 1920 1080;" xml:space="preserve">
<style type="text/css">
	.st0{clip-path:url(#SVGID_00000093873006992290474920000015057568198693460408_);fill:#00272D;}
</style>
<g>
	<g>
		<defs>
			<rect id="SVGID_1_" y="485.7" width="1920" height="108.5"/>
		</defs>
		<clipPath id="SVGID_00000158715052292617309550000002030722612348542376_">
			<use xlink:href="#SVGID_1_"  style="overflow:visible;"/>
		</clipPath>
		<path style="clip-path:url(#SVGID_00000158715052292617309550000002030722612348542376_);fill:#00272D;" d="M1841.6,535.8
			c-43.7,0,35.2-17.2,30.1-50.1h-1.3c-5,32.9-156,50.1-199.6,50.1c-43.7,0,35.2-17.2,30.1-50.1h-1.3c-5,32.9-156,50.1-199.6,50.1
			c-43.7,0,35.1-17.2,30.1-50.1h-1.3c-5,32.9-156,50.1-199.6,50.1c-43.7,0,35.1-17.2,30.1-50.1h-1.3c-5,32.9-156,50.1-199.6,50.1
			c-43.7,0,35.2-17.2,30.1-50.1h-1.3c-5,32.9-156,50.1-199.6,50.1s35.5-17.1,30.4-50.1h-1.3c-5,32.9-156,50.1-199.6,50.1
			s35.1-17.2,30.1-50.1h-1.1c-5,32.9-156,50.1-199.6,50.1s35.1-17.2,30.1-50.1h-1.3c-5,32.9-156,50.1-199.6,50.1
			s35.1-17.2,30.1-50.1h-1.3c-5,32.9-156,50.1-199.6,50.1s35.3-17.1,30.3-50.1h-1.3c-5.1,32.9-156,50.1-199.6,50.1
			s35.2-17.1,30.1-50.1h-1.3c-5,32.9-156,50.1-199.6,50.1s35.1-17.2,30.1-50.1H-7l-114.8,108.5H1927l114.9-108.5h-0.6
			C2036.2,518.7,1885.2,535.8,1841.6,535.8z"/>
	</g>
</g>
</svg>
