<?xml version="1.0" encoding="utf-8"?>
<!-- Generator: Adobe Illustrator 27.0.0, SVG Export Plug-In . SVG Version: 6.00 Build 0)  -->
<svg version="1.1" id="Layer_1" xmlns="http://www.w3.org/2000/svg" xmlns:xlink="http://www.w3.org/1999/xlink" x="0px" y="0px"
	 viewBox="0 0 1440 113.9" style="enable-background:new 0 0 1440 113.9;" xml:space="preserve">
<style type="text/css">
	.st0{clip-path:url(#SVGID_00000158009389099275425980000012790241929513751958_);fill:#308CC0;}
	.st1{fill:#00272D;}
</style>
<g>
	<g>
		<g>
			<g>
				<defs>
					<rect id="SVGID_1_" x="-240" y="-253.2" width="1920" height="108.5"/>
				</defs>
				<clipPath id="SVGID_00000060741436658716594240000018266518477595169680_">
					<use xlink:href="#SVGID_1_"  style="overflow:visible;"/>
				</clipPath>
				<path style="clip-path:url(#SVGID_00000060741436658716594240000018266518477595169680_);fill:#308CC0;" d="M1601.6-203.2
					c-43.7,0,35.2-17.2,30.1-50.1h-1.3c-5,32.9-156,50.1-199.6,50.1c-43.7,0,35.2-17.2,30.1-50.1h-1.3c-5,32.9-156,50.1-199.6,50.1
					c-43.7,0,35.1-17.2,30.1-50.1h-1.3c-5,32.9-156,50.1-199.6,50.1c-43.7,0,35.1-17.2,30.1-50.1h-1.3c-5,32.9-156,50.1-199.6,50.1
					c-43.7,0,35.2-17.2,30.1-50.1h-1.3c-5,32.9-156,50.1-199.6,50.1s35.5-17.1,30.4-50.1h-1.3c-5,32.9-156,50.1-199.6,50.1
					s35.1-17.2,30.1-50.1h-1.1c-5,32.9-156,50.1-199.6,50.1s35.1-17.2,30.1-50.1h-1.3c-5,32.9-156,50.1-199.6,50.1
					s35.1-17.2,30.1-50.1h-1.3c-5,32.9-156,50.1-199.6,50.1s35.3-17.1,30.3-50.1h-1.3c-5.1,32.9-156,50.1-199.6,50.1
					s35.2-17.1,30.1-50.1h-1.3c-5,32.9-156,50.1-199.6,50.1s35.1-17.2,30.1-50.1h-0.6l-114.8,108.5H1687l114.9-108.5h-0.6
					C1796.2-220.2,1645.2-203.2,1601.6-203.2z"/>
			</g>
		</g>
	</g>
</g>
<g>
	<path class="st1" d="M1660.9,42.7l-49,14.2c-12.2,3.5-26.1,3.5-38.2,0l-49-14.2c-12.2-3.5-26.1-3.5-38.2,0l-49,14.2
		c-12.2,3.5-26.1,3.5-38.2,0l-49-14.2c-12.2-3.5-26.1-3.5-38.2,0l-49,14.2c-12.2,3.5-26.1,3.5-38.2,0l-49-14.2
		c-12.2-3.5-26.1-3.5-38.2,0l-49,14.2c-12.2,3.5-26.1,3.5-38.2,0l-49-14.2c-12.2-3.5-26.1-3.5-38.2,0l-49,14.2
		c-12.2,3.5-26.1,3.5-38.2,0l-49-14.2c-12.2-3.5-26.1-3.5-38.2,0l-49,14.2c-12.2,3.5-26.1,3.5-38.2,0l-49-14.2
		c-12.2-3.5-26.1-3.5-38.2,0l-49,14.2c-12.2,3.5-26.1,3.5-38.2,0l-49-14.2c-12.2-3.5-26.1-3.5-38.2,0l-49,14.2
		c-12.2,3.5-26.1,3.5-38.2,0l-49-14.2c-12.2-3.5-26.1-3.5-38.2,0l-49,14.2c-12.2,3.5-26.1,3.5-38.2,0l-49-14.2
		c-12.2-3.5-26.1-3.5-38.2,0l-49,14.2c-12.2,3.5-26.1,3.5-38.2,0l-49-14.2c-12.2-3.5-26.1-3.5-38.2,0l-49,14.2
		c-12.2,3.5-26.1,3.5-38.2,0l-49-14.2c-6.6-1.9-13.6-2.8-20.7-2.6v73.8h1920V40.1C1673.5,40.1,1667,40.9,1660.9,42.7z"/>
</g>
</svg>
