<?xml version="1.0" encoding="utf-8"?>
<!-- Generator: Adobe Illustrator 27.0.0, SVG Export Plug-In . SVG Version: 6.00 Build 0)  -->
<svg version="1.1" id="Layer_1" xmlns="http://www.w3.org/2000/svg" xmlns:xlink="http://www.w3.org/1999/xlink" x="0px" y="0px"
	 viewBox="0 0 1440 365" style="enable-background:new 0 0 1440 365;" xml:space="preserve">
<style type="text/css">
	.st0{fill:#00272D;}
	.st1{fill:none;stroke:#317DA3;stroke-width:3;stroke-miterlimit:10;}
	.st2{fill:#606060;}
	.st3{fill:none;stroke:#00637F;stroke-linecap:round;stroke-linejoin:round;stroke-miterlimit:10;}
	.st4{fill:none;stroke:#00637F;stroke-miterlimit:10;}
	.st5{fill:none;stroke:#404F50;stroke-miterlimit:10;}
	.st6{fill:none;}
</style>
<path class="st0" d="M0,0h1440v367.1H0V0z"/>
<g>
	<path class="st1" d="M657.7,813.9c-1.2-1.7,11.9-7,10.8-15.7h-0.3c-1.1,8.7-26.6,14-41.9,15.7 M626.3,813.9
		c-3.4,0.4-6.4,0.6-8.4,0.6s-3-0.2-3.3-0.6c-1.2-1.7,11.9-7,10.8-15.7h-0.3c-1.1,8.7-26.5,14-41.9,15.7 M571.6,813.9
		c0.3,0.4,1.2,0.6,3.3,0.6c2,0,4.9-0.2,8.4-0.6"/>
	<path class="st1" d="M657.4,1109c1.1-2.1,11.8-7.2,10.8-15.2h-0.3c-0.4,3.4-4.6,6.3-10.5,8.7c-9,3.6-22.2,6-31.4,7
		c-3.4,0.4-6.3,0.6-8.3,0.6s-3-0.2-3.3-0.6c-1.2-1.7,11.9-6.9,10.8-15.7h-0.3c-1.1,8.7-26.6,14-41.9,15.7 M583,1109.6
		c-3.4,0.4-6.4,0.6-8.4,0.6s-3-0.2-3.3-0.6c-1.2-1.7,11.9-7,10.8-15.7h-0.3c-1.1,8.7-26.5,14-41.9,15.7 M528.3,1109.6
		c0.3,0.4,1.2,0.6,3.3,0.6c2,0,4.9-0.2,8.4-0.6"/>
	<path class="st1" d="M455.6,942.4c1.1-2.1,11.8-7.2,10.8-15.2h-0.3c-0.4,3.4-4.6,6.3-10.5,8.7c-9.1,3.6-22.2,6-31.4,7
		c-3.4,0.4-6.3,0.6-8.3,0.6s-3-0.2-3.3-0.6c-1.2-1.7,11.9-7,10.8-15.7H423c-1.1,8.7-26.6,14-41.9,15.7 M381.2,943
		c-3.4,0.4-6.4,0.6-8.4,0.6s-3-0.2-3.3-0.6c-1.2-1.7,11.9-7,10.8-15.7H380c-1.1,8.7-26.5,14-41.9,15.7 M326.5,943
		c0.3,0.4,1.2,0.6,3.3,0.6c2,0,4.9-0.2,8.4-0.6"/>
	<path class="st1" d="M210,813.9c-1.2-1.7,11.9-7,10.8-15.7h-0.3c-1.1,8.7-26.6,14-41.9,15.7 M178.7,813.9c-3.4,0.4-6.4,0.6-8.4,0.6
		s-3-0.2-3.3-0.6c-1.2-1.7,11.9-7,10.8-15.7h-0.3c-1.1,8.7-26.5,14-41.9,15.7 M124,813.9c0.3,0.4,1.2,0.6,3.3,0.6
		c2,0,4.9-0.2,8.4-0.6"/>
	<path class="st1" d="M108,1071.9c1.1-2.1,11.8-7.2,10.8-15.2h-0.3c-0.4,3.4-4.6,6.3-10.5,8.7c-9,3.6-22.2,6-31.4,7
		c-3.4,0.4-6.3,0.6-8.3,0.6s-3-0.2-3.3-0.6c-1.2-1.7,11.9-6.9,10.8-15.7h-0.3c-1.1,8.7-26.6,14-41.9,15.7 M33.6,1072.4
		c-3.4,0.4-6.4,0.6-8.4,0.6s-3-0.2-3.3-0.6c-1.2-1.7,11.9-7,10.8-15.7h-0.3c-1.1,8.7-26.5,14-41.9,15.7 M-21.1,1072.4
		c0.3,0.4,1.2,0.6,3.3,0.6c2,0,4.9-0.2,8.4-0.6"/>
	<path class="st1" d="M1450.7,942.4c1.1-2.1,11.8-7.2,10.8-15.2h-0.3c-0.4,3.4-4.6,6.3-10.5,8.7c-9.1,3.6-22.2,6-31.4,7
		c-3.4,0.4-6.3,0.6-8.3,0.6s-3-0.2-3.3-0.6c-1.2-1.7,11.9-7,10.8-15.7h-0.3c-1.1,8.7-26.6,14-41.9,15.7 M1376.3,943
		c-3.4,0.4-6.4,0.6-8.4,0.6s-3-0.2-3.3-0.6c-1.2-1.7,11.9-7,10.8-15.7h-0.3c-1.1,8.7-26.5,14-41.9,15.7 M1321.6,943
		c0.3,0.4,1.2,0.6,3.3,0.6c2,0,4.9-0.2,8.4-0.6"/>
	<path class="st1" d="M1205.1,813.9c-1.2-1.7,11.9-7,10.8-15.7h-0.3c-1.1,8.7-26.6,14-41.9,15.7 M1173.8,813.9
		c-3.4,0.4-6.4,0.6-8.4,0.6s-3-0.2-3.3-0.6c-1.2-1.7,11.9-7,10.8-15.7h-0.3c-1.1,8.7-26.5,14-41.9,15.7 M1119.1,813.9
		c0.3,0.4,1.2,0.6,3.3,0.6c2,0,4.9-0.2,8.4-0.6"/>
	<path class="st1" d="M1103.1,1071.9c1.1-2.1,11.8-7.2,10.8-15.2h-0.3c-0.4,3.4-4.6,6.3-10.5,8.7c-9,3.6-22.2,6-31.4,7
		c-3.4,0.4-6.3,0.6-8.3,0.6s-3-0.2-3.3-0.6c-1.2-1.7,11.9-6.9,10.8-15.7h-0.3c-1.1,8.7-26.6,14-41.9,15.7 M1028.7,1072.4
		c-3.4,0.4-6.4,0.6-8.4,0.6s-3-0.2-3.3-0.6c-1.2-1.7,11.9-7,10.8-15.7h-0.3c-1.1,8.7-26.5,14-41.9,15.7 M974,1072.4
		c0.3,0.4,1.2,0.6,3.3,0.6c2,0,4.9-0.2,8.4-0.6"/>
	<path class="st1" d="M947.1,926.8c1.1-2.1,11.8-7.2,10.8-15.2h-0.3c-0.4,3.4-4.6,6.3-10.5,8.7c-9.1,3.6-22.2,6-31.4,7
		c-3.4,0.4-6.3,0.6-8.3,0.6s-3-0.2-3.3-0.6c-1.2-1.7,11.9-7,10.8-15.7h-0.3c-1.1,8.7-26.6,14-41.9,15.7 M872.7,927.3
		c-3.4,0.4-6.4,0.6-8.4,0.6s-3-0.2-3.3-0.6c-1.2-1.7,11.9-7,10.8-15.7h-0.3c-1.1,8.7-26.5,14-41.9,15.7 M818.1,927.3
		c0.3,0.4,1.2,0.6,3.3,0.6c2,0,4.9-0.2,8.4-0.6"/>
	<rect x="-66.3" y="1093.6" class="st2" width="41.7" height="41.7"/>
</g>
<g>
	<path class="st3" d="M100.3-448.8l-4.5-8.2l-4.5,7.8l-4.2-7l-3.2,6.1l0,0c-1.7-3.4-5.3-9.6-5.3-9.6l-6.8,10.5"/>
	<path class="st3" d="M289.4-396.9l-4.5-8.2l-4.5,7.8l-4.2-7l-3.2,6.1l0,0c-1.7-3.4-5.3-9.6-5.3-9.6l-6.9,10.5"/>
	<path class="st3" d="M201.1-510.5l-4.5-8.2l-4.5,7.8l-4.2-7l-3.2,6.1l0,0c-1.7-3.4-5.3-9.6-5.3-9.6l-6.9,10.5"/>
	<path class="st3" d="M64.8-555.4l-4.5-8.2l-4.5,7.8l-4.2-7l-3.2,6.1l0,0c-1.7-3.4-5.3-9.6-5.3-9.6l-6.9,10.5"/>
	<path class="st3" d="M323.7-543.7l-4.5-8.2l-4.5,7.8l-4.2-7l-3.2,6.1l0,0c-1.7-3.4-5.3-9.6-5.3-9.6l-6.9,10.5"/>
	<path class="st3" d="M401.9-434.6l-4.5-8.1l-4.5,7.7l-4.2-7l-3.2,6.1l0,0c-1.7-3.4-5.3-9.6-5.3-9.6l-6.9,10.4"/>
	<path class="st3" d="M504.2-380.6l-4.5-8.1l-4.5,7.7l-4.2-7l-3.2,6.1l0,0c-1.7-3.4-5.3-9.6-5.3-9.6l-6.9,10.4"/>
	<path class="st4" d="M669.4-553.6l-0.5-0.9c-0.9-1.6-3.2-1.6-4.1,0l-0.4,0.7c-0.9,1.5-3.1,1.6-4,0c-0.7-1.1-2.2-1.5-3.3-0.7
		c-0.4,0.2-0.6,0.6-1,0.8c-0.5,0.2-1,0.1-1.5,0c-1.6-0.5-2.1-2.5-2.9-3.8c-0.9-1.5-3-1.6-4-0.1l-2.4,3.6"/>
	<path class="st3" d="M723.1-434.6l-4.5-8.1l-4.5,7.7l-4.2-7l-3.2,6.1l0,0c-1.7-3.4-5.3-9.6-5.3-9.6l-6.9,10.4"/>
	<path class="st3" d="M482.5-521.4l-4.5-8.1l-4.5,7.7l-4.2-7l-3.2,6.1l0,0c-1.7-3.4-5.3-9.6-5.3-9.6l-6.9,10.4"/>
	<path class="st3" d="M589.7-477.7l-4.5-8.1l-4.5,7.7l-4.2-7l-3.2,6.1l0,0c-1.7-3.4-5.3-9.6-5.3-9.6l-6.9,10.4"/>
	<path class="st3" d="M180.5-341.2l-4.5-8.2l-4.5,7.8l-4.2-7l-3.2,6.1l0,0c-1.7-3.4-5.3-9.6-5.3-9.6l-6.9,10.5"/>
	<path class="st3" d="M880.3-448.8l-4.5-8.2l-4.5,7.8l-4.2-7l-3.2,6.1l0,0c-1.7-3.4-5.3-9.6-5.3-9.6l-6.9,10.5"/>
	<path class="st3" d="M1069.4-396.9l-4.5-8.2l-4.5,7.8l-4.2-7l-3.2,6.1l0,0c-1.7-3.4-5.3-9.6-5.3-9.6l-6.9,10.5"/>
	<path class="st3" d="M981.1-510.5l-4.5-8.2l-4.5,7.8l-4.2-7l-3.2,6.1l0,0c-1.7-3.4-5.3-9.6-5.3-9.6l-6.9,10.5"/>
	<path class="st3" d="M844.8-555.4l-4.5-8.2l-4.5,7.8l-4.2-7l-3.2,6.1l0,0c-1.7-3.4-5.3-9.6-5.3-9.6l-6.9,10.5"/>
	<path class="st3" d="M1103.7-543.7l-4.5-8.2l-4.5,7.8l-4.2-7l-3.2,6.1l0,0c-1.7-3.4-5.3-9.6-5.3-9.6l-6.9,10.5"/>
	<path class="st3" d="M1172.9-443.4l-4.5-8.1l-4.5,7.7l-4.2-7l-3.2,6.1l0,0c-1.7-3.4-5.3-9.6-5.3-9.6l-6.9,10.4"/>
	<path class="st3" d="M1256.4-369.8l-4.5-8.1l-4.5,7.7l-4.2-7l-3.2,6.1l0,0c-1.7-3.4-5.3-9.6-5.3-9.6l-6.9,10.4"/>
	<path class="st3" d="M1403.8-391.5l-4.5-8.1l-4.5,7.7l-4.2-7l-3.2,6.1l0,0c-1.7-3.4-5.3-9.6-5.3-9.6l-6.9,10.4"/>
	<path class="st3" d="M1262.5-510.6l-4.5-8.1l-4.5,7.7l-4.2-7l-3.2,6.1l0,0c-1.7-3.4-5.3-9.6-5.3-9.6l-6.9,10.4"/>
	<path class="st3" d="M1362.7-539.4l-4.5-8.1l-4.5,7.7l-4.2-7l-3.2,6.1l0,0c-1.7-3.4-5.3-9.6-5.3-9.6l-6.9,10.4"/>
	<path class="st3" d="M960.5-341.2l-4.5-8.2l-4.5,7.8l-4.2-7l-3.2,6.1l0,0c-1.7-3.4-5.3-9.6-5.3-9.6l-6.9,10.5"/>
	<path class="st3" d="M64.8-308.3l-4.5-8.2l-4.5,7.8l-4.2-7l-3.2,6.1l0,0c-1.7-3.4-5.3-9.6-5.3-9.6l-6.9,10.5"/>
	<path class="st3" d="M323.7-297.4l-4.5-8.2l-4.5,7.8l-4.2-7l-3.2,6.1l0,0c-1.7-3.4-5.3-9.6-5.3-9.6l-6.9,10.5"/>
	<path class="st3" d="M685.6-313.7l-4.5-8.1l-4.5,7.7l-4.2-7l-3.2,6.1l0,0c-1.7-3.4-5.3-9.6-5.3-9.6l-6.9,10.4"/>
	<path class="st3" d="M551.2-291.9l-4.5-8.1l-4.5,7.7l-4.2-7l-3.2,6.1l0,0c-1.7-3.4-5.3-9.6-5.3-9.6l-6.9,10.4"/>
	<path class="st3" d="M835-275.6l-4.5-8.2L826-276l-4.2-7l-3.2,6.1l0,0c-1.7-3.4-5.3-9.6-5.3-9.6l-6.9,10.5"/>
	<path class="st3" d="M1113.8-281l-4.5-8.2l-4.5,7.8l-4.2-7l-3.2,6.1l0,0c-1.7-3.4-5.3-9.6-5.3-9.6l-6.9,10.5"/>
	<path class="st3" d="M1357.1-281.1l-4.5-8.1l-4.5,7.7l-4.2-7l-3.2,6.1l0,0c-1.7-3.4-5.3-9.6-5.3-9.6l-6.9,10.4"/>
</g>
<g>
	<g>
		<path class="st5" d="M120.9,159.4l-3.7-3.7c-0.9-0.9-2-0.9-2.9,0l-3.7,3.7c-0.9,0.9-2,0.9-2.9,0l-3.7-3.7c-0.9-0.9-2-0.9-2.9,0
			l-3.7,3.7c-0.9,0.9-2,0.9-2.9,0l-3.7-3.7c-0.9-0.9-2-0.9-2.9,0l-3.7,3.7"/>
	</g>
	<g>
		<path class="st5" d="M84.7,297.4l-3.7-3.7c-0.9-0.9-2-0.9-2.9,0l-3.7,3.7c-0.9,0.9-2,0.9-2.9,0l-3.7-3.7c-0.9-0.9-2-0.9-2.9,0
			l-3.7,3.7c-0.9,0.9-2,0.9-2.9,0l-3.7-3.7c-0.9-0.9-2-0.9-2.9,0l-3.7,3.7"/>
	</g>
	<g>
		<path class="st5" d="M287.2,294.8l-3.7-3.7c-0.9-0.9-2-0.9-2.9,0l-3.7,3.7c-0.9,0.9-2,0.9-2.9,0l-3.7-3.7c-0.9-0.9-2-0.9-2.9,0
			l-3.7,3.7c-0.9,0.9-2,0.9-2.9,0l-3.7-3.7c-0.9-0.9-2-0.9-2.9,0l-3.7,3.7"/>
	</g>
	<g>
		<path class="st5" d="M84.7,52.8L81,49c-0.9-0.9-2-0.9-2.9,0l-3.7,3.7c-0.9,0.9-2,0.9-2.9,0L67.7,49c-0.9-0.9-2-0.9-2.9,0L61,52.8
			c-0.9,0.9-2,0.9-2.9,0L54.3,49c-0.9-0.9-2-0.9-2.9,0l-3.7,3.7"/>
	</g>
	<g>
		<path class="st5" d="M420.8,238.3l-3.7-3.7c-0.9-0.9-2-0.9-2.9,0l-3.7,3.7c-0.9,0.9-2,0.9-2.9,0l-3.7-3.7c-0.9-0.9-2-0.9-2.9,0
			l-3.7,3.7c-0.9,0.9-2,0.9-2.9,0l-3.7-3.7c-0.9-0.9-2-0.9-2.9,0l-3.7,3.7"/>
	</g>
	<g>
		<path class="st5" d="M250.1,197.4l-3.7-3.7c-0.9-0.9-2-0.9-2.9,0l-3.7,3.7c-0.9,0.9-2,0.9-2.9,0l-3.7-3.7c-0.9-0.9-2-0.9-2.9,0
			l-3.7,3.7c-0.9,0.9-2,0.9-2.9,0l-3.7-3.7c-0.9-0.9-2-0.9-2.9,0l-3.7,3.7"/>
	</g>
	<g>
		<path class="st5" d="M293.8,71.1l-3.7-3.7c-0.9-0.9-2-0.9-2.9,0l-3.7,3.7c-0.9,0.9-2,0.9-2.9,0l-3.7-3.7c-0.9-0.9-2-0.9-2.9,0
			l-3.7,3.7c-0.9,0.9-2,0.9-2.9,0l-3.7-3.7c-0.9-0.9-2-0.9-2.9,0l-3.7,3.7"/>
	</g>
	<g>
		<path class="st5" d="M541.1,185.4l-3.7-3.7c-0.9-0.9-2-0.9-2.9,0l-3.7,3.7c-0.9,0.9-2,0.9-2.9,0l-3.7-3.7c-0.9-0.9-2-0.9-2.9,0
			l-3.7,3.7c-0.9,0.9-2,0.9-2.9,0l-3.7-3.7c-0.9-0.9-2-0.9-2.9,0l-3.7,3.7"/>
	</g>
	<g>
		<path class="st5" d="M569.7,289.7L566,286c-0.9-0.9-2-0.9-2.9,0l-3.7,3.7c-0.9,0.9-2,0.9-2.9,0l-3.7-3.7c-0.9-0.9-2-0.9-2.9,0
			l-3.7,3.7c-0.9,0.9-2,0.9-2.9,0l-3.7-3.7c-0.9-0.9-2-0.9-2.9,0l-3.7,3.7"/>
	</g>
	<g>
		<path class="st5" d="M596,55.4l-3.7-3.7c-0.9-0.9-2-0.9-2.9,0l-3.7,3.7c-0.9,0.9-2,0.9-2.9,0l-3.7-3.7c-0.9-0.9-2-0.9-2.9,0
			l-3.7,3.7c-0.9,0.9-2,0.9-2.9,0l-3.7-3.7c-0.9-0.9-2-0.9-2.9,0l-3.7,3.7"/>
	</g>
	<g>
		<path class="st5" d="M734.2,252.1l-3.7-3.7c-0.9-0.9-2-0.9-2.9,0l-3.7,3.7c-0.9,0.9-2,0.9-2.9,0l-3.7-3.7c-0.9-0.9-2-0.9-2.9,0
			l-3.7,3.7c-0.9,0.9-2,0.9-2.9,0l-3.7-3.7c-0.9-0.9-2-0.9-2.9,0l-3.7,3.7"/>
	</g>
	<g>
		<path class="st5" d="M826.8,326.3l-3.7-3.7c-0.9-0.9-2-0.9-2.9,0l-3.7,3.7c-0.9,0.9-2,0.9-2.9,0l-3.7-3.7c-0.9-0.9-2-0.9-2.9,0
			l-3.7,3.7c-0.9,0.9-2,0.9-2.9,0l-3.7-3.7c-0.9-0.9-2-0.9-2.9,0l-3.7,3.7"/>
	</g>
	<g>
		<path class="st5" d="M1000.8,254.7l-3.7-3.7c-0.9-0.9-2-0.9-2.9,0l-3.7,3.7c-0.9,0.9-2,0.9-2.9,0l-3.7-3.7c-0.9-0.9-2-0.9-2.9,0
			l-3.7,3.7c-0.9,0.9-2,0.9-2.9,0l-3.7-3.7c-0.9-0.9-2-0.9-2.9,0l-3.7,3.7"/>
	</g>
	<g>
		<path class="st5" d="M991.9,106.2l-3.7-3.7c-0.9-0.9-2-0.9-2.9,0l-3.7,3.7c-0.9,0.9-2,0.9-2.9,0l-3.7-3.7c-0.9-0.9-2-0.9-2.9,0
			l-3.7,3.7c-0.9,0.9-2,0.9-2.9,0l-3.7-3.7c-0.9-0.9-2-0.9-2.9,0l-3.7,3.7"/>
	</g>
	<g>
		<path class="st5" d="M728.2,133.1l-3.7-3.7c-0.9-0.9-2-0.9-2.9,0l-3.7,3.7c-0.9,0.9-2,0.9-2.9,0l-3.7-3.7c-0.9-0.9-2-0.9-2.9,0
			l-3.7,3.7c-0.9,0.9-2,0.9-2.9,0l-3.7-3.7c-0.9-0.9-2-0.9-2.9,0l-3.7,3.7"/>
	</g>
	<g>
		<path class="st5" d="M832.4,52.3l-3.7-3.7c-0.9-0.9-2-0.9-2.9,0l-3.7,3.7c-0.9,0.9-2,0.9-2.9,0l-3.7-3.7c-0.9-0.9-2-0.9-2.9,0
			l-3.7,3.7c-0.9,0.9-2,0.9-2.9,0l-3.7-3.7c-0.9-0.9-2-0.9-2.9,0l-3.7,3.7"/>
	</g>
	<g>
		<path class="st5" d="M908,180.3l-3.7-3.7c-0.9-0.9-2-0.9-2.9,0l-3.7,3.7c-0.9,0.9-2,0.9-2.9,0l-3.7-3.7c-0.9-0.9-2-0.9-2.9,0
			l-3.7,3.7c-0.9,0.9-2,0.9-2.9,0l-3.7-3.7c-0.9-0.9-2-0.9-2.9,0l-3.7,3.7"/>
	</g>
	<g>
		<path class="st5" d="M1170.8,316.9l-3.7-3.7c-0.9-0.9-2-0.9-2.9,0l-3.7,3.7c-0.9,0.9-2,0.9-2.9,0l-3.7-3.7c-0.9-0.9-2-0.9-2.9,0
			l-3.7,3.7c-0.9,0.9-2,0.9-2.9,0l-3.7-3.7c-0.9-0.9-2-0.9-2.9,0l-3.7,3.7"/>
	</g>
	<g>
		<path class="st5" d="M1353.2,327.7l-3.7-3.7c-0.9-0.9-2-0.9-2.9,0l-3.7,3.7c-0.9,0.9-2,0.9-2.9,0l-3.7-3.7c-0.9-0.9-2-0.9-2.9,0
			l-3.7,3.7c-0.9,0.9-2,0.9-2.9,0l-3.7-3.7c-0.9-0.9-2-0.9-2.9,0l-3.7,3.7"/>
	</g>
	<g>
		<path class="st5" d="M1361.3,200l-3.7-3.7c-0.9-0.9-2-0.9-2.9,0l-3.7,3.7c-0.9,0.9-2,0.9-2.9,0l-3.7-3.7c-0.9-0.9-2-0.9-2.9,0
			l-3.7,3.7c-0.9,0.9-2,0.9-2.9,0l-3.7-3.7c-0.9-0.9-2-0.9-2.9,0l-3.7,3.7"/>
	</g>
	<g>
		<path class="st5" d="M1132.3,188l-3.7-3.7c-0.9-0.9-2-0.9-2.9,0l-3.7,3.7c-0.9,0.9-2,0.9-2.9,0l-3.7-3.7c-0.9-0.9-2-0.9-2.9,0
			l-3.7,3.7c-0.9,0.9-2,0.9-2.9,0l-3.7-3.7c-0.9-0.9-2-0.9-2.9,0l-3.7,3.7"/>
	</g>
	<g>
		<path class="st5" d="M1371.8,52.9l-3.7-3.7c-0.9-0.9-2-0.9-2.9,0l-3.7,3.7c-0.9,0.9-2,0.9-2.9,0l-3.7-3.7c-0.9-0.9-2-0.9-2.9,0
			l-3.7,3.7c-0.9,0.9-2,0.9-2.9,0l-3.7-3.7c-0.9-0.9-2-0.9-2.9,0l-3.7,3.7"/>
	</g>
	<g>
		<path class="st5" d="M1234.5,108.8l-3.7-3.7c-0.9-0.9-2-0.9-2.9,0l-3.7,3.7c-0.9,0.9-2,0.9-2.9,0l-3.7-3.7c-0.9-0.9-2-0.9-2.9,0
			l-3.7,3.7c-0.9,0.9-2,0.9-2.9,0l-3.7-3.7c-0.9-0.9-2-0.9-2.9,0l-3.7,3.7"/>
	</g>
	<g>
		<path class="st5" d="M1099.1,55.4l-3.7-3.7c-0.9-0.9-2-0.9-2.9,0l-3.7,3.7c-0.9,0.9-2,0.9-2.9,0l-3.7-3.7c-0.9-0.9-2-0.9-2.9,0
			l-3.7,3.7c-0.9,0.9-2,0.9-2.9,0l-3.7-3.7c-0.9-0.9-2-0.9-2.9,0l-3.7,3.7"/>
	</g>
	<g>
		<path class="st5" d="M457.9,111.3l-3.7-3.7c-0.9-0.9-2-0.9-2.9,0l-3.7,3.7c-0.9,0.9-2,0.9-2.9,0l-3.7-3.7c-0.9-0.9-2-0.9-2.9,0
			l-3.7,3.7c-0.9,0.9-2,0.9-2.9,0l-3.7-3.7c-0.9-0.9-2-0.9-2.9,0l-3.7,3.7"/>
	</g>
</g>
<path class="st0" d="M-1,137.2h1440"/>
<line class="st6" x1="-1" y1="137.2" x2="1439" y2="137.2"/>
</svg>
