<?xml version="1.0" encoding="utf-8"?>
<!-- Generator: Adobe Illustrator 27.0.0, SVG Export Plug-In . SVG Version: 6.00 Build 0)  -->
<svg version="1.1" id="Layer_1" xmlns="http://www.w3.org/2000/svg" xmlns:xlink="http://www.w3.org/1999/xlink" x="0px" y="0px"
	 viewBox="0 0 522 428" style="enable-background:new 0 0 522 428;" xml:space="preserve">
<style type="text/css">
	.st0{fill:#9C7E61;}
	.st1{fill:#DBD7CA;}
	.st2{fill:#EA000D;}
</style>
<g>
	<path class="st0" d="M521,315.3c-3-13-9.1-24.9-15.4-36.5c-6-11.1-13.3-21.5-21.8-30.8c-6.9-7.6-15.8-13.8-26-15.8
		c-1.9-0.3-3.8-0.6-5.7-0.7c-9.9-0.2-19.5,3.1-27.1,9.3c-2.8,2.1-5.3,4.5-7.7,7.1c-8.5,9.3-15.8,19.7-21.8,30.8
		c-6.2,11.6-12.3,23.6-15.3,36.5c-1.1,4.9-1.7,10.6,1.7,14.4c2.4,2.8,6,3.8,9.5,4.3c9,1.3,25.7-2.1,27,8.4c0.1,0.7,0.2,3.1,0.2,3.8
		v7.8c0,3.2-1.2,6.2-3.5,8.4c-2.2,2.2-5.3,3.5-8.4,3.5h-27.5c-6.6,0-13.6-5.3-13.6-11.9v-62c0-7.6-3-14.9-8.3-20.2
		c-5.4-5.4-12.6-8.4-20.2-8.4h-23.4c-1.6,0-3.1-0.3-4.6-0.9c-1.4-0.6-2.8-1.5-3.9-2.6c-1.1-1.1-2-2.4-2.6-3.9
		c-0.6-1.4-0.9-3-0.9-4.6v-26.4c0-3.1,1.2-6,3.3-8.2c2.1-2.2,5-3.5,8.1-3.7h188.7c5.3-0.2,10.3-2.4,14-6.1c3.7-3.8,5.7-8.9,5.7-14.1
		c0-5.3-2.1-10.4-5.7-14.1c-3.7-3.8-8.7-6-14-6.1H310.1c-2.2,0-4.3-0.9-5.9-2.5c-1.6-1.6-2.5-3.7-2.5-5.9s0.9-4.4,2.5-5.9
		c1.6-1.6,3.7-2.5,5.9-2.5h158.3c5.3-0.2,10.3-2.4,14-6.1c3.7-3.8,5.7-8.9,5.7-14.1c0-5.3-2.1-10.4-5.7-14.1c-3.7-3.8-8.7-6-14-6.1
		H310.1c-2.2,0-4.3-0.9-5.9-2.5c-1.6-1.6-2.5-3.7-2.5-5.9c0-2.2,0.9-4.4,2.5-5.9c1.6-1.6,3.7-2.5,5.9-2.5h124.8
		c5.3-0.2,10.3-2.4,14-6.1c3.7-3.8,5.7-8.9,5.7-14.1c0-5.3-2.1-10.4-5.7-14.1c-3.7-3.8-8.7-6-14-6.1H310.1c-2.2,0-4.3-0.9-5.9-2.5
		c-1.6-1.6-2.5-3.7-2.5-5.9c0-2.2,0.9-4.4,2.5-5.9c1.6-1.6,3.7-2.5,5.9-2.5h91.2c4.7,0,9.2-1.6,12.9-4.6c3.6-3,6.1-7.1,7-11.7
		c0.2-1.3,0.4-2.6,0.4-3.9c0-2.7-0.5-5.3-1.5-7.8c-1-2.5-2.5-4.7-4.4-6.6c-1.9-1.9-4.1-3.4-6.6-4.4c-2.5-1-5.1-1.6-7.7-1.6H378
		c-28.3,0-64.9,3.4-86.5,18.4c-34.5,24.2-46.7,69.9-46.7,115.3v51.4c0,29.3,0,65.7,0,65.7c0,1.6-0.3,3.1-0.9,4.6s-1.5,2.8-2.6,3.9
		c-1.1,1.1-2.4,2-3.9,2.6c-1.5,0.6-3,0.9-4.6,0.9s-3.1-0.3-4.6-0.9c-1.4-0.6-2.8-1.5-3.9-2.6c-1.1-1.1-2-2.4-2.6-3.9
		c-0.6-1.4-0.9-3-0.9-4.6V88.2c0-11.5-2.2-22.9-6.6-33.5C210,44,203.6,34.4,195.5,26.2c-8.1-8.2-17.8-14.6-28.4-19
		c-10.6-4.4-22-6.7-33.5-6.7h-5.9c-14.5,0-28.9,3.6-41.7,10.6c-13.8,7.7-25.2,18.9-33.3,32.4c-8,13.5-12.3,29-12.5,44.7V155
		c0,2,0.1,4.1,0,6.2c0,0.6,0,1.2-0.1,1.8c-0.1,2.1-0.8,4.2-1.9,6c-1.3,2.1-3.2,3.6-5.5,4.5c-2,0.7-4,1-6.1,0.9
		c-5.3,0.4-10.6-0.4-15.9,0c-1.6,0-3.1,0.4-4.6,1.1c-1.4,0.7-2.7,1.6-3.8,2.8c-3,3.8-2.7,9.8-1.7,14.3c3,13,9.1,24.9,15.4,36.5
		c11.4,21.2,30.9,49.6,58.4,47.2c8.6-1,16.7-4.6,23.3-10.3c11.9-9.6,21.1-23.5,28.3-36.9c6.3-11.6,12.4-23.6,15.4-36.5
		c1.7-7.1,1-16.2-7.7-17.9c-2.7-0.4-5.4-0.4-8-0.3h-8.5c-4.2,0-8.3-0.2-11.5-3.4c-4-3.8-3.8-8.8-3.8-13.9v-66c0-7.6,3-14.8,8.3-20.2
		c5.4-5.3,12.6-8.3,20.2-8.3c7.6,0,14.8,3,20.2,8.3c5.3,5.3,8.3,12.6,8.3,20.2v171.9h0.1v135.8c0,3.8,0.7,7.5,2.1,11
		c1.4,3.5,3.5,6.6,6.2,9.3c2.7,2.7,5.8,4.8,9.3,6.2c3.5,1.4,7.2,2.2,10.9,2.2l142.5-0.4h121.4c7.6,0,14.8-3.1,20.2-8.4
		c5.3-5.4,8.3-12.6,8.3-20.2v-46.9c0-4.3-0.3-9,1.9-12.9c2.5-4.4,7.9-4.2,12.3-4.3c4.4-0.1,9.1,0.2,13.6-0.3
		c4.5-0.5,8.7-1.4,11.3-4.5C522.7,325.7,522.1,319.9,521,315.3z"/>
	<path class="st1" d="M450.6,269.2c-21,0-38,19.6-38,19.6s17.1,19.6,38,19.6c21,0,38-19.6,38-19.6S471.6,269.2,450.6,269.2z"/>
	<path class="st1" d="M33.2,219.1c0,0,17,19.6,38,19.6s38-19.6,38-19.6s-17-19.6-38-19.6S33.2,219.1,33.2,219.1z"/>
	<path class="st2" d="M450.6,274.5c-2.8,0-5.6,0.8-7.9,2.4c-2.4,1.6-4.2,3.8-5.3,6.4c-1.1,2.6-1.4,5.5-0.8,8.2
		c0.6,2.8,1.9,5.3,3.9,7.3c2,2,4.5,3.4,7.3,3.9c2.8,0.5,5.6,0.3,8.2-0.8c2.6-1.1,4.8-2.9,6.4-5.3c1.6-2.3,2.4-5.1,2.4-7.9
		c0-3.8-1.5-7.4-4.2-10.1C458,276,454.4,274.5,450.6,274.5z"/>
	<path class="st2" d="M71.3,233.4c2.8,0,5.6-0.8,7.9-2.4c2.3-1.6,4.2-3.8,5.2-6.4c1.1-2.6,1.4-5.5,0.8-8.2c-0.6-2.8-1.9-5.3-3.9-7.3
		c-2-2-4.5-3.4-7.3-3.9c-2.8-0.5-5.6-0.3-8.2,0.8c-2.6,1.1-4.8,2.9-6.4,5.3c-1.6,2.3-2.4,5.1-2.4,7.9c0,1.9,0.4,3.7,1.1,5.5
		c0.7,1.7,1.8,3.3,3.1,4.6c1.3,1.3,2.9,2.4,4.6,3.1C67.6,233,69.4,233.4,71.3,233.4z"/>
	<g>
		<path class="st0" d="M71.5,289.7c-38.1,0-68.9,30.8-68.9,68.9s30.8,68.9,68.9,68.9c38.1,0,68.9-30.8,68.9-68.9
			S109.5,289.7,71.5,289.7z M118.9,360.3c-0.2,0.6-0.6,1.1-1,1.5c-0.4,0.4-0.9,0.8-1.5,1c-0.5,0.2-1.1,0.3-1.8,0.3H77.8v36.9
			c0,0.6,0,1.2-0.3,1.8c-0.2,0.6-0.5,1.1-1,1.6c-0.4,0.5-0.9,0.8-1.5,1.1c-0.6,0.2-1.2,0.4-1.8,0.4c-0.6,0-1.2-0.1-1.8-0.4
			c-0.6-0.2-1.1-0.6-1.5-1.1c-0.4-0.5-0.8-1-1-1.6c-0.2-0.6-0.3-1.2-0.3-1.8v-36.9H31.8c-1.2,0-2.4-0.5-3.2-1.3
			c-0.9-0.9-1.3-2-1.3-3.2c0-1.2,0.5-2.4,1.3-3.2c0.9-0.9,2-1.3,3.2-1.3h36.9v-36.9c0-0.6,0-1.2,0.3-1.8c0.2-0.6,0.5-1.1,1-1.6
			c0.4-0.5,0.9-0.8,1.5-1.1c0.6-0.2,1.2-0.4,1.8-0.4c0.6,0,1.2,0.1,1.8,0.4c0.6,0.2,1.1,0.6,1.5,1.1c0.4,0.5,0.8,1,1,1.6
			c0.2,0.6,0.3,1.2,0.3,1.8V354h36.9c0.6,0,1.2,0.1,1.8,0.3c0.6,0.2,1.1,0.6,1.5,1c0.4,0.4,0.8,0.9,1,1.5c0.2,0.6,0.3,1.2,0.3,1.8
			C119.3,359.2,119.2,359.8,118.9,360.3z"/>
		<path class="st1" d="M117.9,355.4c-0.4-0.4-0.9-0.8-1.5-1c-0.5-0.2-1.1-0.3-1.8-0.3H77.8v-36.9c0-0.6,0-1.2-0.3-1.8
			c-0.2-0.6-0.5-1.1-1-1.6c-0.4-0.5-0.9-0.8-1.5-1.1c-0.6-0.2-1.2-0.4-1.8-0.4c-0.6,0-1.2,0.1-1.8,0.4c-0.6,0.2-1.1,0.6-1.5,1.1
			c-0.4,0.5-0.8,1-1,1.6c-0.2,0.6-0.3,1.2-0.3,1.8V354H31.8c-1.2,0-2.4,0.5-3.2,1.3c-0.9,0.9-1.3,2-1.3,3.2c0,1.2,0.5,2.4,1.3,3.2
			c0.9,0.9,2,1.3,3.2,1.3h36.9v36.9c0,0.6,0,1.2,0.3,1.8c0.2,0.6,0.5,1.1,1,1.6c0.4,0.5,0.9,0.8,1.5,1.1c0.6,0.2,1.2,0.4,1.8,0.4
			c0.6,0,1.2-0.1,1.8-0.4c0.6-0.2,1.1-0.6,1.5-1.1c0.4-0.5,0.8-1,1-1.6c0.2-0.6,0.3-1.2,0.3-1.8v-36.9h36.9c0.6,0,1.2-0.1,1.8-0.3
			c0.6-0.2,1.1-0.6,1.5-1c0.4-0.4,0.8-0.9,1-1.5c0.2-0.6,0.3-1.2,0.3-1.8c0-0.6-0.1-1.2-0.3-1.8
			C118.7,356.3,118.4,355.8,117.9,355.4z"/>
	</g>
</g>
</svg>
