<?xml version="1.0" encoding="utf-8"?>
<!-- Generator: Adobe Illustrator 27.0.0, SVG Export Plug-In . SVG Version: 6.00 Build 0)  -->
<svg version="1.1" id="Layer_1" xmlns="http://www.w3.org/2000/svg" xmlns:xlink="http://www.w3.org/1999/xlink" x="0px" y="0px"
	 viewBox="0 0 236 243" style="enable-background:new 0 0 236 243;" xml:space="preserve">
<style type="text/css">
	.st0{clip-path:url(#SVGID_00000098180604542759565470000006441895733453600643_);}
	.st1{fill:#A17D5D;}
	.st2{fill:none;stroke:#875F40;stroke-width:5;stroke-miterlimit:10;}
	.st3{fill:#DBD6C8;}
	.st4{fill:#FF0000;}
</style>
<g>
	<defs>
		
			<rect id="SVGID_1_" x="16.6" y="24.5" transform="matrix(0.2338 -0.9723 0.9723 0.2338 -27.717 207.8296)" width="202.8" height="193.9"/>
	</defs>
	<clipPath id="SVGID_00000099661041271662561360000011717883705818152881_">
		<use xlink:href="#SVGID_1_"  style="overflow:visible;"/>
	</clipPath>
	<g style="clip-path:url(#SVGID_00000099661041271662561360000011717883705818152881_);">
		<path class="st1" d="M29.5,75.4L29.5,75.4l8.6-36.2c0.5-2,1.4-4,2.6-5.7c1.3-1.7,2.8-3.1,4.7-4.2c1.8-1.1,3.8-1.8,5.9-2.1
			c2.1-0.3,4.2-0.1,6.3,0.4c2.6,0.7,5.3,1.4,8,2.1c27.1,6.5,54-2.4,67.5-6.5c2.8-0.9,5.7-1,8.6-0.3c2.8,0.7,5.4,2.1,7.5,4.1
			c10.1,9.8,30.1,30,57.1,36.5c2.7,0.7,5.4,1.3,8.1,1.8c2.1,0.4,4,1.3,5.8,2.5c1.7,1.2,3.2,2.7,4.3,4.5c1.1,1.8,1.9,3.8,2.2,5.9
			c0.3,2.1,0.3,4.2-0.2,6.3l-8.7,36.2l-0.1,0c-0.5,3.7-1.6,7.3-3.3,10.6c-8.1,16.2-20,30.1-32,43.6c-21.9,24.5-56.8,56-92.5,43.9
			c-11.1-3.8-20.5-11.7-27.7-21c-12.7-16.6-20.5-37.9-25.8-58c-4.6-17.4-8.9-35.2-8.7-53.4C27.7,82.7,28.3,79,29.5,75.4z"/>
		<path class="st2" d="M176.4,163.8c-0.9,1.1-1.9,2.1-2.8,3.2c-29.3,32.8-55,46.8-76.5,41.6c-1.1-0.3-2.3-0.6-3.4-1
			c-10.1-3.4-17.6-11.1-22-17c-9.8-12.9-17.6-30.5-23.7-53.8c-0.4-1.4-0.7-2.8-1.1-4.1"/>
		<path class="st2" d="M41.9,75c3-13.2,7.8-33,7.8-33c0.2-1,0.9-1.9,1.7-2.4c0.9-0.6,1.9-0.7,2.9-0.5l0.1,0c2.8,0.8,5.6,1.5,8.4,2.2
			c29.3,7.1,57.4-1.7,72.4-6.3l1.3-0.4c0.7-0.2,1.5-0.3,2.3-0.1c0.8,0.2,1.5,0.6,2,1.1l1,1c11.3,11,32.3,31.5,61.6,38.5
			c2.8,0.7,5.7,1.3,8.5,1.9l0.1,0c1,0.2,1.9,0.9,2.4,1.8s0.7,2,0.4,3c0,0-4.8,19.8-8.1,32.9"/>
		<path class="st3" d="M123.6,98.2c22.9,5.5,36.2,31.3,36.2,31.3s-23.7,16.9-46.5,11.4s-36.2-31.3-36.2-31.3S100.7,92.8,123.6,98.2z
			"/>
		<path class="st4" d="M114.7,135.1c-8.6-2.1-13.8-10.7-11.8-19.2c2.1-8.6,10.7-13.8,19.2-11.8c8.6,2.1,13.8,10.7,11.8,19.2
			C131.9,131.9,123.3,137.2,114.7,135.1z"/>
	</g>
</g>
</svg>
