<?xml version="1.0" encoding="utf-8"?>
<!-- Generator: Adobe Illustrator 27.0.0, SVG Export Plug-In . SVG Version: 6.00 Build 0)  -->
<svg version="1.1" id="Layer_1" xmlns="http://www.w3.org/2000/svg" xmlns:xlink="http://www.w3.org/1999/xlink" x="0px" y="0px"
	 viewBox="0 0 241 214" style="enable-background:new 0 0 241 214;" xml:space="preserve">
<style type="text/css">
	.st0{fill:#DBD6C8;}
	.st1{fill:#A17D5D;}
	.st2{fill:#FF0000;}
</style>
<g>
	<path class="st0" d="M105.8,170c29.6,6.7,56.9-2.1,60.9-19.7c4-17.6-16.8-37.4-46.4-44.1c-29.6-6.7-56.9,2.1-60.9,19.7
		C55.4,143.5,76.2,163.3,105.8,170z"/>
	<path class="st1" d="M160.6,203.9l2.6,0.6c0.9,0.2,1.8,0.4,2.7,0.7l1.9,0.4C167.8,205.5,160.4,203.9,160.6,203.9z"/>
	<path class="st2" d="M110.6,149c8.9,2,17.8-3.6,19.9-12.5c2-8.9-3.6-17.8-12.5-19.9c-8.9-2-17.8,3.6-19.9,12.5
		C96,138,101.6,146.9,110.6,149z"/>
	<path class="st1" d="M237.4,47.9c-1.2-1.9-3.2-3.3-5.4-3.8c-0.5-0.1-1.1-0.2-1.7-0.2c-2-0.1-3.9,0.6-5.5,1.8
		c-1.6,1.2-2.7,2.9-3.1,4.9l-10.2,44.8c-0.2,0.9-0.8,1.7-1.6,2.2c-0.8,0.5-1.8,0.7-2.7,0.5c-0.9-0.2-1.7-0.8-2.2-1.6
		s-0.7-1.8-0.5-2.7l6.6-29c0.4-2.2,0-4.5-1.2-6.4c-1.2-1.9-3.1-3.2-5.3-3.7c-2.2-0.5-4.5-0.1-6.4,1.1c-1.9,1.2-3.3,3-3.9,5.2
		l-6.6,29c-0.2,0.9-0.8,1.7-1.6,2.2c-0.8,0.5-1.8,0.7-2.7,0.5l-7-1.6c-0.9-0.2-1.7-0.8-2.2-1.6c-0.5-0.8-0.7-1.8-0.5-2.7l2.6-11.4
		l0,0c0.4-2.2,0-4.5-1.2-6.4c-1.2-1.9-3.1-3.2-5.3-3.7c-2.2-0.5-4.5-0.1-6.4,1c-1.9,1.2-3.3,3.1-3.9,5.2l-4.8,21.2
		c-8-9.8-18.1-17.1-31.1-18.8c-9.8-1.3-19.7,1.1-28.6,5.4L99.9,58c0.4-2.2,0-4.5-1.2-6.4c-1.2-1.9-3.1-3.2-5.3-3.7
		c-2.2-0.5-4.5-0.1-6.4,1c-1.9,1.2-3.3,3-3.9,5.2l0,0l-2.6,11.4c-0.2,0.9-0.8,1.7-1.6,2.2c-0.8,0.5-1.8,0.7-2.7,0.5l-6.9-1.6
		c-0.9-0.2-1.7-0.8-2.2-1.6c-0.5-0.8-0.7-1.8-0.5-2.7l6.6-29c0.4-2.2,0-4.5-1.2-6.4c-1.2-1.9-3.1-3.2-5.3-3.7
		c-2.2-0.5-4.5-0.1-6.4,1.1c-1.9,1.2-3.3,3-3.9,5.2l-6.6,29c-0.2,0.9-0.8,1.7-1.6,2.2c-0.8,0.5-1.8,0.7-2.7,0.4
		c-0.9-0.2-1.7-0.8-2.2-1.6c-0.5-0.8-0.7-1.8-0.5-2.7L53,12.2c0.4-1.9,0.2-4-0.7-5.8s-2.4-3.2-4.2-4c-0.5-0.2-1-0.4-1.6-0.5
		C44.3,1.4,41.9,1.8,40,3c-1.9,1.2-3.3,3.1-3.8,5.3l-2.2,9.7c-2,8.9-4,17.9-5.2,27c-0.9,7.1-0.8,14.9,2.1,21.6
		c3.1,7,9.8,11.8,16.3,15.4c8,4.3,16.5,7.6,25.3,10c0.7,0.2,1.4,0.4,2.2,0.6c-8,6.5-15.3,14-21.8,21.5
		c-10.1,11.6-20.1,23.6-26.9,37.5c-3.7,7.7-5.3,18.1,4.1,22.3c2.8,1.3,6,1.7,9,2.4l5.8,1.3l3.9,0.9c0.9,0.2,1.7,0.4,2.6,0.6
		l116.4,26.5c3,0.5,6.6,0.9,9.5-0.1c0.8-0.3,1.6-0.8,2.3-1.3c0.3-0.2,0.5-0.4,0.8-0.6s0.3-0.3,0.5-0.4c0.5-0.5,0.9-1,1.3-1.5
		c0-0.1,0.1-0.1,0.1-0.2c0.3-0.5,0.7-1,0.9-1.6c0.1-0.2,0.2-0.4,0.3-0.6c0.2-0.4,0.3-0.8,0.5-1.2c1.2-3.2,1.8-6.7,1.8-10.1
		c-0.1-15.5-3.9-30.6-8-45.4c-2.5-9-5.8-19.1-10.3-28.8c0.7,0.1,1.4,0.3,2.1,0.4c8.9,1.7,18,2.4,27.1,1.9c7.4-0.4,15.6-1.8,21.4-6.8
		c5.6-4.8,9.1-11.8,11.3-18.6c2.9-8.7,5-17.6,7-26.6l2.2-9.7C239,52.1,238.6,49.8,237.4,47.9z M109.2,155.1
		C85.3,149.6,71.1,123,71.1,123s24.4-17.9,48.2-12.5c23.8,5.4,38.1,32.1,38.1,32.1S133,160.5,109.2,155.1z"/>
	<path class="st0" d="M73.2,160.5c-0.1,0-0.2,0.1-0.2,0.1l-0.1,0.1c0,0,0,0,0,0.1l-0.1,0.1c0,0-0.1,0.1-0.1,0.1c0,0,0,0,0,0.1l0,0.1
		c-0.1,0.3-0.2,0.7-0.2,1c0.1,1.5,0.3,3,0.8,4.4c0.7,2.6,2.2,6.3,5.3,6.7c1,0.1,2-0.1,2.8-0.6c1.6-0.9,2.9-2,4.1-3.4
		c1-1.1,1.9-2.3,2.6-3.7c0.4-0.8,0.5-1.8-0.4-2.2c-0.3-0.1-0.6-0.2-0.9-0.2l-12.6-2.9C73.8,160.4,73.5,160.4,73.2,160.5L73.2,160.5z
		"/>
	<path class="st0" d="M98.9,166.3c-0.1,0-0.2,0.1-0.2,0.1l-0.1,0.1c0,0,0,0,0,0.1c-0.1,0-0.1,0.1-0.1,0.1l0,0c0,0.1,0,0.1-0.1,0.2
		c0,0,0,0,0,0.1l0,0.1c-0.1,0.3-0.2,0.6-0.2,1c0.1,1.5,0.3,3,0.8,4.4c0.7,2.6,2.2,6.3,5.3,6.7c1,0.1,2-0.1,2.8-0.5
		c1.6-0.9,2.9-2,4.1-3.4c1-1.1,1.9-2.3,2.6-3.7c0.4-0.8,0.5-1.8-0.4-2.2c-0.3-0.1-0.6-0.2-0.9-0.2l-12.6-2.9
		C99.5,166.3,99.2,166.3,98.9,166.3L98.9,166.3z"/>
	<path class="st0" d="M124.6,172.2c-0.1,0-0.1,0.1-0.2,0.1l-0.1,0.1c0,0,0,0,0,0.1c0,0-0.1,0.1-0.1,0.1l0,0c0,0.1,0,0.1-0.1,0.1
		c0,0,0,0.1,0,0.1l0,0.1c-0.1,0.3-0.2,0.7-0.2,1c0.1,1.5,0.3,3,0.8,4.4c0.7,2.6,2.2,6.3,5.3,6.7c1,0.1,2-0.1,2.8-0.5
		c1.6-0.9,2.9-2,4.1-3.4c1-1.1,1.9-2.3,2.6-3.7c0.4-0.8,0.5-1.8-0.4-2.2c-0.3-0.1-0.6-0.2-0.9-0.2l-12.6-2.9
		C125.3,172.1,124.9,172.1,124.6,172.2L124.6,172.2z"/>
</g>
</svg>
