<?xml version="1.0" encoding="utf-8"?>
<!-- Generator: Adobe Illustrator 27.0.0, SVG Export Plug-In . SVG Version: 6.00 Build 0)  -->
<svg version="1.1" id="Layer_1" xmlns="http://www.w3.org/2000/svg" xmlns:xlink="http://www.w3.org/1999/xlink" x="0px" y="0px"
	 viewBox="0 0 306 575" style="enable-background:new 0 0 306 575;" xml:space="preserve">
<style type="text/css">
	.st0{clip-path:url(#SVGID_00000021821364358602915830000015753698673374778283_);}
	.st1{fill:#A17D5D;}
	.st2{fill:#DBD6C8;}
	.st3{fill:#FF0000;}
	.st4{fill:#875F40;}
	.st5{fill:none;stroke:#875F40;stroke-width:5;stroke-miterlimit:10;}
</style>
<g>
	<defs>
		
			<rect id="SVGID_1_" x="-130.2" y="226.7" transform="matrix(0.3381 -0.9411 0.9411 0.3381 -168.8286 333.9505)" width="566.4" height="120.6"/>
	</defs>
	<clipPath id="SVGID_00000064337230888026045730000013820013413931052989_">
		<use xlink:href="#SVGID_1_"  style="overflow:visible;"/>
	</clipPath>
	<g style="clip-path:url(#SVGID_00000064337230888026045730000013820013413931052989_);">
		<path class="st1" d="M57.2,553.5c2.5,0.9,5.1,1.3,7.7,1.1c2.6-0.1,5.2-0.8,7.6-1.9c2.4-1.1,4.5-2.7,6.2-4.6c1.8-1.9,3.1-4.2,4-6.7
			c1.8-5,1.5-10.5-0.7-15.2c-2.2-4.8-6.3-8.5-11.3-10.3c-2.5-0.9-5.1-1.3-7.7-1.2c-2.6,0.1-5.2,0.8-7.6,1.9
			c-2.4,1.1-4.5,2.7-6.2,4.6c-1.8,1.9-3.1,4.2-4,6.7c-0.9,2.5-1.3,5.1-1.2,7.7c0.1,2.6,0.8,5.2,1.9,7.6c1.1,2.4,2.7,4.5,4.6,6.3
			C52.5,551.3,54.8,552.6,57.2,553.5L57.2,553.5z M66.6,527.5c1.9,0.7,3.5,2.1,4.3,3.9c0.9,1.8,1,3.9,0.3,5.8
			c-0.3,0.9-0.9,1.8-1.5,2.6c-0.7,0.8-1.5,1.4-2.4,1.8c-0.9,0.4-1.9,0.7-2.9,0.7c-1,0.1-2-0.1-3-0.4c-0.9-0.3-1.8-0.9-2.6-1.5
			c-0.8-0.7-1.3-1.5-1.8-2.4c-0.4-0.9-0.7-1.9-0.7-2.9c0-1,0.1-2,0.4-3c0.3-0.9,0.9-1.8,1.5-2.6c0.7-0.7,1.5-1.3,2.4-1.8
			c0.9-0.4,1.9-0.7,2.9-0.7C64.6,527.1,65.6,527.2,66.6,527.5L66.6,527.5z"/>
		<path class="st1" d="M63.8,425.3l70,25.2L242.7,98.8l13-57.1c2.3-10-0.6-19-7-21.2c-6.3-2.3-14.3,2.7-18.9,11.9l-26.3,52.4
			L63.8,425.3z"/>
		<path class="st1" d="M81.2,431.6l35.2,12.7l-41.1,85.2l-17.5-6.3L81.2,431.6z"/>
		<path class="st1" d="M52,391.5c-1.3,11.2,0.1,22.5,1.8,33.6c3,20.2,10.4,48.5,33.1,54.4c7.1,1.8,14.7,0.9,21.6-1.5
			c12.2-4.3,23.6-12.7,33.2-21.3c8.3-7.5,16.6-15.3,22.8-24.8c3.4-5.2,5.4-12.6-1-16.5c-2-1.1-4.1-1.9-6.3-2.5l-4.1-1.4l-2.8-1
			c-0.6-0.2-1.2-0.4-1.8-0.7l-81.9-29.4c-2.2-0.6-4.7-1.2-6.9-0.8c-0.6,0.2-1.2,0.4-1.8,0.8c-0.2,0.1-0.4,0.3-0.6,0.4
			c-0.1,0.1-0.3,0.2-0.4,0.3c-0.4,0.3-0.7,0.6-1,1l-0.1,0.1c-0.3,0.3-0.6,0.7-0.8,1l-0.2,0.4c-0.2,0.3-0.3,0.5-0.5,0.8
			C53,386.6,52.2,389,52,391.5L52,391.5z"/>
		<path class="st1" d="M71.6,382.2l-1.8-0.7l-1.9-0.7l-1.3-0.4C66.5,380.5,71.7,382.3,71.6,382.2z"/>
		<path class="st2" d="M95,448.6c16.8,6,36-4.8,36-4.8s-7.9-20.6-24.7-26.6c-16.8-6-36,4.8-36,4.8S78.2,442.6,95,448.6z"/>
		<path class="st1" d="M52,391.5c-1.3,11.2,0.1,22.5,1.8,33.6c3,20.2,10.4,48.5,33.1,54.4c7.1,1.8,14.7,0.9,21.6-1.5
			c12.2-4.3,23.6-12.7,33.2-21.3c8.3-7.5,16.6-15.3,22.8-24.8c3.4-5.2,5.4-12.6-1-16.5c-2-1.1-4.1-1.9-6.3-2.5l-4.1-1.4l-2.8-1
			c-0.6-0.2-1.2-0.4-1.8-0.7l-81.9-29.4c-2.2-0.6-4.7-1.2-6.9-0.8c-0.6,0.2-1.2,0.4-1.8,0.8c-0.2,0.1-0.4,0.3-0.6,0.4
			c-0.1,0.1-0.3,0.2-0.4,0.3c-0.4,0.3-0.7,0.6-1,1l-0.1,0.1c-0.3,0.3-0.6,0.7-0.8,1l-0.2,0.4c-0.2,0.3-0.3,0.5-0.5,0.8
			C53,386.6,52.2,389,52,391.5L52,391.5z M108.2,411.6c20.8,7.5,34.1,23.6,29.7,36c-4.5,12.4-25,16.3-45.8,8.9s-34.1-23.6-29.7-36
			C66.9,408.1,87.4,404.1,108.2,411.6z"/>
		<path class="st1" d="M92.1,456.5c20.8,7.5,41.3,3.5,45.8-8.9c4.4-12.4-8.9-28.5-29.7-36c-20.8-7.5-41.3-3.5-45.8,8.9 M106.2,417.2
			c16.8,6,24.7,26.6,24.7,26.6s-19.2,10.8-36,4.8c-16.8-6-24.7-26.6-24.7-26.6S89.5,411.2,106.2,417.2z"/>
		<path class="st3" d="M104.7,421.5c-6.3-2.3-13.2,1-15.5,7.3c-2.3,6.3,1,13.2,7.3,15.5c6.3,2.3,13.2-1,15.5-7.3
			C114.2,430.7,111,423.8,104.7,421.5z"/>
		<path class="st4" d="M116.5,395.9l0.4,0.2L223.1,91.8L111.4,394L116.5,395.9z"/>
		<path class="st5" d="M147.3,407l-66.2-23.8"/>
	</g>
</g>
</svg>
