<?xml version="1.0" encoding="utf-8"?>
<!-- Generator: Adobe Illustrator 27.0.0, SVG Export Plug-In . SVG Version: 6.00 Build 0)  -->
<svg version="1.1" id="Layer_1" xmlns="http://www.w3.org/2000/svg" xmlns:xlink="http://www.w3.org/1999/xlink" x="0px" y="0px"
	 viewBox="0 0 340 142.9" style="enable-background:new 0 0 340 142.9;" xml:space="preserve">
<style type="text/css">
	.st0{fill:#DBD6C8;}
	.st1{fill:#A17D5D;}
	.st2{fill:#FF0000;}
</style>
<g>
	<ellipse class="st0" cx="169.2" cy="92.8" rx="52.2" ry="35.2"/>
	<path class="st1" d="M339.7,41.2c-1.1-1.8-2.9-3.1-5-3.7c-2.1-0.5-4.3-0.2-6.1,0.9l0,0.1l-66.3,41.1c-0.8,0.5-1.7,0.6-2.6,0.4
		c-0.9-0.2-1.6-0.8-2.1-1.5c-0.5-0.8-0.6-1.7-0.4-2.6c0.2-0.9,0.8-1.6,1.5-2.1l54.7-34c1.8-1.2,3-3,3.5-5.1c0.5-2.1,0.1-4.3-1-6.1
		c-1.1-1.8-2.9-3.1-5-3.7c-2.1-0.5-4.3-0.2-6.2,0.9l-54.7,34c-0.8,0.5-1.7,0.6-2.6,0.4c-0.9-0.2-1.7-0.8-2.1-1.5
		c-0.5-0.8-0.6-1.7-0.4-2.6c0.2-0.9,0.8-1.6,1.5-2.1l43.1-26.8c1.8-1.2,3.1-3,3.5-5.1c0.5-2.1,0.1-4.3-1.1-6.1
		c-1.1-1.8-2.9-3.1-5-3.6c-2.1-0.5-4.3-0.2-6.1,0.9L237.7,40c-0.8,0.5-1.7,0.6-2.6,0.4c-0.9-0.2-1.6-0.8-2.1-1.5s-0.6-1.7-0.4-2.6
		c0.2-0.9,0.8-1.6,1.5-2.1l31.5-19.6c1.6-1,2.8-2.6,3.4-4.4c0.6-1.8,0.6-3.8-0.1-5.6c-0.2-0.5-0.4-1-0.7-1.4c-1.2-1.9-3-3.2-5.1-3.7
		c-2.1-0.5-4.4-0.1-6.2,1l-8.1,5c-9.8,6.1-21.7,15.1-25.9,24.9c-4.2,9.8-3.6,20.7-0.2,31.3c-13.4-20-32.3-39-56.7-36.8
		c-9.9,1.2-19.3,5.3-26.8,11.8c-8.3,6.7-15.4,15.2-21.6,24.3c3.3-10.4,3.8-21.1-0.4-30.7c-4.2-9.8-16.2-18.8-25.9-24.9l-8.1-5
		c-1.9-1.1-4.1-1.5-6.2-1s-4,1.8-5.1,3.7c-0.3,0.5-0.5,0.9-0.7,1.4c-0.7,1.8-0.7,3.8-0.1,5.6c0.6,1.8,1.8,3.4,3.5,4.4l31.5,19.6
		c0.8,0.5,1.3,1.2,1.5,2.1c0.2,0.9,0.1,1.8-0.4,2.6s-1.2,1.3-2.1,1.5c-0.9,0.2-1.8,0.1-2.6-0.4L59.2,13.2c-1.9-1.1-4.1-1.4-6.1-0.9
		c-2.1,0.5-3.9,1.8-5,3.6c-1.1,1.8-1.5,4-1.1,6.1c0.5,2.1,1.7,3.9,3.5,5.1L93.6,54c0.8,0.5,1.3,1.2,1.5,2.1c0.2,0.9,0.1,1.8-0.4,2.6
		s-1.2,1.3-2.1,1.5c-0.9,0.2-1.8,0-2.6-0.4l-54.7-34c-1.9-1.1-4.1-1.4-6.1-0.9c-2.1,0.5-3.9,1.8-5,3.7c-1.1,1.8-1.5,4-1.1,6.1
		c0.5,2.1,1.7,3.9,3.5,5.1l54.7,34c0.8,0.5,1.3,1.2,1.5,2.1c0.2,0.9,0.1,1.8-0.4,2.6c-0.5,0.8-1.2,1.3-2.1,1.5
		c-0.9,0.2-1.8,0-2.6-0.4L11.4,38.5l0-0.1c-1.9-1.1-4.1-1.4-6.1-0.9c-2.1,0.5-3.9,1.8-5,3.7c-1.1,1.8-1.5,4-1.1,6.1
		c0.5,2.1,1.7,3.9,3.5,5.1l53.2,33c0.6,0.3,1.2,0.6,1.8,1l24.7,15.3c1.2,0.8,2.6,1.3,4,1.5c1.4,0.2,2.9,0.2,4.3-0.1
		c1.4-0.3,2.7-0.9,3.9-1.8c0.7-0.5,1.4-1.1,2-1.8c-3.2,7.1-5.9,14.5-7.7,22.1c-1.9,8.2-1.1,18.6,8.8,20.7c3.1,0.4,6.2,0.5,9.2,0.3
		h5.8h4c0.9,0,1.8,0,2.6,0h118c3.2,0,6.4-0.7,9.3-2.2c0.7-0.5,1.4-1.1,1.9-1.8c0.2-0.3,0.4-0.5,0.6-0.8c0.1-0.2,0.3-0.4,0.4-0.5
		c0.3-0.6,0.6-1.1,0.9-1.7v-0.2c0.2-0.6,0.4-1.1,0.6-1.7c0.1-0.2,0.1-0.4,0.2-0.6c0-0.4,0.2-0.8,0.2-1.3c0.5-3.4,0.3-6.9-0.5-10.2
		c-1.8-8-4.7-15.6-8.1-23c0.7,1,1.6,1.9,2.6,2.7c1.2,0.8,2.5,1.4,3.9,1.8c1.4,0.3,2.9,0.4,4.3,0.1c1.4-0.2,2.8-0.8,4-1.5l24.7-15.3
		c0.6-0.4,1.2-0.7,1.8-1l53.2-33c1.8-1.2,3.1-3,3.5-5.1C341.2,45.3,340.9,43.1,339.7,41.2z M169.9,113.8
		c-24.2,0-43.8-22.7-43.8-22.7s19.6-22.7,43.8-22.7c24.2,0,43.8,22.7,43.8,22.7S194.1,113.8,169.9,113.8z"/>
	<path class="st2" d="M169.9,107.6c9.1,0,16.4-7.4,16.4-16.4s-7.3-16.4-16.4-16.4c-9.1,0-16.4,7.4-16.4,16.4
		S160.9,107.6,169.9,107.6z"/>
</g>
</svg>
